<?xml version="1.0" encoding="UTF-8"?>
<svg xmlns="http://www.w3.org/2000/svg" viewBox="0 0 1179 1317.11">
  <g style="isolation: isolate;">
    <g id="layer_base" data-name="layer base">
      <g>
        <ellipse id="shadow" cx="590.7" cy="1066.77" rx="369.56" ry="128.42" style="fill: #574f2a; opacity: .2; stroke: #574f2a; stroke-miterlimit: 10; stroke-width: 18.46px;"/>
        <g id="leaf">
          <path d="M631,212.66s16.54-106.2,181.89-88.82c0,0-18.19,166.77-177.89,101.72" style="fill: #6dbf22; stroke: #3f6e14; stroke-linecap: round; stroke-linejoin: round; stroke-width: 11.35px;"/>
          <path d="M633.97,214.8s-33.47,40.03-24.53,57.51" style="fill: none; stroke: #3f6e14; stroke-miterlimit: 10; stroke-width: 14.75px;"/>
          <path d="M798.05,135.89s-121.34-15.94-154.44,70.37c59.53,23.06,119.23,10.07,154.44-70.37Z" style="fill: #e5f7d4; opacity: .2;"/>
          <path d="M655.23,193.08s41-55.44,115.93-47.03c-11.92,25.03-75.08,58.04-115.93,47.03Z" style="fill: #e5f7d4; opacity: .2;"/>
          <path d="M777.11,149.83c-28.92,4.75-56.68,16.51-81.86,31.31-4.87,2.7-11.77,7.39-16.5,10.44-2.56,1.86-9.36,6.78-11.85,8.59-2.71,2.04-8.67,7-11.39,9.16-.94.72-2.83,2.34-3.7,3.16-2.56,2.31-8.51,7.69-11.12,10.04-7.46,6.27-16.93-4.11-9.89-10.96.11-.1.25-.21.37-.31l7.98-6.31c1.4-1.12,4.65-3.66,5.98-4.72,3.94-2.73,10.6-7.58,14.55-10.22,2.68-1.69,10.09-6.36,12.88-8.11,8.48-4.86,18.05-10.08,26.87-14.16,18.35-8.46,37.52-15.12,57.28-19.27,6.61-1.33,13.17-2.46,20.04-2.98,1.2-.09,2.25.81,2.34,2.01.09,1.2-.81,2.23-1.98,2.34h0Z" style="fill: #3f6e14;"/>
        </g>
        <path d="M385.16,727.71s-35.69,42.99-82.63,17.22c-46.94-25.77-17.03-167.51-105.84-133.91-88.82,33.59-19.33,227.79,75.93,224.57,95.26-3.22,136.68-25.77,136.68-25.77l-24.13-82.11Z" style="fill: #d1a680; stroke: #574f2a; stroke-miterlimit: 10; stroke-width: 17px;"/>
        <path d="M790.57,717.33s32.17,45.69,81.01,23.72c48.84-21.97,30.26-165.63,116.13-125.1,85.87,40.53,1.2,228.61-93.5,217.84-94.7-10.77-134.2-36.53-134.2-36.53l30.57-79.94Z" style="fill: #d1a680; stroke: #574f2a; stroke-miterlimit: 10; stroke-width: 17px;"/>
        <polygon points="805.9 819.87 811.78 743.42 790.39 723.02 779.15 810.02 805.9 819.87" style="fill: #574f2a; opacity: .3; stroke: #574f2a; stroke-miterlimit: 10; stroke-width: 4px;"/>
        <polygon points="370.89 827.18 363.72 750.84 384.75 730.09 397.47 816.87 370.89 827.18" style="fill: #574f2a; opacity: .3; stroke: #574f2a; stroke-miterlimit: 10; stroke-width: 4px;"/>
        <g id="Body">
          <path d="M884.78,1018.45c0,71.13-132.92,129.56-295.64,129.56s-294.72-58.43-294.72-129.56c0-13.81,6.95-29.55,16.74-44.89,23.4-36.67,63.07-71.01,63.07-71.01,85.53-105.69-62.93-287.22-9.68-471.98,53.25-184.76,225.13-175.89,225.13-175.89,0,0,171.87-8.87,225.12,175.89,53.25,184.76-95.2,366.29-9.68,471.98,0,0,36.43,35.66,60.02,70.48,11.29,16.66,19.64,33.14,19.64,45.42Z" style="fill: #d1a680; stroke: #574f2a; stroke-miterlimit: 10; stroke-width: 17px;"/>
          <path d="M806.02,472.47c-51.09-184.76-215.97-175.89-215.97-175.89,0,0-164.89-8.87-215.98,175.89-6.6,23.87-9.97,47.68-11,71.28-1.44-34.49,1.27-69.6,11-104.83,51.09-184.76,215.98-175.89,215.98-175.89,0,0,164.88-8.87,215.97,175.89,9.74,35.23,12.44,70.34,11,104.83-1.04-23.6-4.4-47.41-11-71.28Z" style="fill: #e8c9ae; mix-blend-mode: luminosity; opacity: .4;"/>
          <path d="M798.56,907.18c0,30.36-92.25,57.46-207.91,57.46s-209.44-26.28-209.44-56.63c0,0,6.44-4.31,11.88-19.13,29.4,40.53,116.11,47.78,188.46,49.55,151.78-.95,196.23-31.01,209.16-47.14,4.85,11.51,7.86,15.89,7.86,15.89Z" style="fill: #e8c9ae; opacity: .4;"/>
          <path d="M400.45,794.69c0,28.89,84.57,52.31,188.9,52.31s188.9-23.42,188.9-52.31c0,0,8.26-48.69.75,3.31-7.51,52,19.56,95.36,19.56,95.36,0,31.79-93.09,57.57-207.91,57.57s-207.91-25.77-207.91-57.57c0,0,24.57-24.09,17.96-94.74-6.61-70.66-.24-3.93-.24-3.93Z" style="fill: #c49972; stroke: #574f2a; stroke-miterlimit: 10; stroke-width: 8px;"/>
          <g style="opacity: .4;">
            <line x1="590.7" y1="848.92" x2="590.7" y2="950.94" style="fill: #2b2715; stroke: #574f2a; stroke-miterlimit: 10; stroke-width: 6px;"/>
            <path d="M748.57,825.39s13.26,66.32,26.53,89.43" style="fill: #2b2715; stroke: #574f2a; stroke-miterlimit: 10; stroke-width: 6px;"/>
            <path d="M672.84,843.79s14.55,83.01,22.68,94.56" style="fill: #2b2715; stroke: #574f2a; stroke-miterlimit: 10; stroke-width: 6px;"/>
            <path d="M714.43,833.89s19.16,81.78,29.01,95.05" style="fill: #2b2715; stroke: #574f2a; stroke-miterlimit: 10; stroke-width: 6px;"/>
            <path d="M635.12,845.45s6.48,88.19,9.9,101.03" style="fill: #2b2715; stroke: #574f2a; stroke-miterlimit: 10; stroke-width: 6px;"/>
            <path d="M430.99,825.39s-13.26,66.32-26.53,89.43" style="fill: #2b2715; stroke: #574f2a; stroke-miterlimit: 10; stroke-width: 6px;"/>
            <path d="M506.73,843.79s-14.55,83.01-22.68,94.56" style="fill: #2b2715; stroke: #574f2a; stroke-miterlimit: 10; stroke-width: 6px;"/>
            <path d="M465.13,833.89s-19.16,81.78-29.01,95.05" style="fill: #2b2715; stroke: #574f2a; stroke-miterlimit: 10; stroke-width: 6px;"/>
            <path d="M544.44,845.45s-6.48,88.19-9.9,101.03" style="fill: #2b2715; stroke: #574f2a; stroke-miterlimit: 10; stroke-width: 6px;"/>
          </g>
          <path d="M401.53,811.55s22.21,53.21,188.07,47c165.86-6.21,188.62-39.63,188.62-39.63l-.22-11.52s-55.59,36.6-188.65,39.6c-133.06,2.99-187.82-42.69-187.82-42.69v7.24Z" style="fill: #574f2a; opacity: .3;"/>
        </g>
        <g id="nose">
          <path d="M613.75,638.99c-16.17,10.6-32.34,10.6-48.51,0,2.91-58.89,2.91-117.78,0-176.66,16.17-10.6,32.34-10.6,48.51,0-2.91,58.89-2.91,117.78,0,176.66Z" style="fill: #574f2a; opacity: .3; stroke: #574f2a; stroke-miterlimit: 10; stroke-width: 4px;"/>
          <path d="M613.75,623.32c-16.17,10.6-32.34,10.6-48.51,0,2.91-58.89,2.91-117.78,0-176.66,16.17-10.6,32.34-10.6,48.51,0-2.91,58.89-2.91,117.78,0,176.66Z" style="fill: #c49972; stroke: #574f2a; stroke-linecap: round; stroke-linejoin: round; stroke-width: 8px;"/>
        </g>
        <g id="mouth">
          <path d="M612.18,679.2c0,11.87-9.62,21.49-21.49,21.49s-21.49-9.62-21.49-21.49,9.62-16.73,21.49-16.73,21.49,4.87,21.49,16.73Z" style="fill: #3a2b23; stroke: #574f2a; stroke-miterlimit: 10; stroke-width: 5px;"/>
        </g>
        <g id="r-eye">
          <path d="M526.17,590.97c0,28.77-20.09,52.1-44.87,52.1s-44.87-23.33-44.87-52.1,27.32-52.1,52.1-52.1,37.65,23.33,37.65,52.1Z" style="fill: #3a2b23; stroke: #574f2a; stroke-miterlimit: 10; stroke-width: 5.81px;"/>
        </g>
        <g id="l-eye">
          <path d="M653.69,590.97c0,28.77,20.09,52.1,44.87,52.1s44.87-23.33,44.87-52.1-27.52-52.1-52.31-52.1-37.44,23.33-37.44,52.1Z" style="fill: #3a2b23; stroke: #574f2a; stroke-miterlimit: 10; stroke-width: 5.81px;"/>
        </g>
        <path d="M884.78,1018.45c0,71.13-132.92,129.56-295.64,129.56s-294.72-58.43-294.72-129.56c0-13.81,6.95-29.55,16.74-44.89,3.54,5.94-3.64,12.59-3.64,12.59,0,0-42.53,143.24,280.86,143.24s281.96-144.93,281.96-144.93c0,0-6.99-8.03-5.2-11.43,11.29,16.66,19.64,33.14,19.64,45.42Z" style="fill: #574f2a; opacity: .3; stroke: #574f2a; stroke-miterlimit: 10; stroke-width: 4px;"/>
      </g>
    </g>
  </g>
</svg>