<?xml version="1.0" encoding="UTF-8"?>
<svg id="pause_button" data-name="pause button" xmlns="http://www.w3.org/2000/svg" viewBox="0 0 400 400">
  <g style="opacity: .2;">
    <path d="M198.54,306.67h-4.57c-.97,0-1.76-.72-1.76-1.61v-19.61s.27-.73.27-.87-.27-.38-.27-.38v-2.2c0-.89.79-1.61,1.76-1.61h4.57c.97,0,1.76.72,1.76,1.61v23.06c0,.89-.79,1.61-1.76,1.61Z" style="fill: #fff;"/>
    <path d="M208.76,306.67l-.39-.17-.43.17h-3.75c-.97,0-1.76-.72-1.76-1.61v-23.06c0-.89.79-1.61,1.76-1.61h4.57c.97,0,1.76.72,1.76,1.61v17.85l-.17.98.17,1.35v2.89c0,.89-.79,1.61-1.76,1.61Z" style="fill: #fff;"/>
  </g>
  <g>
    <path d="M198.54,305.81h-4.57c-.97,0-1.76-.72-1.76-1.61v-19.61s.27-.73.27-.87-.27-.38-.27-.38v-2.2c0-.89.79-1.61,1.76-1.61h4.57c.97,0,1.76.72,1.76,1.61v23.06c0,.89-.79,1.61-1.76,1.61Z" style="fill: #223d2d;"/>
    <path d="M208.76,305.81l-.39-.17-.43.17h-3.75c-.97,0-1.76-.72-1.76-1.61v-23.06c0-.89.79-1.61,1.76-1.61h4.57c.97,0,1.76.72,1.76,1.61v17.85l-.17.98.17,1.35v2.89c0,.89-.79,1.61-1.76,1.61Z" style="fill: #223d2d;"/>
  </g>
</svg>