<?xml version="1.0" encoding="UTF-8"?>
<svg id="background" xmlns="http://www.w3.org/2000/svg" xmlns:xlink="http://www.w3.org/1999/xlink" viewBox="0 0 51.88 51.88">
  <defs>
    <linearGradient id="linear-gradient" x1="25.72" y1="33.49" x2="25.72" y2="-3.77" gradientUnits="userSpaceOnUse">
      <stop offset="0" stop-color="#596268"/>
      <stop offset=".71" stop-color="#40454a"/>
    </linearGradient>
    <linearGradient id="linear-gradient-2" x1="23.78" y1="37.77" x2="23.78" y2="14" gradientUnits="userSpaceOnUse">
      <stop offset="0" stop-color="#59c918"/>
      <stop offset="1" stop-color="#a0c918"/>
    </linearGradient>
  </defs>
  <g style="opacity: .2;">
    <path d="M43.74,24.75l-10.6-6.12L10.69,5.67c-1.4-.81-3.16.2-3.16,1.82v31.33s0,2.99,0,2.99l.38,1.43-.38,2.4c0,1.62,1.75,2.63,3.16,1.82l23.48-13.56.76-1.11,1.52-.21,7.29-4.21c1.4-.81,1.4-2.84,0-3.65Z" style="fill: #fff;"/>
  </g>
  <path d="M43.3,23.49l-10.6-6.12L10.25,4.41c-1.4-.81-3.16.2-3.16,1.82v31.33s0,2.99,0,2.99l.38,1.43-.38,2.4c0,1.62,1.75,2.63,3.16,1.82l23.48-13.56.76-1.11,1.52-.21,7.29-4.21c1.4-.81,1.4-2.84,0-3.65Z" style="fill: url(#linear-gradient);"/>
  <path d="M12.98,38h0c-.43,0-.78-.35-.78-.78V12.69c0-.28.15-.53.39-.67.24-.14.53-.14.77,0l21.59,12.32c.24.14.39.39.39.66s-.14.53-.37.67l-17.12,10.46c-.24.15-.54.15-.78.01-.25-.14-.4-.4-.4-.68l.05-14.34c0-.27.14-.51.37-.66.23-.14.51-.15.75-.04l6.82,3.34c.38.19.54.65.36,1.04-.19.39-.66.54-1.04.36l-5.71-2.8-.04,11.72,14.82-9.05L13.76,14.02v23.2c0,.43-.35.78-.78.78Z" style="fill: url(#linear-gradient-2);"/>
</svg>