<?xml version="1.0" encoding="UTF-8"?>
<svg id="foreground-left" xmlns="http://www.w3.org/2000/svg" viewBox="0 0 400 400">
  <g>
    <g>
      <path d="M39.74,243.48s-9.3,20.07-22.79,121.37c-6.95.26-3.86-.67-3.86-.67,0,0,14.4-98.15,22.51-120.27" style="fill: #25322a;"/>
      <path d="M54.85,194.45l3.8-12.7s.45-6.91-6.73,13.56" style="fill: #25322a;"/>
      <path d="M54.31,194.36s-6.48-2.84-11.19,8.08-13.52,41.18-6.42,42.54,12.02-14.29,15.24-26.45c3.22-12.16,8.53-21.63,2.37-24.17Z" style="fill: #25322a;"/>
      <path d="M13.19,367.03s33.35-39.05,45.5-78.22c-7.99,2.4-41.09,54.4-47.87,76.46,0,0,7.13-55.54-12.63-76.93-.84,15.74,7.74,75.58,10.17,80.49,2.56,1.14,2.96.46,4.82-1.8Z" style="fill: #25322a;"/>
    </g>
    <path d="M10.9,236.35s5.59,21.4.89,123.49c6.79,1.48,3.92.02,3.92.02,0,0,3.25-99.15-.82-122.36" style="fill: #25322a;"/>
    <path d="M4.74,185.42l-1.48-13.17s.78-6.88,4.22,14.54" style="fill: #25322a;"/>
    <path d="M5.28,185.42s6.88-1.64,9.58,9.94,6,42.92-1.23,43c-7.23.08-9.3-16.2-10.3-28.74s-4.56-22.8,1.96-24.2Z" style="fill: #25322a;"/>
  </g>
  <path d="M39.66,358.73s.92-7.67,3.38-12.09c-3.42-5.5-1.4-10.71.91-10.89,2.3,2.43,1.27,9.91.39,10.74,5.68-4.03,9.31-1.05,9.96.29-2.65,1.66-8.75,2.68-10.59,1.75-2.12,1.52-2.91,8.35-2.51,11.05" style="fill: #25322a;"/>
  <path d="M4.66,403.45s-15.91-10.5-13.29-17.54c2.28-5.81,21.4,9.59,22.96,15.08-6.16-12-.99-25.08,3.89-25.83,5.44-4.33,6.77,20.18,2.84,26.58,5.5-7.94,25.46-21.35,35.8-19.9-1.12,7.8-17.83,24.35-30.02,23.35" style="fill: #25322a;"/>
  <path d="M77.58,363.55s7.45-2.29,7.23-5.35c-.23-2.54-9.5,1.3-10.75,3.27,3.8-4,3.28-9.73,1.45-10.58-1.64-2.32-4.98,7.14-4.17,10.1-1.24-3.75-7.53-11.31-11.76-11.93-.46,3.19,4.19,11.61,9.09,12.62" style="fill: #25322a;"/>
  <path d="M170.68,396.73s6.86-3.69,6.06-6.66c-.72-2.45-9.07,3.12-9.9,5.3,2.95-4.66,1.32-10.18-.63-10.66-2.06-1.96-3.5,7.97-2.13,10.72-1.95-3.43-9.58-9.63-13.85-9.42.17,3.22,6.37,10.57,11.37,10.61" style="fill: #25322a;"/>
  <g>
    <ellipse cx="97.08" cy="363.1" rx="3.88" ry="13.54" transform="translate(-13.25 3.8) rotate(-2.1)" style="fill: #25322a;"/>
    <ellipse cx="106.52" cy="366.45" rx="13.54" ry="3.88" transform="translate(-239.11 204.66) rotate(-48.71)" style="fill: #25322a;"/>
    <ellipse cx="111.07" cy="375.38" rx="13.54" ry="3.88" transform="translate(-34.29 11.9) rotate(-5.31)" style="fill: #25322a;"/>
  </g>
  <g>
    <ellipse cx="134.33" cy="385.6" rx="4.12" ry="14.38" transform="translate(-181.32 126.57) rotate(-31.42)" style="fill: #25322a;"/>
    <ellipse cx="144.82" cy="383.81" rx="14.38" ry="4.12" transform="translate(-260.68 445.84) rotate(-78.03)" style="fill: #25322a;"/>
    <ellipse cx="153.67" cy="389.7" rx="14.38" ry="4.12" transform="translate(-194.25 156.38) rotate(-34.63)" style="fill: #25322a;"/>
  </g>
  <path d="M187.9,400.89c-4.1-7.12-40.98-4.56-40.98-4.56l8.55-8.38c.59-.58,0-1.56-.79-1.3l-15.21,4.91s8.27-19.2,1.89-13.04c-2.63,10.8-45.56-2.45-53.92-12.09-8.36-9.64-36.02-7.18-36.02-7.18,0,0,4.91-3.84,7.46-11.41-16.03,9.07-31.33,5.23-31.33,5.23l-14.97-.5s-7.49-5.99-11.73-5.83c-4.24.16-7.84-4.56-7.84-4.56l.26,7.06c-2.46-.92-7.79-14.06-8.87-21.49-8.27,5.96-4.75,13.82-4.75,13.82l2.23,60.88,206.02-1.55Z" style="fill: #25322a;"/>
</svg>