<?xml version="1.0" encoding="UTF-8"?>
<svg xmlns="http://www.w3.org/2000/svg" xmlns:xlink="http://www.w3.org/1999/xlink" viewBox="0 0 400 350">
  <defs>
    <radialGradient id="radial-gradient" cx="201.55" cy="255.63" fx="201.55" fy="255.63" r="115.3" gradientUnits="userSpaceOnUse">
      <stop offset="0" stop-color="#b3b9b0"/>
      <stop offset=".25" stop-color="#b3b9b0"/>
      <stop offset=".49" stop-color="#aeb4ac"/>
      <stop offset=".74" stop-color="#a2a8a0"/>
      <stop offset="1" stop-color="#8f948d"/>
    </radialGradient>
  </defs>
  <g style="isolation: isolate;">
    <g id="haniwa">
      <g>
        <g style="opacity: .3;">
          <path d="M285.64,316.49c-17.17,1.83-128.79,1.4-155.76-.02,0,0-16.37-1.33-21.1-4.9-.23-.16-.42-.33-.59-.51-1.26-1.31-1.12-3.09-.04-4.95h0c2.19-3.74,8.25-7.81,14.82-9.22.12-.02.23-.05.36-.07,10.08-2.09,27.02-3.55,41.17-3.74,14.92-.2,56.17.37,72.68.05,11.03-.21,39.18,1.87,52.01,6.41,1.89.67,3.44,1.37,4.56,2.11,8.41,4.75,9.06,13.01-8.11,14.85Z" style="fill: #24523c;"/>
        </g>
        <path d="M279.89,306.21c-16.36,8.33-122.68,6.36-148.37-.08,0,0-15.59-6.06-20.1-22.27-.22-.75-.4-1.52-.56-2.32-1.2-5.98-1.07-14.06-.04-22.53v-.02c2.09-16.97,7.86-35.52,14.12-41.9.11-.11.22-.23.34-.34,9.6-9.52,25.74-16.16,39.22-17.03,14.21-.92,53.5,1.66,69.23.21,10.51-.97,37.33,8.51,49.55,29.14,1.8,3.03,3.28,6.24,4.34,9.61,8.01,21.6,8.63,59.2-7.73,67.53Z" style="fill: url(#radial-gradient); stroke: #596268; stroke-miterlimit: 10; stroke-width: 2px;"/>
        <path d="M272.34,220.22s10.94,8.86-.56,11.65v5.11l-12.87.24s-72.41,10.73-100.94,1.15c-10.67-2.3-7.8-3.2-7.8-3.2l-10.4-9.28-10.09-9.03s18.68-13.38,34.45-13.66c16.69-.29,62.66-17.39,108.21,17.01Z" style="fill: #fff; opacity: .1;"/>
        <path d="M287.78,242.49s3.91,41.85-13.15,55.81c0,0-2.45,3.06-3.57,2.99s-25.97,1.62-25.97,1.62l-18-2.97s-30.23,4.65-50.29,5.68c-20.06,1.03-21.79-12.61-21.79-12.61l-1.64,8.28-17.88-2.06s-22.54-8.4-22.81-39.78c-6.26,2.3-10.54,46.84,44.64,51.04s123.03,1.22,128.67-8.42c7.51-17.5,10.32-44.23,1.79-59.58Z" style="fill: #807d75; opacity: .2;"/>
        <path d="M135.34,227.93s5.45,3.58,7.39,8.56c1.95,4.98,6.71,8.88,6.71,8.88l6.86,2.7-15.95-2.7-6.61,11.2,1.6-16.06-8.44-8.27,1.82-12.02s4.36,5.94,6.62,7.71Z" style="fill: #bfbfbf; opacity: .3;"/>
        <path d="M281.65,241.71l-7.94,6.48-10.69,1.59,12.52,3.72s3.81-9.99,6.11-11.79Z" style="fill: #bfbfbf; opacity: .3;"/>
        <path d="M276.14,288.5s-7.89,2.57-9.41,3.69-8.47,7.43-8.47,7.43l12.87-.51s7.46-8.61,5.01-10.61Z" style="fill: #807d75; opacity: .2;"/>
        <path d="M276.64,282s-4.66,3.13-5.59,3.97-1.18,3.28-1.18,3.28l6.24-2.35.53-4.9Z" style="fill: #807d75; opacity: .2;"/>
      </g>
      <ellipse cx="201.08" cy="208.64" rx="45.4" ry="17.35" style="fill: #807d75; opacity: .2;"/>
      <g>
        <g id="leaf">
          <path d="M207.53,85.64s2.38-15.3,26.21-12.8c0,0-2.62,24.03-25.63,14.66" style="fill: #6dbf22; stroke: #3f6e14; stroke-linecap: round; stroke-linejoin: round; stroke-width: 1.63px;"/>
          <path d="M207.96,85.95s-4.82,5.77-3.53,8.29" style="fill: none; stroke: #3f6e14; stroke-miterlimit: 10; stroke-width: 2.13px;"/>
          <path d="M231.6,74.58s-17.48-2.3-22.25,10.14c8.58,3.32,17.18,1.45,22.25-10.14Z" style="fill: #e5f7d4; opacity: .2;"/>
          <path d="M211.02,82.82s5.91-7.99,16.7-6.78c-1.72,3.61-10.82,8.36-16.7,6.78Z" style="fill: #e5f7d4; opacity: .2;"/>
          <path d="M228.58,76.59c-4.17.68-8.17,2.38-11.79,4.51-.7.39-1.7,1.07-2.38,1.5-.37.27-1.35.98-1.71,1.24-.39.29-1.25,1.01-1.64,1.32-.14.1-.41.34-.53.46-.37.33-1.23,1.11-1.6,1.45-1.08.9-2.44-.59-1.42-1.58.02-.01.04-.03.05-.04l1.15-.91c.2-.16.67-.53.86-.68.57-.39,1.53-1.09,2.1-1.47.39-.24,1.45-.92,1.86-1.17,1.22-.7,2.6-1.45,3.87-2.04,2.64-1.22,5.41-2.18,8.25-2.78.95-.19,1.9-.35,2.89-.43.17-.01.32.12.34.29.01.17-.12.32-.29.34h0Z" style="fill: #3f6e14;"/>
        </g>
        <path d="M172.11,159.85s-5.14,6.19-11.91,2.48c-6.76-3.71-2.45-24.13-15.25-19.29-12.8,4.84-2.78,32.82,10.94,32.36,13.72-.46,19.69-3.71,19.69-3.71l-3.48-11.83Z" style="fill: #d1a680; stroke: #445740; stroke-miterlimit: 10; stroke-width: 2.45px;"/>
        <path d="M230.52,158.36s4.64,6.58,11.67,3.42c7.04-3.16,4.36-23.86,16.73-18.02s.17,32.94-13.47,31.39c-13.64-1.55-19.34-5.26-19.34-5.26l4.4-11.52Z" style="fill: #d1a680; stroke: #445740; stroke-miterlimit: 10; stroke-width: 2.45px;"/>
        <polygon points="232.73 173.13 233.58 162.11 230.49 159.18 228.87 171.71 232.73 173.13" style="fill: #445740; opacity: .3; stroke: #445740; stroke-miterlimit: 10; stroke-width: .58px;"/>
        <polygon points="170.05 174.18 169.02 163.18 172.05 160.19 173.88 172.7 170.05 174.18" style="fill: #445740; opacity: .3; stroke: #445740; stroke-miterlimit: 10; stroke-width: .58px;"/>
        <g id="Body">
          <path d="M244.09,201.74c0,10.25-19.15,18.67-42.59,18.67s-42.46-8.42-42.46-18.67c0-1.99,1-4.26,2.41-6.47,3.37-5.28,9.09-10.23,9.09-10.23,12.32-15.23-9.07-41.38-1.39-68,7.67-26.62,32.44-25.34,32.44-25.34,0,0,24.76-1.28,32.43,25.34,7.67,26.62-13.72,52.77-1.39,68,0,0,5.25,5.14,8.65,10.15,1.63,2.4,2.83,4.77,2.83,6.54Z" style="fill: #d1a680; stroke: #445740; stroke-miterlimit: 10; stroke-width: 2.45px;"/>
          <path d="M232.75,123.08c-7.36-26.62-31.12-25.34-31.12-25.34,0,0-23.76-1.28-31.12,25.34-.95,3.44-1.44,6.87-1.59,10.27-.21-4.97.18-10.03,1.59-15.1,7.36-26.62,31.12-25.34,31.12-25.34,0,0,23.76-1.28,31.12,25.34,1.4,5.08,1.79,10.13,1.59,15.1-.15-3.4-.63-6.83-1.59-10.27Z" style="fill: #e8c9ae; mix-blend-mode: luminosity; opacity: .4;"/>
          <path d="M231.67,185.71c0,4.37-13.29,8.28-29.96,8.28s-30.17-3.79-30.17-8.16c0,0,.93-.62,1.71-2.76,4.24,5.84,16.73,6.88,27.15,7.14,21.87-.14,28.27-4.47,30.14-6.79.7,1.66,1.13,2.29,1.13,2.29Z" style="fill: #e8c9ae; opacity: .4;"/>
          <path d="M174.31,169.5c0,4.16,12.19,7.54,27.22,7.54s27.22-3.37,27.22-7.54c0,0,1.19-7.01.11.48-1.08,7.49,2.82,13.74,2.82,13.74,0,4.58-13.41,8.29-29.96,8.29s-29.96-3.71-29.96-8.29c0,0,3.54-3.47,2.59-13.65-.95-10.18-.03-.57-.03-.57Z" style="fill: #c49672; stroke: #445740; stroke-miterlimit: 10; stroke-width: 1.15px;"/>
          <g style="opacity: .4;">
            <line x1="201.72" y1="177.31" x2="201.72" y2="192.01" style="fill: #2b2715; stroke: #445740; stroke-miterlimit: 10; stroke-width: .86px;"/>
            <path d="M224.47,173.92s1.91,9.56,3.82,12.88" style="fill: #2b2715; stroke: #445740; stroke-miterlimit: 10; stroke-width: .86px;"/>
            <path d="M213.56,176.57s2.1,11.96,3.27,13.62" style="fill: #2b2715; stroke: #445740; stroke-miterlimit: 10; stroke-width: .86px;"/>
            <path d="M219.55,175.15s2.76,11.78,4.18,13.69" style="fill: #2b2715; stroke: #445740; stroke-miterlimit: 10; stroke-width: .86px;"/>
            <path d="M208.12,176.81s.93,12.71,1.43,14.56" style="fill: #2b2715; stroke: #445740; stroke-miterlimit: 10; stroke-width: .86px;"/>
            <path d="M178.71,173.92s-1.91,9.56-3.82,12.88" style="fill: #2b2715; stroke: #445740; stroke-miterlimit: 10; stroke-width: .86px;"/>
            <path d="M189.62,176.57s-2.1,11.96-3.27,13.62" style="fill: #2b2715; stroke: #445740; stroke-miterlimit: 10; stroke-width: .86px;"/>
            <path d="M183.63,175.15s-2.76,11.78-4.18,13.69" style="fill: #2b2715; stroke: #445740; stroke-miterlimit: 10; stroke-width: .86px;"/>
            <path d="M195.06,176.81s-.93,12.71-1.43,14.56" style="fill: #2b2715; stroke: #445740; stroke-miterlimit: 10; stroke-width: .86px;"/>
          </g>
          <path d="M174.47,171.93s3.2,7.67,27.1,6.77c23.9-.89,27.18-5.71,27.18-5.71l-.03-1.66s-8.01,5.27-27.18,5.7c-19.17.43-27.06-6.15-27.06-6.15v1.04Z" style="fill: #445740; opacity: .3;"/>
        </g>
        <g id="nose">
          <path d="M205.04,147.07c-2.33,1.53-4.66,1.53-6.99,0,.42-8.48.42-16.97,0-25.45,2.33-1.53,4.66-1.53,6.99,0-.42,8.48-.42,16.97,0,25.45Z" style="fill: #445740; opacity: .3; stroke: #445740; stroke-miterlimit: 10; stroke-width: .58px;"/>
          <path d="M205.04,144.81c-2.33,1.53-4.66,1.53-6.99,0,.42-8.48.42-16.97,0-25.45,2.33-1.53,4.66-1.53,6.99,0-.42,8.48-.42,16.97,0,25.45Z" style="fill: #c49672; stroke: #445740; stroke-linecap: round; stroke-linejoin: round; stroke-width: 1.15px;"/>
        </g>
        <g id="mouth">
          <path d="M204.82,152.86c0,1.71-1.39,3.1-3.1,3.1s-3.1-1.39-3.1-3.1,1.39-2.41,3.1-2.41,3.1.7,3.1,2.41Z" style="fill: #3a2b23; stroke: #445740; stroke-miterlimit: 10; stroke-width: .72px;"/>
        </g>
        <g id="r-eye">
          <path d="M192.43,140.15c0,4.15-2.89,7.51-6.47,7.51s-6.47-3.36-6.47-7.51,3.94-7.51,7.51-7.51,5.42,3.36,5.42,7.51Z" style="fill: #3a2b23; stroke: #445740; stroke-miterlimit: 10; stroke-width: .84px;"/>
        </g>
        <g id="l-eye">
          <path d="M210.8,140.15c0,4.15,2.89,7.51,6.47,7.51s6.47-3.36,6.47-7.51-3.97-7.51-7.54-7.51-5.39,3.36-5.39,7.51Z" style="fill: #3a2b23; stroke: #445740; stroke-miterlimit: 10; stroke-width: .84px;"/>
        </g>
        <path d="M244.09,201.74c0,10.25-19.15,18.67-42.59,18.67s-42.46-8.42-42.46-18.67c0-1.99,1-4.26,2.41-6.47.51.86-.52,1.81-.52,1.81,0,0-6.13,20.64,40.47,20.64s40.62-20.88,40.62-20.88c0,0-1.01-1.16-.75-1.65,1.63,2.4,2.83,4.77,2.83,6.54Z" style="fill: #445740; opacity: .3; stroke: #445740; stroke-miterlimit: 10; stroke-width: .58px;"/>
      </g>
    </g>
  </g>
</svg>