<?xml version="1.0" encoding="UTF-8"?>
<svg id="background" xmlns="http://www.w3.org/2000/svg" xmlns:xlink="http://www.w3.org/1999/xlink" viewBox="0 0 56.55 56.55">
  <defs>
    <filter id="drop-shadow-2" x="9.1" y="6.85" width="38.42" height="21.24" filterUnits="userSpaceOnUse">
      <feOffset dx="0" dy="3.57"/>
      <feGaussianBlur result="blur" stdDeviation="4.46"/>
      <feFlood flood-color="#000" flood-opacity=".33"/>
      <feComposite in2="blur" operator="in"/>
      <feComposite in="SourceGraphic"/>
    </filter>
    <linearGradient id="linear-gradient" x1="31.03" y1="31.52" x2="31.03" y2="9.67" gradientUnits="userSpaceOnUse">
      <stop offset="0" stop-color="#596268"/>
      <stop offset=".71" stop-color="#40454a"/>
    </linearGradient>
  </defs>
  <path d="M47.95,36.16s-2.45,8.18-4.67,8.86-2.5,1.15-2.5,1.15c0,0-7.37,4.77-14.12,4.21s-15.36-6.29-16.54-11.13c-1.18-4.83,4.7,9.35,18.01,7.74,6.94-1.49,12.4-2.31,12.4-2.31l1.5-.96s4.63-5.52,5.92-7.58Z" style="fill: #fff; opacity: .1;"/>
  <g>
    <g>
      <path d="M48.78,26.62c0,6.43-2.22,12.73-6.86,16.49-.5.41-1.76.24-2.3.59-3.25,2.16-7.15,3.42-11.35,3.42-11.33,0-20.51-9.18-20.51-20.51,0-3.99.41-7.81,2.38-10.96,1.24-1.99,3.55-3.65,5.38-5.1,3.5-2.78,7.93-4.44,12.75-4.44,6.96,0,12.52,2.06,16.16,7.4.3.43.73,2.59,1,3.04,1.8,3.05,3.35,6.26,3.35,10.06Z" style="fill: #b3b9b0; stroke: #596268; stroke-miterlimit: 10; stroke-width: 1.52px;"/>
      <g style="filter: url(#drop-shadow-2);">
        <path d="M47.52,26.06c0,.68-.03,1.36-.08,2.03-.34-2.93-1.61-5.48-3.06-7.93-.25-.43-.66-2.45-.94-2.85-3.41-5.01-8.61-6.94-15.13-6.94-4.51,0-8.66,1.56-11.94,4.16-1.71,1.36-3.87,2.92-5.04,4.78-1.47,2.36-2.02,5.15-2.18,8.07-.04-.44-.05-.88-.05-1.33,0-3.74.39-7.32,2.23-10.27,1.17-1.86,3.33-3.42,5.04-4.79,3.28-2.6,7.43-4.16,11.94-4.16,6.52,0,11.73,1.93,15.13,6.93.28.41.69,2.43.94,2.85,1.69,2.86,3.14,5.86,3.14,9.43Z" style="fill: #fff; opacity: .1;"/>
      </g>
      <g>
        <g style="opacity: .2;">
          <path d="M41.59,26.39l-6.22-3.59-13.16-7.6c-.82-.48-1.85.12-1.85,1.07v18.37s0,1.76,0,1.76l.22.84-.22,1.41c0,.95,1.03,1.54,1.85,1.07l13.77-7.95.44-.65.89-.12,4.28-2.47c.82-.48.82-1.66,0-2.14Z" style="fill: #fff;"/>
        </g>
        <path d="M41.34,25.66l-6.22-3.59-13.16-7.6c-.82-.48-1.85.12-1.85,1.07v18.37s0,1.76,0,1.76l.22.84-.22,1.41c0,.95,1.03,1.54,1.85,1.07l13.77-7.95.44-.65.89-.12,4.28-2.47c.82-.48.82-1.66,0-2.14Z" style="fill: url(#linear-gradient);"/>
      </g>
    </g>
    <path d="M46.96,33.68l-5.8,7.92-2.79.22s-3.07,3.79-11.27,3.63-16.51-9.98-16.51-9.98c0,0,3.46,11.38,16.9,11.83,8.37-1.12,12.27-4.07,12.27-4.07l2.16-.11s6.15-7.31,5.04-9.43Z" style="fill: #807d75; opacity: .3;"/>
  </g>
</svg>