<?xml version="1.0" encoding="UTF-8"?>
<svg id="foreground-right" xmlns="http://www.w3.org/2000/svg" viewBox="0 0 400 400">
  <g>
    <path d="M376.93,236.3s7.99,22.33,12.64,131.77c7.39.94,4.18-.35,4.18-.35,0,0-5.92-106.17-12.45-130.57" style="fill: #223d2d;"/>
    <path d="M365.53,182.5l-2.83-13.92s.18-7.42,5.88,15.13" style="fill: #223d2d;"/>
    <path d="M366.11,182.45s7.19-2.41,11.17,9.7c3.98,12.11,10.47,45.26,2.76,46.03s-11.46-16.42-13.72-29.71c-2.26-13.29-7.02-23.91-.2-26.03Z" style="fill: #223d2d;"/>
  </g>
  <path d="M393.06,356.56s-41.11-52.56-54.69-104.09c10.23,3.56,50.29,72.91,57.86,101.93,0,0-6.15-72.49,20.69-99.15.21,20.47-14.28,97.67-17.7,103.91-3.39,1.33-3.87.43-6.16-2.6Z" style="fill: #223d2d;"/>
  <path d="M398.28,349.63s12.88-13.2,8.95-19.32c-3.35-5.02-18.25,13.48-18.6,18.98,3.35-12.61-4.23-23.91-9-23.62-6.03-2.97-2.24,20.47,2.79,25.7-6.83-6.37-28.46-14.94-37.94-11.43,2.67,7.15,21.87,19.34,33.18,15.88" style="fill: #223d2d;"/>
  <path d="M321.44,365.78s-7.51-.73-7.89-3.68c-.28-2.45,9.26-.6,10.82,1.03-4.37-3.06-4.98-8.59-3.42-9.75,1.1-2.52,6.1,5.81,5.91,8.77.46-3.79,4.96-12.17,8.84-13.58,1.05,2.94-1.74,11.81-6.18,13.72" style="fill: #223d2d;"/>
  <g>
    <ellipse cx="305.11" cy="363.48" rx="13.1" ry="3.75" transform="translate(-68.71 655.83) rotate(-88.02)" style="fill: #223d2d;"/>
    <ellipse cx="295.99" cy="366.74" rx="3.75" ry="13.1" transform="translate(-168.58 287.48) rotate(-41.41)" style="fill: #223d2d;"/>
    <ellipse cx="291.61" cy="375.38" rx="3.75" ry="13.1" transform="translate(-108.64 631.8) rotate(-84.8)" style="fill: #223d2d;"/>
  </g>
  <g>
    <ellipse cx="237.44" cy="392.64" rx="7.38" ry="2.12" transform="translate(-221.41 391.53) rotate(-58.7)" style="fill: #223d2d;"/>
    <ellipse cx="232.06" cy="391.73" rx="2.12" ry="7.38" transform="translate(-76.91 57.31) rotate(-12.09)" style="fill: #223d2d;"/>
    <ellipse cx="227.52" cy="394.77" rx="2.12" ry="7.38" transform="translate(-226.68 358.56) rotate(-55.49)" style="fill: #223d2d;"/>
  </g>
  <path d="M278.74,384.85s-1.54-12.56-5.57-19.78c5.58-9.02,2.25-17.53-1.52-17.83-3.76,3.98-2.04,16.22-.61,17.59-9.32-6.58-15.25-1.68-16.31.51,4.35,2.7,14.33,4.36,17.35,2.82,3.48,2.49,4.79,13.66,4.15,18.08" style="fill: #223d2d;"/>
  <path d="M217.33,400.22c3.95-6.9,39.63-4.49,39.63-4.49l-8.29-8.09c-.57-.56,0-1.51.76-1.26l14.73,4.72s-8.04-18.56-1.85-12.61c2.57,10.45,44.07-2.46,52.14-11.8s34.84-7.02,34.84-7.02c0,0-4.76-3.7-7.24-11.02,15.53,8.75,30.32,5,30.32,5l14.48-.52s7.24-5.81,11.34-5.67c4.1.14,7.58-4.43,7.58-4.43l-.24,6.83c2.38-.89,7.51-13.62,8.54-20.81,8.01,5.75,4.62,13.36,4.62,13.36l-2.04,58.9-199.31-1.09Z" style="fill: #223d2d;"/>
  <path d="M381.86,351.02s-4.47-34.33-38.17-37.04c.78,3.5,28.56,6.51,35.63,36.18-8.37-14.42-22.69-23.79-40.58-15.67,9.49.59,38.88,16.38,38.88,16.38l4.24.15Z" style="fill: #223d2d;"/>
</svg>