<?xml version="1.0" encoding="UTF-8"?>
<svg id="background" xmlns="http://www.w3.org/2000/svg" xmlns:xlink="http://www.w3.org/1999/xlink" viewBox="0 0 400 400">
  <defs>
    <linearGradient id="linear-gradient" x1="188.98" y1="142.79" x2="188.98" y2="192.69" gradientTransform="translate(0 389.64) scale(1 -.85)" gradientUnits="userSpaceOnUse">
      <stop offset="0" stop-color="#20633f"/>
      <stop offset=".98" stop-color="#4ca98c"/>
    </linearGradient>
    <linearGradient id="linear-gradient-2" x1="300.3" y1="94.83" x2="300.3" y2="217.4" gradientTransform="translate(0 389.64) scale(1 -.85)" gradientUnits="userSpaceOnUse">
      <stop offset=".38" stop-color="#1f5d3f"/>
      <stop offset="1" stop-color="#52ab87"/>
    </linearGradient>
    <linearGradient id="linear-gradient-3" x1="336.26" y1="158.14" x2="336.26" y2="140.56" gradientTransform="translate(0 389.64) scale(1 -.85)" gradientUnits="userSpaceOnUse">
      <stop offset="0" stop-color="#428361" stop-opacity="0"/>
      <stop offset="1" stop-color="#428361"/>
    </linearGradient>
    <linearGradient id="linear-gradient-4" x1="299.55" y1="198.36" x2="299.55" y2="175.26" gradientTransform="translate(0 389.64) scale(1 -.85)" gradientUnits="userSpaceOnUse">
      <stop offset="0" stop-color="#428361" stop-opacity="0"/>
      <stop offset="1" stop-color="#1f5d3f"/>
    </linearGradient>
    <linearGradient id="linear-gradient-5" x1="325.82" y1="191.57" x2="325.82" y2="168.46" xlink:href="#linear-gradient-4"/>
    <linearGradient id="linear-gradient-6" x1="344.77" y1="209.92" x2="344.77" y2="186.81" xlink:href="#linear-gradient-4"/>
    <linearGradient id="linear-gradient-7" x1="366.55" y1="171.59" x2="366.55" y2="148.49" xlink:href="#linear-gradient-4"/>
    <linearGradient id="linear-gradient-8" x1="368.16" y1="141.47" x2="368.16" y2="118.37" xlink:href="#linear-gradient-3"/>
    <linearGradient id="linear-gradient-9" x1="376.55" y1="167.02" x2="376.55" y2="138.44" xlink:href="#linear-gradient-3"/>
    <linearGradient id="linear-gradient-10" x1="391.36" y1="151.35" x2="391.36" y2="134.27" xlink:href="#linear-gradient-3"/>
    <linearGradient id="linear-gradient-11" x1="388.98" y1="135.92" x2="388.98" y2="112.82" xlink:href="#linear-gradient-3"/>
    <linearGradient id="linear-gradient-12" x1="377.02" y1="124.09" x2="377.02" y2="111.24" xlink:href="#linear-gradient-3"/>
    <linearGradient id="linear-gradient-13" x1="400.24" y1="119.77" x2="400.24" y2="96.66" xlink:href="#linear-gradient-3"/>
    <linearGradient id="linear-gradient-14" x1="349.49" y1="153.15" x2="349.49" y2="141.81" xlink:href="#linear-gradient-3"/>
    <linearGradient id="linear-gradient-15" x1="356.85" y1="143.91" x2="356.85" y2="132.57" xlink:href="#linear-gradient-3"/>
    <linearGradient id="linear-gradient-16" x1="349.33" y1="181.53" x2="349.33" y2="154.28" xlink:href="#linear-gradient-3"/>
    <linearGradient id="linear-gradient-17" x1="332.2" y1="170.62" x2="332.2" y2="156.82" xlink:href="#linear-gradient-3"/>
    <linearGradient id="linear-gradient-18" x1="361.81" y1="206.55" x2="361.81" y2="183.44" xlink:href="#linear-gradient-4"/>
    <linearGradient id="linear-gradient-19" x1="280.48" y1="208.84" x2="280.48" y2="185.74" xlink:href="#linear-gradient-4"/>
    <linearGradient id="linear-gradient-20" x1="106.2" y1="94.83" x2="106.2" y2="217.4" gradientTransform="translate(0 389.64) scale(1 -.85)" gradientUnits="userSpaceOnUse">
      <stop offset=".38" stop-color="#1f5d3f"/>
      <stop offset="1" stop-color="#52ab87"/>
    </linearGradient>
    <linearGradient id="linear-gradient-21" x1="4632.96" y1="191.52" x2="4632.96" y2="174.87" gradientTransform="translate(4730.46 389.64) rotate(-180) scale(1 .85)" xlink:href="#linear-gradient-4"/>
    <linearGradient id="linear-gradient-22" x1="4659.43" y1="188.49" x2="4659.43" y2="165.38" gradientTransform="translate(3463.94 353.29) rotate(180) scale(.73 .62)" xlink:href="#linear-gradient-4"/>
    <linearGradient id="linear-gradient-23" x1="4636.94" y1="184.87" x2="4636.94" y2="161.76" gradientTransform="translate(3463.94 353.29) rotate(180) scale(.73 .62)" xlink:href="#linear-gradient-4"/>
    <linearGradient id="linear-gradient-24" x1="4678.63" y1="205.49" x2="4678.63" y2="192.66" gradientTransform="translate(4730.46 389.64) rotate(-180) scale(1 .85)" xlink:href="#linear-gradient-4"/>
    <linearGradient id="linear-gradient-25" x1="4670.32" y1="193.83" x2="4670.32" y2="181" gradientTransform="translate(4730.46 389.64) rotate(-180) scale(1 .85)" xlink:href="#linear-gradient-4"/>
    <linearGradient id="linear-gradient-26" x1="4681.94" y1="187" x2="4681.94" y2="174.17" gradientTransform="translate(4730.46 389.64) rotate(-180) scale(1 .85)" xlink:href="#linear-gradient-4"/>
    <linearGradient id="linear-gradient-27" x1="4680.72" y1="177.38" x2="4680.72" y2="154.27" gradientTransform="translate(4730.46 389.64) rotate(-180) scale(1 .85)" xlink:href="#linear-gradient-3"/>
    <linearGradient id="linear-gradient-28" x1="4694.54" y1="202.4" x2="4694.54" y2="179.29" gradientTransform="translate(4730.46 389.64) rotate(-180) scale(1 .85)" xlink:href="#linear-gradient-4"/>
    <linearGradient id="linear-gradient-29" x1="4684.35" y1="206.55" x2="4684.35" y2="183.45" gradientTransform="translate(-4597.06 389.64) scale(1 -.85)" xlink:href="#linear-gradient-4"/>
    <linearGradient id="linear-gradient-30" x1="4621.06" y1="206.55" x2="4621.06" y2="183.44" gradientTransform="translate(4730.46 389.64) rotate(-180) scale(1 .85)" xlink:href="#linear-gradient-4"/>
    <linearGradient id="linear-gradient-31" x1="4607.14" y1="205.8" x2="4607.14" y2="192.35" gradientTransform="translate(4730.46 389.64) rotate(-180) scale(1 .85)" xlink:href="#linear-gradient-4"/>
    <linearGradient id="linear-gradient-32" x1="4639.2" y1="180.02" x2="4639.2" y2="166.56" gradientTransform="translate(4730.46 389.64) rotate(-180) scale(1 .85)" xlink:href="#linear-gradient-4"/>
    <linearGradient id="linear-gradient-33" x1="4663.86" y1="156.99" x2="4663.86" y2="143.54" gradientTransform="translate(4730.46 389.64) rotate(-180) scale(1 .85)" xlink:href="#linear-gradient-3"/>
    <linearGradient id="linear-gradient-34" x1="4595.74" y1="205.52" x2="4595.74" y2="192.07" gradientTransform="translate(4730.46 389.64) rotate(-180) scale(1 .85)" xlink:href="#linear-gradient-4"/>
    <linearGradient id="linear-gradient-35" x1="4696.27" y1="168.03" x2="4696.27" y2="135.74" gradientTransform="translate(4730.46 389.64) rotate(-180) scale(1 .85)" xlink:href="#linear-gradient-3"/>
    <linearGradient id="linear-gradient-36" x1="4690.11" y1="132.79" x2="4690.11" y2="109.69" gradientTransform="translate(4730.46 389.64) rotate(-180) scale(1 .85)" xlink:href="#linear-gradient-3"/>
    <linearGradient id="linear-gradient-37" x1="4676.7" y1="153.57" x2="4676.7" y2="130.46" gradientTransform="translate(4730.46 389.64) rotate(-180) scale(1 .85)" xlink:href="#linear-gradient-3"/>
    <linearGradient id="linear-gradient-38" x1="4722.27" y1="168.33" x2="4722.27" y2="141.36" gradientTransform="translate(4730.46 389.64) rotate(-180) scale(1 .85)" xlink:href="#linear-gradient-3"/>
    <linearGradient id="linear-gradient-39" x1="4724.09" y1="128.21" x2="4724.09" y2="101.24" gradientTransform="translate(4730.46 389.64) rotate(-180) scale(1 .85)" xlink:href="#linear-gradient-3"/>
    <linearGradient id="linear-gradient-40" x1="4708.53" y1="146.63" x2="4708.53" y2="119.67" gradientTransform="translate(3873.36 370.98) rotate(-180) scale(.82 .7)" xlink:href="#linear-gradient-3"/>
    <linearGradient id="linear-gradient-41" x1="4651.06" y1="162.22" x2="4651.06" y2="139.11" gradientTransform="translate(4730.46 389.64) rotate(-180) scale(1 .85)" xlink:href="#linear-gradient-3"/>
    <linearGradient id="linear-gradient-42" x1="313.33" y1="200.83" x2="313.33" y2="192.93" xlink:href="#linear-gradient-4"/>
    <linearGradient id="linear-gradient-43" x1="199.36" y1="199.68" x2="199.36" y2="287.76" gradientUnits="userSpaceOnUse">
      <stop offset="0" stop-color="#43c4c4"/>
      <stop offset="1" stop-color="#117878"/>
    </linearGradient>
    <linearGradient id="linear-gradient-44" x1="198.18" y1="387.03" x2="198.18" y2="272.44" gradientUnits="userSpaceOnUse">
      <stop offset="0" stop-color="#6bba66"/>
      <stop offset="1" stop-color="#3e7d47"/>
    </linearGradient>
    <linearGradient id="linear-gradient-45" x1="188.98" y1="142.79" x2="188.98" y2="192.69" gradientUnits="userSpaceOnUse">
      <stop offset="0" stop-color="#1f5d3f"/>
      <stop offset=".98" stop-color="#449c6f"/>
    </linearGradient>
    <linearGradient id="linear-gradient-46" x1="300.3" y1="94.83" x2="300.3" y2="217.4" gradientUnits="userSpaceOnUse">
      <stop offset=".38" stop-color="#1f5d3f"/>
      <stop offset="1" stop-color="#449c6f"/>
    </linearGradient>
    <linearGradient id="linear-gradient-47" x1="336.26" y1="158.14" x2="336.26" gradientTransform="matrix(1,0,0,1,0,0)" xlink:href="#linear-gradient-3"/>
    <linearGradient id="linear-gradient-48" x1="299.55" x2="299.55" y2="175.26" gradientTransform="matrix(1,0,0,1,0,0)" xlink:href="#linear-gradient-4"/>
    <linearGradient id="linear-gradient-49" x1="325.82" y1="191.57" x2="325.82" y2="168.46" gradientTransform="matrix(1,0,0,1,0,0)" xlink:href="#linear-gradient-4"/>
    <linearGradient id="linear-gradient-50" x1="344.77" y1="209.92" x2="344.77" y2="186.81" gradientTransform="matrix(1,0,0,1,0,0)" xlink:href="#linear-gradient-4"/>
    <linearGradient id="linear-gradient-51" x1="366.54" y1="171.59" x2="366.54" y2="148.49" gradientTransform="matrix(1,0,0,1,0,0)" xlink:href="#linear-gradient-4"/>
    <linearGradient id="linear-gradient-52" x1="368.16" y1="141.47" x2="368.16" y2="118.37" gradientTransform="matrix(1,0,0,1,0,0)" xlink:href="#linear-gradient-3"/>
    <linearGradient id="linear-gradient-53" x1="376.55" y1="167.02" x2="376.55" y2="138.44" gradientTransform="matrix(1,0,0,1,0,0)" xlink:href="#linear-gradient-3"/>
    <linearGradient id="linear-gradient-54" x1="391.36" y1="151.35" x2="391.36" y2="134.27" gradientTransform="matrix(1,0,0,1,0,0)" xlink:href="#linear-gradient-3"/>
    <linearGradient id="linear-gradient-55" x1="388.98" y1="135.92" x2="388.98" y2="112.82" gradientTransform="matrix(1,0,0,1,0,0)" xlink:href="#linear-gradient-3"/>
    <linearGradient id="linear-gradient-56" x1="377.02" y1="124.09" x2="377.02" y2="111.24" gradientTransform="matrix(1,0,0,1,0,0)" xlink:href="#linear-gradient-3"/>
    <linearGradient id="linear-gradient-57" x1="400.24" y1="119.77" x2="400.24" y2="96.66" gradientTransform="matrix(1,0,0,1,0,0)" xlink:href="#linear-gradient-3"/>
    <linearGradient id="linear-gradient-58" x1="349.49" y1="153.15" x2="349.49" y2="141.81" gradientTransform="matrix(1,0,0,1,0,0)" xlink:href="#linear-gradient-3"/>
    <linearGradient id="linear-gradient-59" x1="356.85" y1="143.91" x2="356.85" y2="132.57" gradientTransform="matrix(1,0,0,1,0,0)" xlink:href="#linear-gradient-3"/>
    <linearGradient id="linear-gradient-60" x1="349.33" y1="181.53" x2="349.33" y2="154.28" gradientTransform="matrix(1,0,0,1,0,0)" xlink:href="#linear-gradient-3"/>
    <linearGradient id="linear-gradient-61" x1="332.2" y1="170.62" x2="332.2" y2="156.82" gradientTransform="matrix(1,0,0,1,0,0)" xlink:href="#linear-gradient-3"/>
    <linearGradient id="linear-gradient-62" x1="361.81" y1="206.55" x2="361.81" y2="183.44" gradientTransform="matrix(1,0,0,1,0,0)" xlink:href="#linear-gradient-4"/>
    <linearGradient id="linear-gradient-63" x1="280.48" y1="208.84" x2="280.48" y2="185.74" gradientTransform="matrix(1,0,0,1,0,0)" xlink:href="#linear-gradient-4"/>
    <linearGradient id="linear-gradient-64" x1="106.2" y1="94.83" x2="106.2" y2="217.4" gradientUnits="userSpaceOnUse">
      <stop offset=".38" stop-color="#1f5d3f"/>
      <stop offset="1" stop-color="#449c6f"/>
    </linearGradient>
    <linearGradient id="linear-gradient-65" x1="4632.96" y1="191.52" x2="4632.96" y2="174.87" gradientTransform="translate(4730.46) rotate(-180) scale(1 -1)" xlink:href="#linear-gradient-4"/>
    <linearGradient id="linear-gradient-66" x1="4659.43" y1="188.49" x2="4659.43" y2="165.38" gradientTransform="translate(3463.94 42.7) rotate(-180) scale(.73 -.73)" xlink:href="#linear-gradient-4"/>
    <linearGradient id="linear-gradient-67" x1="4636.94" y1="184.87" x2="4636.94" y2="161.76" gradientTransform="translate(3463.94 42.7) rotate(-180) scale(.73 -.73)" xlink:href="#linear-gradient-4"/>
    <linearGradient id="linear-gradient-68" x1="4678.63" y1="205.49" x2="4678.63" y2="192.66" gradientTransform="translate(4730.46) rotate(-180) scale(1 -1)" xlink:href="#linear-gradient-4"/>
    <linearGradient id="linear-gradient-69" x1="4670.32" y1="193.83" x2="4670.32" y2="181" gradientTransform="translate(4730.46) rotate(-180) scale(1 -1)" xlink:href="#linear-gradient-4"/>
    <linearGradient id="linear-gradient-70" x1="4681.94" y1="187" x2="4681.94" y2="174.17" gradientTransform="translate(4730.46) rotate(-180) scale(1 -1)" xlink:href="#linear-gradient-4"/>
    <linearGradient id="linear-gradient-71" x1="4680.72" y1="177.38" x2="4680.72" y2="154.27" gradientTransform="translate(4730.46) rotate(-180) scale(1 -1)" xlink:href="#linear-gradient-3"/>
    <linearGradient id="linear-gradient-72" x1="4694.54" y1="202.4" x2="4694.54" y2="179.29" gradientTransform="translate(4730.46) rotate(-180) scale(1 -1)" xlink:href="#linear-gradient-4"/>
    <linearGradient id="linear-gradient-73" x1="4684.35" y1="206.55" x2="4684.35" y2="183.45" gradientTransform="translate(-4597.06 0)" xlink:href="#linear-gradient-4"/>
    <linearGradient id="linear-gradient-74" x1="4621.06" y1="206.55" x2="4621.06" y2="183.44" gradientTransform="translate(4730.46) rotate(-180) scale(1 -1)" xlink:href="#linear-gradient-4"/>
    <linearGradient id="linear-gradient-75" x1="4607.14" y1="205.8" x2="4607.14" y2="192.35" gradientTransform="translate(4730.46) rotate(-180) scale(1 -1)" xlink:href="#linear-gradient-4"/>
    <linearGradient id="linear-gradient-76" x1="4639.2" y1="180.02" x2="4639.2" y2="166.56" gradientTransform="translate(4730.46) rotate(-180) scale(1 -1)" xlink:href="#linear-gradient-4"/>
    <linearGradient id="linear-gradient-77" x1="4663.86" y1="156.99" x2="4663.86" y2="143.54" gradientTransform="translate(4730.46) rotate(-180) scale(1 -1)" xlink:href="#linear-gradient-3"/>
    <linearGradient id="linear-gradient-78" x1="4595.74" y1="205.52" x2="4595.74" y2="192.07" gradientTransform="translate(4730.46) rotate(-180) scale(1 -1)" xlink:href="#linear-gradient-4"/>
    <linearGradient id="linear-gradient-79" x1="4696.27" y1="168.03" x2="4696.27" y2="135.74" gradientTransform="translate(4730.46) rotate(-180) scale(1 -1)" xlink:href="#linear-gradient-3"/>
    <linearGradient id="linear-gradient-80" x1="4690.11" y1="132.79" x2="4690.11" y2="109.69" gradientTransform="translate(4730.46) rotate(-180) scale(1 -1)" xlink:href="#linear-gradient-3"/>
    <linearGradient id="linear-gradient-81" x1="4676.7" y1="153.57" x2="4676.7" y2="130.46" gradientTransform="translate(4730.46) rotate(-180) scale(1 -1)" xlink:href="#linear-gradient-3"/>
    <linearGradient id="linear-gradient-82" x1="4722.27" y1="168.33" x2="4722.27" y2="141.36" gradientTransform="translate(4730.46) rotate(-180) scale(1 -1)" xlink:href="#linear-gradient-3"/>
    <linearGradient id="linear-gradient-83" x1="4724.09" y1="128.21" x2="4724.09" y2="101.24" gradientTransform="translate(4730.46) rotate(-180) scale(1 -1)" xlink:href="#linear-gradient-3"/>
    <linearGradient id="linear-gradient-84" x1="4708.53" y1="146.74" x2="4708.53" y2="119.77" gradientTransform="translate(3873.36 21.87) rotate(-180) scale(.82 -.82)" xlink:href="#linear-gradient-3"/>
    <linearGradient id="linear-gradient-85" x1="4651.06" y1="162.22" x2="4651.06" y2="139.11" gradientTransform="translate(4730.46) rotate(-180) scale(1 -1)" xlink:href="#linear-gradient-3"/>
    <linearGradient id="linear-gradient-86" x1="313.33" y1="200.83" x2="313.33" y2="192.93" gradientTransform="matrix(1,0,0,1,0,0)" xlink:href="#linear-gradient-4"/>
    <radialGradient id="radial-gradient" cx="201.55" cy="298.88" fx="201.55" fy="298.88" r="115.3" gradientUnits="userSpaceOnUse">
      <stop offset="0" stop-color="#b3b9b0"/>
      <stop offset=".25" stop-color="#b3b9b0"/>
      <stop offset=".49" stop-color="#aeb4ac"/>
      <stop offset=".74" stop-color="#a2a8a0"/>
      <stop offset="1" stop-color="#8f948d"/>
    </radialGradient>
  </defs>
  <g style="opacity: .5;">
    <path d="M380.33,210.49H-2.37c5.6,11.85,11.91,25.32,12.7,27.55,1.48,4.11,16.19,13.04,17.97,13.86,1.79.83,4.16-.05,6.99-.43,1.3,1.29,6.41,6.21,6.41,6.21l1.53-.63s.64,1.41,1.29,1.3c.64-.12,2.59-.81,3.38-2.52.56,1.25,4.01,5.47,4.01,5.47,0,0,1.68-.79,2.53-1.67,3.19,7.17,3.77,6.41,3.77,6.41,0,0,.74-.11,2.33-.94.31.44,1.49,2.55,4.85,2.83,3.36.28,4.82-2.19,7.27-.72,2.45,1.47,2.82.1,4.08-.17.48.98,2.11.42,2.11.42,0,0,1.5,1.08,2.29,1.03.79-.04,4.49-1.26,4.72-1.09.22.17,1.61,1.96,2.68,2.08,1.06.13,2.94-2.04,2.94-2.04,0,0-.21.8,1.75.61,4.04-1.34,6.96-5.51,6.96-5.51,0,0,3.65,2.61,4.07,2.63.43,0,1.87-1.44,3.3-2.75.68.73,2.9,4.62,3.65,4.54.74-.08,3.33-3.56,3.33-3.56,0,.01,0,.45,1.43.81,1.13-.31,4.04-3.54,6.18-6.5.64.69,4.23,4.63,5.71,3.78,1.49-.84,2.66-4.05,2.66-4.05,0,0,1.26.54,1.81,1.02.43-.19.92-2.38,2.91-4.59.97,2.11,4.81,6.68,5.22,6.69.38-.03,2.15-1.07,2.15-1.07,0,0,.16.98.61,1.57.67-.25,3.57-5.67,3.47-5.3s2.1,2.38,2.1,2.38l1.65-1.21s.64,2.22,1.87,2.21c1.95-.46,4.46-5.15,5.28-5.71.82-.56,2.36-.96,2.41.43.05,1.39,3.6,6.43,3.6,6.43,0,0,2.24-1.99,3.12-2.64.72-.32,3.53-6.75,3.53-6.75,0,0,.82,2.74,2.32,3.28,1.35-.34,5.04-6.01,4.73-4.96-.32,1.05,5.97-3.75,6.3-3.47.32.28.36-1.08,1.16-.55.79.53,2.54-5.09,6.57-2.41,4.04,2.68,4.59.3,5.44.76.85.46,1.14.13,2.31-.43,1.16-.55,1.47-1.03,3.61-.81,2.16.22,2.68-1.27,2.68-1.27,0,0,1.92-1.84,2.54-1.48.61.35,1.22-.49,1.72-.62.5-.13.86-.42,1.39-.49.54-.07.4,1.11.89,1.08.48-.02.74-.63.74-.63,0,0,2.33-.67,2.5-.22.18.45.98,1.18,1.56.99.59-.19,2.11-.65,2.11-.65l.92,1.03c.92,1.02,1.03,1.3,2.03,1.24.99-.07.81-.32,2.86-.96,2.06-.64,3.33.84,3.33.84l1.02,1.8s1.69-.46,3.28-1.28c-.52,1.35,0,3.83,1.23,3.51s3.78-2.64,3.78-2.64c0,0,1.5,2.07,2.3,3.54.98-.4,2.21-1.4,2.21-1.4,0,0,2.58,2.27,3.19,2.2.6-.07,3.8-2.14,3.66-1.71-.13.42,3.51,3.57,3.62,3.83.11.26,4.63-1.43,4.85-.68.22.76,4.3,1.56,4.3,1.56,0,0,2.56-1.65,2.96-1.89-.49.33,3.85,4.95,3.85,4.95,0,0,2.59-1.31,3.2-1.55,0,0,2.35,6.55,3.65,7.43,1.59-.56,4.86-4.16,4.86-4.16,0,0,.42,4.43,1.57,4.28s3.41-3.16,3.27-2.55c-.14.6,2.04,4.3,2.04,4.3l2.24-1.93s1.03,4.16,2.05,4c1.03-.15,4.18-2.69,4.18-2.69,0,0,1.97,6.89,3.71,8.91,1.81-.58,5.23-7.26,5.23-7.26l-.11,3.6,2-2.47s.45,2.18,1.7,3.56c1.04-.52,4.9-4.57,4.9-4.57,0,0,.32,2.44.81,2.91.66-.35,3.64-5.15,3.64-5.15,0,0,.2,1.81.98,1.56.78-.25,2.4-2.65,2.4-2.65,0,0,1.52,5.27,2.26,6.47,1.07-1.24,7.37-8.6,7.37-8.6l1.22,2.47s3.13-4.91,4.73-6.32c.64.01,1.48,2.4,1.48,2.4l2.23-.87,2.52,2.23,1.85-5.03,2.74-.48s1.24,2.11,1.21,3.02c1.04.11,3.9-4.06,3.9-4.06l2.08,4.2s6.19-6.39,7.24-6.38c1.05.02.36,1.01,2.33.87s7.14-2.43,7.14-2.43l9.53-35.57Z" style="fill: url(#linear-gradient); opacity: .5;"/>
    <path d="M403.24,324.68v-114.19h-205.88s7.86,1.52,8.96,2.91c.2.25.56.41,1.01.52,2.08.48,6.2-.33,6.2-.33l2.62-.65s.55,6.79,2.29,10.04c1.53-1.02,4.7-7.44,6.23-8.21,1.42.53,6.12,12.77,6.12,12.77,0,0,3.72-10.88,5.46-14.99,1.75.27,6.33,2.53,6.55,4.2-1.09,1.68,2.62,5.12,2.08,5.68l1.42,5.12s4.04-4,6.45-7.74c1.31-.48,3.49,2.9,3.49,2.9,0,0,2.41-5.2,2.84-6.04,0,0,2.95,9.76,4.05,9.02,1.09-.75,3.06-10.04,4.8-9.39,2.08.65,3.28,5.47,3.28,5.47,0,0-.65-.36-3.28,0,5.25,5.84,10.49,18.51,10.49,18.51l6.89-13.66,5.46,3.07,1.97,4.07s-2.29-.82-3.61-.9c.17,0,4.26,5.66,4.26,5.66,0,0-1.96-.27-4.26-.47,2.51,1.21,6.99,13.86,8.08,14.79.44-2.23,7.21-14.79,7.21-14.79l3.5,3.26s.88-.56,2.84-2.7c1.86,0,13.22,19.61,14.53,21.76-3.28-3.25-9.18-3.35-9.18-3.35l10.05,10.79s-2.18-1.12-4.47-.45c2.18,2.06,8.08,19.05,8.08,19.05l10.57-18.16c.03.21.11.44.24.68.98,1.95,1.97,9.29,1.97,9.29,0,0,2.18-5.2,3.49-6.69,1.2.55,5.79,15.53,5.79,15.53,0,0,1.63-3.25,2.61-6.32.66.28,3.17,9.11,3.17,9.11l2.51-5.57,5.36,7.07-3.83-.84,6.98,8.17c-.19-.15-1.83-1.35-5.12-2.4.11,1.19,7.82,9.92,8.08,10.22-.2-.12-3.55-2.13-5.56-1.94,2.4,2.79,3.38,14.5,5.9,19.06.98-2.79,8.74-14.32,11.8-19.06-1.75-.56-3.72.09-3.72.09,0,0,.11-2.23,3.17-3.7,3.94,1.32,7.97,10.4,7.97,10.4,0,0-1.42-1.21-3.06-1.12,1.96,1.12,5.68,18.78,5.68,18.78,0,0,4.7-8.55,6.23-12.83,1.23,1.4,2.48,5.61,3.22,8.53Z" style="fill: url(#linear-gradient-2);"/>
    <path d="M333.71,270.01s-.41-7.86-3.16-9.07c4.48.17,0-5.89,0-5.89l11.41.52-4.48,4.77,3.67-.09-7.44,9.76Z" style="fill: url(#linear-gradient-3); opacity: .4;"/>
    <path d="M296.2,240.48s-.54-10.32-4.15-11.92c5.89.23,0-7.75,0-7.75l14.99.68-5.89,6.27,4.82-.11-9.77,12.83Z" style="fill: url(#linear-gradient-4); opacity: .4;"/>
    <path d="M322.47,246.26s-.54-10.32-4.15-11.92c5.89.23,0-7.75,0-7.75l14.99.68-5.89,6.27,4.82-.11-9.77,12.83Z" style="fill: url(#linear-gradient-5); opacity: .4;"/>
    <path d="M341.43,230.65s-.54-10.32-4.15-11.92c5.89.23,0-7.75,0-7.75l14.99.68-5.89,6.27,4.82-.11-9.77,12.83Z" style="fill: url(#linear-gradient-6); opacity: .4;"/>
    <path d="M363.2,263.27s-.54-10.32-4.15-11.92c5.89.23,0-7.75,0-7.75l14.99.68-5.89,6.27,4.82-.11-9.77,12.83Z" style="fill: url(#linear-gradient-7); opacity: .4;"/>
    <path d="M364.81,288.9s-.54-10.32-4.15-11.92c5.89.23,0-7.75,0-7.75l14.99.68-5.89,6.27,4.82-.11-9.77,12.83Z" style="fill: url(#linear-gradient-8); opacity: .4;"/>
    <path d="M372.42,271.81s-.66-12.77-5.13-14.74c7.28.28,0-9.58,0-9.58l18.54.85-7.28,7.75,5.96-.14-12.08,15.87Z" style="fill: url(#linear-gradient-9); opacity: .4;"/>
    <path d="M388.89,275.36s-.4-7.63-3.07-8.81c4.35.17,0-5.73,0-5.73l11.08.51-4.35,4.63,3.56-.08-7.22,9.48Z" style="fill: url(#linear-gradient-10); opacity: .4;"/>
    <path d="M385.63,293.62s-.54-10.32-4.15-11.92c5.89.23,0-7.75,0-7.75l14.99.68-5.89,6.27,4.82-.11-9.77,12.83Z" style="fill: url(#linear-gradient-11); opacity: .4;"/>
    <path d="M375.16,294.97s-.3-5.74-2.31-6.63c3.28.13,0-4.31,0-4.31l8.34.38-3.28,3.49,2.68-.06-5.44,7.14Z" style="fill: url(#linear-gradient-12); opacity: .4;"/>
    <path d="M396.9,307.37s-.54-10.32-4.15-11.92c5.89.23,0-7.75,0-7.75l14.99.68-5.89,6.27,4.82-.11-9.77,12.83Z" style="fill: url(#linear-gradient-13); opacity: .4;"/>
    <path d="M347.85,268.95s-.26-5.07-2.04-5.85c2.89.11,0-3.8,0-3.8l7.36.34-2.89,3.08,2.36-.06-4.8,6.3Z" style="fill: url(#linear-gradient-14); opacity: .4;"/>
    <path d="M355.21,276.81s-.26-5.07-2.04-5.85c2.89.11,0-3.8,0-3.8l7.36.34-2.89,3.08,2.36-.06-4.8,6.3Z" style="fill: url(#linear-gradient-15); opacity: .4;"/>
    <path d="M345.39,258.33s-.63-12.18-4.89-14.06c6.95.27,0-9.14,0-9.14l17.68.81-6.95,7.39,5.68-.13-11.52,15.13Z" style="fill: url(#linear-gradient-16); opacity: .4;"/>
    <path d="M330.2,256.17s-.32-6.17-2.48-7.12c3.52.14,0-4.63,0-4.63l8.95.41-3.52,3.74,2.88-.07-5.84,7.66Z" style="fill: url(#linear-gradient-17); opacity: .4;"/>
    <path d="M358.46,233.51s-.54-10.32-4.15-11.92c5.89.23,0-7.75,0-7.75l14.99.68-5.89,6.27,4.82-.11-9.77,12.83Z" style="fill: url(#linear-gradient-18); opacity: .4;"/>
    <path d="M277.14,231.56s-.54-10.32-4.15-11.92c5.89.23,0-7.75,0-7.75l14.99.68-5.89,6.27,4.82-.11-9.77,12.83Z" style="fill: url(#linear-gradient-19); opacity: .4;"/>
    <path d="M217.28,210.49H-4.88v139.94c.06.06.11.1.17.12,2.51-2.42,5.68-29.11,8.74-30.03,2.94,3.62,6.66,7.16,6.66,7.16,0,0,1.96-9.3,3.94-11.53,1.53,4.27,6.23,12.83,6.23,12.83,0,0,3.71-17.66,5.68-18.78-1.64-.1-3.07,1.12-3.07,1.12,0,0,4.05-9.09,7.98-10.4,3.06,1.47,3.16,3.7,3.16,3.7,0,0-1.96-.65-3.71-.09,3.06,4.74,10.82,16.27,11.8,19.06,2.51-4.56,3.49-16.27,5.9-19.06-2.02-.18-5.36,1.83-5.56,1.94.26-.3,7.97-9.03,8.07-10.22-3.28,1.05-4.93,2.25-5.12,2.4l6.98-8.17-3.82.84,5.35-7.07,2.51,5.57s2.52-8.83,3.17-9.11c.98,3.07,2.62,6.32,2.62,6.32,0,0,4.59-14.97,5.79-15.53,1.3,1.49,3.49,6.69,3.49,6.69,0,0,.98-7.34,1.96-9.29.13-.25.21-.48.24-.69l10.57,18.17s5.91-16.99,8.09-19.05c-2.29-.67-4.48.45-4.48.45l10.05-10.79s-5.9.1-9.17,3.35c1.31-2.14,12.67-21.76,14.53-21.76,1.96,2.14,2.84,2.7,2.84,2.7l3.49-3.26s6.78,12.55,7.21,14.79c1.09-.93,5.58-13.57,8.09-14.79-2.29.19-4.27.47-4.27.47,0,0,4.09-5.66,4.27-5.66-1.31.08-3.61.9-3.61.9l1.96-4.07,2.99,3.18,2.48-6.24,6.88,13.66s5.25-12.67,10.49-18.51c-2.62-.36-3.28,0-3.28,0,0,0,1.21-4.82,3.28-5.47,1.75-.65,3.71,8.64,4.8,9.39,1.09.74,4.04-9.02,4.04-9.02.44.84,2.84,6.04,2.84,6.04,0,0,2.19-3.38,3.5-2.9,2.4,3.74,6.45,7.74,6.45,7.74l1.42-5.12c-.55-.56,1.67-4.23,2.08-5.68.22-1.67,4.81-3.93,6.56-4.2,1.75,4.11,5.46,14.99,5.46,14.99,0,0,4.69-12.24,6.12-12.77,1.53.77,4.7,7.19,6.23,8.21,1.75-3.25,2.29-10.04,2.29-10.04l2.62.65s4.14.81,6.21.33c.45-.1.81-.27,1-.52,1.09-1.4,8.96-2.91,8.96-2.91Z" style="fill: url(#linear-gradient-20);"/>
    <g>
      <path d="M99.92,240.81s.39-7.44,2.99-8.59c-4.24.16,0-5.58,0-5.58l-10.81.49,4.24,4.52-3.47-.08,7.04,9.25Z" style="fill: url(#linear-gradient-21); opacity: .4;"/>
      <path d="M70.92,250.76s.39-7.52,3.02-8.69c-4.29.17,0-5.64,0-5.64l-10.92.5,4.29,4.57-3.51-.08,7.12,9.35Z" style="fill: url(#linear-gradient-22); opacity: .7;"/>
      <path d="M87.31,253.01s.39-7.52,3.02-8.69c-4.29.17,0-5.64,0-5.64l-10.92.5,4.29,4.57-3.51-.08,7.12,9.35Z" style="fill: url(#linear-gradient-23); opacity: .7;"/>
      <path d="M53.69,225.67s.3-5.73,2.3-6.62c-3.27.13,0-4.3,0-4.3l-8.32.38,3.27,3.48-2.68-.06,5.43,7.13Z" style="fill: url(#linear-gradient-24); opacity: .4;"/>
      <path d="M62,235.6s.3-5.73,2.3-6.62c-3.27.13,0-4.3,0-4.3l-8.32.38,3.27,3.48-2.68-.06,5.43,7.13Z" style="fill: url(#linear-gradient-25); opacity: .4;"/>
      <path d="M50.38,241.4s.3-5.73,2.3-6.62c-3.27.13,0-4.3,0-4.3l-8.32.38,3.27,3.48-2.68-.06,5.43,7.13Z" style="fill: url(#linear-gradient-26); opacity: .4;"/>
      <path d="M53.09,258.34s.54-10.32,4.15-11.92c-5.89.23,0-7.75,0-7.75l-14.99.68,5.89,6.27-4.82-.11,9.77,12.83Z" style="fill: url(#linear-gradient-27); opacity: .4;"/>
      <path d="M39.27,237.05s.54-10.32,4.15-11.92c-5.89.23,0-7.75,0-7.75l-14.99.68,5.89,6.27-4.82-.11,9.77,12.83Z" style="fill: url(#linear-gradient-28); opacity: .4;"/>
      <path d="M84.05,233.51s-.54-10.32-4.15-11.92c5.89.23,0-7.75,0-7.75l14.99.68-5.89,6.27,4.82-.11-9.77,12.83Z" style="fill: url(#linear-gradient-29); opacity: .4;"/>
      <path d="M112.75,233.51s.54-10.32,4.15-11.92c-5.89.23,0-7.75,0-7.75l-14.99.68,5.89,6.27-4.82-.11,9.77,12.83Z" style="fill: url(#linear-gradient-30); opacity: .4;"/>
      <path d="M125.27,225.93s.31-6.01,2.42-6.94c-3.43.13,0-4.51,0-4.51l-8.73.4,3.43,3.65-2.81-.07,5.69,7.47Z" style="fill: url(#linear-gradient-31); opacity: .4;"/>
      <path d="M93.21,247.88s.31-6.01,2.42-6.94c-3.43.13,0-4.51,0-4.51l-8.73.4,3.43,3.65-2.81-.07,5.69,7.47Z" style="fill: url(#linear-gradient-32); opacity: .5;"/>
      <path d="M68.56,267.47s.31-6.01,2.42-6.94c-3.43.13,0-4.51,0-4.51l-8.73.4,3.43,3.65-2.81-.07,5.69,7.47Z" style="fill: url(#linear-gradient-33); opacity: .4;"/>
      <path d="M136.67,226.18s.31-6.01,2.42-6.94c-3.43.13,0-4.51,0-4.51l-8.73.4,3.43,3.65-2.81-.07,5.69,7.47Z" style="fill: url(#linear-gradient-34); opacity: .4;"/>
      <path d="M38.87,274.11s.75-14.43,5.8-16.66c-8.23.32,0-10.82,0-10.82l-20.95.96,8.23,8.76-6.73-.16,13.65,17.93Z" style="fill: url(#linear-gradient-35); opacity: .4;"/>
      <path d="M43.7,296.29s.54-10.32,4.15-11.92c-5.89.23,0-7.75,0-7.75l-14.99.68,5.89,6.27-4.82-.11,9.77,12.83Z" style="fill: url(#linear-gradient-36); opacity: .4;"/>
      <path d="M57.11,278.61s.54-10.32,4.15-11.92c-5.89.23,0-7.75,0-7.75l-14.99.68,5.89,6.27-4.82-.11,9.77,12.83Z" style="fill: url(#linear-gradient-37); opacity: .4;"/>
      <path d="M12.1,269.33s.62-12.05,4.84-13.91c-6.87.27,0-9.04,0-9.04l-17.49.8,6.87,7.31-5.62-.13,11.4,14.97Z" style="fill: url(#linear-gradient-38); opacity: .4;"/>
      <path d="M10.28,303.47s.62-12.05,4.84-13.91c-6.87.27,0-9.04,0-9.04l-17.49.8,6.87,7.31-5.62-.13,11.4,14.97Z" style="fill: url(#linear-gradient-39); opacity: .4;"/>
      <path d="M26.72,287.7s.51-9.85,3.96-11.37c-5.62.22,0-7.39,0-7.39l-14.3.65,5.62,5.98-4.6-.11,9.32,12.24Z" style="fill: url(#linear-gradient-40); opacity: .4;"/>
      <path d="M82.75,271.24s.54-10.32,4.15-11.92c-5.89.23,0-7.75,0-7.75l-14.99.68,5.89,6.27-4.82-.11,9.77,12.83Z" style="fill: url(#linear-gradient-41); opacity: .4;"/>
    </g>
    <polygon points="309.82 225.44 317.35 219.56 309.31 218.71 309.82 225.44" style="fill: url(#linear-gradient-42); opacity: .4;"/>
  </g>
  <rect x="-4.89" y="210.44" width="408.5" height="199.9" style="fill: url(#linear-gradient-43); opacity: .6;"/>
  <g style="opacity: .4;">
    <path d="M337.25,224.32c-11.41.5-22.84.51-34.24,0,11.41-.51,22.84-.5,34.24,0h0Z" style="fill: #85d4ff;"/>
    <path d="M309.23,217.82c-14.9.49-31.31.5-46.21,0,14.9-.5,31.3-.49,46.21,0h0Z" style="fill: #85d4ff;"/>
    <path d="M284.19,239.02c-11.62.5-23.26.51-34.88,0,11.62-.51,23.26-.5,34.88,0h0Z" style="fill: #85d4ff;"/>
    <path d="M261.17,231.21c-8.52.5-17.07.51-25.6,0,8.52-.51,17.07-.5,25.6,0h0Z" style="fill: #85d4ff;"/>
    <path d="M320.13,235.37c-11.97.5-23.97.51-35.94,0,11.97-.51,23.96-.5,35.94,0h0Z" style="fill: #85d4ff;"/>
    <path d="M338.65,231.21c-8.77.5-17.56.51-26.33,0,8.77-.51,17.56-.5,26.33,0h0Z" style="fill: #85d4ff;"/>
    <path d="M355.91,245.5c-13.32.5-26.65.51-39.97,0,13.32-.51,26.65-.5,39.97,0h0Z" style="fill: #85d4ff;"/>
    <path d="M297.95,251.06c-8.93.5-17.89.51-26.81,0,8.93-.51,17.89-.5,26.81,0h0Z" style="fill: #85d4ff;"/>
    <path d="M394.75,216.65c-13.74.5-27.5.51-41.24,0,13.74-.51,27.5-.5,41.24,0h0Z" style="fill: #85d4ff;"/>
    <path d="M357.09,233.26c-10.36.5-20.74.51-31.1,0,10.36-.51,20.74-.5,31.1,0h0Z" style="fill: #85d4ff;"/>
    <path d="M159.32,221.61c-15.86.49-33.31.5-49.16,0,15.86-.5,33.31-.49,49.16,0h0Z" style="fill: #85d4ff;"/>
    <path d="M110.15,233.26c-15.7.49-32.98.5-48.68,0,15.7-.5,32.98-.49,48.68,0h0Z" style="fill: #85d4ff;"/>
    <path d="M72.53,221.61c-21.19.49-44.97.49-66.16,0,21.19-.49,44.97-.49,66.16,0h0Z" style="fill: #85d4ff;"/>
    <path d="M46.37,244.64c-9.23.5-18.48.51-27.7,0,9.23-.51,18.48-.5,27.7,0h0Z" style="fill: #85d4ff;"/>
    <path d="M44.03,232.62c-4.85.51-9.71.52-14.56,0,4.85-.52,9.71-.51,14.56,0h0Z" style="fill: #85d4ff;"/>
    <path d="M89.41,240.74c-1.83.51-3.67.52-5.5,0,1.83-.52,3.67-.51,5.5,0h0Z" style="fill: #85d4ff;"/>
    <path d="M129.68,244.64c-10.04.5-20.11.51-30.15,0,10.04-.51,20.11-.5,30.15,0h0Z" style="fill: #85d4ff;"/>
    <path d="M109.04,253.75c-11.73.5-23.48.51-35.21,0,11.73-.51,23.48-.5,35.21,0h0Z" style="fill: #85d4ff;"/>
    <path d="M63.63,251.89c-12.36.5-24.74.51-37.11,0,12.36-.51,24.74-.5,37.11,0h0Z" style="fill: #85d4ff;"/>
    <path d="M127.3,214.38c-4.2.51-8.42.52-12.62,0,4.2-.52,8.42-.51,12.62,0h0Z" style="fill: #85d4ff;"/>
  </g>
  <g>
    <g>
      <path d="M47.86,279.15s1.32-11.78.36-14.4c-2.8,2.66-4.48,12.07-3.94,14.38-1.01-7.17-7.24-12.78-8.88-13.94-.25,1.7,5.18,13.2,6.09,13.93-2.06-2.5-7.76-5.74-7.76-5.74,0,0,4.84,5.3,5.69,5.73s4.43,2.63,8.44.03Z" style="fill: #268063;"/>
      <path d="M58.59,264.9s1.13-6.14.83-7.55c-1.35,1.29-2.53,6.17-2.4,7.4-.1-3.81-2.57-7-3.23-7.67-.19.88,1.65,7.14,2.01,7.56-.78-1.39-3.13-3.31-3.13-3.31,0,0,1.87,2.97,2.22,3.23s1.81,1.55,3.7.34Z" style="fill: #3e7d47;"/>
      <path d="M102.19,267.8s3.57-10.86,5.29-12.87c1.04,3.26-1.35,12.14-2.64,14.01,3.51-6.03,10.28-8.99,11.93-9.49-.47,1.59-8.91,10.02-9.86,10.38,2.48-1.55,7.93-2.58,7.93-2.58,0,0-5.62,3.14-6.41,3.24s-4.28.9-6.24-2.7Z" style="fill: #3e7d47;"/>
      <path d="M319.07,265.82s-3.75-5.01-4.11-6.42c1.79.56,5.02,4.42,5.45,5.59-1.6-3.47-.8-7.43-.51-8.33.56.71,1.69,7.15,1.55,7.68.08-1.6,1.34-4.37,1.34-4.37,0,0-.36,3.5-.56,3.89s-.94,2.2-3.17,1.95Z" style="fill: #3e7d47;"/>
      <path d="M297.07,266.32s-1.83-5.3-1.75-6.6c1.37.96,3.07,5.14,3.13,6.26-.42-3.4,1.34-6.57,1.84-7.26.29.76-.5,6.57-.77,6.99.51-1.34,2.33-3.37,2.33-3.37,0,0-1.26,2.9-1.54,3.18s-1.4,1.63-3.23.81Z" style="fill: #3e7d47;"/>
      <path d="M47.11,304.1s6.06-18.42,8.97-21.82c1.77,5.53-2.3,20.58-4.48,23.76,5.95-10.22,17.42-15.24,20.23-16.09-.8,2.69-15.11,17-16.73,17.6,4.21-2.63,13.45-4.38,13.45-4.38,0,0-9.52,5.32-10.87,5.5s-7.25,1.53-10.58-4.57Z" style="fill: #65a890;"/>
      <path d="M34.75,298.24s6.06-18.42,8.97-21.82c1.77,5.53-2.3,20.58-4.48,23.76,5.95-10.22,17.42-15.24,20.23-16.09-.8,2.69-15.11,17-16.73,17.6,4.21-2.63,13.45-4.38,13.45-4.38,0,0-9.52,5.32-10.87,5.5s-7.25,1.53-10.58-4.57Z" style="fill: #3ca880;"/>
      <path d="M42.03,332.17s6.06-18.42,8.97-21.82c1.77,5.53-2.3,20.58-4.48,23.76,5.95-10.22,17.42-15.24,20.23-16.09-.8,2.69-15.11,17-16.73,17.6,4.21-2.63,13.45-4.38,13.45-4.38,0,0-9.52,5.32-10.87,5.5s-7.25,1.53-10.58-4.57Z" style="fill: #65a890;"/>
      <path d="M25.91,307.74s-10.8-16.1-11.7-20.49c5.45,2.01,14.83,14.46,15.99,18.14-4.41-10.98-1.32-23.11-.26-25.85,1.63,2.28,4.12,22.37,3.61,24.01.51-4.93,4.81-13.31,4.81-13.31,0,0-1.66,10.78-2.34,11.95-.68,1.17-3.25,6.66-10.11,5.54Z" style="fill: #65a890;"/>
      <path d="M-.88,264.92s.61-11.14,1.72-13.47c1.81,2.81,1.8,11.78,1.06,13.88,1.78-6.57,7.41-11.08,8.84-11.97-.04,1.61-5.86,11.71-6.67,12.28,1.95-2.09,6.82-4.45,6.82-4.45,0,0-4.5,4.38-5.22,4.68s-3.8,1.93-6.57-.96Z" style="fill: #3e7d47;"/>
    </g>
    <g>
      <path d="M323.01,295.94s2.7-24.13.73-29.48c-5.74,5.45-9.17,24.72-8.07,29.46-2.06-14.69-14.83-26.18-18.19-28.56-.51,3.48,10.6,27.03,12.46,28.53-4.21-5.12-15.88-11.75-15.88-11.75,0,0,9.91,10.86,11.65,11.74,1.74.88,9.06,5.38,17.29.06Z" style="fill: #268063;"/>
      <path d="M355.22,294.63s2.7-24.13.73-29.48c-5.74,5.45-9.17,24.72-8.07,29.46-2.06-14.69-14.83-26.18-18.19-28.56-.51,3.48,10.6,27.03,12.46,28.53-4.21-5.12-15.88-11.75-15.88-11.75,0,0,9.91,10.86,11.65,11.74,1.74.88,9.06,5.38,17.29.06Z" style="fill: #268063;"/>
      <path d="M355.09,290.78s6.06-18.42,8.97-21.82c1.77,5.53-2.3,20.58-4.48,23.76,5.95-10.22,17.42-15.24,20.23-16.09-.8,2.69-15.11,17-16.73,17.6,4.21-2.63,13.45-4.38,13.45-4.38,0,0-9.52,5.32-10.87,5.5s-7.25,1.53-10.58-4.57Z" style="fill: #268063;"/>
    </g>
    <g>
      <path d="M296.51,264.7s.76-6.81.21-8.32c-1.62,1.54-2.59,6.98-2.28,8.31-.58-4.15-4.19-7.39-5.13-8.06-.14.98,2.99,7.63,3.52,8.05-1.19-1.44-4.48-3.32-4.48-3.32,0,0,2.8,3.07,3.29,3.31s2.56,1.52,4.88.02Z" style="fill: #3e7d47;"/>
      <path d="M393.56,285.42s2.7-24.13.73-29.48c-5.74,5.45-9.17,24.72-8.07,29.46-2.06-14.69-14.83-26.18-18.19-28.56-.51,3.48,10.6,27.03,12.46,28.53-4.21-5.12-15.88-11.75-15.88-11.75,0,0,9.91,10.86,11.65,11.74,1.74.88,9.06,5.38,17.29.06Z" style="fill: #3e7d47;"/>
    </g>
  </g>
  <path d="M-4.01,261.25v137.8h404.37v-137.8s-225.9,8.38-404.37,0Z" style="fill: url(#linear-gradient-44);"/>
  <path d="M403.61,268.04v59.16c-.5.32-1.01.62-1.53.91-4.93,2.72-10.53,4-16.12,4.68-23.24,2.84-46.57-4.29-69.98-3.95-18.09.26-35.92,4.97-54,4.86-5.96-.04-12.03-.63-17.5-3s-10.29-6.74-12.08-12.43c-.72-2.3-.92-4.82-.2-7.12,1.36-4.37,5.64-7.11,9.79-9.06,18.27-8.54,39.13-8.82,59.28-9.63,3.63-.15,7.32-.32,10.77-1.47,3.96-1.32,7.39-3.83,10.81-6.23,5.93-4.15,12.1-8.07,18.9-10.56,15.53-5.67,32.36-3.4,48.51-4.48,3.02-.2,8.89-1.9,13.35-1.68Z" style="fill: #6bb74b; opacity: .4;"/>
  <path d="M135.38,281.08c-12.41,12.07-30.02,17.66-47.31,18.5-7.26.35-14.6-.06-21.75,1.26-5.13.94-10.05,2.75-15.09,4.07-9.17,2.41-18.69,3.18-28.14,3.95,4.93,1.72,9.86,3.44,14.78,5.17,2.04.71,4.19,1.49,5.59,3.14,1.4,1.64,1.69,4.45.03,5.82-1.07.88-2.57.95-3.95.97-9.68.13-19.36.27-29.04.41-5.13.07-10.26.15-15.39.18v-50.59h124.25c.92.83,1.85,1.66,2.82,2.44,3.75,3.01,8.45,5.41,13.2,4.68Z" style="fill: #6bb74b; opacity: .4;"/>
  <path d="M81.33,332.19c8.38-1.34,16.76-3.18,25.24-2.96,8.85.23,17.47,2.7,26.22,4.1,18.75,3,38.1,1.05,56.68,4.99,15.29,3.24,30.14,10.44,45.71,9.21,6.27-.49,13.95-1.79,17.64,3.3,1.68,2.33,1.91,5.37,2.08,8.24.29,4.99.25,10.78-3.62,13.95-1.58,1.29-3.58,1.93-5.56,2.41-8.84,2.14-18.07,1.66-27.17,1.69-12.17.04-24.39,1.02-36.49-.32-16.89-1.87-32.99-8.19-49.77-10.89-19.47-3.14-39.39-1.36-58.97,1.03-6.71.82-13.52,1.7-20.19.65-19.32-3.05-33.74-20.23-50.98-28.29,4.55-1.72,9.22-4.35,13.97-5.47,6.06-1.43,12.75.23,18.86.6,15.47.94,31.05.19,46.36-2.25Z" style="fill: #6bb74b; opacity: .4;"/>
  <g style="opacity: .2;">
    <path d="M355.09,317.84c-18.47-3.06-38.69-4.61-55.96.72-5.02,1.55-9.76,3.67-15.2,4.37-4.57.59-9.28.12-13.89-.29-20.12-1.79-41.32-2.41-59.98,2.92-1.24.36-2.54.78-3.25,1.54,14.76,3.07,30.52,2.9,45.93,3.77,18.61,1.05,37.47,3.63,55.79,1.19,6.96-.93,13.72-2.57,20.79-2.95,4.9-.26,9.82.08,14.74-.03,7.11-.16,14.17-1.29,20.61-3.3.97-.3,1.95-.64,2.64-1.17,1.94-1.5.79-4-1.58-5.19-2.37-1.2-5.49-1.45-8.44-1.65" style="fill: #9acc6c;"/>
    <path d="M301.28,348.78c-42.63-1.59-85.41-3.17-128-1.06-9.53.47-19.05,1.13-28.49,2.13,3.69,2.84,9.15,4.45,14.68,5.16s11.23.58,16.86.47c11.24-.22,22.52-.38,33.69.5,5.6.44,11.14,1.15,16.73,1.61,17.61,1.45,35.45.45,53.1-.81,8.55-.61,17.2-1.3,25.2-3.39,1.21-.32,2.57-.81,2.7-1.67.21-1.37-2.83-2.14-2.86-3.51" style="fill: #9acc6c;"/>
    <path d="M349.47,347.92c-9.04-.98-18.32-1.01-27.37-.09-.6.06-1.34.24-1.35.64,0,.31.47.52.89.67,9.62,3.3,21.26,3.86,31.49,1.52.69-.16,1.44-.37,1.71-.82.35-.58-.35-1.25-1.23-1.47s-1.86-.1-2.78,0" style="fill: #9acc6c;"/>
    <path d="M165.14,324.63c-39.23-4.56-79.75.46-119.2-3.17-9.62-.89-19.2-2.29-28.91-2.26-7.32.02-14.63.87-21.54,2.49-.79.19-1.7.48-1.81,1.03-.17.85,1.53,1.21,2.79,1.35,4.45.52,8.28,2.32,12.28,3.73,7.58,2.66,16.06,3.95,24.49,4.94,17.81,2.08,35.94,2.92,54.01,2.5,14.26-.34,28.45-1.46,42.61-2.62,12.59-1.03,25.5-2.16,36.69-6.14" style="fill: #9acc6c;"/>
    <path d="M120.86,313.18c-18.48-2.8-37.3-4.61-56.22-5.39,4.96,5.55,15.62,7.55,25.3,7.68s19.46-1.13,28.99,0" style="fill: #9acc6c;"/>
    <path d="M98.8,352.84c-24.7-.16-49.31,1.67-73.86,3.49-3.57.26-7.14.53-10.71.79-1.8.13-4.12.65-4.02,1.86.04.5.54.92,1.05,1.28,3.12,2.18,7.56,3.25,11.93,4.02,8.57,1.51,17.43,2.13,26.25,2.64,13.2.76,26.44,1.27,39.69,1.55,15.88.33,31.85.3,47.55-1.34.78-.08,1.6-.18,2.19-.54.86-.52.9-1.4.84-2.17-.18-2.42-.73-4.82-1.63-7.16-.29-.75-.63-1.51-1.32-2.13-.81-.72-2.03-1.2-3.28-1.54-3.14-.85-6.6-.97-9.99-1.01-11.87-.16-23.72.44-35.55,1.03" style="fill: #9acc6c;"/>
    <path d="M286.12,368.01c-31.79-3.31-64.36-3.26-96.12.16,5.36,3.12,14.52,1.93,19.47,5.34-3.24,2.04-7.7,3.03-12.13,3.36s-8.9.04-13.35-.15c-6.7-.29-13.42-.36-20.13-.23,4.15,3.02,10.71,3.86,16.81,4.29,12.13.85,24.35.7,36.54.54,14.7-.18,29.39-.37,44.09-.55,1.16-.01,2.59-.15,2.98-.88.53-.99-1.38-1.74-2.91-2-5.13-.89-10.35-1.54-15.62-1.95,4.94-1.1,10.16-1.62,15.36-1.54,9.68.15,19.65,2.34,28.83.28.66-.15,1.39-.37,1.62-.81.17-.33.03-.68-.13-1.01-.94-1.93-2.25-3.78-3.88-5.49" style="fill: #9acc6c;"/>
    <path d="M379.75,302.86c-11.77-1.28-23.73-1.83-35.66-1.63-1.87.03-4.33.45-4.36,1.7,11.27,1.71,22.77,2.76,34.32,3.1,1.88.05,3.79.09,5.6-.27s3.5-1.16,4.16-2.33" style="fill: #9acc6c;"/>
    <path d="M315.79,303.25l-11.76-.78c-1.47-.1-2.96-.19-4.41-.01s-2.88.67-3.64,1.51c-.34.38-.54.85-.31,1.27.25.45.92.72,1.57.93,6.26,2.05,13.62,1.66,20.57,1.22" style="fill: #9acc6c;"/>
    <path d="M35.76,305.02c-.03.17-.23.29-.41.4-5.4,3.14-13.14,3.6-20.3,3.62-6.66.02-13.32-.22-19.94-.72v-6.54c10.2-.03,20.39.2,30.51,1.01,3.25.26,6.57.6,9.44,1.65.35.12.74.32.7.58Z" style="fill: #9acc6c;"/>
    <path d="M19.18,273.27c18.47-1.43,38.69-2.16,55.96.34,5.02.73,9.76,1.72,15.2,2.05,4.57.28,9.28.06,13.89-.13,20.12-.84,41.32-1.13,59.98,1.37,1.24.17,2.54.36,3.25.72-14.76,1.44-30.52,1.36-45.93,1.76-18.61.49-37.47,1.7-55.79.56-6.96-.43-13.72-1.2-20.79-1.38-4.9-.12-9.82.04-14.74-.01-7.11-.07-14.17-.6-20.61-1.54-.97-.14-1.95-.3-2.64-.55-1.94-.7-.79-1.87,1.58-2.43s5.49-.68,8.44-.77" style="fill: #9acc6c;"/>
    <path d="M72.98,287.76c42.63-.74,85.41-1.49,128-.5,9.53.22,19.05.53,28.49,1-3.69,1.33-9.15,2.09-14.68,2.42-5.54.33-11.23.27-16.86.22-11.24-.1-22.52-.18-33.69.24-5.6.21-11.14.54-16.73.75-17.61.68-35.45.21-53.1-.38-8.55-.29-17.2-.61-25.2-1.59-1.21-.15-2.57-.38-2.7-.78-.21-.64,2.83-1,2.86-1.65" style="fill: #9acc6c;"/>
    <path d="M24.8,287.36c9.04-.46,18.32-.48,27.37-.04.6.03,1.34.11,1.35.3,0,.15-.47.25-.89.31-9.62,1.54-21.26,1.81-31.49.71-.69-.07-1.44-.17-1.71-.38-.35-.27.35-.59,1.23-.69s1.86-.05,2.78,0" style="fill: #9acc6c;"/>
    <path d="M209.12,276.45c39.23-2.14,79.75.22,119.2-1.49,9.62-.41,19.2-1.07,28.91-1.06,7.32.01,14.63.41,21.54,1.17.79.09,1.7.22,1.81.48.17.4-1.53.56-2.79.63-4.45.24-8.28,1.09-12.28,1.74-7.58,1.24-16.06,1.85-24.49,2.31-17.81.98-35.94,1.37-54.01,1.17-14.26-.16-28.45-.68-42.61-1.23-12.59-.48-25.5-1.01-36.69-2.88" style="fill: #9acc6c;"/>
    <path d="M253.4,271.09c18.48-1.31,37.3-2.16,56.22-2.53-4.96,2.6-15.62,3.54-25.3,3.6-9.68.06-19.46-.53-28.99,0" style="fill: #9acc6c;"/>
    <path d="M275.46,289.67c24.7-.07,49.31.78,73.86,1.63,3.57.12,7.14.25,10.71.37,1.8.06,4.12.31,4.02.87-.04.23-.54.43-1.05.6-3.12,1.02-7.56,1.52-11.93,1.88-8.57.71-17.42,1-26.25,1.24-13.2.35-26.44.6-39.69.72-15.88.15-31.85.14-47.55-.63-.78-.04-1.6-.08-2.19-.25-.86-.24-.9-.66-.84-1.02.18-1.13.73-2.26,1.63-3.36.29-.35.63-.71,1.32-1,.81-.34,2.03-.56,3.28-.72,3.14-.4,6.6-.45,9.99-.47,11.87-.07,23.72.2,35.55.48" style="fill: #9acc6c;"/>
    <path d="M88.14,296.77c31.79-1.55,64.36-1.52,96.12.07-5.36,1.46-14.52.9-19.47,2.5,3.24.96,7.7,1.42,12.13,1.57s8.9.02,13.35-.07c6.7-.13,13.42-.17,20.13-.11-4.15,1.41-10.71,1.81-16.81,2.01-12.13.4-24.35.33-36.54.25-14.7-.09-29.39-.17-44.09-.26-1.16,0-2.59-.07-2.98-.41-.53-.46,1.38-.81,2.91-.94,5.13-.42,10.35-.72,15.62-.91-4.94-.51-10.16-.76-15.36-.72-9.68.07-19.65,1.1-28.83.13-.66-.07-1.39-.17-1.62-.38-.17-.15-.03-.32.13-.47.94-.9,2.25-1.77,3.88-2.57" style="fill: #9acc6c;"/>
    <path d="M-5.49,266.25c11.77-.6,23.73-.86,35.66-.76,1.87.01,4.33.21,4.36.8-11.27.8-22.77,1.29-34.32,1.45-1.88.03-3.79.04-5.6-.13s-3.5-.54-4.16-1.09l4.06-.26Z" style="fill: #9acc6c;"/>
    <path d="M58.47,266.44c3.92-.12,7.84-.24,11.76-.36,1.47-.05,2.96-.09,4.41,0s2.88.31,3.64.71c.34.18.54.4.31.59-.25.21-.92.34-1.57.44-6.26.96-13.62.78-20.56.57" style="fill: #9acc6c;"/>
    <path d="M401.7,265.9c-17.7-.17-35.48-.33-53.07.33-3.25.12-6.57.28-9.44.77-.35.06-.74.15-.69.27.03.08.22.13.41.18,5.4,1.47,13.13,1.69,20.3,1.7,10.66.01,21.33-.28,31.82-.88,2.2-.13,4.45-.27,6.36-.64s3.46-.99,3.46-1.69" style="fill: #9acc6c;"/>
  </g>
  <g>
    <path d="M380.33,210.49H-2.37c5.6-13.93,11.91-29.75,12.7-32.37,1.48-4.83,16.19-15.32,17.97-16.29,1.79-.97,4.16.06,6.99.5,1.3-1.52,6.41-7.29,6.41-7.29l1.53.74s.64-1.66,1.29-1.53c.64.14,2.59.95,3.38,2.97.56-1.46,4.01-6.43,4.01-6.43,0,0,1.68.93,2.53,1.97,3.19-8.42,3.77-7.53,3.77-7.53,0,0,.74.13,2.33,1.1.31-.51,1.49-2.99,4.85-3.33,3.36-.33,4.82,2.57,7.27.84,2.45-1.72,2.82-.12,4.08.2.48-1.16,2.11-.5,2.11-.5,0,0,1.5-1.27,2.29-1.21.79.05,4.49,1.48,4.72,1.27.22-.2,1.61-2.3,2.68-2.45,1.06-.15,2.94,2.4,2.94,2.4,0,0-.21-.95,1.75-.72,4.04,1.58,6.96,6.47,6.96,6.47,0,0,3.65-3.07,4.07-3.09.43,0,1.87,1.69,3.3,3.23.68-.85,2.9-5.43,3.65-5.34.74.1,3.33,4.18,3.33,4.18,0-.01,0-.52,1.43-.96,1.13.37,4.04,4.16,6.18,7.63.64-.81,4.23-5.44,5.71-4.45,1.49.99,2.66,4.76,2.66,4.76,0,0,1.26-.63,1.81-1.2.43.23.92,2.79,2.91,5.4.97-2.48,4.81-7.85,5.22-7.86.38.03,2.15,1.25,2.15,1.25,0,0,.16-1.16.61-1.85.67.3,3.57,6.66,3.47,6.23s2.1-2.8,2.1-2.8l1.65,1.42s.64-2.61,1.87-2.6c1.95.54,4.46,6.05,5.28,6.71.82.65,2.36,1.13,2.41-.51.05-1.63,3.6-7.56,3.6-7.56,0,0,2.24,2.33,3.12,3.11.72.38,3.53,7.93,3.53,7.93,0,0,.82-3.22,2.32-3.86,1.35.4,5.04,7.06,4.73,5.83-.32-1.23,5.97,4.4,6.3,4.08.32-.33.36,1.27,1.16.65.79-.62,2.54,5.98,6.57,2.83,4.04-3.15,4.59-.35,5.44-.89.85-.54,1.14-.15,2.31.5,1.16.65,1.47,1.21,3.61.95,2.16-.26,2.68,1.49,2.68,1.49,0,0,1.92,2.16,2.54,1.74.61-.41,1.22.58,1.72.72.5.15.86.5,1.39.58.54.08.4-1.3.89-1.27.48.03.74.74.74.74,0,0,2.33.79,2.5.26.18-.52.98-1.39,1.56-1.16.59.22,2.11.77,2.11.77l.92-1.21c.92-1.2,1.03-1.53,2.03-1.46.99.08.81.38,2.86,1.13,2.06.75,3.33-.98,3.33-.98l1.02-2.11s1.69.55,3.28,1.5c-.52-1.59,0-4.5,1.23-4.13s3.78,3.1,3.78,3.1c0,0,1.5-2.43,2.3-4.15.98.47,2.21,1.65,2.21,1.65,0,0,2.58-2.67,3.19-2.59.6.09,3.8,2.51,3.66,2.01-.13-.5,3.51-4.19,3.62-4.5.11-.3,4.63,1.69,4.85.8.22-.9,4.3-1.83,4.3-1.83,0,0,2.56,1.93,2.96,2.22-.49-.39,3.85-5.82,3.85-5.82,0,0,2.59,1.53,3.2,1.82,0,0,2.35-7.7,3.65-8.73,1.59.66,4.86,4.89,4.86,4.89,0,0,.42-5.21,1.57-5.03s3.41,3.71,3.27,3c-.14-.71,2.04-5.05,2.04-5.05l2.24,2.26s1.03-4.89,2.05-4.7c1.03.18,4.18,3.15,4.18,3.15,0,0,1.97-8.09,3.71-10.47,1.81.69,5.23,8.53,5.23,8.53l-.11-4.23,2,2.91s.45-2.56,1.7-4.18c1.04.61,4.9,5.37,4.9,5.37,0,0,.32-2.87.81-3.42.66.41,3.64,6.05,3.64,6.05,0,0,.2-2.13.98-1.83.78.3,2.4,3.11,2.4,3.11,0,0,1.52-6.2,2.26-7.6,1.07,1.46,7.37,10.1,7.37,10.1l1.22-2.9s3.13,5.77,4.73,7.42c.64-.01,1.48-2.82,1.48-2.82l2.23,1.02,2.52-2.62,1.85,5.91,2.74.57s1.24-2.48,1.21-3.55c1.04-.13,3.9,4.77,3.9,4.77l2.08-4.93s6.19,7.5,7.24,7.5c1.05-.03.36-1.19,2.33-1.02s7.14,2.86,7.14,2.86l9.53,41.8Z" style="fill: url(#linear-gradient-45); opacity: .5;"/>
    <path d="M403.24,76.32v134.17h-205.88s7.86-1.78,8.96-3.42c.2-.3.56-.49,1.01-.61,2.08-.56,6.2.39,6.2.39l2.62.76s.55-7.97,2.29-11.8c1.53,1.2,4.7,8.74,6.23,9.64,1.42-.63,6.12-15,6.12-15,0,0,3.72,12.79,5.46,17.62,1.75-.31,6.33-2.97,6.55-4.93-1.09-1.97,2.62-6.01,2.08-6.67l1.42-6.01s4.04,4.7,6.45,9.1c1.31.56,3.49-3.41,3.49-3.41,0,0,2.41,6.12,2.84,7.1,0,0,2.95-11.47,4.05-10.6,1.09.88,3.06,11.8,4.8,11.03,2.08-.76,3.28-6.43,3.28-6.43,0,0-.65.43-3.28,0,5.25-6.86,10.49-21.75,10.49-21.75l6.89,16.05,5.46-3.61,1.97-4.79s-2.29.96-3.61,1.06c.17,0,4.26-6.65,4.26-6.65,0,0-1.96.32-4.26.55,2.51-1.42,6.99-16.28,8.08-17.37.44,2.62,7.21,17.37,7.21,17.37l3.5-3.83s.88.66,2.84,3.17c1.86,0,13.22-23.05,14.53-25.57-3.28,3.82-9.18,3.94-9.18,3.94l10.05-12.67s-2.18,1.31-4.47.53c2.18-2.41,8.08-22.38,8.08-22.38l10.57,21.34c.03-.24.11-.51.24-.8.98-2.29,1.97-10.92,1.97-10.92,0,0,2.18,6.12,3.49,7.86,1.2-.65,5.79-18.24,5.79-18.24,0,0,1.63,3.82,2.61,7.43.66-.33,3.17-10.7,3.17-10.7l2.51,6.55,5.36-8.3-3.83.99,6.98-9.6c-.19.17-1.83,1.59-5.12,2.82.11-1.4,7.82-11.66,8.08-12.01-.2.14-3.55,2.5-5.56,2.28,2.4-3.28,3.38-17.04,5.9-22.4.98,3.28,8.74,16.83,11.8,22.4-1.75.66-3.72-.1-3.72-.1,0,0,.11,2.62,3.17,4.35,3.94-1.55,7.97-12.22,7.97-12.22,0,0-1.42,1.42-3.06,1.31,1.96-1.31,5.68-22.06,5.68-22.06,0,0,4.7,10.05,6.23,15.07,1.23-1.65,2.48-6.59,3.22-10.02Z" style="fill: url(#linear-gradient-46);"/>
    <path d="M333.71,140.56s-.41,9.23-3.16,10.66c4.48-.2,0,6.93,0,6.93l11.41-.61-4.48-5.6,3.67.1-7.44-11.47Z" style="fill: url(#linear-gradient-47); opacity: .4;"/>
    <path d="M296.2,175.26s-.54,12.13-4.15,14c5.89-.27,0,9.1,0,9.1l14.99-.8-5.89-7.36,4.82.13-9.77-15.08Z" style="fill: url(#linear-gradient-48); opacity: .4;"/>
    <path d="M322.47,168.46s-.54,12.13-4.15,14c5.89-.27,0,9.1,0,9.1l14.99-.8-5.89-7.36,4.82.13-9.77-15.08Z" style="fill: url(#linear-gradient-49); opacity: .4;"/>
    <path d="M341.43,186.81s-.54,12.13-4.15,14c5.89-.27,0,9.1,0,9.1l14.99-.8-5.89-7.36,4.82.13-9.77-15.08Z" style="fill: url(#linear-gradient-50); opacity: .4;"/>
    <path d="M363.2,148.49s-.54,12.13-4.15,14c5.89-.27,0,9.1,0,9.1l14.99-.8-5.89-7.36,4.82.13-9.77-15.08Z" style="fill: url(#linear-gradient-51); opacity: .4;"/>
    <path d="M364.81,118.37s-.54,12.13-4.15,14c5.89-.27,0,9.1,0,9.1l14.99-.8-5.89-7.36,4.82.13-9.77-15.08Z" style="fill: url(#linear-gradient-52); opacity: .4;"/>
    <path d="M372.41,138.44s-.66,15-5.13,17.32c7.28-.33,0,11.26,0,11.26l18.54-.99-7.28-9.1,5.96.17-12.08-18.64Z" style="fill: url(#linear-gradient-53); opacity: .4;"/>
    <path d="M388.89,134.27s-.4,8.97-3.07,10.35c4.35-.2,0,6.73,0,6.73l11.08-.59-4.35-5.44,3.56.1-7.22-11.14Z" style="fill: url(#linear-gradient-54); opacity: .4;"/>
    <path d="M385.63,112.82s-.54,12.13-4.15,14c5.89-.27,0,9.1,0,9.1l14.99-.8-5.89-7.36,4.82.13-9.77-15.08Z" style="fill: url(#linear-gradient-55); opacity: .4;"/>
    <path d="M375.16,111.24s-.3,6.75-2.31,7.79c3.28-.15,0,5.06,0,5.06l8.34-.45-3.28-4.1,2.68.07-5.44-8.39Z" style="fill: url(#linear-gradient-56); opacity: .4;"/>
    <path d="M396.9,96.66s-.54,12.13-4.15,14c5.89-.27,0,9.1,0,9.1l14.99-.8-5.89-7.36,4.82.13-9.77-15.08Z" style="fill: url(#linear-gradient-57); opacity: .4;"/>
    <path d="M347.85,141.81s-.26,5.95-2.04,6.87c2.89-.13,0,4.47,0,4.47l7.36-.39-2.89-3.61,2.36.07-4.8-7.4Z" style="fill: url(#linear-gradient-58); opacity: .4;"/>
    <path d="M355.21,132.57s-.26,5.95-2.04,6.87c2.89-.13,0,4.47,0,4.47l7.36-.39-2.89-3.61,2.36.07-4.8-7.4Z" style="fill: url(#linear-gradient-59); opacity: .4;"/>
    <path d="M345.39,154.28s-.63,14.31-4.89,16.52c6.95-.32,0,10.73,0,10.73l17.68-.95-6.95-8.68,5.68.16-11.52-17.78Z" style="fill: url(#linear-gradient-60); opacity: .4;"/>
    <path d="M330.2,156.82s-.32,7.24-2.48,8.36c3.52-.16,0,5.44,0,5.44l8.95-.48-3.52-4.4,2.88.08-5.84-9Z" style="fill: url(#linear-gradient-61); opacity: .4;"/>
    <path d="M358.46,183.44s-.54,12.13-4.15,14c5.89-.27,0,9.1,0,9.1l14.99-.8-5.89-7.36,4.82.13-9.77-15.08Z" style="fill: url(#linear-gradient-62); opacity: .4;"/>
    <path d="M277.14,185.74s-.54,12.13-4.15,14c5.89-.27,0,9.1,0,9.1l14.99-.8-5.89-7.36,4.82.13-9.77-15.08Z" style="fill: url(#linear-gradient-63); opacity: .4;"/>
    <path d="M217.28,210.49H-4.88V46.07c.06-.07.11-.12.17-.14,2.51,2.84,5.68,34.2,8.74,35.29,2.94-4.26,6.66-8.41,6.66-8.41,0,0,1.96,10.93,3.94,13.54,1.53-5.02,6.23-15.07,6.23-15.07,0,0,3.71,20.75,5.68,22.06-1.64.11-3.07-1.31-3.07-1.31,0,0,4.05,10.68,7.98,12.22,3.06-1.73,3.16-4.35,3.16-4.35,0,0-1.96.76-3.71.1,3.06-5.57,10.82-19.11,11.8-22.4,2.51,5.36,3.49,19.12,5.9,22.4-2.02.22-5.36-2.15-5.56-2.28.26.36,7.97,10.62,8.07,12.01-3.28-1.23-4.93-2.65-5.12-2.82l6.98,9.6-3.82-.99,5.35,8.3,2.51-6.55s2.52,10.37,3.17,10.7c.98-3.61,2.62-7.43,2.62-7.43,0,0,4.59,17.59,5.79,18.24,1.3-1.75,3.49-7.86,3.49-7.86,0,0,.98,8.63,1.96,10.92.13.3.21.56.24.81l10.57-21.34s5.91,19.96,8.09,22.38c-2.29.78-4.48-.53-4.48-.53l10.05,12.67s-5.9-.11-9.17-3.94c1.31,2.52,12.67,25.57,14.53,25.57,1.96-2.51,2.84-3.17,2.84-3.17l3.49,3.83s6.78-14.75,7.21-17.37c1.09,1.09,5.58,15.95,8.09,17.37-2.29-.23-4.27-.55-4.27-.55,0,0,4.09,6.65,4.27,6.65-1.31-.1-3.61-1.06-3.61-1.06l1.96,4.79,2.99-3.73,2.48,7.34,6.88-16.05s5.25,14.89,10.49,21.75c-2.62.43-3.28,0-3.28,0,0,0,1.21,5.66,3.28,6.43,1.75.76,3.71-10.16,4.8-11.03,1.09-.87,4.04,10.6,4.04,10.6.44-.98,2.84-7.1,2.84-7.1,0,0,2.19,3.97,3.5,3.41,2.4-4.4,6.45-9.1,6.45-9.1l1.42,6.01c-.55.66,1.67,4.97,2.08,6.67.22,1.96,4.81,4.62,6.56,4.93,1.75-4.83,5.46-17.62,5.46-17.62,0,0,4.69,14.38,6.12,15,1.53-.9,4.7-8.44,6.23-9.64,1.75,3.82,2.29,11.8,2.29,11.8l2.62-.76s4.14-.96,6.21-.39c.45.12.81.31,1,.61,1.09,1.64,8.96,3.42,8.96,3.42Z" style="fill: url(#linear-gradient-64);"/>
    <g>
      <path d="M99.92,174.87s.39,8.74,2.99,10.09c-4.24-.19,0,6.56,0,6.56l-10.81-.58,4.24-5.31-3.47.1,7.04-10.87Z" style="fill: url(#linear-gradient-65); opacity: .4;"/>
      <path d="M70.92,163.18s.39,8.84,3.02,10.21c-4.29-.2,0,6.63,0,6.63l-10.92-.59,4.29-5.36-3.51.1,7.12-10.99Z" style="fill: url(#linear-gradient-66); opacity: .7;"/>
      <path d="M87.31,160.54s.39,8.84,3.02,10.21c-4.29-.2,0,6.63,0,6.63l-10.92-.59,4.29-5.36-3.51.1,7.12-10.99Z" style="fill: url(#linear-gradient-67); opacity: .7;"/>
      <path d="M53.69,192.66s.3,6.74,2.3,7.78c-3.27-.15,0,5.05,0,5.05l-8.32-.45,3.27-4.09-2.68.07,5.43-8.37Z" style="fill: url(#linear-gradient-68); opacity: .4;"/>
      <path d="M62,181s.3,6.74,2.3,7.78c-3.27-.15,0,5.05,0,5.05l-8.32-.45,3.27-4.09-2.68.07,5.43-8.37Z" style="fill: url(#linear-gradient-69); opacity: .4;"/>
      <path d="M50.38,174.17s.3,6.74,2.3,7.78c-3.27-.15,0,5.05,0,5.05l-8.32-.45,3.27-4.09-2.68.07,5.43-8.37Z" style="fill: url(#linear-gradient-70); opacity: .4;"/>
      <path d="M53.09,154.27s.54,12.13,4.15,14c-5.89-.27,0,9.1,0,9.1l-14.99-.8,5.89-7.36-4.82.13,9.77-15.08Z" style="fill: url(#linear-gradient-71); opacity: .4;"/>
      <path d="M39.27,179.29s.54,12.13,4.15,14c-5.89-.27,0,9.1,0,9.1l-14.99-.8,5.89-7.36-4.82.13,9.77-15.08Z" style="fill: url(#linear-gradient-72); opacity: .4;"/>
      <path d="M84.05,183.44s-.54,12.13-4.15,14c5.89-.27,0,9.1,0,9.1l14.99-.8-5.89-7.36,4.82.13-9.77-15.08Z" style="fill: url(#linear-gradient-73); opacity: .4;"/>
      <path d="M112.75,183.44s.54,12.13,4.15,14c-5.89-.27,0,9.1,0,9.1l-14.99-.8,5.89-7.36-4.82.13,9.77-15.08Z" style="fill: url(#linear-gradient-74); opacity: .4;"/>
      <path d="M125.27,192.35s.31,7.06,2.42,8.15c-3.43-.16,0,5.3,0,5.3l-8.73-.47,3.43-4.29-2.81.08,5.69-8.78Z" style="fill: url(#linear-gradient-75); opacity: .4;"/>
      <path d="M93.21,166.56s.31,7.06,2.42,8.15c-3.43-.16,0,5.3,0,5.3l-8.73-.47,3.43-4.29-2.81.08,5.69-8.78Z" style="fill: url(#linear-gradient-76); opacity: .5;"/>
      <path d="M68.56,143.54s.31,7.06,2.42,8.15c-3.43-.16,0,5.3,0,5.3l-8.73-.47,3.43-4.29-2.81.08,5.69-8.78Z" style="fill: url(#linear-gradient-77); opacity: .4;"/>
      <path d="M136.67,192.07s.31,7.06,2.42,8.15c-3.43-.16,0,5.3,0,5.3l-8.73-.47,3.43-4.29-2.81.08,5.69-8.78Z" style="fill: url(#linear-gradient-78); opacity: .4;"/>
      <path d="M38.87,135.74s.75,16.95,5.8,19.57c-8.23-.37,0,12.72,0,12.72l-20.95-1.12,8.23-10.29-6.73.19,13.65-21.07Z" style="fill: url(#linear-gradient-79); opacity: .4;"/>
      <path d="M43.7,109.69s.54,12.13,4.15,14c-5.89-.27,0,9.1,0,9.1l-14.99-.8,5.89-7.36-4.82.13,9.77-15.08Z" style="fill: url(#linear-gradient-80); opacity: .4;"/>
      <path d="M57.11,130.46s.54,12.13,4.15,14c-5.89-.27,0,9.1,0,9.1l-14.99-.8,5.89-7.36-4.82.13,9.77-15.08Z" style="fill: url(#linear-gradient-81); opacity: .4;"/>
      <path d="M12.1,141.36s.62,14.16,4.84,16.34c-6.87-.31,0,10.62,0,10.62l-17.49-.94,6.87-8.59-5.62.16,11.4-17.59Z" style="fill: url(#linear-gradient-82); opacity: .4;"/>
      <path d="M10.28,101.24s.62,14.16,4.84,16.34c-6.87-.31,0,10.62,0,10.62l-17.49-.94,6.87-8.59-5.62.16,11.4-17.59Z" style="fill: url(#linear-gradient-83); opacity: .4;"/>
      <path d="M26.72,119.77s.51,11.58,3.96,13.36c-5.62-.26,0,8.68,0,8.68l-14.3-.77,5.62-7.02-4.6.13,9.32-14.39Z" style="fill: url(#linear-gradient-84); opacity: .4;"/>
      <path d="M82.75,139.11s.54,12.13,4.15,14c-5.89-.27,0,9.1,0,9.1l-14.99-.8,5.89-7.36-4.82.13,9.77-15.08Z" style="fill: url(#linear-gradient-85); opacity: .4;"/>
    </g>
    <polygon points="309.82 192.93 317.35 199.83 309.31 200.83 309.82 192.93" style="fill: url(#linear-gradient-86); opacity: .4;"/>
  </g>
  <ellipse cx="97.61" cy="269.73" rx="3.39" ry=".72" style="fill: #9acc6c; opacity: .7;"/>
  <ellipse cx="47.92" cy="280.36" rx="3.96" ry=".88" style="fill: #9acc6c; opacity: .7;"/>
  <ellipse cx="68.1" cy="295.63" rx="4.13" ry=".93" style="fill: #9acc6c; opacity: .7;"/>
  <ellipse cx="100.99" cy="306.06" rx="4.13" ry=".93" style="fill: #9acc6c; opacity: .7;"/>
  <ellipse cx="55.84" cy="317.97" rx="5.8" ry="1.42" style="fill: #9acc6c; opacity: .7;"/>
  <ellipse cx="176.8" cy="366.71" rx="5.8" ry="1.42" style="fill: #9acc6c; opacity: .7;"/>
  <ellipse cx="241.15" cy="370.76" rx="8.39" ry="1.61" style="fill: #9acc6c; opacity: .7;"/>
  <ellipse cx="84.63" cy="333.23" rx="2.03" ry=".47" style="fill: #9acc6c; opacity: .7;"/>
  <ellipse cx="1.62" cy="279.44" rx="5.78" ry="2.39" style="fill: #9acc6c; opacity: .7;"/>
  <ellipse cx="314.65" cy="277.06" rx="5.76" ry=".63" style="fill: #9acc6c; opacity: .7;"/>
  <ellipse cx="332.63" cy="285.34" rx="7.9" ry="1.45" style="fill: #9acc6c; opacity: .7;"/>
  <ellipse cx="375.73" cy="282.28" rx="4.73" ry=".64" style="fill: #9acc6c; opacity: .7;"/>
  <ellipse cx="330.91" cy="322.42" rx="5.73" ry="1.63" style="fill: #9acc6c; opacity: .7;"/>
  <g>
    <ellipse cx="67.36" cy="331.75" rx="2.8" ry="7.42" style="fill: #518c4f;"/>
    <ellipse cx="73.52" cy="334.17" rx="7.42" ry="2.8" transform="translate(-222.56 162.68) rotate(-47.51)" style="fill: #518c4f;"/>
    <ellipse cx="72.81" cy="337.86" rx="7.42" ry="2.8" transform="translate(-29.32 7.68) rotate(-5.03)" style="fill: #518c4f;"/>
    <ellipse cx="61.15" cy="334.17" rx="2.8" ry="7.42" transform="translate(-209.65 129.05) rotate(-42.49)" style="fill: #518c4f;"/>
    <ellipse cx="60.7" cy="338.31" rx="2.8" ry="7.42" transform="translate(-281.63 369.14) rotate(-84.97)" style="fill: #518c4f;"/>
  </g>
  <g>
    <ellipse cx="329.5" cy="301.69" rx="1.87" ry="4.95" style="fill: #518c4f;"/>
    <ellipse cx="333.6" cy="303.3" rx="4.95" ry="1.87" transform="translate(-115.38 344.45) rotate(-47.51)" style="fill: #518c4f;"/>
    <ellipse cx="333.13" cy="305.76" rx="4.95" ry="1.87" transform="translate(-25.51 30.36) rotate(-5.03)" style="fill: #518c4f;"/>
    <ellipse cx="325.36" cy="303.3" rx="1.87" ry="4.95" transform="translate(-119.42 299.39) rotate(-42.49)" style="fill: #518c4f;"/>
    <ellipse cx="325.06" cy="306.06" rx="1.87" ry="4.95" transform="translate(-8.31 603.05) rotate(-84.97)" style="fill: #518c4f;"/>
  </g>
  <g>
    <ellipse cx="61.63" cy="278.45" rx="1.25" ry="3.32" style="fill: #518c4f;"/>
    <ellipse cx="64.39" cy="279.53" rx="3.32" ry="1.25" transform="translate(-185.24 138.21) rotate(-47.51)" style="fill: #518c4f;"/>
    <ellipse cx="64.07" cy="281.18" rx="3.32" ry="1.25" transform="translate(-24.39 6.7) rotate(-5.03)" style="fill: #518c4f;"/>
    <ellipse cx="58.86" cy="279.53" rx="1.25" ry="3.32" transform="translate(-173.35 113.15) rotate(-42.49)" style="fill: #518c4f;"/>
    <ellipse cx="58.65" cy="281.39" rx="1.25" ry="3.32" transform="translate(-226.79 315.16) rotate(-84.97)" style="fill: #518c4f;"/>
  </g>
  <g>
    <ellipse cx="315.21" cy="339.94" rx="2.6" ry="5.79" style="fill: #518c4f;"/>
    <path d="M322.85,343.3c-2.57,2.36-5.52,3.61-6.58,2.8s.17-3.39,2.74-5.75,5.52-3.61,6.58-2.8-.17,3.39-2.74,5.75Z" style="fill: #518c4f;"/>
    <ellipse cx="320.27" cy="344.71" rx="6.89" ry="2.19" transform="translate(-23.44 23.37) rotate(-4.03)" style="fill: #518c4f;"/>
    <path d="M307.53,343.3c2.57,2.36,5.52,3.61,6.58,2.8,1.06-.82-.17-3.39-2.74-5.75-2.57-2.36-5.52-3.61-6.58-2.8s.17,3.39,2.74,5.75Z" style="fill: #518c4f;"/>
    <ellipse cx="309.02" cy="345.06" rx="2.19" ry="6.89" transform="translate(-56.91 629.06) rotate(-85.97)" style="fill: #518c4f;"/>
  </g>
  <g>
    <g style="opacity: .3;">
      <path d="M285.64,359.74c-17.17,1.83-128.79,1.4-155.76-.02,0,0-16.37-1.33-21.1-4.9-.23-.16-.42-.33-.59-.51-1.26-1.31-1.12-3.09-.04-4.95h0c2.19-3.74,8.25-7.81,14.82-9.22.12-.02.23-.05.36-.07,10.08-2.09,27.02-3.55,41.17-3.74,14.92-.2,56.17.37,72.68.05,11.03-.21,39.18,1.87,52.01,6.41,1.89.67,3.44,1.37,4.56,2.11,8.41,4.75,9.06,13.01-8.11,14.85Z" style="fill: #24523c;"/>
    </g>
    <path d="M279.89,349.46c-16.36,8.33-122.68,6.36-148.37-.08,0,0-15.59-6.06-20.1-22.27-.22-.75-.4-1.52-.56-2.32-1.2-5.98-1.07-14.06-.04-22.53v-.02c2.09-16.97,7.86-35.52,14.12-41.9.11-.11.22-.23.34-.34,9.6-9.52,25.74-16.16,39.22-17.03,14.21-.92,53.5,1.66,69.23.21,10.51-.97,37.33,8.51,49.55,29.14,1.8,3.03,3.28,6.24,4.34,9.61,8.01,21.6,8.63,59.2-7.73,67.53Z" style="fill: url(#radial-gradient); stroke: #596268; stroke-miterlimit: 10; stroke-width: 2px;"/>
    <path d="M264.02,259.24s9.58,7.12-.61,9.36l-.05,4.11-11.37.2s-64.03,8.62-89.13.93c-9.4-1.85-6.85-2.57-6.85-2.57l-9.09-7.46-8.82-7.26s16.63-10.76,30.55-10.98c14.74-.23,55.49-13.98,95.37,13.67Z" style="fill: #fff; opacity: .1;"/>
    <path d="M287.78,285.74s3.91,41.85-13.15,55.81c0,0-2.45,3.06-3.57,2.99s-25.97,1.62-25.97,1.62l-18-2.97s-30.23,4.65-50.29,5.68c-20.06,1.03-21.79-12.61-21.79-12.61l-1.64,8.28-17.88-2.06s-22.54-8.4-22.81-39.78c-6.26,2.3-10.54,46.84,44.64,51.04s123.03,1.22,128.67-8.42c7.51-17.5,10.32-44.23,1.79-59.58Z" style="fill: #807d75; opacity: .2;"/>
    <path d="M135.34,271.18s5.45,3.58,7.39,8.56c1.95,4.98,6.71,8.88,6.71,8.88l6.86,2.7-15.95-2.7-6.61,11.2,1.6-16.06-8.44-8.27,1.82-12.02s4.36,5.94,6.62,7.71Z" style="fill: #bfbfbf; opacity: .3;"/>
    <path d="M281.65,284.96l-7.94,6.48-10.69,1.59,12.52,3.72s3.81-9.99,6.11-11.79Z" style="fill: #bfbfbf; opacity: .3;"/>
    <path d="M276.14,331.75s-7.89,2.57-9.41,3.69-8.47,7.43-8.47,7.43l12.87-.51s7.46-8.61,5.01-10.61Z" style="fill: #807d75; opacity: .2;"/>
    <path d="M276.64,325.25s-4.66,3.13-5.59,3.97-1.18,3.28-1.18,3.28l6.24-2.35.53-4.9Z" style="fill: #807d75; opacity: .2;"/>
  </g>
</svg>