<?xml version="1.0" encoding="UTF-8"?>
<svg id="background" xmlns="http://www.w3.org/2000/svg" xmlns:xlink="http://www.w3.org/1999/xlink" viewBox="0 0 51.88 51.88">
  <defs>
    <linearGradient id="linear-gradient" x1="17.83" y1="48.08" x2="17.83" y2="7.01" gradientTransform="translate(1.55 1.55) scale(.94)" gradientUnits="userSpaceOnUse">
      <stop offset="0" stop-color="#596268"/>
      <stop offset=".71" stop-color="#40454a"/>
    </linearGradient>
    <linearGradient id="linear-gradient-2" x1="34.14" y1="48.08" x2="34.14" y2="7.01" xlink:href="#linear-gradient"/>
    <radialGradient id="radial-gradient" cx="24.99" cy="1.73" fx="24.99" fy="1.73" r="51.16" gradientUnits="userSpaceOnUse">
      <stop offset="0" stop-color="#b3b9b0"/>
      <stop offset=".25" stop-color="#b3b9b0"/>
      <stop offset=".49" stop-color="#aeb4ac"/>
      <stop offset=".74" stop-color="#a2a8a0"/>
      <stop offset="1" stop-color="#8f948d"/>
    </radialGradient>
  </defs>
  <g>
    <g style="opacity: .2;">
      <path d="M21.71,46.27h-6.84c-1.45,0-2.63-1.08-2.63-2.41V14.48s.4-1.09.4-1.3-.4-.58-.4-.58v-3.3c0-1.33,1.18-2.41,2.63-2.41h6.84c1.45,0,2.63,1.08,2.63,2.41v34.55c0,1.33-1.18,2.41-2.63,2.41Z" style="fill: #fff;"/>
      <path d="M37.02,46.27l-.58-.25-.64.25h-5.62c-1.45,0-2.63-1.08-2.63-2.41V9.31c0-1.33,1.18-2.41,2.63-2.41h6.84c1.45,0,2.63,1.08,2.63,2.41v26.74s-.26,1.46-.26,1.46l.26,2.02v4.33c0,1.33-1.18,2.41-2.63,2.41Z" style="fill: #fff;"/>
    </g>
    <g>
      <path d="M21.71,44.98h-6.84c-1.45,0-2.63-1.08-2.63-2.41V13.19s.4-1.09.4-1.3-.4-.58-.4-.58v-3.3c0-1.33,1.18-2.41,2.63-2.41h6.84c1.45,0,2.63,1.08,2.63,2.41v34.55c0,1.33-1.18,2.41-2.63,2.41Z" style="fill: url(#linear-gradient);"/>
      <path d="M37.02,44.98l-.58-.25-.64.25h-5.62c-1.45,0-2.63-1.08-2.63-2.41V8.02c0-1.33,1.18-2.41,2.63-2.41h6.84c1.45,0,2.63,1.08,2.63,2.41v26.74s-.26,1.46-.26,1.46l.26,2.02v4.33c0,1.33-1.18,2.41-2.63,2.41Z" style="fill: url(#linear-gradient-2);"/>
    </g>
  </g>
  <g style="opacity: .3;">
    <path d="M35.98,39.39h-4.35c-.39,0-.71-.32-.71-.71v-16.55c0-.39.32-.71.71-.71s.71.32.71.71v15.84h2.94V10.67h-4.15c-.39,0-.71-.32-.71-.71s.32-.71.71-.71h4.86c.39,0,.71.32.71.71v28.72c0,.39-.32.71-.71.71Z" style="fill: url(#radial-gradient);"/>
  </g>
  <g style="opacity: .3;">
    <path d="M20.58,39.39h-4.86c-.19,0-.37-.07-.5-.21s-.21-.31-.21-.5V9.96c0-.39.32-.71.71-.71h4.35c.39,0,.71.32.71.71v16.55c0,.39-.32.71-.71.71s-.71-.32-.71-.71v-15.85h-2.94v27.3s4.15,0,4.15,0c.39,0,.71.32.71.71s-.32.71-.71.71Z" style="fill: url(#radial-gradient);"/>
  </g>
</svg>