<?xml version="1.0" encoding="UTF-8"?>
<svg id="Layer_1" data-name="Layer 1" xmlns="http://www.w3.org/2000/svg" xmlns:xlink="http://www.w3.org/1999/xlink" viewBox="0 0 402 665.35">
  <defs>
    <linearGradient id="linear-gradient" x1="189.98" y1="409.97" x2="189.98" y2="469" gradientUnits="userSpaceOnUse">
      <stop offset="0" stop-color="#20633f"/>
      <stop offset=".98" stop-color="#4ca98c"/>
    </linearGradient>
    <linearGradient id="linear-gradient-2" x1="301.3" y1="364.62" x2="301.3" y2="487.19" gradientUnits="userSpaceOnUse">
      <stop offset=".38" stop-color="#1f5d3f"/>
      <stop offset="1" stop-color="#52ab87"/>
    </linearGradient>
    <linearGradient id="linear-gradient-3" x1="337.26" y1="427.93" x2="337.26" y2="410.35" gradientUnits="userSpaceOnUse">
      <stop offset="0" stop-color="#428361" stop-opacity="0"/>
      <stop offset="1" stop-color="#428361"/>
    </linearGradient>
    <linearGradient id="linear-gradient-4" x1="300.55" y1="468.15" x2="300.55" y2="445.04" gradientUnits="userSpaceOnUse">
      <stop offset="0" stop-color="#428361" stop-opacity="0"/>
      <stop offset="1" stop-color="#1f5d3f"/>
    </linearGradient>
    <linearGradient id="linear-gradient-5" x1="326.82" y1="461.36" x2="326.82" y2="438.25" xlink:href="#linear-gradient-4"/>
    <linearGradient id="linear-gradient-6" x1="345.77" y1="479.7" x2="345.77" y2="456.6" xlink:href="#linear-gradient-4"/>
    <linearGradient id="linear-gradient-7" x1="367.54" y1="441.38" x2="367.54" y2="418.27" xlink:href="#linear-gradient-4"/>
    <linearGradient id="linear-gradient-8" x1="369.16" y1="411.26" x2="369.16" y2="388.16" xlink:href="#linear-gradient-3"/>
    <linearGradient id="linear-gradient-9" x1="377.55" y1="436.81" x2="377.55" y2="408.23" xlink:href="#linear-gradient-3"/>
    <linearGradient id="linear-gradient-10" x1="392.36" y1="421.14" x2="392.36" y2="404.06" xlink:href="#linear-gradient-3"/>
    <linearGradient id="linear-gradient-11" x1="389.98" y1="405.71" x2="389.98" y2="382.61" xlink:href="#linear-gradient-3"/>
    <linearGradient id="linear-gradient-12" x1="378.02" y1="393.88" x2="378.02" y2="381.03" xlink:href="#linear-gradient-3"/>
    <linearGradient id="linear-gradient-13" x1="401.24" y1="389.56" x2="401.24" y2="366.45" xlink:href="#linear-gradient-3"/>
    <linearGradient id="linear-gradient-14" x1="350.49" y1="422.94" x2="350.49" y2="411.6" xlink:href="#linear-gradient-3"/>
    <linearGradient id="linear-gradient-15" x1="357.85" y1="413.7" x2="357.85" y2="402.36" xlink:href="#linear-gradient-3"/>
    <linearGradient id="linear-gradient-16" x1="350.33" y1="451.32" x2="350.33" y2="424.07" xlink:href="#linear-gradient-3"/>
    <linearGradient id="linear-gradient-17" x1="333.2" y1="440.41" x2="333.2" y2="426.61" xlink:href="#linear-gradient-3"/>
    <linearGradient id="linear-gradient-18" x1="362.81" y1="476.34" x2="362.81" y2="453.23" xlink:href="#linear-gradient-4"/>
    <linearGradient id="linear-gradient-19" x1="281.48" y1="478.63" x2="281.48" y2="455.52" xlink:href="#linear-gradient-4"/>
    <linearGradient id="linear-gradient-20" x1="107.2" y1="364.62" x2="107.2" y2="487.19" gradientUnits="userSpaceOnUse">
      <stop offset=".38" stop-color="#1f5d3f"/>
      <stop offset="1" stop-color="#52ab87"/>
    </linearGradient>
    <linearGradient id="linear-gradient-21" x1="4633.96" y1="461.31" x2="4633.96" y2="444.66" gradientTransform="translate(4732.46) rotate(-180) scale(1 -1)" xlink:href="#linear-gradient-4"/>
    <linearGradient id="linear-gradient-22" x1="4660.43" y1="458.28" x2="4660.43" y2="435.17" gradientTransform="translate(3465.67 115.89) rotate(-180) scale(.73 -.73)" xlink:href="#linear-gradient-4"/>
    <linearGradient id="linear-gradient-23" x1="4637.94" y1="454.66" x2="4637.94" y2="431.55" gradientTransform="translate(3465.67 115.89) rotate(-180) scale(.73 -.73)" xlink:href="#linear-gradient-4"/>
    <linearGradient id="linear-gradient-24" x1="4679.63" y1="475.28" x2="4679.63" y2="462.45" gradientTransform="translate(4732.46) rotate(-180) scale(1 -1)" xlink:href="#linear-gradient-4"/>
    <linearGradient id="linear-gradient-25" x1="4671.32" y1="463.62" x2="4671.32" y2="450.78" gradientTransform="translate(4732.46) rotate(-180) scale(1 -1)" xlink:href="#linear-gradient-4"/>
    <linearGradient id="linear-gradient-26" x1="4682.94" y1="456.79" x2="4682.94" y2="443.96" gradientTransform="translate(4732.46) rotate(-180) scale(1 -1)" xlink:href="#linear-gradient-4"/>
    <linearGradient id="linear-gradient-27" x1="4681.72" y1="447.16" x2="4681.72" y2="424.06" gradientTransform="translate(4732.46) rotate(-180) scale(1 -1)" xlink:href="#linear-gradient-3"/>
    <linearGradient id="linear-gradient-28" x1="4695.54" y1="472.18" x2="4695.54" y2="449.08" gradientTransform="translate(4732.46) rotate(-180) scale(1 -1)" xlink:href="#linear-gradient-4"/>
    <linearGradient id="linear-gradient-29" x1="4685.35" y1="476.34" x2="4685.35" y2="453.24" gradientTransform="translate(-4597.06 0)" xlink:href="#linear-gradient-4"/>
    <linearGradient id="linear-gradient-30" x1="4622.06" y1="476.34" x2="4622.06" y2="453.23" gradientTransform="translate(4732.46) rotate(-180) scale(1 -1)" xlink:href="#linear-gradient-4"/>
    <linearGradient id="linear-gradient-31" x1="4608.14" y1="475.59" x2="4608.14" y2="462.14" gradientTransform="translate(4732.46) rotate(-180) scale(1 -1)" xlink:href="#linear-gradient-4"/>
    <linearGradient id="linear-gradient-32" x1="4640.2" y1="449.8" x2="4640.2" y2="436.35" gradientTransform="translate(4732.46) rotate(-180) scale(1 -1)" xlink:href="#linear-gradient-4"/>
    <linearGradient id="linear-gradient-33" x1="4664.86" y1="426.78" x2="4664.86" y2="413.33" gradientTransform="translate(4732.46) rotate(-180) scale(1 -1)" xlink:href="#linear-gradient-3"/>
    <linearGradient id="linear-gradient-34" x1="4596.74" y1="475.31" x2="4596.74" y2="461.85" gradientTransform="translate(4732.46) rotate(-180) scale(1 -1)" xlink:href="#linear-gradient-4"/>
    <linearGradient id="linear-gradient-35" x1="4697.27" y1="437.82" x2="4697.27" y2="405.53" gradientTransform="translate(4732.46) rotate(-180) scale(1 -1)" xlink:href="#linear-gradient-3"/>
    <linearGradient id="linear-gradient-36" x1="4691.11" y1="402.58" x2="4691.11" y2="379.48" gradientTransform="translate(4732.46) rotate(-180) scale(1 -1)" xlink:href="#linear-gradient-3"/>
    <linearGradient id="linear-gradient-37" x1="4677.7" y1="423.35" x2="4677.7" y2="400.25" gradientTransform="translate(4732.46) rotate(-180) scale(1 -1)" xlink:href="#linear-gradient-3"/>
    <linearGradient id="linear-gradient-38" x1="4723.27" y1="438.12" x2="4723.27" y2="411.15" gradientTransform="translate(4732.46) rotate(-180) scale(1 -1)" xlink:href="#linear-gradient-3"/>
    <linearGradient id="linear-gradient-39" x1="4725.09" y1="398" x2="4725.09" y2="371.03" gradientTransform="translate(4732.46) rotate(-180) scale(1 -1)" xlink:href="#linear-gradient-3"/>
    <linearGradient id="linear-gradient-40" x1="4709.53" y1="416.52" x2="4709.53" y2="389.56" gradientTransform="translate(3875.18 71.07) rotate(-180) scale(.82 -.82)" xlink:href="#linear-gradient-3"/>
    <linearGradient id="linear-gradient-41" x1="4652.06" y1="432.01" x2="4652.06" y2="408.9" gradientTransform="translate(4732.46) rotate(-180) scale(1 -1)" xlink:href="#linear-gradient-3"/>
    <linearGradient id="linear-gradient-42" x1="200.36" y1="469.47" x2="200.36" y2="557.55" gradientUnits="userSpaceOnUse">
      <stop offset="0" stop-color="#43c4c4"/>
      <stop offset="1" stop-color="#15944e"/>
    </linearGradient>
    <linearGradient id="linear-gradient-43" x1="199.18" y1="656.82" x2="199.18" y2="542.23" gradientUnits="userSpaceOnUse">
      <stop offset="0" stop-color="#6bba66"/>
      <stop offset="1" stop-color="#3e7d47"/>
    </linearGradient>
    <radialGradient id="radial-gradient" cx="202.55" cy="568.67" fx="202.55" fy="568.67" r="115.3" gradientUnits="userSpaceOnUse">
      <stop offset="0" stop-color="#b3b9b0"/>
      <stop offset=".25" stop-color="#b3b9b0"/>
      <stop offset=".49" stop-color="#aeb4ac"/>
      <stop offset=".74" stop-color="#a2a8a0"/>
      <stop offset="1" stop-color="#8f948d"/>
    </radialGradient>
    <linearGradient id="linear-gradient-44" x1="314.33" y1="470.62" x2="314.33" y2="462.71" xlink:href="#linear-gradient-4"/>
  </defs>
  <path d="M381.33,490.06H-1.37c5.91-16.68,12.55-35.6,13.39-38.73,1.55-5.77,16.99-18.2,18.85-19.34,1.87-1.15,4.35.1,7.31.66,1.36-1.8,6.68-8.63,6.68-8.63l1.6.89s.67-1.97,1.34-1.81c.67.17,2.7,1.16,3.52,3.56.58-1.74,4.18-7.61,4.18-7.61,0,0,1.74,1.12,2.63,2.36,3.31-9.97,3.91-8.91,3.91-8.91,0,0,.77.17,2.42,1.34.32-.61,1.55-3.54,5.02-3.9,3.48-.36,4.99,3.11,7.52,1.09,2.54-2.02,2.91-.11,4.21.28.49-1.36,2.18-.56,2.18-.56,0,0,1.55-1.49,2.36-1.41.81.07,4.62,1.81,4.86,1.56.23-.23,1.66-2.7,2.75-2.87,1.09-.17,3.02,2.88,3.02,2.88,0,0-.21-1.12,1.8-.83,4.15,1.91,7.14,7.72,7.14,7.72,0,0,3.74-3.59,4.17-3.61.44,0,1.91,2.02,3.38,3.85.69-1,2.97-6.38,3.74-6.25.76.12,3.4,4.97,3.4,4.97,0-.02,0-.62,1.46-1.11,1.15.44,4.12,4.94,6.3,9.05.65-.95,4.3-6.36,5.81-5.18,1.51,1.18,2.7,5.63,2.7,5.63,0,0,1.28-.73,1.83-1.39.44.27.93,3.29,2.96,6.37.99-2.91,4.88-9.18,5.29-9.18.38.04,2.18,1.49,2.18,1.49,0,0,.16-1.36.62-2.16.68.36,3.62,7.85,3.51,7.34s2.12-3.27,2.12-3.27l1.66,1.69s.65-3.05,1.89-3.03c1.97.65,4.5,7.13,5.32,7.91.83.77,2.37,1.35,2.43-.57.05-1.91,3.63-8.82,3.63-8.82,0,0,2.26,2.75,3.14,3.67.73.45,3.55,9.3,3.55,9.3,0,0,.82-3.75,2.33-4.49,1.35.48,5.05,8.29,4.74,6.85-.32-1.44,5.98,5.19,6.31,4.8.32-.38.36,1.49,1.16.76.79-.72,2.54,6.99,6.57,3.34,4.03-3.64,4.58-.38,5.43-1.01.85-.63,1.14-.17,2.31.6,1.16.76,1.46,1.42,3.6,1.13,2.15-.29,2.67,1.75,2.67,1.75,0,0,1.91,2.53,2.53,2.04.61-.48,1.21.68,1.71.85.5.17.85.58,1.38.68.53.1.4-1.51.88-1.48.47.03.73.87.73.87,0,0,2.31.93,2.48.31.18-.61.97-1.61,1.55-1.34.58.26,2.09.9,2.09.9l.91-1.4c.91-1.39,1.02-1.77,2.01-1.69.98.1.8.44,2.83,1.33,2.04.88,3.3-1.12,3.3-1.12l1.01-2.44s1.67.64,3.24,1.76c-.52-1.84,0-5.21,1.22-4.78s3.73,3.61,3.73,3.61c0,0,1.48-2.81,2.26-4.8.96.56,2.17,1.92,2.17,1.92,0,0,2.54-3.08,3.14-2.97.59.1,3.74,2.93,3.6,2.35-.13-.57,3.45-4.82,3.56-5.18.11-.35,4.54,1.98,4.76.96.21-1.03,4.21-2.08,4.21-2.08,0,0,2.51,2.25,2.9,2.59-.48-.45,3.76-6.68,3.76-6.68,0,0,2.53,1.79,3.13,2.12,0,0,2.29-8.85,3.57-10.03,1.55.77,4.74,5.67,4.74,5.67,0,0,.41-5.99,1.53-5.78s3.32,4.3,3.18,3.48c-.14-.82,1.99-5.79,1.99-5.79l2.17,2.62s1-5.61,1.99-5.39c1,.22,4.06,3.67,4.06,3.67,0,0,1.91-9.28,3.59-11.99,1.76.81,5.06,9.84,5.06,9.84l-.11-4.86,1.94,3.35s.44-2.93,1.64-4.78c1.01.71,4.73,6.21,4.73,6.21,0,0,.3-3.28.79-3.91.63.48,3.51,6.97,3.51,6.97,0,0,.19-2.43.95-2.08.75.35,2.32,3.59,2.32,3.59,0,0,1.46-7.08,2.17-8.68,1.03,1.68,7.09,11.62,7.09,11.62l1.17-3.31s3,6.62,4.54,8.52c.62,0,1.42-3.21,1.42-3.21l2.14,1.18,2.42-2.97,1.77,6.76,2.62.67s1.18-2.82,1.16-4.04c.99-.14,3.73,5.47,3.73,5.47l1.99-5.6s5.9,8.59,6.9,8.59c1-.03.35-1.35,2.21-1.15s6.79,3.3,6.79,3.3l9.03,47.52Z" style="fill: url(#linear-gradient); opacity: .5;"/>
  <path d="M404.24,346.11v134.17h-205.88s7.86-1.78,8.96-3.42c.2-.3.56-.49,1.01-.61,2.08-.56,6.2.39,6.2.39l2.62.76s.55-7.97,2.29-11.8c1.53,1.2,4.7,8.74,6.23,9.64,1.42-.63,6.12-15,6.12-15,0,0,3.72,12.79,5.46,17.62,1.75-.31,6.33-2.97,6.55-4.93-1.09-1.97,2.62-6.01,2.08-6.67l1.42-6.01s4.04,4.7,6.45,9.1c1.31.56,3.49-3.41,3.49-3.41,0,0,2.41,6.12,2.84,7.1,0,0,2.95-11.47,4.05-10.6,1.09.88,3.06,11.8,4.8,11.03,2.08-.76,3.28-6.43,3.28-6.43,0,0-.65.43-3.28,0,5.25-6.86,10.49-21.75,10.49-21.75l6.89,16.05,5.46-3.61,1.97-4.79s-2.29.96-3.61,1.06c.17,0,4.26-6.65,4.26-6.65,0,0-1.96.32-4.26.55,2.51-1.42,6.99-16.28,8.08-17.37.44,2.62,7.21,17.37,7.21,17.37l3.5-3.83s.88.66,2.84,3.17c1.86,0,13.22-23.05,14.53-25.57-3.28,3.82-9.18,3.94-9.18,3.94l10.05-12.67s-2.18,1.31-4.47.53c2.18-2.41,8.08-22.38,8.08-22.38l10.57,21.34c.03-.24.11-.51.24-.8.98-2.29,1.97-10.92,1.97-10.92,0,0,2.18,6.12,3.49,7.86,1.2-.65,5.79-18.24,5.79-18.24,0,0,1.63,3.82,2.61,7.43.66-.33,3.17-10.7,3.17-10.7l2.51,6.55,5.36-8.3-3.83.99,6.98-9.6c-.19.17-1.83,1.59-5.12,2.82.11-1.4,7.82-11.66,8.08-12.01-.2.14-3.55,2.5-5.56,2.28,2.4-3.28,3.38-17.04,5.9-22.4.98,3.28,8.74,16.83,11.8,22.4-1.75.66-3.72-.1-3.72-.1,0,0,.11,2.62,3.17,4.35,3.94-1.55,7.97-12.22,7.97-12.22,0,0-1.42,1.42-3.06,1.31,1.96-1.31,5.68-22.06,5.68-22.06,0,0,4.7,10.05,6.23,15.07,1.23-1.65,2.48-6.59,3.22-10.02Z" style="fill: url(#linear-gradient-2);"/>
  <path d="M334.71,410.35s-.41,9.23-3.16,10.66c4.48-.2,0,6.93,0,6.93l11.41-.61-4.48-5.6,3.67.1-7.44-11.47Z" style="fill: url(#linear-gradient-3); opacity: .4;"/>
  <path d="M297.2,445.04s-.54,12.13-4.15,14c5.89-.27,0,9.1,0,9.1l14.99-.8-5.89-7.36,4.82.13-9.77-15.08Z" style="fill: url(#linear-gradient-4); opacity: .4;"/>
  <path d="M323.47,438.25s-.54,12.13-4.15,14c5.89-.27,0,9.1,0,9.1l14.99-.8-5.89-7.36,4.82.13-9.77-15.08Z" style="fill: url(#linear-gradient-5); opacity: .4;"/>
  <path d="M342.43,456.6s-.54,12.13-4.15,14c5.89-.27,0,9.1,0,9.1l14.99-.8-5.89-7.36,4.82.13-9.77-15.08Z" style="fill: url(#linear-gradient-6); opacity: .4;"/>
  <path d="M364.2,418.27s-.54,12.13-4.15,14c5.89-.27,0,9.1,0,9.1l14.99-.8-5.89-7.36,4.82.13-9.77-15.08Z" style="fill: url(#linear-gradient-7); opacity: .4;"/>
  <path d="M365.81,388.16s-.54,12.13-4.15,14c5.89-.27,0,9.1,0,9.1l14.99-.8-5.89-7.36,4.82.13-9.77-15.08Z" style="fill: url(#linear-gradient-8); opacity: .4;"/>
  <path d="M373.41,408.23s-.66,15-5.13,17.32c7.28-.33,0,11.26,0,11.26l18.54-.99-7.28-9.1,5.96.17-12.08-18.64Z" style="fill: url(#linear-gradient-9); opacity: .4;"/>
  <path d="M389.89,404.06s-.4,8.97-3.07,10.35c4.35-.2,0,6.73,0,6.73l11.08-.59-4.35-5.44,3.56.1-7.22-11.14Z" style="fill: url(#linear-gradient-10); opacity: .4;"/>
  <path d="M386.63,382.61s-.54,12.13-4.15,14c5.89-.27,0,9.1,0,9.1l14.99-.8-5.89-7.36,4.82.13-9.77-15.08Z" style="fill: url(#linear-gradient-11); opacity: .4;"/>
  <path d="M376.16,381.03s-.3,6.75-2.31,7.79c3.28-.15,0,5.06,0,5.06l8.34-.45-3.28-4.1,2.68.07-5.44-8.39Z" style="fill: url(#linear-gradient-12); opacity: .4;"/>
  <path d="M397.9,366.45s-.54,12.13-4.15,14c5.89-.27,0,9.1,0,9.1l14.99-.8-5.89-7.36,4.82.13-9.77-15.08Z" style="fill: url(#linear-gradient-13); opacity: .4;"/>
  <path d="M348.85,411.6s-.26,5.95-2.04,6.87c2.89-.13,0,4.47,0,4.47l7.36-.39-2.89-3.61,2.36.07-4.8-7.4Z" style="fill: url(#linear-gradient-14); opacity: .4;"/>
  <path d="M356.21,402.36s-.26,5.95-2.04,6.87c2.89-.13,0,4.47,0,4.47l7.36-.39-2.89-3.61,2.36.07-4.8-7.4Z" style="fill: url(#linear-gradient-15); opacity: .4;"/>
  <path d="M346.39,424.07s-.63,14.31-4.89,16.52c6.95-.32,0,10.73,0,10.73l17.68-.95-6.95-8.68,5.68.16-11.52-17.78Z" style="fill: url(#linear-gradient-16); opacity: .4;"/>
  <path d="M331.2,426.61s-.32,7.24-2.48,8.36c3.52-.16,0,5.44,0,5.44l8.95-.48-3.52-4.4,2.88.08-5.84-9Z" style="fill: url(#linear-gradient-17); opacity: .4;"/>
  <path d="M359.46,453.23s-.54,12.13-4.15,14c5.89-.27,0,9.1,0,9.1l14.99-.8-5.89-7.36,4.82.13-9.77-15.08Z" style="fill: url(#linear-gradient-18); opacity: .4;"/>
  <path d="M278.14,455.52s-.54,12.13-4.15,14c5.89-.27,0,9.1,0,9.1l14.99-.8-5.89-7.36,4.82.13-9.77-15.08Z" style="fill: url(#linear-gradient-19); opacity: .4;"/>
  <path d="M218.28,480.28H-3.88v-164.43c.06-.07.11-.12.17-.14,2.51,2.84,5.68,34.2,8.74,35.29,2.94-4.26,6.66-8.41,6.66-8.41,0,0,1.96,10.93,3.94,13.54,1.53-5.02,6.23-15.07,6.23-15.07,0,0,3.71,20.75,5.68,22.06-1.64.11-3.07-1.31-3.07-1.31,0,0,4.05,10.68,7.98,12.22,3.06-1.73,3.16-4.35,3.16-4.35,0,0-1.96.76-3.71.1,3.06-5.57,10.82-19.11,11.8-22.4,2.51,5.36,3.49,19.12,5.9,22.4-2.02.22-5.36-2.15-5.56-2.28.26.36,7.97,10.62,8.07,12.01-3.28-1.23-4.93-2.65-5.12-2.82l6.98,9.6-3.82-.99,5.35,8.3,2.51-6.55s2.52,10.37,3.17,10.7c.98-3.61,2.62-7.43,2.62-7.43,0,0,4.59,17.59,5.79,18.24,1.3-1.75,3.49-7.86,3.49-7.86,0,0,.98,8.63,1.96,10.92.13.3.21.56.24.81l10.57-21.34s5.91,19.96,8.09,22.38c-2.29.78-4.48-.53-4.48-.53l10.05,12.67s-5.9-.11-9.17-3.94c1.31,2.52,12.67,25.57,14.53,25.57,1.96-2.51,2.84-3.17,2.84-3.17l3.49,3.83s6.78-14.75,7.21-17.37c1.09,1.09,5.58,15.95,8.09,17.37-2.29-.23-4.27-.55-4.27-.55,0,0,4.09,6.65,4.27,6.65-1.31-.1-3.61-1.06-3.61-1.06l1.96,4.79,2.99-3.73,2.48,7.34,6.88-16.05s5.25,14.89,10.49,21.75c-2.62.43-3.28,0-3.28,0,0,0,1.21,5.66,3.28,6.43,1.75.76,3.71-10.16,4.8-11.03,1.09-.87,4.04,10.6,4.04,10.6.44-.98,2.84-7.1,2.84-7.1,0,0,2.19,3.97,3.5,3.41,2.4-4.4,6.45-9.1,6.45-9.1l1.42,6.01c-.55.66,3.17,4.7,2.08,6.67.22,1.96,4.81,4.62,6.56,4.93,1.75-4.83,5.46-17.62,5.46-17.62,0,0,4.69,14.38,6.12,15,1.53-.9,4.7-8.44,6.23-9.64,1.75,3.82,2.29,11.8,2.29,11.8l2.62-.76s4.14-.96,6.21-.39c.45.12.81.31,1,.61,1.09,1.64,8.96,3.42,8.96,3.42Z" style="fill: url(#linear-gradient-20);"/>
  <g>
    <path d="M100.92,444.66s.39,8.74,2.99,10.09c-4.24-.19,0,6.56,0,6.56l-10.81-.58,4.24-5.31-3.47.1,7.04-10.87Z" style="fill: url(#linear-gradient-21); opacity: .4;"/>
    <path d="M71.92,432.97s.39,8.84,3.02,10.21c-4.29-.2,0,6.63,0,6.63l-10.92-.59,4.29-5.36-3.51.1,7.12-10.99Z" style="fill: url(#linear-gradient-22); opacity: .7;"/>
    <path d="M88.31,430.33s.39,8.84,3.02,10.21c-4.29-.2,0,6.63,0,6.63l-10.92-.59,4.29-5.36-3.51.1,7.12-10.99Z" style="fill: url(#linear-gradient-23); opacity: .7;"/>
    <path d="M54.69,462.45s.3,6.74,2.3,7.78c-3.27-.15,0,5.05,0,5.05l-8.32-.45,3.27-4.09-2.68.07,5.43-8.37Z" style="fill: url(#linear-gradient-24); opacity: .4;"/>
    <path d="M63,450.78s.3,6.74,2.3,7.78c-3.27-.15,0,5.05,0,5.05l-8.32-.45,3.27-4.09-2.68.07,5.43-8.37Z" style="fill: url(#linear-gradient-25); opacity: .4;"/>
    <path d="M51.38,443.96s.3,6.74,2.3,7.78c-3.27-.15,0,5.05,0,5.05l-8.32-.45,3.27-4.09-2.68.07,5.43-8.37Z" style="fill: url(#linear-gradient-26); opacity: .4;"/>
    <path d="M54.09,424.06s.54,12.13,4.15,14c-5.89-.27,0,9.1,0,9.1l-14.99-.8,5.89-7.36-4.82.13,9.77-15.08Z" style="fill: url(#linear-gradient-27); opacity: .4;"/>
    <path d="M40.27,449.08s.54,12.13,4.15,14c-5.89-.27,0,9.1,0,9.1l-14.99-.8,5.89-7.36-4.82.13,9.77-15.08Z" style="fill: url(#linear-gradient-28); opacity: .4;"/>
    <path d="M85.05,453.23s-.54,12.13-4.15,14c5.89-.27,0,9.1,0,9.1l14.99-.8-5.89-7.36,4.82.13-9.77-15.08Z" style="fill: url(#linear-gradient-29); opacity: .4;"/>
    <path d="M113.75,453.23s.54,12.13,4.15,14c-5.89-.27,0,9.1,0,9.1l-14.99-.8,5.89-7.36-4.82.13,9.77-15.08Z" style="fill: url(#linear-gradient-30); opacity: .4;"/>
    <path d="M126.27,462.14s.31,7.06,2.42,8.15c-3.43-.16,0,5.3,0,5.3l-8.73-.47,3.43-4.29-2.81.08,5.69-8.78Z" style="fill: url(#linear-gradient-31); opacity: .4;"/>
    <path d="M94.21,436.35s.31,7.06,2.42,8.15c-3.43-.16,0,5.3,0,5.3l-8.73-.47,3.43-4.29-2.81.08,5.69-8.78Z" style="fill: url(#linear-gradient-32); opacity: .5;"/>
    <path d="M69.56,413.33s.31,7.06,2.42,8.15c-3.43-.16,0,5.3,0,5.3l-8.73-.47,3.43-4.29-2.81.08,5.69-8.78Z" style="fill: url(#linear-gradient-33); opacity: .4;"/>
    <path d="M137.67,461.85s.31,7.06,2.42,8.15c-3.43-.16,0,5.3,0,5.3l-8.73-.47,3.43-4.29-2.81.08,5.69-8.78Z" style="fill: url(#linear-gradient-34); opacity: .4;"/>
    <path d="M39.87,405.53s.75,16.95,5.8,19.57c-8.23-.37,0,12.72,0,12.72l-20.95-1.12,8.23-10.29-6.73.19,13.65-21.07Z" style="fill: url(#linear-gradient-35); opacity: .4;"/>
    <path d="M44.7,379.48s.54,12.13,4.15,14c-5.89-.27,0,9.1,0,9.1l-14.99-.8,5.89-7.36-4.82.13,9.77-15.08Z" style="fill: url(#linear-gradient-36); opacity: .4;"/>
    <path d="M58.11,400.25s.54,12.13,4.15,14c-5.89-.27,0,9.1,0,9.1l-14.99-.8,5.89-7.36-4.82.13,9.77-15.08Z" style="fill: url(#linear-gradient-37); opacity: .4;"/>
    <path d="M13.1,411.15s.62,14.16,4.84,16.34c-6.87-.31,0,10.62,0,10.62l-17.49-.94,6.87-8.59-5.62.16,11.4-17.59Z" style="fill: url(#linear-gradient-38); opacity: .4;"/>
    <path d="M11.28,371.03s.62,14.16,4.84,16.34c-6.87-.31,0,10.62,0,10.62l-17.49-.94,6.87-8.59-5.62.16,11.4-17.59Z" style="fill: url(#linear-gradient-39); opacity: .4;"/>
    <path d="M27.72,389.56s.51,11.58,3.96,13.36c-5.62-.26,0,8.68,0,8.68l-14.3-.77,5.62-7.02-4.6.13,9.32-14.39Z" style="fill: url(#linear-gradient-40); opacity: .4;"/>
    <path d="M83.75,408.9s.54,12.13,4.15,14c-5.89-.27,0,9.1,0,9.1l-14.99-.8,5.89-7.36-4.82.13,9.77-15.08Z" style="fill: url(#linear-gradient-41); opacity: .4;"/>
  </g>
  <rect x="-3.89" y="480.22" width="408.5" height="199.9" style="fill: url(#linear-gradient-42); opacity: .8;"/>
  <g style="opacity: .4;">
    <path d="M338.25,494.11c-11.41.5-22.84.51-34.24,0,11.41-.51,22.84-.5,34.24,0h0Z" style="fill: #85d4ff;"/>
    <path d="M310.23,487.61c-14.9.49-31.31.5-46.21,0,14.9-.5,31.3-.49,46.21,0h0Z" style="fill: #85d4ff;"/>
    <path d="M285.19,508.8c-11.62.5-23.26.51-34.88,0,11.62-.51,23.26-.5,34.88,0h0Z" style="fill: #85d4ff;"/>
    <path d="M262.17,501c-8.52.5-17.07.51-25.6,0,8.52-.51,17.07-.5,25.6,0h0Z" style="fill: #85d4ff;"/>
    <path d="M321.13,505.16c-11.97.5-23.97.51-35.94,0,11.97-.51,23.96-.5,35.94,0h0Z" style="fill: #85d4ff;"/>
    <path d="M339.65,501c-8.77.5-17.56.51-26.33,0,8.77-.51,17.56-.5,26.33,0h0Z" style="fill: #85d4ff;"/>
    <path d="M356.91,515.29c-13.32.5-26.65.51-39.97,0,13.32-.51,26.65-.5,39.97,0h0Z" style="fill: #85d4ff;"/>
    <path d="M298.95,520.84c-8.93.5-17.89.51-26.81,0,8.93-.51,17.89-.5,26.81,0h0Z" style="fill: #85d4ff;"/>
    <path d="M395.75,486.44c-13.74.5-27.5.51-41.24,0,13.74-.51,27.5-.5,41.24,0h0Z" style="fill: #85d4ff;"/>
    <path d="M358.09,503.05c-10.36.5-20.74.51-31.1,0,10.36-.51,20.74-.5,31.1,0h0Z" style="fill: #85d4ff;"/>
    <path d="M160.32,491.4c-15.86.49-33.31.5-49.16,0,15.86-.5,33.31-.49,49.16,0h0Z" style="fill: #85d4ff;"/>
    <path d="M111.15,503.05c-15.7.49-32.98.5-48.68,0,15.7-.5,32.98-.49,48.68,0h0Z" style="fill: #85d4ff;"/>
    <path d="M73.53,491.4c-21.19.49-44.97.49-66.16,0,21.19-.49,44.97-.49,66.16,0h0Z" style="fill: #85d4ff;"/>
    <path d="M47.37,514.43c-9.23.5-18.48.51-27.7,0,9.23-.51,18.48-.5,27.7,0h0Z" style="fill: #85d4ff;"/>
    <path d="M45.03,502.41c-4.85.51-9.71.52-14.56,0,4.85-.52,9.71-.51,14.56,0h0Z" style="fill: #85d4ff;"/>
    <path d="M90.41,510.53c-1.83.51-3.67.52-5.5,0,1.83-.52,3.67-.51,5.5,0h0Z" style="fill: #85d4ff;"/>
    <path d="M130.68,514.43c-10.04.5-20.11.51-30.15,0,10.04-.51,20.11-.5,30.15,0h0Z" style="fill: #85d4ff;"/>
    <path d="M110.04,523.54c-11.73.5-23.48.51-35.21,0,11.73-.51,23.48-.5,35.21,0h0Z" style="fill: #85d4ff;"/>
    <path d="M64.63,521.67c-12.36.5-24.74.51-37.11,0,12.36-.51,24.74-.5,37.11,0h0Z" style="fill: #85d4ff;"/>
    <path d="M128.3,484.17c-4.2.51-8.42.52-12.62,0,4.2-.52,8.42-.51,12.62,0h0Z" style="fill: #85d4ff;"/>
  </g>
  <g>
    <g>
      <path d="M48.86,548.93s1.32-11.78.36-14.4c-2.8,2.66-4.48,12.07-3.94,14.38-1.01-7.17-7.24-12.78-8.88-13.94-.25,1.7,5.18,13.2,6.09,13.93-2.06-2.5-7.76-5.74-7.76-5.74,0,0,4.84,5.3,5.69,5.73s4.43,2.63,8.44.03Z" style="fill: #268063;"/>
      <path d="M59.59,534.69s1.13-6.14.83-7.55c-1.35,1.29-2.53,6.17-2.4,7.4-.1-3.81-2.57-7-3.23-7.67-.19.88,1.65,7.14,2.01,7.56-.78-1.39-3.13-3.31-3.13-3.31,0,0,1.87,2.97,2.22,3.23s1.81,1.55,3.7.34Z" style="fill: #3e7d47;"/>
      <path d="M103.19,537.59s3.57-10.86,5.29-12.87c1.04,3.26-1.35,12.14-2.64,14.01,3.51-6.03,10.28-8.99,11.93-9.49-.47,1.59-8.91,10.02-9.86,10.38,2.48-1.55,7.93-2.58,7.93-2.58,0,0-5.62,3.14-6.41,3.24s-4.28.9-6.24-2.7Z" style="fill: #3e7d47;"/>
      <path d="M320.07,535.61s-3.75-5.01-4.11-6.42c1.79.56,5.02,4.42,5.45,5.59-1.6-3.47-.8-7.43-.51-8.33.56.71,1.69,7.15,1.55,7.68.08-1.6,1.34-4.37,1.34-4.37,0,0-.36,3.5-.56,3.89s-.94,2.2-3.17,1.95Z" style="fill: #3e7d47;"/>
      <path d="M298.07,536.11s-1.83-5.3-1.75-6.6c1.37.96,3.07,5.14,3.13,6.26-.42-3.4,1.34-6.57,1.84-7.26.29.76-.5,6.57-.77,6.99.51-1.34,2.33-3.37,2.33-3.37,0,0-1.26,2.9-1.54,3.18s-1.4,1.63-3.23.81Z" style="fill: #3e7d47;"/>
      <path d="M48.11,573.89s6.06-18.42,8.97-21.82c1.77,5.53-2.3,20.58-4.48,23.76,5.95-10.22,17.42-15.24,20.23-16.09-.8,2.69-15.11,17-16.73,17.6,4.21-2.63,13.45-4.38,13.45-4.38,0,0-9.52,5.32-10.87,5.5s-7.25,1.53-10.58-4.57Z" style="fill: #65a890;"/>
      <path d="M35.75,568.03s6.06-18.42,8.97-21.82c1.77,5.53-2.3,20.58-4.48,23.76,5.95-10.22,17.42-15.24,20.23-16.09-.8,2.69-15.11,17-16.73,17.6,4.21-2.63,13.45-4.38,13.45-4.38,0,0-9.52,5.32-10.87,5.5s-7.25,1.53-10.58-4.57Z" style="fill: #3ca880;"/>
      <path d="M43.03,601.96s6.06-18.42,8.97-21.82c1.77,5.53-2.3,20.58-4.48,23.76,5.95-10.22,17.42-15.24,20.23-16.09-.8,2.69-15.11,17-16.73,17.6,4.21-2.63,13.45-4.38,13.45-4.38,0,0-9.52,5.32-10.87,5.5s-7.25,1.53-10.58-4.57Z" style="fill: #65a890;"/>
      <path d="M26.91,577.52s-10.8-16.1-11.7-20.49c5.45,2.01,14.83,14.46,15.99,18.14-4.41-10.98-1.32-23.11-.26-25.85,1.63,2.28,4.12,22.37,3.61,24.01.51-4.93,4.81-13.31,4.81-13.31,0,0-1.66,10.78-2.34,11.95-.68,1.17-3.25,6.66-10.11,5.54Z" style="fill: #65a890;"/>
      <path d="M.12,534.71s.61-11.14,1.72-13.47c1.81,2.81,1.8,11.78,1.06,13.88,1.78-6.57,7.41-11.08,8.84-11.97-.04,1.61-5.86,11.71-6.67,12.28,1.95-2.09,6.82-4.45,6.82-4.45,0,0-4.5,4.38-5.22,4.68s-3.8,1.93-6.57-.96Z" style="fill: #3e7d47;"/>
    </g>
    <g>
      <path d="M324.01,565.73s2.7-24.13.73-29.48c-5.74,5.45-9.17,24.72-8.07,29.46-2.06-14.69-14.83-26.18-18.19-28.56-.51,3.48,10.6,27.03,12.46,28.53-4.21-5.12-15.88-11.75-15.88-11.75,0,0,9.91,10.86,11.65,11.74,1.74.88,9.06,5.38,17.29.06Z" style="fill: #268063;"/>
      <path d="M356.22,564.42s2.7-24.13.73-29.48c-5.74,5.45-9.17,24.72-8.07,29.46-2.06-14.69-14.83-26.18-18.19-28.56-.51,3.48,10.6,27.03,12.46,28.53-4.21-5.12-15.88-11.75-15.88-11.75,0,0,9.91,10.86,11.65,11.74,1.74.88,9.06,5.38,17.29.06Z" style="fill: #268063;"/>
      <path d="M356.09,560.57s6.06-18.42,8.97-21.82c1.77,5.53-2.3,20.58-4.48,23.76,5.95-10.22,17.42-15.24,20.23-16.09-.8,2.69-15.11,17-16.73,17.6,4.21-2.63,13.45-4.38,13.45-4.38,0,0-9.52,5.32-10.87,5.5s-7.25,1.53-10.58-4.57Z" style="fill: #268063;"/>
    </g>
    <g>
      <path d="M297.51,534.49s.76-6.81.21-8.32c-1.62,1.54-2.59,6.98-2.28,8.31-.58-4.15-4.19-7.39-5.13-8.06-.14.98,2.99,7.63,3.52,8.05-1.19-1.44-4.48-3.32-4.48-3.32,0,0,2.8,3.07,3.29,3.31s2.56,1.52,4.88.02Z" style="fill: #3e7d47;"/>
      <path d="M394.56,555.21s2.7-24.13.73-29.48c-5.74,5.45-9.17,24.72-8.07,29.46-2.06-14.69-14.83-26.18-18.19-28.56-.51,3.48,10.6,27.03,12.46,28.53-4.21-5.12-15.88-11.75-15.88-11.75,0,0,9.91,10.86,11.65,11.74,1.74.88,9.06,5.38,17.29.06Z" style="fill: #3e7d47;"/>
    </g>
  </g>
  <path d="M-3.01,531.04v137.8h404.37v-137.8s-225.9,8.38-404.37,0Z" style="fill: url(#linear-gradient-43);"/>
  <path d="M404.61,537.82v59.16c-.5.32-1.01.62-1.53.91-4.93,2.72-10.53,4-16.12,4.68-23.24,2.84-46.57-4.29-69.98-3.95-18.09.26-35.92,4.97-54,4.86-5.96-.04-12.03-.63-17.5-3s-10.29-6.74-12.08-12.43c-.72-2.3-.92-4.82-.2-7.12,1.36-4.37,5.64-7.11,9.79-9.06,18.27-8.54,39.13-8.82,59.28-9.63,3.63-.15,7.32-.32,10.77-1.47,3.96-1.32,7.39-3.83,10.81-6.23,5.93-4.15,12.1-8.07,18.9-10.56,15.53-5.67,32.36-3.4,48.51-4.48,3.02-.2,8.89-1.9,13.35-1.68Z" style="fill: #6bb74b; opacity: .4;"/>
  <path d="M136.38,550.86c-12.41,12.07-30.02,17.66-47.31,18.5-7.26.35-14.6-.06-21.75,1.26-5.13.94-10.05,2.75-15.09,4.07-9.17,2.41-18.69,3.18-28.14,3.95,4.93,1.72,9.86,3.44,14.78,5.17,2.04.71,4.19,1.49,5.59,3.14,1.4,1.64,1.69,4.45.03,5.82-1.07.88-2.57.95-3.95.97-9.68.13-19.36.27-29.04.41-5.13.07-10.26.15-15.39.18v-50.59h124.25c.92.83,1.85,1.66,2.82,2.44,3.75,3.01,8.45,5.41,13.2,4.68Z" style="fill: #6bb74b; opacity: .4;"/>
  <path d="M82.33,601.98c8.38-1.34,16.76-3.18,25.24-2.96,8.85.23,17.47,2.7,26.22,4.1,18.75,3,38.1,1.05,56.68,4.99,15.29,3.24,30.14,10.44,45.71,9.21,6.27-.49,13.95-1.79,17.64,3.3,1.68,2.33,1.91,5.37,2.08,8.24.29,4.99.25,10.78-3.62,13.95-1.58,1.29-3.58,1.93-5.56,2.41-8.84,2.14-18.07,1.66-27.17,1.69-12.17.04-24.39,1.02-36.49-.32-16.89-1.87-32.99-8.19-49.77-10.89-19.47-3.14-39.39-1.36-58.97,1.03-6.71.82-13.52,1.7-20.19.65-19.32-3.05-33.74-20.23-50.98-28.29,4.55-1.72,9.22-4.35,13.97-5.47,6.06-1.43,12.75.23,18.86.6,15.47.94,31.05.19,46.36-2.25Z" style="fill: #6bb74b; opacity: .4;"/>
  <g style="opacity: .2;">
    <path d="M356.09,587.62c-18.47-3.06-38.69-4.61-55.96.72-5.02,1.55-9.76,3.67-15.2,4.37-4.57.59-9.28.12-13.89-.29-20.12-1.79-41.32-2.41-59.98,2.92-1.24.36-2.54.78-3.25,1.54,14.76,3.07,30.52,2.9,45.93,3.77,18.61,1.05,37.47,3.63,55.79,1.19,6.96-.93,13.72-2.57,20.79-2.95,4.9-.26,9.82.08,14.74-.03,7.11-.16,14.17-1.29,20.61-3.3.97-.3,1.95-.64,2.64-1.17,1.94-1.5.79-4-1.58-5.19-2.37-1.2-5.49-1.45-8.44-1.65" style="fill: #9acc6c;"/>
    <path d="M302.28,618.57c-42.63-1.59-85.41-3.17-128-1.06-9.53.47-19.05,1.13-28.49,2.13,3.69,2.84,9.15,4.45,14.68,5.16s11.23.58,16.86.47c11.24-.22,22.52-.38,33.69.5,5.6.44,11.14,1.15,16.73,1.61,17.61,1.45,35.45.45,53.1-.81,8.55-.61,17.2-1.3,25.2-3.39,1.21-.32,2.57-.81,2.7-1.67.21-1.37-2.83-2.14-2.86-3.51" style="fill: #9acc6c;"/>
    <path d="M350.47,617.71c-9.04-.98-18.32-1.01-27.37-.09-.6.06-1.34.24-1.35.64,0,.31.47.52.89.67,9.62,3.3,21.26,3.86,31.49,1.52.69-.16,1.44-.37,1.71-.82.35-.58-.35-1.25-1.23-1.47s-1.86-.1-2.78,0" style="fill: #9acc6c;"/>
    <path d="M166.14,594.42c-39.23-4.56-79.75.46-119.2-3.17-9.62-.89-19.2-2.29-28.91-2.26-7.32.02-14.63.87-21.54,2.49-.79.19-1.7.48-1.81,1.03-.17.85,1.53,1.21,2.79,1.35,4.45.52,8.28,2.32,12.28,3.73,7.58,2.66,16.06,3.95,24.49,4.94,17.81,2.08,35.94,2.92,54.01,2.5,14.26-.34,28.45-1.46,42.61-2.62,12.59-1.03,25.5-2.16,36.69-6.14" style="fill: #9acc6c;"/>
    <path d="M121.86,582.97c-18.48-2.8-37.3-4.61-56.22-5.39,4.96,5.55,15.62,7.55,25.3,7.68s19.46-1.13,28.99,0" style="fill: #9acc6c;"/>
    <path d="M99.8,622.63c-24.7-.16-49.31,1.67-73.86,3.49-3.57.26-7.14.53-10.71.79-1.8.13-4.12.65-4.02,1.86.04.5.54.92,1.05,1.28,3.12,2.18,7.56,3.25,11.93,4.02,8.57,1.51,17.43,2.13,26.25,2.64,13.2.76,26.44,1.27,39.69,1.55,15.88.33,31.85.3,47.55-1.34.78-.08,1.6-.18,2.19-.54.86-.52.9-1.4.84-2.17-.18-2.42-.73-4.82-1.63-7.16-.29-.75-.63-1.51-1.32-2.13-.81-.72-2.03-1.2-3.28-1.54-3.14-.85-6.6-.97-9.99-1.01-11.87-.16-23.72.44-35.55,1.03" style="fill: #9acc6c;"/>
    <path d="M287.12,637.8c-31.79-3.31-64.36-3.26-96.12.16,5.36,3.12,14.52,1.93,19.47,5.34-3.24,2.04-7.7,3.03-12.13,3.36s-8.9.04-13.35-.15c-6.7-.29-13.42-.36-20.13-.23,4.15,3.02,10.71,3.86,16.81,4.29,12.13.85,24.35.7,36.54.54,14.7-.18,29.39-.37,44.09-.55,1.16-.01,2.59-.15,2.98-.88.53-.99-1.38-1.74-2.91-2-5.13-.89-10.35-1.54-15.62-1.95,4.94-1.1,10.16-1.62,15.36-1.54,9.68.15,19.65,2.34,28.83.28.66-.15,1.39-.37,1.62-.81.17-.33.03-.68-.13-1.01-.94-1.93-2.25-3.78-3.88-5.49" style="fill: #9acc6c;"/>
    <path d="M380.75,572.64c-11.77-1.28-23.73-1.83-35.66-1.63-1.87.03-4.33.45-4.36,1.7,11.27,1.71,22.77,2.76,34.32,3.1,1.88.05,3.79.09,5.6-.27s3.5-1.16,4.16-2.33" style="fill: #9acc6c;"/>
    <path d="M316.79,573.03l-11.76-.78c-1.47-.1-2.96-.19-4.41-.01s-2.88.67-3.64,1.51c-.34.38-.54.85-.31,1.27.25.45.92.72,1.57.93,6.26,2.05,13.62,1.66,20.57,1.22" style="fill: #9acc6c;"/>
    <path d="M36.76,574.8c-.03.17-.23.29-.41.4-5.4,3.14-13.14,3.6-20.3,3.62-6.66.02-13.32-.22-19.94-.72v-6.54c10.2-.03,20.39.2,30.51,1.01,3.25.26,6.57.6,9.44,1.65.35.12.74.32.7.58Z" style="fill: #9acc6c;"/>
    <path d="M20.18,543.06c18.47-1.43,38.69-2.16,55.96.34,5.02.73,9.76,1.72,15.2,2.05,4.57.28,9.28.06,13.89-.13,20.12-.84,41.32-1.13,59.98,1.37,1.24.17,2.54.36,3.25.72-14.76,1.44-30.52,1.36-45.93,1.76-18.61.49-37.47,1.7-55.79.56-6.96-.43-13.72-1.2-20.79-1.38-4.9-.12-9.82.04-14.74-.01-7.11-.07-14.17-.6-20.61-1.54-.97-.14-1.95-.3-2.64-.55-1.94-.7-.79-1.87,1.58-2.43s5.49-.68,8.44-.77" style="fill: #9acc6c;"/>
    <path d="M73.98,557.55c42.63-.74,85.41-1.49,128-.5,9.53.22,19.05.53,28.49,1-3.69,1.33-9.15,2.09-14.68,2.42-5.54.33-11.23.27-16.86.22-11.24-.1-22.52-.18-33.69.24-5.6.21-11.14.54-16.73.75-17.61.68-35.45.21-53.1-.38-8.55-.29-17.2-.61-25.2-1.59-1.21-.15-2.57-.38-2.7-.78-.21-.64,2.83-1,2.86-1.65" style="fill: #9acc6c;"/>
    <path d="M25.8,557.15c9.04-.46,18.32-.48,27.37-.04.6.03,1.34.11,1.35.3,0,.15-.47.25-.89.31-9.62,1.54-21.26,1.81-31.49.71-.69-.07-1.44-.17-1.71-.38-.35-.27.35-.59,1.23-.69s1.86-.05,2.78,0" style="fill: #9acc6c;"/>
    <path d="M210.12,546.24c39.23-2.14,79.75.22,119.2-1.49,9.62-.41,19.2-1.07,28.91-1.06,7.32.01,14.63.41,21.54,1.17.79.09,1.7.22,1.81.48.17.4-1.53.56-2.79.63-4.45.24-8.28,1.09-12.28,1.74-7.58,1.24-16.06,1.85-24.49,2.31-17.81.98-35.94,1.37-54.01,1.17-14.26-.16-28.45-.68-42.61-1.23-12.59-.48-25.5-1.01-36.69-2.88" style="fill: #9acc6c;"/>
    <path d="M254.4,540.88c18.48-1.31,37.3-2.16,56.22-2.53-4.96,2.6-15.62,3.54-25.3,3.6-9.68.06-19.46-.53-28.99,0" style="fill: #9acc6c;"/>
    <path d="M276.46,559.45c24.7-.07,49.31.78,73.86,1.63,3.57.12,7.14.25,10.71.37,1.8.06,4.12.31,4.02.87-.04.23-.54.43-1.05.6-3.12,1.02-7.56,1.52-11.93,1.88-8.57.71-17.42,1-26.25,1.24-13.2.35-26.44.6-39.69.72-15.88.15-31.85.14-47.55-.63-.78-.04-1.6-.08-2.19-.25-.86-.24-.9-.66-.84-1.02.18-1.13.73-2.26,1.63-3.36.29-.35.63-.71,1.32-1,.81-.34,2.03-.56,3.28-.72,3.14-.4,6.6-.45,9.99-.47,11.87-.07,23.72.2,35.55.48" style="fill: #9acc6c;"/>
    <path d="M89.14,566.56c31.79-1.55,64.36-1.52,96.12.07-5.36,1.46-14.52.9-19.47,2.5,3.24.96,7.7,1.42,12.13,1.57s8.9.02,13.35-.07c6.7-.13,13.42-.17,20.13-.11-4.15,1.41-10.71,1.81-16.81,2.01-12.13.4-24.35.33-36.54.25-14.7-.09-29.39-.17-44.09-.26-1.16,0-2.59-.07-2.98-.41-.53-.46,1.38-.81,2.91-.94,5.13-.42,10.35-.72,15.62-.91-4.94-.51-10.16-.76-15.36-.72-9.68.07-19.65,1.1-28.83.13-.66-.07-1.39-.17-1.62-.38-.17-.15-.03-.32.13-.47.94-.9,2.25-1.77,3.88-2.57" style="fill: #9acc6c;"/>
    <path d="M-4.49,536.04c11.77-.6,23.73-.86,35.66-.76,1.87.01,4.33.21,4.36.8-11.27.8-22.77,1.29-34.32,1.45-1.88.03-3.79.04-5.6-.13s-3.5-.54-4.16-1.09l4.06-.26Z" style="fill: #9acc6c;"/>
    <path d="M59.47,536.22c3.92-.12,7.84-.24,11.76-.36,1.47-.05,2.96-.09,4.41,0s2.88.31,3.64.71c.34.18.54.4.31.59-.25.21-.92.34-1.57.44-6.26.96-13.62.78-20.56.57" style="fill: #9acc6c;"/>
    <path d="M402.7,535.68c-17.7-.17-35.48-.33-53.07.33-3.25.12-6.57.28-9.44.77-.35.06-.74.15-.69.27.03.08.22.13.41.18,5.4,1.47,13.13,1.69,20.3,1.7,10.66.01,21.33-.28,31.82-.88,2.2-.13,4.45-.27,6.36-.64s3.46-.99,3.46-1.69" style="fill: #9acc6c;"/>
  </g>
  <g style="opacity: .3;">
    <path d="M286.64,629.53c-17.17,1.83-128.79,1.4-155.76-.02,0,0-16.37-1.33-21.1-4.9-.23-.16-.42-.33-.59-.51-1.26-1.31-1.12-3.09-.04-4.95h0c2.19-3.74,8.25-7.81,14.82-9.22.12-.02.23-.05.36-.07,10.08-2.09,27.02-3.55,41.17-3.74,14.92-.2,56.17.37,72.68.05,11.03-.21,39.18,1.87,52.01,6.41,1.89.67,3.44,1.37,4.56,2.11,8.41,4.75,9.06,13.01-8.11,14.85Z" style="fill: #24523c;"/>
  </g>
  <path d="M280.89,619.25c-16.36,8.33-122.68,6.36-148.37-.08,0,0-15.59-6.06-20.1-22.27-.22-.75-.4-1.52-.56-2.32-1.2-5.98-1.07-14.06-.04-22.53v-.02c2.09-16.97,7.86-35.52,14.12-41.9.11-.11.22-.23.34-.34,9.6-9.52,25.74-16.16,39.22-17.03,14.21-.92,53.5,1.66,69.23.21,10.51-.97,37.33,8.51,49.55,29.14,1.8,3.03,3.28,6.24,4.34,9.61,8.01,21.6,8.63,59.2-7.73,67.53Z" style="fill: url(#radial-gradient); stroke: #596268; stroke-miterlimit: 10; stroke-width: 2px;"/>
  <path d="M273.34,533.26s10.94,8.86-.56,11.65v5.11l-12.87.24s-72.41,10.73-100.94,1.15c-10.67-2.3-7.8-3.2-7.8-3.2l-10.4-9.28-10.09-9.03s18.68-13.38,34.45-13.66c16.69-.29,62.66-17.39,108.21,17.01Z" style="fill: #fff; opacity: .1;"/>
  <path d="M288.78,555.53s3.91,41.85-13.15,55.81c0,0-2.45,3.06-3.57,2.99s-25.97,1.62-25.97,1.62l-18-2.97s-30.23,4.65-50.29,5.68c-20.06,1.03-21.79-12.61-21.79-12.61l-1.64,8.28-17.88-2.06s-22.54-8.4-22.81-39.78c-6.26,2.3-10.54,46.84,44.64,51.04s123.03,1.22,128.67-8.42c7.51-17.5,10.32-44.23,1.79-59.58Z" style="fill: #807d75; opacity: .2;"/>
  <path d="M136.34,540.96s5.45,3.58,7.39,8.56c1.95,4.98,6.71,8.88,6.71,8.88l6.86,2.7-15.95-2.7-6.61,11.2,1.6-16.06-8.44-8.27,1.82-12.02s4.36,5.94,6.62,7.71Z" style="fill: #bfbfbf; opacity: .3;"/>
  <ellipse cx="202.16" cy="524.3" rx="46.15" ry="13.5" style="fill: #807d75; opacity: .2;"/>
  <path d="M282.65,554.74l-7.94,6.48-10.69,1.59,12.52,3.72s3.81-9.99,6.11-11.79Z" style="fill: #bfbfbf; opacity: .3;"/>
  <polygon points="310.82 462.71 318.35 469.62 310.31 470.62 310.82 462.71" style="fill: url(#linear-gradient-44); opacity: .4;"/>
  <ellipse cx="98.61" cy="539.52" rx="3.39" ry=".72" style="fill: #9acc6c; opacity: .7;"/>
  <ellipse cx="48.92" cy="550.15" rx="3.96" ry=".88" style="fill: #9acc6c; opacity: .7;"/>
  <ellipse cx="69.1" cy="565.41" rx="4.13" ry=".93" style="fill: #9acc6c; opacity: .7;"/>
  <ellipse cx="101.99" cy="575.84" rx="4.13" ry=".93" style="fill: #9acc6c; opacity: .7;"/>
  <ellipse cx="56.84" cy="587.76" rx="5.8" ry="1.42" style="fill: #9acc6c; opacity: .7;"/>
  <ellipse cx="177.8" cy="636.5" rx="5.8" ry="1.42" style="fill: #9acc6c; opacity: .7;"/>
  <ellipse cx="242.15" cy="640.55" rx="8.39" ry="1.61" style="fill: #9acc6c; opacity: .7;"/>
  <ellipse cx="85.63" cy="603.01" rx="2.03" ry=".47" style="fill: #9acc6c; opacity: .7;"/>
  <ellipse cx="2.62" cy="549.23" rx="5.78" ry="2.39" style="fill: #9acc6c; opacity: .7;"/>
  <ellipse cx="315.65" cy="546.84" rx="5.76" ry=".63" style="fill: #9acc6c; opacity: .7;"/>
  <ellipse cx="333.63" cy="555.13" rx="7.9" ry="1.45" style="fill: #9acc6c; opacity: .7;"/>
  <ellipse cx="376.73" cy="552.07" rx="4.73" ry=".64" style="fill: #9acc6c; opacity: .7;"/>
  <ellipse cx="331.91" cy="592.21" rx="5.73" ry="1.63" style="fill: #9acc6c; opacity: .7;"/>
  <g>
    <ellipse cx="68.36" cy="601.54" rx="2.8" ry="7.42" style="fill: #518c4f;"/>
    <ellipse cx="74.52" cy="603.95" rx="7.42" ry="2.8" transform="translate(-421.19 250.99) rotate(-47.51)" style="fill: #518c4f;"/>
    <ellipse cx="73.81" cy="607.65" rx="7.42" ry="2.8" transform="translate(-52.96 8.8) rotate(-5.03)" style="fill: #518c4f;"/>
    <ellipse cx="62.15" cy="603.95" rx="2.8" ry="7.42" transform="translate(-391.6 200.56) rotate(-42.49)" style="fill: #518c4f;"/>
    <ellipse cx="61.7" cy="608.1" rx="2.8" ry="7.42" transform="translate(-549.47 616.28) rotate(-84.97)" style="fill: #518c4f;"/>
  </g>
  <g>
    <ellipse cx="330.5" cy="571.48" rx="1.87" ry="4.95" style="fill: #518c4f;"/>
    <ellipse cx="334.6" cy="573.09" rx="4.95" ry="1.87" transform="translate(-314.01 432.76) rotate(-47.51)" style="fill: #518c4f;"/>
    <ellipse cx="334.13" cy="575.54" rx="4.95" ry="1.87" transform="translate(-49.14 31.49) rotate(-5.03)" style="fill: #518c4f;"/>
    <ellipse cx="326.36" cy="573.09" rx="1.87" ry="4.95" transform="translate(-301.38 370.9) rotate(-42.49)" style="fill: #518c4f;"/>
    <ellipse cx="326.06" cy="575.85" rx="1.87" ry="4.95" transform="translate(-276.14 850.2) rotate(-84.97)" style="fill: #518c4f;"/>
  </g>
  <g>
    <ellipse cx="62.63" cy="548.24" rx="1.25" ry="3.32" style="fill: #518c4f;"/>
    <ellipse cx="65.39" cy="549.32" rx="3.32" ry="1.25" transform="translate(-383.87 226.52) rotate(-47.51)" style="fill: #518c4f;"/>
    <ellipse cx="65.07" cy="550.97" rx="3.32" ry="1.25" transform="translate(-48.03 7.82) rotate(-5.03)" style="fill: #518c4f;"/>
    <ellipse cx="59.86" cy="549.32" rx="1.25" ry="3.32" transform="translate(-355.31 184.66) rotate(-42.49)" style="fill: #518c4f;"/>
    <ellipse cx="59.65" cy="551.18" rx="1.25" ry="3.32" transform="translate(-494.63 562.31) rotate(-84.97)" style="fill: #518c4f;"/>
  </g>
  <g>
    <ellipse cx="207.72" cy="649.68" rx="2.6" ry="5.79" style="fill: #518c4f;"/>
    <path d="M215.36,653.04c-2.57,2.36-5.52,3.61-6.58,2.8s.17-3.39,2.74-5.75,5.52-3.61,6.58-2.8-.17,3.39-2.74,5.75Z" style="fill: #518c4f;"/>
    <ellipse cx="212.78" cy="654.44" rx="6.89" ry="2.19" transform="translate(-45.48 16.58) rotate(-4.03)" style="fill: #518c4f;"/>
    <path d="M200.04,653.04c2.57,2.36,5.52,3.61,6.58,2.8,1.06-.82-.17-3.39-2.74-5.75-2.57-2.36-5.52-3.61-6.58-2.8s.17,3.39,2.74,5.75Z" style="fill: #518c4f;"/>
    <ellipse cx="201.53" cy="654.8" rx="2.19" ry="6.89" transform="translate(-465.81 809.8) rotate(-85.97)" style="fill: #518c4f;"/>
  </g>
  <path d="M277.14,601.54s-7.89,2.57-9.41,3.69-8.47,7.43-8.47,7.43l12.87-.51s7.46-8.61,5.01-10.61Z" style="fill: #807d75; opacity: .2;"/>
  <path d="M277.64,595.04s-4.66,3.13-5.59,3.97-1.18,3.28-1.18,3.28l6.24-2.35.53-4.9Z" style="fill: #807d75; opacity: .2;"/>
</svg>