<?xml version="1.0" encoding="UTF-8"?>
<svg id="junk" xmlns="http://www.w3.org/2000/svg" viewBox="0 0 450 450">
  <g style="opacity: .1;">
    <polygon points="225 0 112.5 225 337.5 225 225 0 112.5 225 337.5 225 225 0" style="fill: #1b1f1b;"/>
    <polygon points="450 0 337.5 225 562.5 225 450 0 337.5 225 562.5 225 450 0" style="fill: #1b1f1b;"/>
    <polygon points="0 0 -112.5 225 112.5 225 0 0 -112.5 225 112.5 225 0 0" style="fill: #1b1f1b;"/>
    <polygon points="337.5 225 225 450 450 450 337.5 225 225 450 450 450 337.5 225" style="fill: #1b1f1b;"/>
    <polygon points="112.5 225 0 450 225 450 112.5 225 0 450 225 450 112.5 225" style="fill: #1b1f1b;"/>
  </g>
</svg>