<?xml version="1.0" encoding="UTF-8"?>
<svg id="play_button" data-name="play button" xmlns="http://www.w3.org/2000/svg" viewBox="0 0 400 400">
  <g style="opacity: .2;">
    <path d="M217.54,292.03l-9-5.2-19.06-11c-1.19-.69-2.68.17-2.68,1.55v26.61s0,2.54,0,2.54l.32,1.22-.32,2.04c0,1.38,1.49,2.24,2.68,1.55l19.94-11.51.64-.94,1.29-.17,6.19-3.58c1.19-.69,1.19-2.41,0-3.1Z" style="fill: #2b3d13;"/>
  </g>
  <path d="M216.35,291.08l-8.5-4.91-18-10.39c-1.13-.65-2.53.16-2.53,1.46v25.13s0,2.4,0,2.4l.31,1.15-.31,1.93c0,1.3,1.41,2.11,2.53,1.46l18.83-10.87.61-.89,1.22-.17,5.85-3.38c1.13-.65,1.13-2.28,0-2.93Z" style="fill: #223d2d;"/>
  <polyline points="191.89 302.26 191.9 282.02 209.71 292.19 195.58 300.81 195.62 288.98 201.25 291.74" style="fill: none; stroke: #6dbf22; stroke-linecap: round; stroke-linejoin: round; stroke-width: 1.17px;"/>
</svg>