<?xml version="1.0" encoding="UTF-8"?>
<svg xmlns="http://www.w3.org/2000/svg" viewBox="0 0 400 400">
  <g style="isolation: isolate;">
    <g id="haniwa">
      <ellipse cx="199.94" cy="247.16" rx="38.52" ry="17" style="fill: #807d75; opacity: .2;"/>
      <g>
        <g id="leaf">
          <path d="M205.21,142.95s2.08-13.34,22.84-11.15c0,0-2.28,20.94-22.34,12.77" style="fill: #6dbf22; stroke: #3f6e14; stroke-linecap: round; stroke-linejoin: round; stroke-width: 1.42px;"/>
          <path d="M205.58,143.22s-4.2,5.03-3.08,7.22" style="fill: none; stroke: #3f6e14; stroke-miterlimit: 10; stroke-width: 1.85px;"/>
          <path d="M226.19,133.31s-15.24-2-19.4,8.84c7.48,2.9,14.97,1.26,19.4-8.84Z" style="fill: #e5f7d4; opacity: .2;"/>
          <path d="M208.25,140.49s5.15-6.96,14.56-5.91c-1.5,3.14-9.43,7.29-14.56,5.91Z" style="fill: #e5f7d4; opacity: .2;"/>
          <path d="M223.56,135.06c-3.63.6-7.12,2.07-10.28,3.93-.61.34-1.48.93-2.07,1.31-.32.23-1.18.85-1.49,1.08-.34.26-1.09.88-1.43,1.15-.12.09-.36.29-.46.4-.32.29-1.07.97-1.4,1.26-.94.79-2.13-.52-1.24-1.38.01-.01.03-.03.05-.04l1-.79c.18-.14.58-.46.75-.59.49-.34,1.33-.95,1.83-1.28.34-.21,1.27-.8,1.62-1.02,1.06-.61,2.27-1.27,3.37-1.78,2.3-1.06,4.71-1.9,7.19-2.42.83-.17,1.65-.31,2.52-.37.15-.01.28.1.29.25.01.15-.1.28-.25.29h0Z" style="fill: #3f6e14;"/>
        </g>
        <path d="M174.34,207.63s-4.48,5.4-10.38,2.16-2.14-21.04-13.29-16.82c-11.15,4.22-2.43,28.61,9.54,28.2,11.96-.4,17.16-3.24,17.16-3.24l-3.03-10.31Z" style="fill: #d1a680; stroke: #445740; stroke-miterlimit: 10; stroke-width: 2.13px;"/>
        <path d="M225.25,206.33s4.04,5.74,10.17,2.98,3.8-20.8,14.58-15.71.15,28.71-11.74,27.36-16.85-4.59-16.85-4.59l3.84-10.04Z" style="fill: #d1a680; stroke: #445740; stroke-miterlimit: 10; stroke-width: 2.13px;"/>
        <polygon points="227.17 219.2 227.91 209.6 225.22 207.04 223.81 217.97 227.17 219.2" style="fill: #445740; opacity: .3; stroke: #445740; stroke-miterlimit: 10; stroke-width: .5px;"/>
        <polygon points="172.54 220.12 171.64 210.53 174.28 207.93 175.88 218.83 172.54 220.12" style="fill: #445740; opacity: .3; stroke: #445740; stroke-miterlimit: 10; stroke-width: .5px;"/>
        <g id="Body">
          <path d="M237.08,244.14c0,8.93-16.69,16.27-37.13,16.27s-37.01-7.34-37.01-16.27c0-1.73.87-3.71,2.1-5.64,2.94-4.61,7.92-8.92,7.92-8.92,10.74-13.27-7.9-36.07-1.22-59.27,6.69-23.2,28.27-22.09,28.27-22.09,0,0,21.58-1.11,28.27,22.09s-11.96,46-1.22,59.27c0,0,4.57,4.48,7.54,8.85,1.42,2.09,2.47,4.16,2.47,5.7Z" style="fill: #d1a680; stroke: #445740; stroke-miterlimit: 10; stroke-width: 2.13px;"/>
          <path d="M227.19,175.58c-6.42-23.2-27.12-22.09-27.12-22.09,0,0-20.71-1.11-27.12,22.09-.83,3-1.25,5.99-1.38,8.95-.18-4.33.16-8.74,1.38-13.16,6.42-23.2,27.12-22.09,27.12-22.09,0,0,20.71-1.11,27.12,22.09,1.22,4.42,1.56,8.83,1.38,13.16-.13-2.96-.55-5.95-1.38-8.95Z" style="fill: #e8c9ae; mix-blend-mode: luminosity; opacity: .4;"/>
          <path d="M226.25,230.17c0,3.81-11.58,7.22-26.11,7.22s-26.3-3.3-26.3-7.11c0,0,.81-.54,1.49-2.4,3.69,5.09,14.58,6,23.67,6.22,19.06-.12,24.64-3.89,26.27-5.92.61,1.45.99,2,.99,2Z" style="fill: #e8c9ae; opacity: .4;"/>
          <path d="M176.26,216.04c0,3.63,10.62,6.57,23.72,6.57s23.72-2.94,23.72-6.57c0,0,1.04-6.11.09.42-.94,6.53,2.46,11.98,2.46,11.98,0,3.99-11.69,7.23-26.11,7.23s-26.11-3.24-26.11-7.23c0,0,3.09-3.02,2.26-11.9-.83-8.87-.03-.49-.03-.49Z" style="fill: #c49672; stroke: #445740; stroke-miterlimit: 10; stroke-width: 1px;"/>
          <g style="opacity: .4;">
            <line x1="200.15" y1="222.85" x2="200.15" y2="235.66" style="fill: #2b2715; stroke: #445740; stroke-miterlimit: 10; stroke-width: .75px;"/>
            <path d="M219.97,219.9s1.67,8.33,3.33,11.23" style="fill: #2b2715; stroke: #445740; stroke-miterlimit: 10; stroke-width: .75px;"/>
            <path d="M210.46,222.21s1.83,10.42,2.85,11.88" style="fill: #2b2715; stroke: #445740; stroke-miterlimit: 10; stroke-width: .75px;"/>
            <path d="M215.69,220.96s2.41,10.27,3.64,11.94" style="fill: #2b2715; stroke: #445740; stroke-miterlimit: 10; stroke-width: .75px;"/>
            <path d="M205.73,222.42s.81,11.08,1.24,12.69" style="fill: #2b2715; stroke: #445740; stroke-miterlimit: 10; stroke-width: .75px;"/>
            <path d="M180.09,219.9s-1.67,8.33-3.33,11.23" style="fill: #2b2715; stroke: #445740; stroke-miterlimit: 10; stroke-width: .75px;"/>
            <path d="M189.6,222.21s-1.83,10.42-2.85,11.88" style="fill: #2b2715; stroke: #445740; stroke-miterlimit: 10; stroke-width: .75px;"/>
            <path d="M184.38,220.96s-2.41,10.27-3.64,11.94" style="fill: #2b2715; stroke: #445740; stroke-miterlimit: 10; stroke-width: .75px;"/>
            <path d="M194.34,222.42s-.81,11.08-1.24,12.69" style="fill: #2b2715; stroke: #445740; stroke-miterlimit: 10; stroke-width: .75px;"/>
          </g>
          <path d="M176.39,218.16s2.79,6.68,23.62,5.9c20.83-.78,23.69-4.98,23.69-4.98l-.03-1.45s-6.98,4.6-23.69,4.97c-16.71.38-23.59-5.36-23.59-5.36v.91Z" style="fill: #445740; opacity: .3;"/>
        </g>
        <g id="nose">
          <path d="M203.04,196.49c-2.03,1.33-4.06,1.33-6.09,0,.37-7.4.37-14.79,0-22.19,2.03-1.33,4.06-1.33,6.09,0-.37,7.4-.37,14.79,0,22.19Z" style="fill: #445740; opacity: .3; stroke: #445740; stroke-miterlimit: 10; stroke-width: .5px;"/>
          <path d="M203.04,194.52c-2.03,1.33-4.06,1.33-6.09,0,.37-7.4.37-14.79,0-22.19,2.03-1.33,4.06-1.33,6.09,0-.37,7.4-.37,14.79,0,22.19Z" style="fill: #c49672; stroke: #445740; stroke-linecap: round; stroke-linejoin: round; stroke-width: 1px;"/>
        </g>
        <g id="mouth">
          <path d="M202.85,201.54c0,1.49-1.21,2.7-2.7,2.7s-2.7-1.21-2.7-2.7,1.21-2.1,2.7-2.1,2.7.61,2.7,2.1Z" style="fill: #3a2b23; stroke: #445740; stroke-miterlimit: 10; stroke-width: .63px;"/>
        </g>
        <g id="r-eye">
          <path d="M192.04,190.46c0,3.61-2.52,6.54-5.64,6.54s-5.64-2.93-5.64-6.54,3.43-6.54,6.54-6.54,4.73,2.93,4.73,6.54Z" style="fill: #3a2b23; stroke: #445740; stroke-miterlimit: 10; stroke-width: .73px;"/>
        </g>
        <g id="l-eye">
          <path d="M208.06,190.46c0,3.61,2.52,6.54,5.64,6.54s5.64-2.93,5.64-6.54-3.46-6.54-6.57-6.54-4.7,2.93-4.7,6.54Z" style="fill: #3a2b23; stroke: #445740; stroke-miterlimit: 10; stroke-width: .73px;"/>
        </g>
        <path d="M237.08,244.14c0,8.93-16.69,16.27-37.13,16.27s-37.01-7.34-37.01-16.27c0-1.73.87-3.71,2.1-5.64.44.75-.46,1.58-.46,1.58,0,0-5.34,17.99,35.27,17.99s35.41-18.2,35.41-18.2c0,0-.88-1.01-.65-1.44,1.42,2.09,2.47,4.16,2.47,5.7Z" style="fill: #445740; opacity: .3; stroke: #445740; stroke-miterlimit: 10; stroke-width: .5px;"/>
      </g>
    </g>
  </g>
</svg>