<?xml version="1.0" encoding="UTF-8"?>
<svg id="Foreground-right" xmlns="http://www.w3.org/2000/svg" viewBox="0 0 400 400">
  <g>
    <path d="M275.26,402.13s2.75-10.2,8.75-17.35c.73-.95-7.09,1.17-9.81,13.59" style="fill: #222f33;"/>
    <path d="M275.02,399.37s.96-10.87-.38-15c-.33-.76-3.32,11.95-.64,16.58,0,0,.77-.19,1.01-1.58Z" style="fill: #222f33;"/>
    <path d="M273.72,398.53s-2.05-10.06-9.23-12.43c-1.6-.21,1.53,1.02,2.99,4.88,1.46,3.85,7.13,13.08,6.23,7.56Z" style="fill: #222f33;"/>
  </g>
  <g>
    <path d="M333.82,367.95s-3.83-12.23-11.01-13.94c-7.18-1.7,6.11,3.9,10.4,17.77.89-2.37.6-3.83.6-3.83Z" style="fill: #222f33;"/>
    <g>
      <path d="M372.81,389.45s-10.16-17.28-10.24-19.95-4.68,2.74,6.26,16.91c1.52,1.79,4.12,5.54,3.98,3.03Z" style="fill: #222f33;"/>
      <path d="M360.51,377.18c-.33-.21-6.6-5.66-11.88-6.69s-5.8-3.17-6.08-4.07,2.71-1.2,4.74-.71c-4.3-5.81-16.04-12.05-18.7-14.15-1.56-.82,6.62,1.06,8.94,2.38-6.64-4.62-11.19-8.71-12.19-8.58-4.42-.91,1.91-3.61,15.05,8.05-2.74-4.06-2.41-3.82-2.28-3.91s7.84,3.27,14.41,14.54c-.69-3.11-1.87-5.11-1.42-5.57s11.87,15.56,12.97,18,2.67,4.65-3.57.69Z" style="fill: #222f33;"/>
    </g>
  </g>
  <g>
    <path d="M389.7,352.87s-4.33-43.03,4.12-64.86c2.47-4.14,17.64,31.87-2.32,62.45" style="fill: #222f33;"/>
    <path d="M389.67,349.4s21.65-25.67,27.69-27.66c2.44,2.93-9.05,23.59-15.69,30.25,5.54-4.07,9.04-6.73,9.04-6.73,0,0-4.09,11.66-6.71,10.98s-17.49.77-14.33-6.84Z" style="fill: #222f33;"/>
    <path d="M388.03,353.14s-1.68-46.56-49.38-65.7c-4.2-.98,27.97,43.96,44.68,64.54" style="fill: #222f33;"/>
    <path d="M386.59,356.04s-12.62-20.55-50.13-16.73c5.22,6.15,48.01,27.22,50.13,16.73Z" style="fill: #222f33;"/>
    <g>
      <path d="M361.47,244.16s10.88,21.07,29.98,128.93c7.45-.05,4.1-.9,4.1-.9,0,0-19.93-104.45-29.64-127.77" style="fill: #222f33;"/>
      <path d="M343.04,192.34l-4.65-13.43s-.8-7.38,7.83,14.21" style="fill: #222f33;"/>
      <path d="M343.61,192.22s6.81-3.34,12.35,8.14c5.55,11.48,16.37,43.48,8.83,45.26-7.54,1.78-13.53-14.75-17.54-27.63-4-12.87-10.13-22.77-3.65-25.77Z" style="fill: #222f33;"/>
    </g>
  </g>
  <path d="M312.74,387.94s-9.6-2.72-14.21-7.44c1.48-1.11,7.73,1.92,9.22,3.06-8.03-4.36-11.02-9.23-11.31-10.18,4.17,1.85,15.05,7.72,17.01,11.65-12.83-11.36-18.74-20.5-18.73-21.38,5.37,1.44,14.68,9.65,20.94,19.29-8.24-14.16-9.48-25.2-9.95-28.45,6.32,4.15,13.08,19.43,12.94,27.38-.79-8.39,1.35-19.61,3.1-22.7,1.16,4.79,1.43,16.48-.03,21.18-1.46,4.69-3.58,9.5-7.19,8.67" style="fill: #222f33;"/>
  <g>
    <path d="M263.83,379.54s9.48-9.05,18.81-4.38c0,0,1.44.6,2.08,1.52s3.23-11.43-8.9-11.5c-12.14-.07-10.41,11.49-11.99,14.36Z" style="fill: #222f33;"/>
    <path d="M263.61,394.19s1.72-17.59-5.67-27.86c-1.22-1.36,3.8-1.87,5.85,10.34,2.05,12.21,1.98,17.52,1.98,17.52h-2.15Z" style="fill: #222f33;"/>
    <path d="M263.25,379.11s-17.45-9.98-20.11,9.48c-.43,3.66,5.39-6.39,9.26-7.18s10.84-2.3,10.84-2.3Z" style="fill: #222f33;"/>
    <path d="M262.3,370.84s1.62-9.57,8.75-13.19c5.4-1.63-13.28-9.35-8.75,13.19Z" style="fill: #222f33;"/>
    <path d="M261.11,370.84s-12.28-7.63-18.65,3.02c-.66,1.68,5.25-.41,7.9-1.73,2.65-1.32,9.78-1.7,10.75-1.28Z" style="fill: #222f33;"/>
    <path d="M259.74,366.11s-.66-7.64,1.02-9.99c1.48-2.5-5.1-1.02-6.93,3.06-1.83,4.08-2.55.25-4.79,5.04-2.24,4.79,9.89,2.34,10.04,2.8" style="fill: #222f33;"/>
  </g>
  <g>
    <g>
      <path d="M290.59,401.75c-.38-5.9-1.34-11.81-2.71-17.66,3.62,4.74,6.65,9.85,8.84,15.16.69-7.34-.77-14.9-3.67-21.96,2.69,5.5,6.44,10.68,11.19,15.22-.67-3.31-1.29-6.63-1.87-9.95,2.52,2.54,5.14,5.03,7.85,7.47.04-6.23-2.19-12.5-5.85-17.85,6.57,4.34,11.37,11.4,11.9,18.75-.58-3.89-.43-7.83.34-11.65.54,3,1.92,5.9,4.08,8.33.19-2.42.37-4.83.55-7.25,1.13,1.28,2.28,2.56,3.45,3.82-2.65-5.88-7.27-11.05-12.8-14.75,6.78,2.04,12.93,6.54,16.53,12.39-1.76-4.88-4.14-9.58-6.94-14,6.6,1.72,12.64,6.05,16,11.77-1.21-4.4-3.55-8.55-6.62-12.07,4.48,1.15,8.69,3.47,11.96,6.67-1.28-2.74-2.53-5.5-3.72-8.27,2.26,3.51,4.63,6.98,7.11,10.41-.6-2.52-1.19-5.04-1.77-7.56,2.11,1.51,3.97,3.37,5.41,5.47-.82-2.16-1.63-4.33-2.42-6.5,2.94.6,5.91,1.13,8.92,1.59-1.44-1.58-2.85-3.18-4.24-4.8,3.75.72,7.31,2.58,9.92,5.28-1.22-2.05-1.84-4.39-1.86-6.74,1.94.54,3.89,1.04,5.86,1.51-1.86-2.65-2.61-5.94-2.24-9.1-1.48-3.6-2.93-7.2-4.33-10.82,3.73,4.35,7.67,8.59,11.84,12.7-3.45-5.57-6.71-11.22-9.81-16.94,4.59,3.7,8.73,8.29,11.77,13.52-2.19-6.47-6.08-12.36-10.74-17.19,5.75,3.27,10.67,9.02,12.51,15.68-1.55-4.23-3.07-8.46-4.59-12.69,3.53,2.28,7.2,4.45,10.99,6.5-3.21-2.98-5.86-6.48-7.94-10.3,4.33,1.52,8.58,3.73,12.46,6.57-1.74-2.15-3.45-4.33-5.13-6.52,1.65.77,3.31,1.53,5.01,2.25-.96-.95-1.92-1.92-2.87-2.88,4.34.63,8.82,1.09,13.1,2.66,4.26,1.58,8.42,4.47,10.03,8.7,1.97,5.17-.46,11.09-3.52,16.2-19.79,33.95-64.48,56.59-113.56,60.27-3.15.27-6.58.43-9.55-.8-8.62-3.67-5.3-12.32-2.23-16.67,3.96-5.63,5.07-10.69,6.1-17.33,1.3,2.25,2.4,4.62,3.64,6.91.89,1.68,3.49,4.68,3.62,6.44Z" style="fill: #222f33;"/>
      <path d="M380.19,358.74c1.14.67,2.51.51,3.79.34,6.41-.86,12.86-1.82,19.24-3.08v-23.25c-1.31-2.38-3.25-4.34-5.53-5.51,2.53,2.62,4.27,6.17,4.84,9.95-.41-.87-.81-1.74-1.22-2.62-.34,1.44-.68,2.87-1.01,4.3-.75-1.65-1.14-3.5-1.12-5.34-.63,1.94-1.03,3.98-1.18,6.04.16-4.15-1.46-8.36-4.31-11.08,1.52,3.4,2.07,7.33,1.54,11.09-1.05-1.63-2.1-3.26-3.15-4.89.07,2.03.15,4.06.23,6.09-1.86-2.93-3.36-6.12-4.48-9.49,1.16,4.32,1.4,8.93.69,13.36-.67-3.25-1.82-6.38-3.38-9.23.47,3.52.66,7.08.56,10.65,0-1.08-1-2.85-1.34-3.85-.48-1.37-.9-2.79-1.45-4.13-.62,4.05-1.28,7.12-3.11,10.65-1.43,2.76-2.91,8.07.4,10Z" style="fill: #222f33;"/>
      <path d="M212.87,400.14c2.03-4.68,3.52-9.58,4.56-14.57.94,4.71,1.26,9.55.79,14.3,3.32-5.54,4.95-11.93,5.17-18.36.12,5.12,1,10.25,2.75,15.16.74-2.8,1.47-5.6,2.18-8.41.95,2.73,1.96,5.44,3.03,8.15,2.29-4.92,2.78-10.58,1.8-15.92,3.41,5.33,4.57,12.41,2.25,18.38,1.01-3.25,2.5-6.34,4.35-9.18-.62,2.56-.63,5.27.07,7.85,1.01-1.86,1.99-3.74,2.95-5.62.39,1.36.79,2.72,1.19,4.08.14-5.48-1.59-11.01-4.5-15.6,4.33,3.6,7.47,9.08,8.07,14.84.42-4.43.2-8.92-.51-13.33,4.36,3.36,7.53,8.72,8,14.34.66-3.89.28-7.95-.92-11.73,3,2.3,5.44,5.49,6.79,9.09-.02-2.6-.04-5.21-.07-7.81.6,3.54,1.21,7.07,1.87,10.6.44-2.2.86-4.41,1.26-6.62,1.1,1.88,1.88,3.96,2.23,6.11.14-1.99.27-3.99.4-5.98,2.04,1.42,4.14,2.81,6.28,4.16-.55-1.74-1.09-3.48-1.62-5.22,2.66,1.79,4.77,4.45,5.81,7.46-.2-2.04.14-4.12.94-6.01,1.32,1.06,2.67,2.11,4.03,3.15-.5-2.74.03-5.62,1.37-8.03.02-3.37.01-6.74-.03-10.1,1.71,4.72,3.49,9.42,5.34,14.1-.77-5.61-1.58-11.22-2.41-16.82,2.68,4.48,4.56,9.53,5.16,14.73.51-5.91-.77-11.92-3.23-17.33,3.83,4.53,6.04,10.76,5.17,16.71.23-3.9.4-7.8.49-11.69,2.21,3,4.49,5.96,6.86,8.88-1.56-3.46-2.58-7.15-3.11-10.89,3.15,2.66,5.97,5.85,8.14,9.42-.66-2.31-1.33-4.62-2-6.93,1.12,1.17,2.26,2.33,3.42,3.47-.47-1.09-.94-2.17-1.4-3.26,3.43,1.95,7.05,3.82,10,6.52,2.95,2.71,5.21,6.46,4.76,10.44-.54,4.87-4.98,8.81-9.49,11.86-29.78,20.47-71.86,22.48-108.3,11.56-2.36-.68-4.88-1.51-6.44-3.24-4.49-5.05,1.57-10.64,5.47-13.2,5.07-3.28,7.81-6.92,10.91-11.87.12,2.11.04,4.25.06,6.37.01,1.55.72,4.58.12,5.98Z" style="fill: #222f33;"/>
    </g>
    <polygon points="403.66 353.97 403.66 409.79 207.31 409.79 211.54 406.22 286.17 396.84 403.66 353.97" style="fill: #222f33;"/>
  </g>
  <path d="M210.84,405.11s5.1-11.58,5.32-19.84c9.41-4.9,10.9-13.92,7.8-16.1-5.27,1.5-10.05,12.9-9.51,14.81-4.65-10.41-12.25-9.24-14.28-7.9,2.36,4.55,10.09,11.08,13.47,11.29,1.72,3.91-2.86,14.19-5.68,17.66" style="fill: #222f33;"/>
</svg>