<?xml version="1.0" encoding="UTF-8"?>
<svg id="Foreground-right" xmlns="http://www.w3.org/2000/svg" viewBox="0 0 400 400">
  <g>
    <path d="M250.24,397.53s.21-14.32,5.71-25.71c.65-1.49-8.93,3.9-8.35,21.13" style="fill: #222f33;"/>
    <path d="M249,391.13s-2.36-14.6-5.51-19.58c-.69-.89-.37,16.81,4.7,21.99,0,0,.95-.51.8-2.41Z" style="fill: #222f33;"/>
    <path d="M247,390.45s-6.06-12.52-16.28-13.25c-2.17.26,2.35.83,5.56,5.4s13.75,14.79,10.72,7.84Z" style="fill: #222f33;"/>
  </g>
  <g>
    <path d="M282.4,384.73s2.75-10.2,8.75-17.35c.73-.95-7.09,1.17-9.81,13.59" style="fill: #222f33;"/>
    <path d="M282.15,381.98s.96-10.87-.38-15c-.33-.76-3.32,11.95-.64,16.58,0,0,.77-.19,1.01-1.58Z" style="fill: #222f33;"/>
    <path d="M280.85,381.14s-2.05-10.06-9.23-12.43c-1.6-.21,1.53,1.02,2.99,4.88,1.46,3.85,7.13,13.08,6.23,7.56Z" style="fill: #222f33;"/>
  </g>
  <g>
    <path d="M333.82,359.45s-3.83-12.23-11.01-13.94c-7.18-1.7,6.11,3.9,10.4,17.77.89-2.37.6-3.83.6-3.83Z" style="fill: #222f33;"/>
    <g>
      <path d="M336.04,368.2s-.89-20.02.28-22.42-5.42.23-2.38,17.87c.5,2.29,1.05,6.82,2.1,4.54Z" style="fill: #222f33;"/>
      <path d="M330.91,351.61c-.19-.34-3.19-8.09-7.37-11.47s-3.64-5.51-3.47-6.44,2.95.21,4.52,1.59c-1.09-7.14-8.54-18.15-9.91-21.25-1-1.45,5.35,4.03,6.79,6.28-3.71-7.19-5.81-12.93-6.76-13.29-3.48-2.87,3.38-2.3,9.54,14.16-.52-4.87-.35-4.5-.19-4.52s5.4,6.56,5.94,19.6c.84-3.07.73-5.39,1.36-5.59s3.21,19.3,3.04,21.98.18,5.36-3.48-1.06Z" style="fill: #222f33;"/>
    </g>
  </g>
  <g>
    <path d="M389.7,344.37s-4.33-43.03,4.12-64.86c2.47-4.14,17.64,31.87-2.32,62.45" style="fill: #222f33;"/>
    <path d="M389.67,340.9s21.65-25.67,27.69-27.66c2.44,2.93-9.05,23.59-15.69,30.25,5.54-4.07,9.04-6.73,9.04-6.73,0,0-4.09,11.66-6.71,10.98s-17.49.77-14.33-6.84Z" style="fill: #222f33;"/>
    <path d="M388.03,344.64s-1.68-46.56-49.38-65.7c-4.2-.98,27.97,43.96,44.68,64.54" style="fill: #222f33;"/>
    <path d="M386.59,347.54s-12.62-20.55-50.13-16.73c5.22,6.15,48.01,27.22,50.13,16.73Z" style="fill: #222f33;"/>
    <g>
      <path d="M361.47,235.66s10.88,21.07,29.98,128.93c7.45-.05,4.1-.9,4.1-.9,0,0-19.93-104.45-29.64-127.77" style="fill: #222f33;"/>
      <path d="M343.04,183.84l-4.65-13.43s-.8-7.38,7.83,14.21" style="fill: #222f33;"/>
      <path d="M343.61,183.72s6.81-3.34,12.35,8.14c5.55,11.48,16.37,43.48,8.83,45.26-7.54,1.78-13.53-14.75-17.54-27.63-4-12.87-10.13-22.77-3.65-25.77Z" style="fill: #222f33;"/>
    </g>
  </g>
  <path d="M313.44,378.35s-11.14-3.16-16.5-8.64c1.72-1.29,8.97,2.23,10.71,3.55-9.32-5.06-12.8-10.72-13.13-11.82,4.84,2.15,17.47,8.97,19.74,13.53-14.9-13.19-21.75-23.8-21.75-24.82,6.23,1.68,17.04,11.21,24.31,22.4-9.57-16.45-11.01-29.26-11.56-33.04,7.34,4.82,15.19,22.55,15.03,31.79-.92-9.75,1.57-22.77,3.59-26.35,1.35,5.56,1.66,19.14-.03,24.59s-4.16,11.03-8.35,10.07" style="fill: #222f33;"/>
  <g>
    <path d="M265.34,370.46s11.54-11.02,22.91-5.33c0,0,1.75.73,2.54,1.85s3.93-13.92-10.84-14c-14.77-.09-12.68,13.99-14.6,17.49Z" style="fill: #222f33;"/>
    <path d="M265.07,388.3s2.1-21.42-6.91-33.92c-1.49-1.66,4.62-2.27,7.12,12.59,2.5,14.86,2.41,21.33,2.41,21.33h-2.62Z" style="fill: #222f33;"/>
    <path d="M264.64,369.94s-21.24-12.15-24.48,11.54c-.52,4.46,6.56-7.78,11.28-8.74s13.2-2.8,13.2-2.8Z" style="fill: #222f33;"/>
    <path d="M263.47,359.87s1.97-11.65,10.66-16.05c6.58-1.99-16.16-11.38-10.66,16.05Z" style="fill: #222f33;"/>
    <path d="M262.03,359.87s-14.95-9.29-22.7,3.67c-.81,2.05,6.39-.5,9.62-2.11,3.23-1.61,11.91-2.07,13.09-1.56Z" style="fill: #222f33;"/>
    <path d="M260.36,354.11s-.81-9.31,1.24-12.16c1.8-3.04-6.2-1.24-8.44,3.72-2.23,4.96-3.1.31-5.83,6.14-2.73,5.83,12.03,2.85,12.22,3.41" style="fill: #222f33;"/>
  </g>
  <g>
    <g>
      <path d="M290.59,393.21c-.43-5.9-1.43-11.8-2.84-17.64,3.65,4.72,6.72,9.8,8.95,15.1.63-7.35-.88-14.89-3.83-21.93,2.73,5.48,6.52,10.64,11.31,15.14-.69-3.31-1.34-6.62-1.94-9.93,2.54,2.52,5.18,5,7.9,7.42,0-6.23-2.28-12.49-5.98-17.81,6.6,4.29,11.45,11.31,12.04,18.66-.61-3.88-.49-7.82.26-11.65.56,2.99,1.96,5.88,4.14,8.3.17-2.42.33-4.84.49-7.25,1.14,1.28,2.3,2.54,3.47,3.8-2.7-5.86-7.35-10.99-12.91-14.65,6.8,1.99,12.98,6.45,16.62,12.27-1.8-4.87-4.21-9.55-7.04-13.95,6.62,1.67,12.69,5.96,16.09,11.66-1.24-4.39-3.61-8.52-6.7-12.02,4.49,1.12,8.72,3.41,12.01,6.58-1.3-2.73-2.57-5.48-3.78-8.24,2.29,3.5,4.68,6.95,7.19,10.36-.62-2.51-1.23-5.03-1.83-7.55,2.13,1.5,3.99,3.34,5.45,5.43-.84-2.16-1.66-4.32-2.47-6.48,2.94.58,5.92,1.09,8.93,1.53-1.45-1.57-2.88-3.16-4.27-4.77,3.76.69,7.33,2.53,9.96,5.2-1.24-2.04-1.87-4.38-1.91-6.73,1.94.52,3.9,1.01,5.87,1.47-1.87-2.64-2.65-5.92-2.31-9.08-1.51-3.58-2.98-7.18-4.41-10.79,3.76,4.32,7.74,8.53,11.93,12.61-3.49-5.55-6.8-11.18-9.93-16.87,4.62,3.66,8.79,8.23,11.87,13.43-2.23-6.45-6.17-12.32-10.87-17.11,5.77,3.23,10.73,8.94,12.62,15.59-1.58-4.21-3.14-8.43-4.68-12.66,3.55,2.25,7.23,4.4,11.04,6.42-3.23-2.95-5.91-6.44-8.02-10.24,4.34,1.49,8.61,3.67,12.51,6.48-1.76-2.14-3.48-4.3-5.17-6.48,1.65.76,3.32,1.5,5.02,2.21-.97-.95-1.93-1.9-2.89-2.86,4.34.6,8.83,1.02,13.12,2.56,4.27,1.55,8.45,4.41,10.09,8.63,2.01,5.15-.37,11.09-3.4,16.22-19.54,34.1-64.06,57.06-113.12,61.1-3.15.29-6.58.48-9.56-.73-8.65-3.6-5.39-12.28-2.35-16.66,3.92-5.66,5-10.73,5.98-17.37,1.32,2.24,2.44,4.6,3.69,6.88.9,1.67,3.53,4.66,3.67,6.42Z" style="fill: #222f33;"/>
      <path d="M380.19,350.24c1.14.67,2.51.51,3.79.34,6.41-.86,12.86-1.82,19.24-3.08v-23.25c-1.31-2.38-3.25-4.34-5.53-5.51,2.53,2.62,4.27,6.17,4.84,9.95-.41-.87-.81-1.74-1.22-2.62-.34,1.44-.68,2.87-1.01,4.3-.75-1.65-1.14-3.5-1.12-5.34-.63,1.94-1.03,3.98-1.18,6.04.16-4.15-1.46-8.36-4.31-11.08,1.52,3.4,2.07,7.33,1.54,11.09-1.05-1.63-2.1-3.26-3.15-4.89.07,2.03.15,4.06.23,6.09-1.86-2.93-3.36-6.12-4.48-9.49,1.16,4.32,1.4,8.93.69,13.36-.67-3.25-1.82-6.38-3.38-9.23.47,3.52.66,7.08.56,10.65,0-1.08-1-2.85-1.34-3.85-.48-1.37-.9-2.79-1.45-4.13-.62,4.05-1.28,7.12-3.11,10.65-1.43,2.76-2.91,8.07.4,10Z" style="fill: #222f33;"/>
      <path d="M212.49,391.45c2.18-4.61,3.83-9.46,5.03-14.42.79,4.73.95,9.59.32,14.32,3.5-5.43,5.33-11.76,5.77-18.18-.04,5.12.67,10.27,2.25,15.24.83-2.78,1.65-5.55,2.45-8.33.86,2.75,1.78,5.51,2.76,8.25,2.45-4.84,3.13-10.49,2.32-15.85,3.23,5.44,4.16,12.55,1.64,18.44,1.11-3.21,2.71-6.26,4.65-9.03-.7,2.53-.8,5.25-.19,7.84,1.07-1.83,2.11-3.67,3.13-5.52.34,1.37.7,2.75,1.06,4.12.32-5.48-1.23-11.06-3.98-15.74,4.21,3.74,7.17,9.32,7.58,15.1.56-4.41.49-8.91-.08-13.33,4.25,3.5,7.24,8.96,7.53,14.59.79-3.87.54-7.93-.53-11.75,2.92,2.4,5.25,5.67,6.49,9.3.07-2.6.13-5.2.19-7.81.48,3.55.98,7.1,1.52,10.65.51-2.19,1-4.38,1.47-6.57,1.04,1.92,1.75,4.02,2.03,6.18.21-1.99.4-3.98.59-5.97,2,1.49,4.04,2.94,6.14,4.36-.49-1.75-.97-3.51-1.45-5.27,2.6,1.87,4.63,4.6,5.56,7.65-.13-2.05.28-4.12,1.13-5.98,1.28,1.11,2.6,2.2,3.93,3.28-.41-2.75.22-5.62,1.63-7.98.13-3.37.23-6.73.3-10.1,1.55,4.77,3.18,9.53,4.88,14.26-.59-5.64-1.21-11.27-1.85-16.89,2.53,4.57,4.25,9.68,4.68,14.9.7-5.89-.38-11.94-2.66-17.42,3.68,4.65,5.68,10.95,4.62,16.87.36-3.89.66-7.78.87-11.66,2.11,3.07,4.3,6.1,6.57,9.1-1.45-3.51-2.35-7.23-2.75-10.98,3.06,2.76,5.77,6.04,7.83,9.68-.59-2.33-1.18-4.66-1.77-6.99,1.08,1.2,2.18,2.4,3.3,3.58-.43-1.1-.86-2.2-1.29-3.31,3.37,2.06,6.92,4.05,9.79,6.85,2.86,2.8,4.99,6.62,4.41,10.59-.7,4.84-5.26,8.64-9.87,11.54-30.43,19.49-72.56,20.12-108.62,8.01-2.34-.76-4.83-1.66-6.34-3.44-4.33-5.2,1.91-10.58,5.9-13.02,5.18-3.11,8.03-6.66,11.29-11.51.05,2.11-.1,4.25-.14,6.36-.04,1.55.57,4.6-.08,5.98Z" style="fill: #222f33;"/>
    </g>
    <polygon points="403.66 345.47 403.66 401.29 207.31 401.29 211.54 397.72 286.17 388.34 403.66 345.47" style="fill: #222f33;"/>
  </g>
  <path d="M212.8,389.56s5.1-11.58,5.32-19.84c9.41-4.9,10.9-13.92,7.8-16.1-5.27,1.5-10.05,12.9-9.51,14.81-4.65-10.41-12.25-9.24-14.28-7.9,2.36,4.55,10.09,11.08,13.47,11.29,1.72,3.91-2.86,14.19-5.68,17.66" style="fill: #222f33;"/>
</svg>