<?xml version="1.0" encoding="UTF-8"?>
<svg id="Foreground-right" xmlns="http://www.w3.org/2000/svg" viewBox="0 0 400 400">
  <style>
    :root { --blue-700: oklch(29.905% 0.01896 218.694); }
  </style>
  <g>
    <path d="M279.38,399.5s2.75-10.2,8.75-17.35c.73-.95-7.09,1.17-9.81,13.59" style="fill: var(--blue-700);"/>
    <path d="M275.02,399.37s.96-10.87-.38-15c-.33-.76-3.32,11.95-.64,16.58,0,0,.77-.19,1.01-1.58Z" style="fill: var(--blue-700);"/>
    <path d="M275.43,396.91s-2.05-10.06-9.23-12.43c-1.6-.21,1.53,1.02,2.99,4.88,1.46,3.85,7.13,13.08,6.23,7.56Z" style="fill: var(--blue-700);"/>
  </g>
  <g>
    <path d="M353.37,384.55s-3.83-12.23-11.01-13.94c-7.18-1.7,6.11,3.9,10.4,17.77.89-2.37.6-3.83.6-3.83Z" style="fill: var(--blue-700);"/>
    <g>
      <path d="M362.52,382.42s-10.16-17.28-10.24-19.95-4.68,2.74,6.26,16.91c1.52,1.79,4.12,5.54,3.98,3.03Z" style="fill: var(--blue-700);"/>
      <path d="M350.22,370.15c-.33-.21-6.6-5.66-11.88-6.69s-5.8-3.17-6.08-4.07,2.71-1.2,4.74-.71c-4.3-5.81-16.04-12.05-18.7-14.15-1.56-.82,6.62,1.06,8.94,2.38-6.64-4.62-11.19-8.71-12.19-8.58-4.42-.91,1.91-3.61,15.05,8.05-2.74-4.06-2.41-3.82-2.28-3.91s7.84,3.27,14.41,14.54c-.69-3.11-1.87-5.11-1.42-5.57s11.87,15.56,12.97,18,2.67,4.65-3.57.69Z" style="fill: var(--blue-700);"/>
    </g>
  </g>
  <g>
    <path d="M389.7,352.87s-4.33-43.03,4.12-64.86c2.47-4.14,17.64,31.87-2.32,62.45" style="fill: var(--blue-700);"/>
    <path d="M389.67,349.4s21.65-25.67,27.69-27.66c2.44,2.93-9.05,23.59-15.69,30.25,5.54-4.07,9.04-6.73,9.04-6.73,0,0-4.09,11.66-6.71,10.98s-17.49.77-14.33-6.84Z" style="fill: var(--blue-700);"/>
    <path d="M388.03,353.14s-1.68-46.56-49.38-65.7c-4.2-.98,27.97,43.96,44.68,64.54" style="fill: var(--blue-700);"/>
    <path d="M386.59,356.04s-12.62-20.55-50.13-16.73c5.22,6.15,48.01,27.22,50.13,16.73Z" style="fill: var(--blue-700);"/>
    <g>
      <path d="M361.47,244.16s10.88,21.07,29.98,128.93c7.45-.05,4.1-.9,4.1-.9,0,0-19.93-104.45-29.64-127.77" style="fill: var(--blue-700);"/>
      <path d="M343.04,192.34l-4.65-13.43s-.8-7.38,7.83,14.21" style="fill: var(--blue-700);"/>
      <path d="M344.04,192.42s6.81-3.34,12.35,8.14c5.55,11.48,16.37,43.48,8.83,45.26-7.54,1.78-13.53-14.75-17.54-27.63-4-12.87-10.13-22.77-3.65-25.77Z" style="fill: var(--blue-700);"/>
    </g>
  </g>
  <path d="M306.88,392.39s-12.57-3.57-18.62-9.75c1.94-1.46,10.13,2.52,12.08,4.01-10.52-5.71-14.44-12.1-14.81-13.34,5.47,2.42,19.72,10.12,22.28,15.26-16.81-14.88-24.54-26.86-24.53-28.01,7.04,1.89,19.23,12.65,27.42,25.28-10.79-18.56-12.4-33.03-13.02-37.28,8.28,5.44,17.13,25.45,16.94,35.88-1.03-11,1.79-25.7,4.08-29.74,1.52,6.28,1.86,21.6-.05,27.75-1.92,6.15-4.7,12.44-9.43,11.36" style="fill: var(--blue-700);"/>
  <g>
    <path d="M262.83,380.04s9.48-9.05,18.81-4.38c0,0,1.44.6,2.08,1.52s3.23-11.43-8.9-11.5c-12.14-.07-10.41,11.49-11.99,14.36Z" style="fill: var(--blue-700);"/>
    <path d="M262.61,394.69s1.72-17.59-5.67-27.86c-1.22-1.36,3.8-1.87,5.85,10.34,2.05,12.21,1.98,17.52,1.98,17.52h-2.15Z" style="fill: var(--blue-700);"/>
    <path d="M262.25,379.61s-17.45-9.98-20.11,9.48c-.43,3.66,5.39-6.39,9.26-7.18s10.84-2.3,10.84-2.3Z" style="fill: var(--blue-700);"/>
    <path d="M261.3,371.34s1.62-9.57,8.75-13.19c5.4-1.63-13.28-9.35-8.75,13.19Z" style="fill: var(--blue-700);"/>
    <path d="M260.11,371.34s-12.28-7.63-18.65,3.02c-.66,1.68,5.25-.41,7.9-1.73,2.65-1.32,9.78-1.7,10.75-1.28Z" style="fill: var(--blue-700);"/>
    <path d="M258.74,366.61s-.66-7.64,1.02-9.99c1.48-2.5-5.1-1.02-6.93,3.06-1.83,4.08-2.55.25-4.79,5.04-2.24,4.79,9.89,2.34,10.04,2.8" style="fill: var(--blue-700);"/>
  </g>
  <path d="M380.19,358.74c1.14.67,2.51.51,3.79.34,6.41-.86,12.86-1.82,19.24-3.08v-23.25c-1.31-2.38-3.25-4.34-5.53-5.51,2.53,2.62,4.27,6.17,4.84,9.95-.41-.87-.81-1.74-1.22-2.62-.34,1.44-.68,2.87-1.01,4.3-.75-1.65-1.14-3.5-1.12-5.34-.63,1.94-1.03,3.98-1.18,6.04.16-4.15-1.46-8.36-4.31-11.08,1.52,3.4,2.07,7.33,1.54,11.09-1.05-1.63-2.1-3.26-3.15-4.89.07,2.03.15,4.06.23,6.09-1.86-2.93-3.36-6.12-4.48-9.49,1.16,4.32,1.4,8.93.69,13.36-.67-3.25-1.82-6.38-3.38-9.23.47,3.52.66,7.08.56,10.65,0-1.08-1-2.85-1.34-3.85-.48-1.37-.9-2.79-1.45-4.13-.62,4.05-1.28,7.12-3.11,10.65-1.43,2.76-2.91,8.07.4,10Z" style="fill: var(--blue-700);"/>
  <path d="M210.84,405.11s5.1-11.58,5.32-19.84c9.41-4.9,10.9-13.92,7.8-16.1-5.27,1.5-10.05,12.9-9.51,14.81-4.65-10.41-12.25-9.24-14.28-7.9,2.36,4.55,10.09,11.08,13.47,11.29,1.72,3.91-2.86,14.19-5.68,17.66" style="fill: var(--blue-700);"/>
  <path d="M355.23,374.46c.29.15.54.32.76.53-.26-.15-.52-.33-.76-.53Z" style="fill: var(--blue-700);"/>
  <path d="M361.98,349.02c-.33-.21-.66-.42-.99-.63.36.17.69.38.99.63Z" style="fill: var(--blue-700);"/>
  <path d="M376.87,332.1c.58,1.26,1.16,2.53,1.73,3.8-.77-1.17-1.36-2.45-1.73-3.8Z" style="fill: var(--blue-700);"/>
  <path d="M410.55,397.65c-.27,2.22-.61,4.56-1.98,6.33-1.38,1.77-3.58,2.68-5.73,3.31-8.16,2.38-16.85,1.69-25.32,1.11-59.98-4.07-120.2-1.38-180.38.94v-9.61c.75.01,1.5-.03,2.25-.07l46.56-2.4c5.44-.28,11.3-.72,15.46-4.22.99-.84,1.92-1.86,3.17-2.18,1.51-.39,3.06.33,4.53.84,7.7,2.66,17.07-1.1,20.79-8.34,3.95,2.61,8.08,5.29,12.78,5.84,4.7.55,10.1-1.76,11.43-6.3,6.69,4.82,17.84-.58,18.21-8.82,2.44,1.85,4.88,3.69,7.33,5.53,3.66,2.77,7.93,5.69,12.45,4.86,4.19-.76,6.81-6.93,3.89-9.48,3.93,2.33,9.73-.98,11.18-5.54,1.55-4.87-.19-10.1-1.92-14.9-.73-2.03-1.6-4.21-3.23-5.51,5.32,3.21,11.59,4.84,17.8,4.62,1.37-.05,2.88-.25,3.8-1.27,1.45-1.61.62-4.14-.28-6.11-1.57-3.46-3.15-6.92-4.74-10.38,2.01,3.08,5.25,5.37,8.87,6.1,1.62-7.37,2.89-14.81,3.82-22.3.7,3.23,2.89,6.11,5.83,7.63,4.7-3.29,8.93-7.26,12.5-11.76,3.9,27.16,4.21,54.84.93,82.08Z" style="fill: var(--blue-700);"/>
  <path d="M193.46,386.82c1.9-.61,2.76,2.9,3.22,4.23.75,2.69.73,5.95-.74,8.51-1.38,2.53-4.58,4.62-7.4,3.66,3.18-1.29,4.84-3.94,5.49-7.06.45-2.17.32-5.02.27-7.33-.03-.75.04-1.71-.84-2h0Z" style="fill: var(--blue-700);"/>
  <path d="M202.13,399.89c1.62-3.23-.16-5.76-2.19-8.21-1.96-2.38-4.62-5.38-6.34-7.98,4.68,1.55,10.36,6.06,11.07,11.26.18,1.92-.67,4.25-2.55,4.93h0Z" style="fill: var(--blue-700);"/>
  <path d="M208.85,389.39c5.27,3.47,2.06,12.98-4.24,12.52,3.45-3.5,4.87-7.64,4.24-12.52h0Z" style="fill: var(--blue-700);"/>
  <path d="M198.6,392.22c3.12,1.87.69,7.9-2.02,9.26-1.05.64-2.4.91-3.55.48,1.65-1.47,2.39-2.78,3.39-4.54,0,0,1.32-2.47,1.32-2.47.46-.92.93-1.6.86-2.73h0Z" style="fill: var(--blue-700);"/>
  <path d="M198.02,388.3c1.9-.61,2.76,2.9,3.22,4.23.75,2.69.73,5.95-.74,8.51-1.38,2.53-4.58,4.62-7.4,3.66,3.18-1.29,4.84-3.94,5.49-7.06.45-2.17.32-5.02.27-7.33-.02-.75.04-1.71-.84-2h0Z" style="fill: var(--blue-700);"/>
  <path d="M203.16,393.69c3.12,1.87.69,7.9-2.02,9.26-1.05.64-2.4.91-3.55.48,1.65-1.47,2.39-2.78,3.39-4.54,0,0,1.32-2.47,1.32-2.47.46-.92.93-1.6.86-2.73h0Z" style="fill: var(--blue-700);"/>
  <path d="M209.79,386.57c1.9-.61,2.76,2.9,3.22,4.23.75,2.69.73,5.95-.74,8.51-1.38,2.53-4.58,4.62-7.4,3.66,3.18-1.29,4.84-3.94,5.49-7.06.45-2.17.32-5.02.27-7.33-.03-.75.04-1.71-.84-2h0Z" style="fill: var(--blue-700);"/>
  <path d="M214.93,391.96c3.12,1.87.69,7.9-2.02,9.26-1.05.64-2.4.91-3.55.48,1.65-1.47,2.39-2.78,3.39-4.54,0,0,1.32-2.47,1.32-2.47.46-.92.93-1.6.86-2.73h0Z" style="fill: var(--blue-700);"/>
  <path d="M219.81,385.93c1.9-.61,2.76,2.9,3.22,4.23.75,2.69.73,5.95-.74,8.51-1.38,2.53-4.58,4.62-7.4,3.66,3.18-1.29,4.84-3.94,5.49-7.06.45-2.17.32-5.02.27-7.33-.03-.75.04-1.71-.84-2h0Z" style="fill: var(--blue-700);"/>
  <path d="M224.94,391.33c3.12,1.87.69,7.9-2.02,9.26-1.05.64-2.4.91-3.55.48,1.65-1.47,2.39-2.78,3.39-4.54,0,0,1.32-2.47,1.32-2.47.46-.92.93-1.6.86-2.73h0Z" style="fill: var(--blue-700);"/>
  <path d="M204.49,385.74c3.7.22,4.55,6.61,3.94,9.46-.35,2.25-2.51,8.25-5.35,7.71-.53-.12-1.02-.6-.97-1.08.29.36.7.35,1,.25.91-.47.87-1.72,1.27-2.76,1.08-3.78,1.86-7.65,1.2-11.55-.15-.75-.38-1.48-1.1-2.04h0Z" style="fill: var(--blue-700);"/>
  <path d="M355.84,354.56c.84,3.25,3.06,5.75,5.14,8.25,1.76,2.19,4.06,3.54,6.11,5.45,1.95,1.97,3.64,4.07,6.38,4.97,0,0-.02.2-.02.2,0,0-.58-.1-.58-.1l.57-.11-.02.2c-2.94.04-5.44-1.99-7.52-3.83-3.26-2.25-6.44-4.87-8.29-8.47-1.09-1.97-2.11-4.27-1.79-6.57h0Z" style="fill: var(--blue-700);"/>
  <path d="M354.19,357.81c-.51-.43-.68-1.23-1.2-1.29-.24-.01-.23.03-.3.26-.31,1.49-.11,3.03.21,4.54,1.14,4.78,3.09,9.61,6.41,13.27,1.48,1.5,4.64,3.03,6.42,1.27-.51,1.35-2.3,1.59-3.59,1.52-6.49-.83-10.17-10.12-10.78-15.81-.19-1.15-.16-6.35,1.83-5.55.77.39.62,1.2,1,1.8h0Z" style="fill: var(--blue-700);"/>
  <path d="M345.97,368.54c6.13,3.54,11.54,8.26,15.85,13.87-6.13-3.53-11.54-8.28-15.85-13.87h0Z" style="fill: var(--blue-700);"/>
  <path d="M283.85,380.78c-1.49,5.41-3.81,10.26-7.12,14.79-.69-5.71,2.24-11.76,7.12-14.79h0Z" style="fill: var(--blue-700);"/>
  <path d="M339.68,368.07c-.26,5.11.29,9.88,1.67,14.81-3.97-3.6-4.73-10.41-1.67-14.81h0Z" style="fill: var(--blue-700);"/>
  <path d="M333.71,367.97c3.13,4.13,4.84,9,5.89,14,.19,1.6,1.02,3.99-.49,5.2.26-1.75-1.17-2.92-1.75-4.46-2.16-4.64-3.68-9.56-3.65-14.74h0Z" style="fill: var(--blue-700);"/>
  <path d="M309.94,375.25c4.74,4.44,7.82,10.3,9.09,16.69-.46-.29-.97-.6-1.39-.94.34-.04.68-.06,1.02-.07l-.39.49c-4.3-4.52-7.28-10.04-8.32-16.17h0Z" style="fill: var(--blue-700);"/>
  <path d="M308.06,376.24c2.64,5.68,3.87,11.65,4.13,17.95,0,0-.75-1.43-.75-1.43-.61-1.14-.57-1.14.56-.57,0,0-.65.43-.65.43-3.44-4.63-4.83-10.79-3.29-16.37h0Z" style="fill: var(--blue-700);"/>
  <path d="M296.03,382.51c3.79,1.63,6.67,3.76,9.66,6.67,0,0-.41.92-.41.92-.25-.27-.49-.55-.71-.88.39-.04.76-.04,1.13-.03l-.41.92c-4.29-.21-8.37-3.34-9.27-7.59h0Z" style="fill: var(--blue-700);"/>
  <path d="M295.31,383.16c2.77,2.52,4.29,5.95,5.16,9.45,0,0-.21.28-.21.28.22-.65.29-.35.59.05,0,0-.29.17-.29.17-.66.36-1.39-.25-1.82-.58-2.7-2.2-4.31-5.89-3.44-9.37h0Z" style="fill: var(--blue-700);"/>
  <path d="M322.66,390.96c-.71-5.46,1.42-12.06,6.72-14.48-2.01,5.07-3.39,10.08-6.72,14.48h0Z" style="fill: var(--blue-700);"/>
  <path d="M362.74,376.2c-1.7-2.43-3.34-5.48-4.86-8.01-.51-.91-1.04-1.81-1.51-2.85,2.07.89,3.65,2.59,4.79,4.49,1.1,1.92,1.81,4.12,1.58,6.37h0Z" style="fill: var(--blue-700);"/>
  <path d="M367.39,374.66c-2.27-.07-4.22-1.88-4.44-4.15,2.2.4,3.89,1.99,4.44,4.15h0Z" style="fill: var(--blue-700);"/>
  <path d="M364.98,359.37c4.08,3.06,8.31,5.77,13.16,7.34.29.03.63.04.82-.29.02.18-.06.39-.21.54-.44.41-1.17.44-1.7.42-5.03-.17-10.1-3.3-12.06-8.01h0Z" style="fill: var(--blue-700);"/>
  <path d="M392.3,345.54c4.28,3.24,5.57,9.99,2.75,14.57-1.42-4.91-2.27-9.48-2.75-14.57h0Z" style="fill: var(--blue-700);"/>
  <path d="M354.11,376.57c2.27,3.14,5.05,6.3,7.87,8.97-4.36-.29-8.14-4.62-7.87-8.97h0Z" style="fill: var(--blue-700);"/>
  <path d="M245.34,391.2c4.02,1.93,7.59,4.16,11.18,6.71.18.09.54.28.6-.04.36.33-.26.8-.6.87-4.82.54-9.98-2.78-11.18-7.55h0Z" style="fill: var(--blue-700);"/>
  <path d="M239.13,391.93c4.03,1.06,6.72,4.69,7.64,8.63-1.05.03-2.33-.12-2.77-1.12.7-.03,1.2-.24,1.51-.53l-.5,1.29c-2.81-2.16-4.93-4.83-5.88-8.27h0Z" style="fill: var(--blue-700);"/>
  <path d="M245,391.49c1.51,2.18,1.15,6.76-1.75,7.74-.79.23-2.01-.2-2.02-1.08.75.06,1.1-.39,1.16-.96.26-1.94,1.06-4.16,2.6-5.71h0Z" style="fill: var(--blue-700);"/>
  <path d="M229.86,393.13c4.03,1.06,6.72,4.69,7.64,8.63-1.05.03-2.33-.12-2.77-1.12.7-.03,1.2-.24,1.51-.53l-.5,1.29c-2.81-2.16-4.93-4.83-5.89-8.27h0Z" style="fill: var(--blue-700);"/>
  <path d="M235.73,392.7c1.51,2.18,1.15,6.76-1.75,7.74-.79.23-2.01-.2-2.02-1.08.75.06,1.1-.39,1.16-.96.26-1.94,1.06-4.16,2.6-5.71h0Z" style="fill: var(--blue-700);"/>
  <path d="M268.51,397.37c-8.28-5.51-17.76-9.84-27.8-6.79,8.58-7.47,22.5-2.24,27.8,6.79h0Z" style="fill: var(--blue-700);"/>
  <path d="M232.29,387.73c-.87.31-.78,1.27-.78,2.02.01,2.32-.04,5.16.48,7.32.74,3.11,2.47,5.71,5.69,6.91-2.8,1.04-6.06-.96-7.5-3.45-1.54-2.52-1.66-5.78-.98-8.48.42-1.35,1.18-4.86,3.1-4.32h0Z" style="fill: var(--blue-700);"/>
  <path d="M236.95,394.67c3.36,1.21,5.9,2.81,8.42,5.34-3.63,1.57-8.29-1.4-8.42-5.34h0Z" style="fill: var(--blue-700);"/>
  <path d="M223.99,401.03c-1.9-.63-2.82-2.93-2.69-4.85.57-5.22,6.11-9.88,10.76-11.56-1.63,2.64-4.23,5.73-6.11,8.15-1.96,2.5-3.67,5.08-1.96,8.27h0Z" style="fill: var(--blue-700);"/>
  <path d="M216.98,390.73c-.49,4.89,1.05,8.99,4.59,12.4-6.29.63-9.76-8.78-4.59-12.4h0Z" style="fill: var(--blue-700);"/>
  <path d="M352.46,370.42c1.58,1.64,2.64,3.02,3.81,4.97-2.6.59-5.05-2.62-3.81-4.97h0Z" style="fill: var(--blue-700);"/>
  <path d="M358.39,371.17c.64.89,1.27,1.52,1.94,2.25.7.79,1.37,1.48,1.89,2.54-.67.13-1.27.03-1.84-.17-1.75-.58-3.22-2.94-1.98-4.63h0Z" style="fill: var(--blue-700);"/>
  <path d="M362.78,371.85c1.45.57,2.06,1.58,1.87,3.13-1.75.36-3.01-1.76-1.87-3.13h0Z" style="fill: var(--blue-700);"/>
  <path d="M315.55,380.43c.69.6,2.03,1.69,2.61,2.32.89.8.95,1.59,2.25,2.21-.32.88-1.46,1.14-2.29,1-2.45-.37-4.19-3.45-2.57-5.53h0Z" style="fill: var(--blue-700);"/>
  <path d="M309.15,384.64c4.27-1.17,8.95,1.11,11.15,4.84,0,0-.54.18-.54.18-.55.19-1.13.06-1.48-.25.44-.18.7-.48.83-.74v.99c-3.72-.9-7.06-2.44-9.94-5.02h0Z" style="fill: var(--blue-700);"/>
  <path d="M313.63,383.88c.12,2.51-1.08,4.63-3.2,5.83-.13.06-.33.26-.54.31-.19.08-.55-.07-.48-.31.02-.14.35-.21.27-.05-.03-.03-.04.01-.01.03.02.03.04.09.09.04.03-.03-.01-.15-.05-.17-.21-.16-.3-.04-.31-.34-.33-2.56,1.57-5.13,4.24-5.33h0Z" style="fill: var(--blue-700);"/>
  <path d="M297.95,387.63c3.54-.67,7.26,1.56,8.29,5.02-3.5-.18-6.5-2.02-8.29-5.02h0Z" style="fill: var(--blue-700);"/>
  <path d="M289.73,386.82c-1.13,2.11-2.01,3.59-3.74,5.48,0,0-.89-.3-.89-.3.23-.08.46-.17.74-.22.1.54.09,1.67.13,2.22,0,0-.95-1.76-.95-1.76-1.54-2.83,1.66-6.74,4.71-5.42h0Z" style="fill: var(--blue-700);"/>
  <path d="M332.83,364.89c-4.57,2.93-8.03,6.88-10.2,11.72-1.79,4.25-3.36,9.61-.57,13.74.09.16.3.41.36.27,0-.05-.03-.18-.11-.11.12-.17.34.14.21.28-.23.25-.61,0-.77-.1-3.55-2.34-4.01-7.3-3.2-11.13,1.4-7.02,6.99-13.63,14.28-14.67h0Z" style="fill: var(--blue-700);"/>
  <path d="M244.67,390.22c3.86-1.98,8.98-1.12,12.16,1.84,2.88,2.52,5.73,5.14,7.77,8.39.1.26.11.69-.17.81.12-.26-.05-.43-.21-.57-3.3-1.74-6.48-3.9-9.29-6.32-2.98-2.73-6.25-3.61-10.25-4.15h0Z" style="fill: var(--blue-700);"/>
  <path d="M260.43,385.36c3.81,2.1,6.6,5.39,8.8,9.06.6,1.15,1.93,3.15.71,4.37-.02-.78-.5-1.16-.97-1.58-3.85-3.05-7.1-7.07-8.54-11.85h0Z" style="fill: var(--blue-700);"/>
  <path d="M278.41,402.04c-6.32-6.63-5.31-18.35.52-24.97.48-.41,1.06-.73,1.66-.81-.92.78-1.26,1.8-1.54,2.86-2.1,7.54-2.89,15.28-.64,22.92h0Z" style="fill: var(--blue-700);"/>
  <path d="M234.34,388.34c.68,3.8,1.01,7.27,1.84,10.97.26,1.19.36,2.26,1.14,3.25,0,0-.31.03-.31.03.76-.27.79-.22.36.46,0,0-.04.06-.04.06-.87-.03-1.68-.52-2.27-1.13-3.14-3.69-3.65-9.68-.72-13.64h0Z" style="fill: var(--blue-700);"/>
  <path d="M226.4,391.33c.67,3.8,1.01,7.27,1.84,10.97.26,1.19.36,2.26,1.14,3.24,0,0-.31.03-.31.03.76-.27.79-.22.36.46,0,0-.04.06-.04.06-.87-.03-1.68-.52-2.27-1.13-3.14-3.69-3.65-9.68-.72-13.64h0Z" style="fill: var(--blue-700);"/>
  <path d="M227.3,393.26c-.04,1.13.46,1.8.94,2.71,0,0,1.39,2.43,1.39,2.43,1.05,1.74,1.83,3.02,3.51,4.45-1.13.46-2.49.23-3.56-.38-2.74-1.28-5.35-7.25-2.28-9.2h0Z" style="fill: var(--blue-700);"/>
  <path d="M221.23,386.96c-.7.58-.91,1.32-1.04,2.07-.55,3.92.33,7.76,1.52,11.51.43,1.03.42,2.27,1.35,2.72.3.09.71.09.99-.28.07.48-.41.97-.94,1.11-2.82.62-5.15-5.32-5.56-7.56-.69-2.84-.01-9.24,3.68-9.57h0Z" style="fill: var(--blue-700);"/>
  <path d="M234.6,399.5c1.84-.38,1.7-3.99,1.67-5.5,0,0-.2-3.23-.2-3.23.02-4.27-3.78-6.52-7.28-8.34-.98-.47-1.81-1.33-2.95-1,.35-.5,1.09-.64,1.69-.61,5.47.29,11.82,3.44,11.38,9.88-.13,2.9-.32,6.22-2.56,8.37-.45.4-1.19.74-1.75.42h0Z" style="fill: var(--blue-700);"/>
  <path d="M274.19,376.75c-1.27,3.66-.12,6.99.79,10.51.99,3.41,2.34,6.48,5.24,9.17-7.56-.6-12.17-15.16-6.03-19.68h0Z" style="fill: var(--blue-700);"/>
  <path d="M323.69,377.45c.21.61.2,1.28.12,1.92-.34,2.83-1.81,5.43-3.68,7.59-.25.28-.51.57-.6.94.16.04.32.07.48.11" style="fill: none;"/>
  <path d="M325.48,377.48c.29,2.41.77,4.79,1.44,7.11.19-.62.37-1.23.56-1.85" style="fill: none;"/>
  <path d="M326.94,378.67c.32,1.02.74,2.01,1.26,2.95.15.27.32.54.58.71s.65.17.84-.07" style="fill: none;"/>
  <path d="M324.75,378.23c.99,2.62-.13,5.61-2.26,7.35-.73.68-2.59.79-2.68-.51.73.45,1.22-.02,1.57-.61,1.24-2.02,2.19-4.09,3.37-6.23h0Z" style="fill: var(--blue-700);"/>
  <path d="M345.5,377.91c1.02,2.03,1.86,4.54,2.67,6.65.11.33.61,1.61.62,1.81,0,0-.71.37-.71.37.33-.54.69-1.07,1.15-1.57.08.84,0,1.62-.1,2.42,0,0-.66-.11-.66-.11-.39-.06-.7-.3-.89-.5-2.05-2.47-3.04-5.96-2.08-9.08h0Z" style="fill: var(--blue-700);"/>
  <path d="M347.52,380.55c1.38.92,2.91,3.24,2.98,4.76,0,0-.63.19-.63.19,2.25-1.19,1.8-.51.87,1.24,0,0-.51-.03-.51-.03-.57-.04-.99-.43-1.2-.71-1.1-1.63-1.71-3.46-1.51-5.44h0Z" style="fill: var(--blue-700);"/>
  <path d="M351.69,377.69c2.25,2.24,3.87,4.85,4.89,7.87,0,0-.98.46-.98.46-.07-.62.04-1.24.36-1.73.18.55.4,1.01.67,1.38l-.98.46c-2.21-2.26-3.93-5.2-3.95-8.44h0Z" style="fill: var(--blue-700);"/>
  <path d="M354.86,381.21c1.37.17,2.3,1.17,2.18,2.58,0,0-.72-.16-.72-.16.06.13.27.17.5,0,.29.18.26.66,0,.96,0,0-.65-.26-.65-.26-1.31-.54-1.78-1.82-1.31-3.11h0Z" style="fill: var(--blue-700);"/>
  <path d="M362.27,362.16c2.21.55,3.71,2.47,5.26,3.96,1.46,1.32,2.68,3.28,4.2,4.43,0,0-.4.18-.4.18.36-.32.69-.7,1-1.14.04.6-.1,1.23-.37,1.79-.79.13-1.62-.22-2.17-.61-3.36-2.1-5.27-5.46-7.52-8.6h0Z" style="fill: var(--blue-700);"/>
  <path d="M364.13,360.11c2.66,1.47,4.59,3.86,5.86,6.6,0,0-.84-.08-.84-.08.4-.18.8-.49,1.15-.99.19.59.04,1.3-.38,1.85l-.28.36c-2.6-1.95-4.68-4.57-5.52-7.74h0Z" style="fill: var(--blue-700);"/>
  <path d="M364.08,357.29c2.39.27,4.43,1.7,5.46,3.88-2.46.15-4.78-1.52-5.46-3.88h0Z" style="fill: var(--blue-700);"/>
  <path d="M357.51,368.97c2.75,2.27,5.01,4.82,7.39,7.43.79.8,1.26,1.91,2.56,1.62-.85,1.23-2.72.21-3.59-.44-2.97-2.07-5.44-5.05-6.36-8.61h0Z" style="fill: var(--blue-700);"/>
  <path d="M362.22,368.59c2.8.24,5.34,1.89,6.83,4.22.05.05.11.13.18.04.06.11-.11.24-.22.26-2.79-.27-5.42-2.05-6.79-4.52h0Z" style="fill: var(--blue-700);"/>
  <path d="M356.42,363.14c-2.57,3.39-6.17,5.94-8.08,9.75-1.92,3.82-3.79,7.74-5.83,11.54-1,1.89-2.16,3.83-3.27,5.65-.15.29-.26.58-.25.89,0,.32.13.66.44.87-.38-.04-.71-.38-.88-.76-.43-1.15.23-2.36.45-3.43,1.24-4.22,2.79-8.32,4.75-12.26,1.34-2.65,2.79-5.56,5.17-7.48,2.36-1.93,4.84-3.36,7.5-4.76h0Z" style="fill: var(--blue-700);"/>
  <path d="M366.47,375.89c-1.36-1.57-2.49-3.2-3.88-4.16-1.4-.97-3.2-1.8-4.88-2.67-3.15-1.63-7.49-3.56-10.34-5.71,5.11.21,10.08,1.77,14.35,4.58,2.81,1.58,4.61,4.92,4.75,7.96h0Z" style="fill: var(--blue-700);"/>
  <path d="M348.04,353.64c10.34-4.72,19.85,7.01,21.55,16.3-1.59-1.95-3.03-3.87-4.55-5.72-4.31-5.43-9.56-10.67-17-10.58h0Z" style="fill: var(--blue-700);"/>
</svg>