<?xml version="1.0" encoding="UTF-8"?>
<svg xmlns="http://www.w3.org/2000/svg" xmlns:xlink="http://www.w3.org/1999/xlink" viewBox="0 0 400 400">
  <defs>
    <linearGradient id="linear-gradient" x1="202.17" y1="153.24" x2="202.17" y2="200.64" gradientUnits="userSpaceOnUse">
      <stop offset="0" stop-color="#1d864c" stop-opacity=".8"/>
      <stop offset="1" stop-color="#1d864c" stop-opacity=".2"/>
    </linearGradient>
    <linearGradient id="linear-gradient-2" x1="196.31" y1="252.36" x2="196.31" y2="165.26" gradientUnits="userSpaceOnUse">
      <stop offset="0" stop-color="#00ced2"/>
      <stop offset="1" stop-color="#118176"/>
    </linearGradient>
    <linearGradient id="linear-gradient-3" x1="332.37" y1="150.43" x2="332.37" y2="346.93" gradientUnits="userSpaceOnUse">
      <stop offset="0" stop-color="#72b5ac" stop-opacity=".7"/>
      <stop offset=".53" stop-color="#118176" stop-opacity="0"/>
    </linearGradient>
    <linearGradient id="linear-gradient-4" x1="70.13" y1="150.43" x2="70.13" y2="346.93" xlink:href="#linear-gradient-3"/>
    <linearGradient id="linear-gradient-5" x1="332.37" y1="211.23" x2="332.37" y2="121.66" gradientUnits="userSpaceOnUse">
      <stop offset="0" stop-color="#73afaf"/>
      <stop offset=".53" stop-color="#117878" stop-opacity="0"/>
    </linearGradient>
    <linearGradient id="linear-gradient-6" x1="70.13" y1="211.4" x2="70.13" y2="117.74" gradientUnits="userSpaceOnUse">
      <stop offset="0" stop-color="#72b5ac"/>
      <stop offset=".53" stop-color="#118176" stop-opacity="0"/>
    </linearGradient>
    <linearGradient id="linear-gradient-7" x1="201.24" y1="411.86" x2="201.24" y2="263.81" gradientUnits="userSpaceOnUse">
      <stop offset="0" stop-color="#53b929"/>
      <stop offset="1" stop-color="#286636"/>
    </linearGradient>
    <radialGradient id="radial-gradient" cx="200.94" cy="279.12" fx="200.94" fy="279.12" r="85.36" gradientUnits="userSpaceOnUse">
      <stop offset="0" stop-color="#a1ad9c"/>
      <stop offset=".25" stop-color="#a1ad9c"/>
      <stop offset=".53" stop-color="#9ca998"/>
      <stop offset=".82" stop-color="#909d8c"/>
      <stop offset="1" stop-color="#859282"/>
    </radialGradient>
  </defs>
  <g id="Back-mountains">
    <path d="M322.71,203.75H81.62c1.93-14.67,6.09-39.97,12.34-45.92.42-1.02.85-2.04,1.29-3.06l-.72-.15c1.48-1.47,4.07-1.53,6.25-2.09,2.38-.62,4.41-1.92,6.4-3.22v-.02c.1-.53.6-.87,1.06-1.14,1.76-1.07,3.52-2.13,5.28-3.19.57-.34,1.17-.69,1.83-.7,1.24-.02,2.2,1.14,3.41,1.39,1.52.32,3-.82,4.54-.72,1.35.09,2.44,1.11,3.38,2.08,2.27,2.36,4.37,4.88,6.33,7.49,2.54,1.48,4.74,3.36,6.43,5.54-.43,1.03.47,2.14,1.49,2.81,1.03.67,2.27,1.16,3.01,2.06.51.62.73,1.38,1.14,2.06.03.06.08.13.12.19.84-.21,1.69-.37,2.56-.4,1.58-.06,3.24.34,4.39,1.41,1.08,1.01,1.98,2.67,3.44,2.5,1.36-.16,2.02-1.84,3.31-2.28,1.14-.39,3.66.83,5.19,2.25.43-.14,2.02-.66,2.29-.99,3.29-4.05,6.39-3.01,7.07-1.32.3.74,1.4.72,2.04,1.15,3.77,2.51,7.55,5.02,11.32,7.53,1.5,1,3,2,4.46,3.04,1.71,1.21,3.37,2.48,5.11,3.66,1.85,1.24,8.06,2.07,9.33,1.72,4.68-1.31,9.16-3.37,13.2-6.07,1.57-1.06,3.08-2.2,4.62-3.29,1.32-.94,2.67-1.83,4.03-2.72,3.39-2.24,6.79-4.48,10.18-6.72.58-.38,1.17-.77,1.82-1.01,2.42-.89,5.12.41,7.05,2.11.62.55,1.31,1.18,2.14,1.11.57-.05,1.09-.44,1.67-.41,1.01.06,1.45,1.27,2.13,2.01.8.86,2.08,1.13,3.25.97,1.16-.15,2.24-.67,3.29-1.18.45-.22.5-.82.66-1.29.3-.89,1.23-1.53,2.17-1.49.76.03,1.4-.56,1.79-1.21.4-.64.64-1.38,1.13-1.97.7-.84,1.79-1.24,2.71-1.84.92-.6,1.77-1.64,1.49-2.7,1.84-2.34,4.2-4.27,6.87-5.59.9-.45,1.87-.87,2.45-1.68.47-.66.62-1.49,1.05-2.18.84-1.32,2.51-1.8,4.04-2.17.9-.22,1.84-.44,2.75-.24.56.13,1.08.41,1.64.54,1.38.32,2.81-.28,4.22-.18,1.71.13,3.16,1.27,4.44,2.4,1.83,1.63,3.62,3.41,5.9,4.31,1.8.71,3.98.95,5.12,2.52l-.62.1c1,3.6,1.99,7.24,2.21,10.97l13.6,35.22Z" style="fill: url(#linear-gradient); opacity: .4;"/>
  </g>
  <g id="Water">
    <g>
      <rect x="-7.94" y="202.82" width="408.5" height="197.67" style="fill: url(#linear-gradient-2); opacity: .6;"/>
      <g>
        <g>
          <path d="M402.9,216.05c-23.44-2.8-47.42.02-70.68-3.3-5.21-.6-10.57-.85-15.78-.17-13.11,1.17-6.53,9.76-20.12,8.02-8.73-.46-22.35,1.3-28.47-1.07-2.31-.89-3.22-2.99-4.67-4.8-2.82-3.55-7.49-3.67-12.18-4.19" style="fill: none; opacity: .4; stroke: #80e2ff; stroke-linecap: round; stroke-linejoin: round; stroke-width: .47px;"/>
          <path d="M297.21,213.29c.39.81,2.11,1.52.52,1.68-3.02.37-20.23,1.72-20.73-1.05.59-.66,2.12-.73,3.19-.93,1.68-.32,4.07-.2,5.37-.99.7-.62.16-1.47,1.22-1.9,3.03-1.14,7.94-1.09,11.25-1.22,2.24-.02,10.26-.09,10.96.45-.38.24-.87.2-1.41.29-2.02.34-11.35.51-10.4,3.61l.04.07Z" style="fill: none; opacity: .4; stroke: #80e2ff; stroke-linecap: round; stroke-linejoin: round; stroke-width: .47px;"/>
          <path d="M265.03,211.39c.46,1.57,11.02.39,12.08-.72-1.53-1.11-10.82-1.5-12.08.64v.07Z" style="fill: none; opacity: .4; stroke: #80e2ff; stroke-linecap: round; stroke-linejoin: round; stroke-width: .47px;"/>
          <path d="M396.62,221.33c-17-2.93-33.37-5.42-50.22-2.77-3.91.61-7.86,1.03-11.81.44-5.45-.52-13.08-3.73-17.55-.36-1.36,1.65,1.05,2.76,2.68,3.2,2.98.77,6.26,1.04,9.33,1.56,4.58.6,9.13,1.95,13.4,1.34,4.04-.65,7.92-2.13,11.99-2.57" style="fill: none; opacity: .4; stroke: #80e2ff; stroke-linecap: round; stroke-linejoin: round; stroke-width: .47px;"/>
          <path d="M347.94,226.35c4.24-.93,8.63-1.63,12.83-2.8,14.79-5.34,31.01,6.9,45.67,4.78,1.87-.14,6.16-1.78,3.23-3.32-5.01-1.83-10.97.02-16.61-.27-1.94-.04-3.85-.25-5.77-.48" style="fill: none; opacity: .4; stroke: #80e2ff; stroke-linecap: round; stroke-linejoin: round; stroke-width: .47px;"/>
          <path d="M376.63,228.88c-15.11-1.96-30.82.44-45.76-1.45-4.89-.63-9.47-2.21-14.24-3.32-9.58-2.21-21.68-1.68-30.1,2.51-1.81.87-5.4,3.07-2.94,2.88,2.45-.35,5.43-1.43,8.03-1.09,3.99.4,6.31,3.4,11.36,4.18,4.83.57,14.59.94,18.15-2.4,1.08-1.71-1.42-2.69-3.02-3.04-2.95-.91-12.29-.25-12.93,1.42-.09.65.73.76,1.33.91,3.83.56,7.89-.33,11.72-1.07" style="fill: none; opacity: .4; stroke: #80e2ff; stroke-linecap: round; stroke-linejoin: round; stroke-width: .47px;"/>
          <path d="M256.01,223.31c8.79-2.44,17.27,2.11,26.13,1.8,6.15-.04,10.28-1.82,7.65-2.37-3.08-.52-6.64.01-9.82.34" style="fill: none; opacity: .4; stroke: #80e2ff; stroke-linecap: round; stroke-linejoin: round; stroke-width: .47px;"/>
          <path d="M309.04,216.59c.43,1.77,8.24.29,9.79-.3,1.51-.45,2-1.3.22-1.58-2.31-.42-6.43.43-8.78,1.18-.42.15-.97.35-1.19.64l-.04.06Z" style="fill: none; opacity: .4; stroke: #80e2ff; stroke-linecap: round; stroke-linejoin: round; stroke-width: .47px;"/>
          <path d="M223.49,213.11c5.02.45,9.56.05,14.79-.64,6.36-.71,18.8-2.27,21,5.12.01,2.58-3.47,3.17-5.66,3.34-9.74.67-20.49-2.64-30.14.32-19.42,7.71-19.69-9.84-.21-8.15h.22Z" style="fill: none; opacity: .4; stroke: #80e2ff; stroke-linecap: round; stroke-linejoin: round; stroke-width: .47px;"/>
          <path d="M253.38,216.17c-5.17-3.87-11.96-.29-18.08.39-1.19.19-2.64.32-3.71.52-1.36.27.2.61,1.15.86,4.4,1.21,23.74,4.1,20.74-1.68l-.09-.1Z" style="fill: none; opacity: .4; stroke: #80e2ff; stroke-linecap: round; stroke-linejoin: round; stroke-width: .47px;"/>
          <path d="M229.64,225.05c9.97-5.3,15.55,1.15,30.72,3,2.48.3,5.21.47,7.6.49,3.02.13,5.85-.54,8.13.32.58.32.38.83-.71,1.31-2.98,1.2-7.11,1.17-10.43,1.64-4.27.46-8.79,1.81-12.32,1.7-4.79-.11-9.66-2.81-14.4-2" style="fill: none; opacity: .4; stroke: #80e2ff; stroke-linecap: round; stroke-linejoin: round; stroke-width: .47px;"/>
          <path d="M227.53,229.13c3.81-1.87,8.47-2.83,12.62-1.52.37.16.52.33.42.51-.29.39-1.24.58-1.86.74-4.93,1.06-9.96,2.11-14.93,3.17" style="fill: none; opacity: .4; stroke: #80e2ff; stroke-linecap: round; stroke-linejoin: round; stroke-width: .47px;"/>
          <path d="M387.25,232.7c-21.02,6.04-42.68-3.71-63.66,1.48-3.61.84-6.95,1.77-10.7,2.4-17.4,3.45-15.22-5.17-25.52-3.68" style="fill: none; opacity: .4; stroke: #80e2ff; stroke-linecap: round; stroke-linejoin: round; stroke-width: .47px;"/>
          <path d="M280.65,232.85c-3.4-.13-6.8-.23-9.84-.05-11.54.84-13.22,3.32-4.54,2.84,2.8-.12,5.93-.35,8.7.11,3.65.47,6.97,2.33,10.56,3.04,2.8.44,5.42.08,5.97-1.18-.32-2.04-5.76-1.7-6.84-1.07-.84.53,2.58,1.02,3.42,1.16" style="fill: none; opacity: .4; stroke: #80e2ff; stroke-linecap: round; stroke-linejoin: round; stroke-width: .47px;"/>
          <path d="M236.97,239.18c8.55-1.96,45.63-.5,27.72.69" style="fill: none; opacity: .4; stroke: #80e2ff; stroke-linecap: round; stroke-linejoin: round; stroke-width: .47px;"/>
          <path d="M275.55,239.86c7.75,7.02,14.98,2.07,23.49.18,5.85-1.27,11.92-.27,17.84-.43,4.92.07,9.69-1.29,14.52-1.97,11.71-1.56,22.92,7.45,34.27,4.53,3.2-.75,6.06-2.22,9.16-3.32,6.19-2.2,14.07-2.4,20.68-1.91,4.83.15,10.14,2.95,3.32,3.48-7.54-.26-15.55.06-22.94,1.18" style="fill: none; opacity: .4; stroke: #80e2ff; stroke-linecap: round; stroke-linejoin: round; stroke-width: .47px;"/>
          <path d="M367.14,237.33c-6.39,2.98-13.16-.77-19.96-1.59-1.12-.11-4.15.08-3.14,1.69.48.59,1.78,1.05,3.39,1.23,3.21.39,7.42.13,10.48-.01" style="fill: none; opacity: .4; stroke: #80e2ff; stroke-linecap: round; stroke-linejoin: round; stroke-width: .47px;"/>
          <path d="M358.97,231.56c.83.52,2.71.52,3.89.68,5.9.51,12.47.87,17.94-.18,1.06-.27,3.03-.46,3.55-1.19-.77-.56-2.74-.3-3.88-.37-5.6.09-12.09-.04-17.79.39-1.11.15-2.97.1-3.71.63v.03Z" style="fill: none; opacity: .4; stroke: #80e2ff; stroke-linecap: round; stroke-linejoin: round; stroke-width: .47px;"/>
          <path d="M297.62,243.61c12.7-5.19,25.91,2.29,39.08,1.91,6.87-.43,14.05-2.68,20.62.38,2.89,1.22,5.63,3.09,8.64,4.05,11.33,3.26,17.99-9.23,32.04-4.24" style="fill: none; opacity: .4; stroke: #80e2ff; stroke-linecap: round; stroke-linejoin: round; stroke-width: .47px;"/>
          <path d="M326.8,242.33c-1.08,1.2,10.42.54,11.66.57,1.23-.11,2.6.09,3.64-.51.7-.55-1.39-1.86-3.68-2.08-3.66-.3-8.09.66-11.55,1.98l-.07.04Z" style="fill: none; opacity: .4; stroke: #80e2ff; stroke-linecap: round; stroke-linejoin: round; stroke-width: .47px;"/>
          <path d="M250.17,247.19c5.23,3.22,11.32-.8,16.93-.4,4.32.19,8.19,2.54,12.47,3.13,7.85,1.25,16.14-1.58,23.91-.98,4.3.43,2.74,2.35-.04,3.41-8.48,3.14-20.25,3.85-29.23,2.46-8.12-2.63-9.13-6.27-18.82-3.34" style="fill: none; opacity: .4; stroke: #80e2ff; stroke-linecap: round; stroke-linejoin: round; stroke-width: .47px;"/>
          <path d="M274.19,245.88c.8.2,1.61.4,2.44.5,4.8.79,10.93-2.62,14.45-.59.75.65.24,1.3-.7,1.65-3.4.99-7.59-.11-11.09.1" style="fill: none; opacity: .4; stroke: #80e2ff; stroke-linecap: round; stroke-linejoin: round; stroke-width: .47px;"/>
          <path d="M258.62,259.41c6.62-1.82,13.38-.85,20,.18,1.53.19,3.11.28,4.62.14,1.48-.12,3.03-.46,4.58-.75,2.26-.57,7.05-.57,4.77.69-2.78.99-6.16.74-9.06.59" style="fill: none; opacity: .4; stroke: #80e2ff; stroke-linecap: round; stroke-linejoin: round; stroke-width: .47px;"/>
          <path d="M308.91,251.6c23.62-11.61,44.13,13.35,65.59,3.28,4.29-2.24,8.83-3.35,13.55-2.3,2.85.39,7.56.52,8.51,1.34.86.68-.51,1.36-1.22,1.7-2.78,1.21-5.92,1.23-9.11,1.05-10.36-.87-6.06-2.43,1.13-1.33" style="fill: none; opacity: .4; stroke: #80e2ff; stroke-linecap: round; stroke-linejoin: round; stroke-width: .47px;"/>
          <path d="M360.26,251.22c-3.87-2.47-8.75-4.33-13.4-3.47-.85.2-1.88.32-2.15,1.15.22,1.63,3.76,2.54,7.39,3.98,4.72,1.72,10.01,3.29,13.68,2.79,1.43-.06,4.2-1.52,1.55-2.46-2.61-.66-6.72-.81-9.49-1.75" style="fill: none; opacity: .4; stroke: #80e2ff; stroke-linecap: round; stroke-linejoin: round; stroke-width: .47px;"/>
          <path d="M350.49,258.38c-42.01-6.56-53.99,7.34-3.71-.39" style="fill: none; opacity: .4; stroke: #80e2ff; stroke-linecap: round; stroke-linejoin: round; stroke-width: .47px;"/>
        </g>
        <g>
          <path d="M-16.2,216.05c26.3-2.82,53.29.11,79.3-3.76,7.43-.5,15.44-.04,22.39,2.44.47.34.17,1.07.13,1.59-.77,2.91-.68,4.73,2.92,4.58,7.38-2.05,15.13-.67,23.09-.68,9.08.25,17.51.07,18.75-3.54-.58-1.95-.66-3.75,1.58-4.66,3.03-1.32,8.81-.76,11.95-1.47" style="fill: none; opacity: .4; stroke: #80e2ff; stroke-linecap: round; stroke-linejoin: round; stroke-width: .48px;"/>
          <path d="M95.38,213.31c-.36.77-2.58,1.47-.93,1.64,3.71.39,20.28,1.72,22.07-.86-.24-.75-1.39-.73-2.4-.97-2.08-.45-5.07-.17-6.8-1.09-.69-.6.07-1.45-.95-1.9-3.16-1.18-8.33-1.1-11.75-1.25-3.64,0-7.97-.14-11.64.33-.44.1-.04.22.21.26.83.4,13.56.3,12.24,3.77l-.04.07Z" style="fill: none; opacity: .4; stroke: #80e2ff; stroke-linecap: round; stroke-linejoin: round; stroke-width: .48px;"/>
          <path d="M129.12,211.39c-.45,1.56-11.66.4-12.74-.72,1.59-1.08,11.31-1.53,12.73.65v.07Z" style="fill: none; opacity: .4; stroke: #80e2ff; stroke-linecap: round; stroke-linejoin: round; stroke-width: .48px;"/>
          <path d="M-9.58,221.33c17.94-2.9,35.2-5.37,53-2.72,4.05.61,8.11,1.05,12.2.46,5.86-.51,13.98-3.9,18.79-.35.65.69.49,1.47-.4,2.1-3.6,1.98-8.53,1.77-12.58,2.57-4.75.56-9.64,1.99-14.14,1.34-4.17-.69-8.17-2.25-12.41-2.57" style="fill: none; opacity: .4; stroke: #80e2ff; stroke-linecap: round; stroke-linejoin: round; stroke-width: .48px;"/>
          <path d="M41.73,226.35c-4.46-.97-9.11-1.58-13.54-2.79-15.61-5.37-32.79,6.99-48.26,4.75-1.82-.16-6.3-1.67-3.41-3.26,5.34-1.95,11.74.02,17.78-.3,2-.05,3.98-.26,5.95-.49" style="fill: none; opacity: .4; stroke: #80e2ff; stroke-linecap: round; stroke-linejoin: round; stroke-width: .48px;"/>
          <path d="M11.49,228.88c16.92-2.28,34.72,1.04,51.35-1.83.96-.18,1.96-.34,2.88-.58,12.14-4.86,32.28-5.63,44.07,2.99.55.43,1.18.96,1.63,1.45.05.08-.02.1-.19.06-5.96-1.53-15.33-7.51-17.1.47-4.44,2.62-32.22,2.54-25.55-3.95,1.49-.73,3.73-.53,5.37-.77,3.62-.23,7.82-.29,11.24.61,5.76,1.95-.41,3.52-7.41,2.12-1.66-.29-3.1-.62-4.73-1.05" style="fill: none; opacity: .4; stroke: #80e2ff; stroke-linecap: round; stroke-linejoin: round; stroke-width: .48px;"/>
          <path d="M138.63,223.31c-8.9-2.38-17.52,1.82-26.47,1.79-6.48.14-11.36-1.51-9.66-2.22,3.31-.82,7.4-.1,10.88.19" style="fill: none; opacity: .4; stroke: #80e2ff; stroke-linecap: round; stroke-linejoin: round; stroke-width: .48px;"/>
          <path d="M82.73,216.6c-.49,1.75-8.57.29-10.21-.27-1.45-.39-2.39-1.25-.45-1.6,2.44-.46,6.98.42,9.46,1.2.41.14.94.34,1.16.61l.04.06Z" style="fill: none; opacity: .4; stroke: #80e2ff; stroke-linecap: round; stroke-linejoin: round; stroke-width: .48px;"/>
          <path d="M172.86,213.14c-8.68,1.01-18.2-1.7-26.9-1.25-3.9.08-10.3,1.98-10.79,5.76.02,2.52,3.51,3.06,5.65,3.24,10.39.77,21.91-2.71,32.23.34,20.33,7.81,20.52-9.99.04-8.11h-.22Z" style="fill: none; opacity: .4; stroke: #80e2ff; stroke-linecap: round; stroke-linejoin: round; stroke-width: .48px;"/>
          <path d="M141.4,216.17c5.55-3.89,12.67-.26,19.14.39,1.23.18,2.78.32,3.87.53,1.39.28-.32.63-1.24.86-4.51,1.21-25.11,4.08-21.85-1.69l.09-.09Z" style="fill: none; opacity: .4; stroke: #80e2ff; stroke-linecap: round; stroke-linejoin: round; stroke-width: .48px;"/>
          <path d="M166.42,225.05c-12.15-6.87-20.01,6.47-49.3,3.01-2.12,5.09,17.02,1.31,24.04,5.91,2.83.48,5.86-1.31,8.83-2.25,2.66-.95,5.53-1.43,7.9.29.04.02-.19-.19-.28-.28l-.25-.24" style="fill: none; opacity: .4; stroke: #80e2ff; stroke-linecap: round; stroke-linejoin: round; stroke-width: .48px;"/>
          <path d="M168.64,229.13c-3.76-1.8-8.22-2.65-12.45-1.76-.47.13-1.46.29-1.31.75.29.38,1.25.56,1.86.71,5.23,1.07,10.57,2.13,15.85,3.2" style="fill: none; opacity: .4; stroke: #80e2ff; stroke-linecap: round; stroke-linejoin: round; stroke-width: .48px;"/>
          <path d="M.3,232.7c22.26,6.05,45.17-3.78,67.38,1.52,3.76.85,7.22,1.75,11.14,2.36,18.61,3.46,15.75-5.32,26.76-3.68" style="fill: none; opacity: .4; stroke: #80e2ff; stroke-linecap: round; stroke-linejoin: round; stroke-width: .48px;"/>
          <path d="M112.65,232.85c3.58-.14,7.17-.25,10.38-.06,7.2.4,12.36,2.05,9.95,2.63-4.22.75-8.84-.32-13.17.13-4.56.24-8.6,2.73-13.07,3.36-7.24.58-7.48-3.19-.78-2.88,5.12.43,1.85,1.35-1.12,1.66" style="fill: none; opacity: .4; stroke: #80e2ff; stroke-linecap: round; stroke-linejoin: round; stroke-width: .48px;"/>
          <path d="M158.69,239.18c-9.11-1.96-48.04-.5-29.22.69" style="fill: none; opacity: .4; stroke: #80e2ff; stroke-linecap: round; stroke-linejoin: round; stroke-width: .48px;"/>
          <path d="M118.03,239.86c-8.03,7.1-15.83,2.04-24.65.17-6.83-1.39-13.93-.05-20.86-.46-7.13-.19-14.11-3.23-21.28-1.72-9.62,1.77-18.89,6.53-28.34,4.3-5.37-1.31-9.74-4.06-15.41-4.72-4.85-.7-11.4-.9-16.26-.44-3.16.28-5.6.93-6.38,1.74-1.67,2.24,5.95,1.7,7.17,1.67,6.51-.44,13.95.48,20.23,1.19" style="fill: none; opacity: .4; stroke: #80e2ff; stroke-linecap: round; stroke-linejoin: round; stroke-width: .48px;"/>
          <path d="M21.49,237.33c6.77,2.97,13.84-.77,21.06-1.59,1.13-.1,4.38.07,3.27,1.7-.54.61-2.02,1.07-3.82,1.25-3.35.35-7.6.1-10.78-.04" style="fill: none; opacity: .4; stroke: #80e2ff; stroke-linecap: round; stroke-linejoin: round; stroke-width: .48px;"/>
          <path d="M30.1,231.56c-.82.51-2.78.51-3.96.67-6.28.52-13.35.89-19.17-.19-1.09-.28-3.05-.43-3.62-1.17.81-.56,2.77-.3,3.95-.37,5.97.09,12.95-.04,19.02.4,1.12.15,3.05.1,3.78.62v.02Z" style="fill: none; opacity: .4; stroke: #80e2ff; stroke-linecap: round; stroke-linejoin: round; stroke-width: .48px;"/>
          <path d="M94.77,243.61c-13.31-5.17-27.15,2.2-40.92,1.93-7.29-.38-14.9-2.74-21.91.3-3.03,1.2-5.91,3.09-9.04,4.07-11.94,3.42-19.23-9.28-33.92-4.19" style="fill: none; opacity: .4; stroke: #80e2ff; stroke-linecap: round; stroke-linejoin: round; stroke-width: .48px;"/>
          <path d="M64.01,242.32c1.88,1.16-16.01.79-16.13.06-.41-.47.37-.91.83-1.18,4.15-2.06,10.71-.42,15.23,1.08l.07.04Z" style="fill: none; opacity: .4; stroke: #80e2ff; stroke-linecap: round; stroke-linejoin: round; stroke-width: .48px;"/>
          <path d="M144.78,247.19c-5.09,3.21-11.18-.41-16.66-.48-5.17-.17-9.64,2.8-14.73,3.29-8.31,1.06-16.91-1.72-24.94-1.07-5.38.63-1.45,2.97,1.2,3.75,8.57,2.72,20.85,3.46,29.91,2.13,8.7-2.69,9.28-6.34,19.71-3.34" style="fill: none; opacity: .4; stroke: #80e2ff; stroke-linecap: round; stroke-linejoin: round; stroke-width: .48px;"/>
          <path d="M119.46,245.88c-.88.21-1.77.41-2.67.51-5.07.75-11.53-2.65-15.16-.57-.77.68-.17,1.3.81,1.64,3.59.95,7.97-.13,11.66.08" style="fill: none; opacity: .4; stroke: #80e2ff; stroke-linecap: round; stroke-linejoin: round; stroke-width: .48px;"/>
          <path d="M135.87,259.41c-7.01-1.83-14.15-.84-21.16.19-3.22.45-6.27.05-9.47-.58-2.48-.59-7.54-.62-5.17.64,2.94,1,6.49.74,9.55.6" style="fill: none; opacity: .4; stroke: #80e2ff; stroke-linecap: round; stroke-linejoin: round; stroke-width: .48px;"/>
          <path d="M82.86,251.6c-24.84-11.69-46.79,13.6-69.43,3.14-3.51-1.63-7.18-3.01-11-2.51-3.34.55-9.09.72-11.57,1.44-2.05.72.56,1.95,1.57,2.26,2.75.94,5.91.94,9.06.74,10.84-.82,6.66-2.53-1.31-1.33" style="fill: none; opacity: .4; stroke: #80e2ff; stroke-linecap: round; stroke-linejoin: round; stroke-width: .48px;"/>
          <path d="M28.75,251.22c4.03-2.47,9.08-4.28,13.9-3.5.93.19,2.05.28,2.46,1.12-.07,1.68-3.99,2.58-7.76,4.03-4.99,1.73-10.58,3.32-14.45,2.8-1.63-.06-4.45-1.68-1.41-2.54,2.79-.57,6.93-.71,9.82-1.67" style="fill: none; opacity: .4; stroke: #80e2ff; stroke-linecap: round; stroke-linejoin: round; stroke-width: .48px;"/>
          <path d="M39.04,258.38c44.58-6.54,56.85,7.33,3.91-.39" style="fill: none; opacity: .4; stroke: #80e2ff; stroke-linecap: round; stroke-linejoin: round; stroke-width: .48px;"/>
        </g>
      </g>
    </g>
  </g>
  <g id="Fore-mountains">
    <g>
      <path d="M431.79,267.62s-1.28.61-3.41,1.2c.21,10.34,1,49.76,1.22,60.8,0,0,.65,4.08-4.21,1.47-1.78,5.06-11.32,3.21-12.29.87,1.94,3.7-11.16,3.49-11.81.01-3.23,3.69-6.14.26-5.82-2.35-2.26,1.8-4.36,1.96-5.01.66-1.78.98-13.1,4.24-10.03-6.87-3.58,2.32-11.63-1.79-11.7-4.57-1.12,1.79-3.28-1.99-2.61-3.3-1.53,1.33-6.51-1.38-5.91-3.23-1.95,4.56-9.37-4.31-8.3-6.63-2.48,1.39-11.79-8.73-8.41-11.11-3.77,1.86-6.86-3.47-5.94-3.89-2.57-.93-3.41-11.12,2.34-8.46-.08-1.26.5-2.36,1.17-2.54-1-.25-2.76-3.04-2.34-3.89-1.67,1.61-6.78.34-6.28-3.56-3.18.94-8.37-4.47-7.28-6.33-1.59,1.18-4.86-1.1-4.44-2.12-1.63,2.73-11.02,3.59-9.79-3.55-3.44,4.14-9.97-5.16-7.79-10.83-4.44,1.9-10.28-4.57-8.87-6.09-1.47,1.13-6.26-.62-6.57-3.13-.05-.41.04-.84.29-1.26-1.68,2.9-7.97,2.67-7.71-.51-3.93,4.06-8.87-3.3-7.11-4.66-1.68,1.7-6.78,1.1-7.03-1.35-2.26,2.7-6.72-2.1-5.64-4.34-1.35,1.27-8.41-.41-7.93-4.03-1.59.52-3.51-5.83-3.51-5.83-1.34,1.52-2.85-1.44-3.1-1.78-.25-.34-3.85-4.74-3.01-6-1.26-.6-2.27-1.65-1.85-2.01-.5.4-3.93.31-4.35-1.97-2.43,1.18-4.52-2.03-4.69-3.29,4.02-.6,12.73-.6,13.56-.52.55-.17,4.93-.17,10.02-.13,0-.1,0-.2.01-.31,1.91-.03,33.6.07,49.25-.05-.01-.08-.02-.16-.03-.24,1.42-1.34,5.77-1.81,9.02-1.79,1.5-.06,2.91-.03,3.9.08,3.29,0,6.72.67,8.45,1,1.48-.88,6.12-2.19,11.14-2.14,2.52-.09,5.2.15,7.66.95,1.21-.11,2.31-.16,3.3-.17,4.75-.18,7.31.6,8.76.86,2.63-.59,6.43-2.04,10.62-1.99,1.97-.07,4.05.18,6.14,1,3.37-1.44,5.84-1.81,7.62-1.76,2.1-.06,3.36.47,4.04.73,12.45.74,29.98.19,41.45.15l.61,30.34c2.4.31,3.92.68,4.21,1.11,1.97,2.99,0,37.32,0,37.32Z" style="fill: url(#linear-gradient-3);"/>
      <path d="M170.89,206.46c-.42,2.28-3.85,2.37-4.35,1.97.42.36-.59,1.41-1.85,2.01.84,1.26-2.76,5.66-3.01,6-.25.33-1.76,3.29-3.1,1.78,0,0-1.92,6.34-3.51,5.83.48,3.62-6.58,5.3-7.93,4.03,1.08,2.24-3.38,7.05-5.64,4.34-.25,2.45-5.35,3.05-7.03,1.35,1.76,1.35-3.18,8.72-7.11,4.66.26,3.17-6.03,3.4-7.71.51.25.42.34.85.29,1.26,0,0,0,0,0,0,0,0,0,0,0,0-.07.71-.53,1.36-1.19,1.92,0,0,0,0,0,0,0,0,0,0,0,0-1.59,1.33-4.31,2.03-5.38,1.21,1.41,1.52-4.43,7.99-8.87,6.09.72,1.88.49,4.16-.27,6.21-.68.24-1.43.74-2.22,1.59-2.09,3.41-4.21.14-4.47-1.13-.4,4.47-4.23,2-4.83,1,.4,5.62-3.24,9.69-4.89,7.28.02.13.05.27.07.4-.41-.26-.81-.57-.97-.98.42,1.02-2.85,3.3-4.44,2.12.3.51.11,1.3-.37,2.14.7,1.26,1.07,2.52.18,3.41.03,2.02.9,2.75-1.82,4.24-.02,2.16.3,2.11-.8,3.67-.08,2.96-3.12,3.84-3.12,3.84.29,2.28-1.74,3.45-2.61,2.63-.05,1.21-1.21,2.49-2.56,3.34-.35.81-.8,1.39-1.29,1.5.85.38-1.72,4.95-5.09,4.18-.07.17-.15.35-.24.51,1.16,3.29-6.76,11.57-9.02,10.3.84,1.82-3.56,7.68-6.43,7.9-2.63,3.66-7.1,6.27-10.55,5.91-.07.17-.16.35-.28.52,2.5,3.89-6.07,13.61-8.69,12.15,1.31,2.81-6.21,8.1-13.22,3.76-4.42,7.88-12.09,3.77-16.7-1.27-1.18.04-2.32-.05-3.27-.27-2.18,6.05-10.07,6.78-10.56,3.42.59,2.66-4.94,5.06-6.33.79-6.67,3.14-11.17-5.92-8.48-12.33-1.06-.51-1.91-1.3-2.32-2.49-4.86,2.61-4.21-1.47-4.21-1.47l.91-45.23c3.27-1.72,9.44-4.44,13.24-3.07.07-.15.19-.3.33-.45l.09-4.72c-2.13-.58-3.41-1.2-3.41-1.2,0,0-.05-.86-.12-2.32,0,0-.02,0-.03,0-1.26-.42-1.08-2.57-.19-4.48-.46-10.17-1.07-28.37.34-30.51.28-.42,1.74-.79,4.07-1.09l.61-30.51c9.66.03,24.15.5,34.63-.13.9-.34,2.96-1.23,7.08.07,1.08-.41,3.37-1.29,7.73-.06,1.72.06,3.36.39,4.81.77,3.7-1.14,7.31-.59,10.34.16,1.07,0,2.28.06,3.67.21,4.75-1.62,10.52-.65,13.36.33.08,0,.15.01.23.02,4.6-1.57,10.01-1.11,13.71-.25,2.1.17,4.18.6,5.02,1.39,0,.01,0,.03,0,.04,1.62-.3,5.26-1.06,8.74-1.06,2.94-.32,9.43-.03,11.22,1.66.1.09.18.18.25.28,15.01.14,50.33.03,50.66.07.02.11,0,.21.01.31,5.09-.05,9.47-.05,10.02.13.83-.08,9.54-.08,13.56.52-.17,1.26-2.26,4.47-4.69,3.29Z" style="fill: url(#linear-gradient-4);"/>
      <g>
        <path d="M288.81,164.25c-.4.59-.81,1.23-1.19,1.9.07-.7.53-1.35,1.19-1.9Z" style="fill: #16683d;"/>
        <path d="M429.51,77.61c-.78,38.44-1.85,91.07-2.62,129.47-11.56-.03-28.91-.59-41.45.15-1.26.47-4.44,1.86-11.3-1.15-6.53,2.76-12.98-.25-16.66-.92-1.59.17-4.86,1.51-12.31.7-7.28,2.46-16.58-.12-17.92-1.29-.58,0-5.19,1.17-9.54,1.17-2.94.32-9.43.03-11.22-1.64-.1-.09-.18-.18-.25-.28,0,0-31.81-.25-33.65-.46-1.85-.22-25.71.38-27.05-.04-.83.08-9.54.08-13.56-.51.17-1.25,2.26-4.43,4.69-3.26.42-2.26,3.85-2.35,4.35-1.95-.42-.36.59-1.4,1.85-1.99-.84-1.25,2.76-5.6,3.01-5.94.25-.33,1.76-3.26,3.1-1.76,0,0,1.92-6.28,3.51-5.77-.48-3.58,6.58-5.25,7.93-3.99-1.08-2.22,3.38-6.98,5.64-4.3.25-2.43,5.35-3.02,7.03-1.34-1.76-1.34,3.18-8.63,7.11-4.61-.26-3.14,6.03-3.37,7.71-.5-.25-.42-.34-.84-.29-1.25.32-2.5,5.11-4.21,6.57-3.1-1.41-1.52,4.44-7.91,8.87-6.03-2.18-5.61,4.35-14.82,7.79-10.72-1.23-7.07,8.16-6.22,9.79-3.51-.42-1.01,2.85-3.27,4.44-2.1-1.09-1.84,4.1-7.2,7.28-6.27-.5-3.86,4.61-5.11,6.28-3.52-.42-.84,1.34-3.6,2.34-3.85-.67-.17-1.25-1.26-1.17-2.51-5.74,2.64-4.92-7.45-2.34-8.38-.92-.41,2.17-5.69,5.94-3.85-3.38-2.36,5.93-12.38,8.41-11-1.07-2.29,6.35-11.07,8.3-6.56-.6-1.83,4.38-4.52,5.91-3.2-.67-1.3,1.49-5.04,2.61-3.27.07-2.75,8.12-6.82,11.7-4.52-3.07-11,8.25-7.77,10.03-6.8.65-1.29,2.75-1.13,5.01.65-.32-2.59,2.59-5.98,5.82-2.33.65-3.45,13.75-3.65,11.81.01.97-2.32,10.51-4.15,12.29.86,4.86-2.58,4.21,1.46,4.21,1.46Z" style="fill: #146c48;"/>
        <path d="M330.76,152.08s-5.57,2.13-1.99,6.87c-2.47,1.17-3.5,6.53-2.06,7.97-1.1-.41-.87,1.11.43,4.45-2.44-5.06-3.84-6.97-6.68-7.05.79-1.11,2.23-3.58-.95-4.48,2.25.03,6.97-.32,7.6-3.15.64-2.83,1.6-3.95,3.65-4.61Z" style="fill: #1b7d48;"/>
        <path d="M429.51,77.61l-.91,44.78c-3.27,1.7-9.44,4.4-13.24,3.04-1.43,3-18.96,7.11-24.5-.85-.99,4.92-4.83,5.99-10.02,1.61-5.81,6.8-8.76-.71-8.58-3.22-.9,2.33-4.92,6.89-8.32,1.7-9.66,7.51-13.32.98-15.56,1.7-2.23.71-5.09-1.7-3.04-3.49-2.59,1.52-2.95.54-4.47-.98-.28,1.73-1.27,2.58-2.26,3-4.69.78-3.24-8.27-1.14-8.74-.92-.41,2.17-5.69,5.94-3.85-3.38-2.36,5.93-12.38,8.41-11-1.07-2.29,6.35-11.07,8.3-6.56-.6-1.83,4.38-4.52,5.91-3.2-.67-1.3,1.49-5.04,2.61-3.27.07-2.75,8.12-6.82,11.7-4.52-3.07-11,8.25-7.77,10.03-6.8.65-1.29,2.75-1.13,5.01.65-.32-2.59,2.59-5.98,5.82-2.33.65-3.45,13.75-3.65,11.81.01.97-2.32,10.51-4.15,12.29.86,4.86-2.58,4.21,1.46,4.21,1.46Z" style="fill: #1a754f;"/>
        <path d="M320.56,148.49c-1.65-2.38-5.29,1.65-4.89,7.21-.6-.99-4.43-3.44-4.83.99-.26-1.26-2.38-4.5-4.47-1.12-2.17,2.29-3.97,1.96-5.18,1.14.61-.01,1.24.08,1.87.31-2.18-5.61,4.35-14.82,7.79-10.72-1.16-6.95,7.44-5.99,9.43-4.02-.29,1.9-.11,4.05.28,6.21Z" style="fill: #1a754f;"/>
        <path d="M290.19,179.06c.71,4.11,8.88-.26,9.36-1.82,3.22,3.6,10.54-.15,9.94-3.07,2.86,1.71,7.61-4.4,5.63-5.4,1.34-2.85-5.28-5.8-7.97-2.05-.41-1.7-7.33,1.07-7.87,3.93-2,.34-8.78,2.06-9.09,8.41Z" style="fill: #1d864c;"/>
        <path d="M334.36,194.09c3.6-.12,9.15-7.9,5.45-9.63,1.6-2.35.86-3.21-.62-2.84.86-3.33-2.59-5.69-5.92-3.96-3.09-3.57-3.82-4.58-7.71-4.57.92-1.35-2.16-2.09-2.16-1.35-2.59-2.84-4.2-1.82-4.94-.29-2.35-1.06-11.53-.03-11.73,3.13-5.68-1.73-7.78,8.15-6.05,9.01s19.83,18.39,33.68,10.49Z" style="fill: #1b7d48;"/>
        <path d="M327.06,192.23c4.33-3.93,2.25-12.93-3.6-11.3-.51-3.26-4.83-2.19-4.72-.2.06-2.9-7.87-3.01-8.94,3.57-1.8-4.78-8.43-12.31-13.6-5.9-4.61-3.99-10.73-1.07-10.12,1.12-1.85-1.46-10.17,5.45-7.42,8.32-4.21-1.97-12.98,3.44-11.3,9.45-.79-2.2-4.16.78-2.64,1.96-1.91-.67-3.2-.39-3.71.79-1.4-.39-5.84,1.07-5.45,3.71h69.46s1.46-11.58,2.02-11.52Z" style="fill: #1a754f;"/>
        <path d="M392.45,117.88c4.15,2.6,10.44.37,8.96-4.83,7.07,2.29,2.93-13.07-2.15-10.09,1.8-1.86-2.42-3.73-3.84-.66.12-1.82-5.7-4.24-6.01-1.39-3.41-2.35-7.86.87-6.9,3.59-3.26-2.54-13.04-.56-12.92,1.92-3.34-3.22-9.17,3.38-8.73,4.88-1.92.01-1.92,3.71-1.18,3.93-1.3.72-6.63,6.37-2.79,8.96,7.04.47,34.56-3.34,35.55-6.32Z" style="fill: #1a6e4d;"/>
        <path d="M371.38,118.51c.92-3.07,6.52-3.22,7.83-1.61,4.68-5.52,14.81-2.76,14.88.69,3.15-2.69,6.29-.31,6.29.92,1-.31,2.15-.08,2.15.84.46-1.76,4.45.08,4.83,0,1.15-5.29,8.21-1.46,7.82.77,3.07-1.92,3.76,3.84,1.38,4.37,1.99.61,3.29,9.9-1.38,9.82,4.45,3.99.16,11.59-3.22,10.97.46,2.38-1.3,9.74-6.14,6.91-3.76,3.99-7.29,1.84-8.75.23-2.53,3.38-15.5,5.83-17.19.23-2.15,2.38-8.36-2.3-6.29-3.99-2.15,2.23-4.68.54-5.68-1-2.38,3.68-12.35-.77-10.2-5.6-5.06,2.92-3.45-4.99-1.3-5.91-2.76-1.07-4.34-3.22-2.05-4.45-3.62.08-4.93-12.51,6.35-8.13,1.84-5.68,9.36-8.06,10.66-5.06Z" style="fill: #1b7d48;"/>
        <path d="M287.32,166.68c-1.19,2.2-2.03,4.53-1.25,5.97-1.8-1.53-7.29-3.15-9.27-.9-.99-.9-4.77,3.06-4.32,5.05-2.1-1.77-4.28-1.41-4.33-.26-.43-.96-5.56,1.07-7.92.78.12-2.11,3.58-5.94,5.83-3.47.25-2.43,5.35-3.02,7.03-1.34-1.76-1.34,3.18-8.63,7.11-4.61-.23-2.81,4.86-3.34,7.12-1.22Z" style="fill: #1b7d48;"/>
        <path d="M390.81,163.65c-.29.25-.61.44-.93.56-.86,1.91-1.46,5.68-7.98,1.24-3.6,6.29-9.44,5.64-11.82,4.91,1.35,1.15-1.81,4.49-1.81,4.49-9.19,14.34-20,12.07-29.78,10.79-9.31,1.11-9.33-10.69-9.22-13.03-1.75-2.07,1.02-7.22,3.9-5.22-.69-2.88,1.89-8.24,5.38-5.9.04-3.47,5.06-5.67,7.94-.97-.46-2.95,4.82-11.9,9.91-9.37-1.88-3.44,5.41-8.47,8.19-5.92-.18-2,2.43-3.64,4.46-1.01,0,0,3.04-3.31,6.01-.53,2.32.02,2.04.42,4.18,2.5,3.5-2.37,3.64-.14,5.47,1.65,2.17-.49,3.25,3.31,4.06,6.6,2.35-.75,3.23-.84,2.97,2.31.25-.02.47,0,.66.07,1.88.63.57,5.09-1.59,6.83Z" style="fill: #1d864c;"/>
        <path d="M392.4,156.82c-.28,2.32-.92,4.69-1.59,6.83-.29.25-.61.44-.93.56-.86,1.91-1.46,5.68-7.98,1.24-3.6,6.29-9.44,5.64-11.82,4.91,1.35,1.15-1.81,4.49-1.81,4.49-.79,1.18-1.57,2.25-2.37,3.21-8.31,1.24-16.33,1.49-19.02-.11,1.84.52,4.56-1.21,4.28-2.38,1.22,1.43,6.15.13,4.07-1.64,3.97.72,2.08-3.78,1.63-4.63.58.59,1.76-.13,1.6-.65,1.09,1.17,5.7-1.37,4.53-4.04,1.63,2.09,2.74-.2,3.26,0,.51.2,1.24-1.11,1.3-1.9,1.24,1.05,6.59-.97,6.46-3.12,1.24,1.37,6.46.78,6.93,0,.8.65,3.51-.53,2.18-1.57,2.38,0,2.05-2.94-1.23-4.51,3.76-.1,2.35-4.91,1.32-7.48.45.53.88,1.21,1.5,1.81,2.17-.49,3.25,3.31,4.06,6.6,2.35-.75,3.23-.84,2.97,2.31.25-.02.47,0,.66.07Z" style="fill: #116040; opacity: .4;"/>
        <path d="M344.86,132.41s-3.13,4.59-7,2.26c3.06,1.6,3.79,3.35,2.04,4.74,2.55.95,3.13,3.35,1.82,5.32,3.57-1.97,5.25,1.23,5.47,2.33,1.75-.5,5.98-1.67,7.43-1.01-3.5-4.66-5.76-4.3-5.9-6.31-.15-2-3.86-7.32-3.86-7.32Z" style="fill: #1a754f;"/>
        <path d="M431.7,138.99s-17.53-8.35-30.98,7.45c-5.43-.99-14.07,9.36-12.47,13.81-3.33-.85-6.05,1-5.74,3.22-1.67-4.07-7.63-1.76-8.08,1.1-2.96-2.58-11.36,2.24-10.98,7.79,4.44,6.91,66.28,6.53,68.25,3.57s0-36.95,0-36.95Z" style="fill: #1a754f;"/>
        <path d="M427.71,165.8l-.83,41.26c-11.72-.03-29.32-.6-42.03.15-1.28.48-4.5,1.89-11.46-1.17-6.62,2.8-13.16-.25-16.89-.93-1.61.17-4.93,1.53-12.48.71-7.38,2.49-16.81-.12-18.17-1.31-.59,0-5.26,1.19-9.67,1.19-2.98.32-9.56.03-11.38-1.66.24-1.85.99-4.35,3.22-3.95-2.53-3.07,5.73-4.52,7.71-2.64-2.05-5.69,11.47-10.47,14.88-5.76.75-2.18,3.14-.68,3.75.62-.68-3.55,3.49-6.49,6.42-5.53-2.18-2.94,1.98-12.56,10.78-9.35,1.3.33,3.14.13,2.46-1.37-2.8-3.82,1.29-5.6,3.2-4.98.82-1.23,7.23-3.89,9.76,1.3-1.2-3.21,1.98-2.47,2.46-1.16-.4-3.33,5.87-6.84,8.05-2.54,1.98-4.03,7.78-3.48,8.8-1.16.48-3.2,3.41-2.05,4.71-1.43-.41-4.17,16.79-11.06,21.57-2.25,3.13-4.85,10.17-.76,10.3,2.53,1.49-1.45,3.44-1.71,4.85-.58Z" style="fill: #1b7d48;"/>
        <path d="M361.82,198.83s.73-5.91-5.13-4.98c.13-2.73-4.12-6.16-6.07-5.56.88-.78-.57-1.29-4.13-1.71,5.61.22,7.96-.12,9.35-2.59.61,1.22,2.11,3.64,4.4,1.26-5.26,10.07,2.56,7.04,1.58,13.58Z" style="fill: #2c6949;"/>
        <path d="M374.4,135.09s-1.7.48-5.33-.92c0,0,1.52,4.39-4.98,2.05-1,1.05-3.87,5.45-5.62,3.63,0,0,2.46,1.04,2.23,1.98,1.41-1.4,3.98-8.6,7.21-2.8,1.64-1.99,5.45-.47,4.51,1.17,1.46-1.29,1.7-2.4,3.46-1.82-3.63-1.05-2.99-2.49-1.46-3.29Z" style="fill: #2c6949;"/>
        <path d="M379.2,135.4s-.94-2.11,1.64-2.23c1.05-2.75,2.87-2.32,2.58-1.16,1-1.65-2.81-2.18-3.22.34-2.17.82-2.46,2.81-1,3.05Z" style="fill: #2c6949;"/>
        <path d="M375.87,131.42s-.06.64-1.41.35c.53.82,1.17,1,1.41-.35Z" style="fill: #2c6949;"/>
        <path d="M316.96,184.6s1.04,3.01-1.04,4-6.03,1.98-7.49,1.55c-.85,1.88,0,5.13-4.57,5.27,2.68.61,5.25-2.4,6.68-4.47,2.74.99,4.05,2,4.05,2,0,0-.93-2.33,1.89-3.46s5.09-1.22,5.09-1.22c0,0,.24-2.54,2.4-2.07-3.16-.14-4.05,1.18-7.02-1.6Z" style="fill: #16683d;"/>
        <path d="M351.62,106.2s-2.17.74-2.97,2.35c1.86-.37,3.12-.93,5.03,0-.13-1.18-2.18-.19-2.05-2.35Z" style="fill: #1b7d48;"/>
        <path d="M352.43,112.39s-4.77,1.36-4.33,2.85c-2.42.12-3.78,1.49-3.41,2.72.37,1.05,4.15.5,4.71-.99,1.92.81,4.03-1.42,2.11-1.98,1.42.06,4.03-3.47.93-2.6Z" style="fill: #1b7d48;"/>
        <path d="M341.61,115.59s-1.05.99,0,1.67.5-.06,1.3-.84-.84-1.71-1.3-.84Z" style="fill: #2c6949;"/>
        <path d="M366.79,101.3s-1.55,3.16-3.41,1.42c-1.86-1.73,1.26-2.85,2.83-2.6s3.68-2.72,4.98-.37c1.3,2.35-2.97,3.22-4.4,1.55Z" style="fill: #1b7d48;"/>
        <path d="M381.22,96.23s-2.35.19-2.48.87,1.11.31,2.48.31c1.36,1.42,3.41-.27,3.84-.54s-.56-1.32-1.61-.39-1.43-1.46-2.23-.25Z" style="fill: #1b7d48;"/>
        <path d="M387.35,89.72c-2.42-1.18-5.81.25-5.79,2.48s3.56,1.8,4.61,1.3c2.11,1.36,3.84-.77,5.39-1.9,2.23,3.2,4.52,1.36,5.14.02.68,2.07,4.21-.91,3.72-2.76-.5-1.86-3.84-3.53-5.94-1.55-2.79-.81-5.64-1.92-7.12,2.42Z" style="fill: #1b7d48;"/>
        <path d="M254.01,190.29s2.03-2.86,3.23-2.26c.68.15,1.99-.38,2.07.11.86-1.05,1.05-3.57,5.19-4.59,4.14-1.02-2.93-1.73-5.71,3.16.04-.75-1.09-.38-1.2.11-.68-.83-5.83,1.09-3.57,3.46Z" style="fill: #1a754f;"/>
        <path d="M257.62,184.88s.9-1.17,1.69-.9.23-2.29-2.18-.2c-2.41,2.08-1.5,1.86-.79,1.52s1.02-.75,1.28-.41Z" style="fill: #1a754f;"/>
        <path d="M273.22,179.13s2.63-3.48,4.44-1.78c.56-1.08,2.33-2.85,4.36-2.36-.23-.86-2.26-1.56-3.91-.08-.86-.41-1.69.27-1.2.76-.98.04-5.19,2.67-3.68,3.46Z" style="fill: #1a754f;"/>
        <path d="M280.21,179.73s-1.84.56-1.58.86-1.23-1.35,1.58-.86Z" style="fill: #1b7d48;"/>
        <path d="M269.91,185.86s-1.43,2.07-2.37,2.11-2.41,2.97-2.93,2.33.71-3.5,1.99-3.38,2.97-2.59,3.31-1.05Z" style="fill: #1a754f;"/>
        <path d="M253.44,195.33s-.33,1.09-1.91,1.05-2.52,1.28-3.16.49.08-1.8,1.24-1.73c.68-1.84,3.87-1.13,3.83.19Z" style="fill: #1a754f;"/>
        <path d="M286.3,182.83s1.08-1.29,1.91-.92,1.81-.41,1.62-.79-1.67-1.28-1.76-.49c-1.03-.3-3.13,1.54-1.97,2.2" style="fill: #1b7d48;"/>
      </g>
      <path d="M431.79,138.99s-1.28-.61-3.41-1.18c.21-10.24,1-49.27,1.22-60.2,0,0,.65-4.04-4.21-1.46-1.78-5.01-11.32-3.18-12.29-.86,1.94-3.66-11.16-3.46-11.81-.01-3.23-3.65-6.14-.26-5.82,2.33-2.26-1.78-4.36-1.94-5.01-.65-1.78-.97-13.1-4.2-10.03,6.8-3.58-2.3-11.63,1.77-11.7,4.52-1.12-1.77-3.28,1.97-2.61,3.27-1.53-1.32-6.51,1.37-5.91,3.2-1.95-4.51-9.37,4.27-8.3,6.56-2.48-1.38-11.79,8.64-8.41,11-3.77-1.84-6.86,3.44-5.94,3.85-2.58.93-3.4,11.01,2.34,8.38-.08,1.25.5,2.34,1.17,2.51-1,.25-2.76,3.01-2.34,3.85-1.67-1.59-6.78-.34-6.28,3.52-3.18-.93-8.37,4.43-7.28,6.27-1.59-1.17-4.86,1.09-4.44,2.1-1.63-2.7-11.02-3.56-9.79,3.51-3.44-4.1-9.97,5.11-7.79,10.72-4.43-1.88-10.28,4.52-8.87,6.03-1.46-1.11-6.25.6-6.57,3.1-.05.41.04.83.29,1.25-1.68-2.87-7.97-2.64-7.71.5-3.93-4.02-8.87,3.27-7.11,4.61-1.68-1.68-6.78-1.09-7.03,1.34-2.26-2.68-6.72,2.08-5.64,4.3-1.35-1.26-8.41.41-7.93,3.99-1.59-.51-3.51,5.77-3.51,5.77-1.34-1.5-2.85,1.43-3.1,1.76-.25.34-3.85,4.69-3.01,5.94-1.26.59-2.27,1.63-1.85,1.99-.5-.4-3.93-.31-4.35,1.95-2.43-1.17-4.52,2.01-4.69,3.26,4.02.59,12.73.59,13.56.51.55.17,4.93.17,10.02.13,0,.1,0,.2.01.31,1.91.03,33.6-.07,49.25.05-.01.08-.02.16-.03.24,1.42,1.33,5.77,1.79,9.02,1.78,1.5.06,2.91.03,3.9-.08,3.29,0,6.72-.67,8.45-.99,1.48.87,6.12,2.17,11.14,2.12,2.52.09,5.2-.14,7.66-.94,1.21.11,2.31.16,3.3.17,4.75.18,7.31-.59,8.76-.86,2.63.58,6.43,2.02,10.62,1.97,1.97.07,4.05-.17,6.14-.99,3.37,1.43,5.84,1.79,7.62,1.74,2.1.05,3.36-.47,4.04-.72,12.46-.74,29.98-.18,41.45-.15l.61-30.04c2.4-.3,3.92-.68,4.21-1.1,1.97-2.96,0-36.95,0-36.95Z" style="fill: url(#linear-gradient-5); opacity: .7;"/>
      <g>
        <path d="M118.75,164.25c.4.59.81,1.23,1.19,1.9-.07-.7-.53-1.35-1.19-1.9Z" style="fill: #16683d;"/>
        <path d="M77.63,144.7c-.26-.11-.5-.25-.71-.42-1.33.09-3.42.99-4.41-4.86-4.74-.22-7.21-4.31-8-6.14.09,1.29-3.02.35-3.02.35-11.3-1.01-15.77-9.78-19.4-16.02-4.98-5.79.67-9.88,1.84-10.61.16-1.88,3.95-1.82,4.37.78,1.05-1.45,4.85-1.59,5.4,1.53,1.68-1.17,5.14,1.4,4.26,4.93,1.19-1.32,8.01-.91,9.23,3.34.75-2.43,6.64.66,6.75,3.39.87-.81,2.91.35,2.61,2.61,0,0,3.04.87,3.12,3.8,1.1,1.55.77,1.5.8,3.64,2.72,1.48,1.86,2.19,1.82,4.2,1.27,1.27-.03,3.3-1.23,4.97,1.48,1.3,1.95,1.85.31,2.77.13.16.22.31.28.46.6,1.46-2.17,2.14-4.03,1.3Z" style="fill: #1d864c;"/>
        <path d="M-27.56,82.99c-4.9-6.19-.15-17.71,7.28-14.25,1.39-4.23,6.92-1.85,6.33.78.56-3.87,11.14-2.27,11.12,6.72,3.45-5.97,13.94-14.54,19.41-4.87,7.02-4.3,14.53.94,13.22,3.72,2.79-1.54,12.35,9.5,8.05,12.71,6.05-1.69,16.53,7.44,12.96,15.07,1.53-2.76,5.37,1.95,3.09,3.19,2.69-.48,4.35.18,4.77,1.86,1.96-.21,7.55,2.71,6.44,6.14-6.44-1.06-92.51-15.29-92.51-15.29,0,0,.6-15.74-.16-15.79Z" style="fill: #1a754f;"/>
        <path d="M175.58,202.81c-4.02.59-12.73.59-13.56.51-1.34.42-25.2-.18-27.05.04-1.84.21-33.65.46-33.65.46-.07.1-.15.19-.25.28-1.79,1.67-8.28,1.96-11.22,1.64-4.35,0-8.96-1.17-9.54-1.17-1.34,1.17-10.64,3.75-17.92,1.29-7.45.81-10.72-.53-12.31-.7-3.68.67-10.13,3.68-16.66.92-6.86,3.01-10.04,1.62-11.3,1.15-12.46-.74-29.98-.18-41.45-.15-.77-38.39-1.84-91.05-2.62-129.47,0,0-.65-4.04,4.21-1.46,1.78-5.01,11.32-3.18,12.29-.86-1.94-3.66,11.16-3.46,11.81-.01,3.23-3.65,6.14-.26,5.82,2.33,2.26-1.78,4.36-1.94,5.01-.65,1.78-.97,13.1-4.2,10.03,6.8,3.58-2.3,11.63,1.77,11.7,4.52,1.12-1.77,3.28,1.97,2.61,3.27,1.53-1.32,6.51,1.37,5.91,3.2,1.95-4.51,9.37,4.27,8.3,6.56,2.48-1.38,11.79,8.64,8.41,11,3.77-1.84,6.86,3.44,5.94,3.85,2.58.93,3.4,11.01-2.34,8.38.08,1.25-.5,2.34-1.17,2.51,1,.25,2.76,3.01,2.34,3.85,1.67-1.59,6.78-.34,6.28,3.52,3.18-.93,8.37,4.43,7.28,6.27,1.59-1.17,4.86,1.09,4.44,2.1.16-.41.56-.71.97-.97-.02.13-.05.27-.07.4,1.65-2.38,5.29,1.65,4.89,7.21.6-.99,4.43-3.44,4.83.99.26-1.26,2.38-4.5,4.47-1.12.79.84,1.54,1.33,2.22,1.57.76,2.03.99,4.29.27,6.15,4.43-1.88,10.28,4.52,8.87,6.03,1.46-1.11,6.25.6,6.57,3.1.05.41-.04.83-.29,1.25,1.68-2.87,7.97-2.64,7.71.5,3.93-4.02,8.87,3.27,7.11,4.61,1.68-1.68,6.78-1.09,7.03,1.34,2.26-2.68,6.72,2.07,5.64,4.3,1.35-1.26,8.41.41,7.93,3.99,1.59-.51,3.51,5.77,3.51,5.77,1.34-1.5,2.85,1.43,3.1,1.76.25.34,3.85,4.69,3.01,5.94,1.26.59,2.27,1.63,1.85,1.99.5-.4,3.93-.31,4.35,1.95,2.43-1.17,4.52,2.01,4.69,3.26Z" style="fill: #146c48;"/>
        <path d="M27.48,171.93s5.57,2.13,1.99,6.87c2.47,1.17,3.5,6.53,2.06,7.97,1.1-.41.87,1.11-.43,4.45,2.44-5.06,3.84-6.97,6.68-7.05-.79-1.11-2.23-3.58.95-4.48-2.25.03-6.97-.32-7.6-3.15-.64-2.83-1.6-3.95-3.65-4.61Z" style="fill: #1b7d48;"/>
        <path d="M-35.3,84.87l.91,44.78c3.27,1.7,9.44,4.4,13.24,3.04,1.43,3,18.96,7.11,24.5-.85.99,4.92,4.83,5.99,10.02,1.61,5.81,6.8,8.76-.71,8.58-3.22.9,2.33,4.92,6.89,8.32,1.7,9.66,7.51,13.32.98,15.56,1.7,2.23.71,5.09-1.7,3.04-3.49,2.59,1.52,2.95.54,4.47-.98.28,1.73,1.27,2.58,2.26,3,4.69.78,3.24-8.27,1.14-8.74.92-.41-2.17-5.69-5.94-3.85,3.38-2.36-5.93-12.38-8.41-11,1.07-2.29-6.35-11.07-8.3-6.56.6-1.83-4.38-4.52-5.91-3.2.67-1.3-1.49-5.04-2.61-3.27-.07-2.75-8.12-6.82-11.7-4.52,3.07-11-8.25-7.77-10.03-6.8-.65-1.29-2.75-1.13-5.01.65.32-2.59-2.59-5.98-5.82-2.33-.65-3.45-13.75-3.65-11.81.01-.97-2.32-10.51-4.15-12.29.86-4.86-2.58-4.21,1.46-4.21,1.46Z" style="fill: #1a754f;"/>
        <path d="M83.71,198.71c-.71,4.11-8.88-.26-9.36-1.82-3.22,3.6-10.54-.15-9.94-3.07-2.86,1.71-7.61-4.4-5.63-5.4-1.34-2.85,5.28-5.8,7.97-2.05.41-1.7,7.33,1.07,7.87,3.93,2,.34,8.78,2.06,9.09,8.41Z" style="fill: #1d864c;"/>
        <path d="M27.73,170.53c-1.96-3.02,1.25-12.03,4.78-9.98,1.01-2.66,2.14-2.54,2.68-1.12,2.24-2.61,6.15-1.13,6.63,2.6,4.7.49,5.94.51,8.16,3.71.58-1.53,2.95.58,2.34,1,3.81.5,3.89,2.4,3.06,3.88,2.21,1.31,6.62,9.44,4.14,11.41,4.66,3.67-2.24,11.04-3.93,10.11s-26.43-5.75-27.86-21.63Z" style="fill: #1a754f;"/>
        <path d="M110.62,188.78c.17.15.36.26.55.33.51,1.13.86,3.36,4.72.73,2.13,3.72,5.58,3.33,6.98,2.9-.8.68,1.07,2.65,1.07,2.65,5.39,8.45,11.86,7.14,17.6,6.38,5.5.66,5.51-6.32,5.45-7.7,1.03-1.22-.6-4.27-2.3-3.08.41-1.7-1.12-4.87-3.18-3.49-.02-2.05-2.99-3.35-4.69-.57.27-1.74-2.85-7.03-5.86-5.54,1.11-2.03-3.2-5-4.84-3.5.11-1.18-1.44-2.15-2.64-.6,0,0-1.8-1.96-3.55-.31-1.37.01-1.21.25-2.47,1.48-2.07-1.4-2.15-.08-3.23.97-1.28-.29-1.92,1.96-2.4,3.9-1.39-.44-1.91-.5-1.76,1.36-.15-.01-.28,0-.39.04-1.11.37-.34,3.01.94,4.04Z" style="fill: #1d864c;"/>
        <path d="M55.49,188.2c-5.84-5.31-3.03-17.45,4.86-15.25.68-4.4,6.52-2.95,6.37-.26-.08-3.91,10.62-4.06,12.06,4.82,2.43-6.45,11.38-16.61,18.36-7.97,6.22-5.39,14.49-1.44,13.65,1.52,2.5-1.97,13.73,7.36,10.01,11.23,5.69-2.66,17.52,4.64,15.25,12.76,1.06-2.97,5.61,1.05,3.56,2.64,2.58-.91,4.32-.53,5.01,1.06,1.9-.53,7.89,1.44,7.36,5.01-6.52,0-93.76,0-93.76,0,0,0-1.97-15.63-2.73-15.55Z" style="fill: #1a754f;"/>
        <path d="M11.89,119.45c-4.15,2.6-10.44.37-8.96-4.83-7.07,2.29-2.93-13.07,2.15-10.09-1.8-1.86,2.42-3.73,3.84-.66-.12-1.82,5.7-4.24,6.01-1.39,3.41-2.35,7.86.87,6.9,3.59,3.26-2.54,13.04-.56,12.92,1.92,3.34-3.22,9.17,3.38,8.73,4.88,1.92.01,1.92,3.71,1.18,3.93,1.3.72,6.63,6.37,2.79,8.96-7.04.47-34.56-3.34-35.55-6.32Z" style="fill: #1a6e4d;"/>
        <path d="M36.18,118.51c-.92-3.07-6.52-3.22-7.83-1.61-4.68-5.52-14.81-2.76-14.88.69-3.15-2.69-6.29-.31-6.29.92-1-.31-2.15-.08-2.15.84-.46-1.76-4.45.08-4.83,0-1.15-5.29-8.21-1.46-7.82.77-3.07-1.92-3.76,3.84-1.38,4.37-1.99.61-3.29,9.9,1.38,9.82-4.45,3.99-.16,11.59,3.22,10.97-.46,2.38,1.3,9.74,6.14,6.91,3.76,3.99,7.29,1.84,8.75.23,2.53,3.38,15.5,5.83,17.19.23,2.15,2.38,8.36-2.3,6.29-3.99,2.15,2.23,4.68.54,5.68-1,2.38,3.68,12.35-.77,10.2-5.6,5.06,2.92,3.45-4.99,1.3-5.91,2.76-1.07,4.34-3.22,2.05-4.45,3.62.08,4.93-12.51-6.35-8.13-1.84-5.68-9.36-8.06-10.66-5.06Z" style="fill: #1b7d48;"/>
        <path d="M11.7,116.96c-2.81.28-4.82,4.28-2.66,5.33-1.84,3.44,1.67,6.59,3.21,5.19-.56,2.17,1.46,1.42,2.62.34.09,2.52,3.77,8.19,7.28,7.05,0,0,.87,5.66,5.45,3.35-.96,1.4-.26,3.58,1.08,1.68,0,1.68,1.6,2.1,1.82,1.82.36,1.05,2.81,6.24,7.58,3.02.63.56,8.25,5.4,11.67.32-3.88,6.98-16.06,6.98-18.04,6.49s-15.1-6.95-20.92-9.68S-6.97,124.19,1.1,116.96c6.38-3.86,10.6,0,10.6,0Z" style="fill: #146c48; opacity: .4;"/>
        <path d="M-22.7,148.12c.29.25.61.44.93.56.86,1.91,1.46,5.68,7.98,1.24,3.6,6.29,9.44,5.64,11.82,4.91-1.35,1.15,1.81,4.49,1.81,4.49,9.19,14.34,20,12.07,29.78,10.79,9.31,1.11,9.33-10.69,9.22-13.03,1.75-2.07-1.02-7.22-3.9-5.22.69-2.88-1.89-8.24-5.38-5.9-.04-3.47-5.06-5.67-7.94-.97.46-2.95-4.82-11.9-9.91-9.37,1.88-3.44-5.41-8.47-8.19-5.92.18-2-2.43-3.64-4.46-1.01,0,0-3.04-3.31-6.01-.53-2.32.02-2.04.42-4.18,2.5-3.5-2.37-3.64-.14-5.47,1.65-2.17-.49-3.25,3.31-4.06,6.6-2.35-.75-3.23-.84-2.97,2.31-.25-.02-.47,0-.66.07-1.88.63-.57,5.09,1.59,6.83Z" style="fill: #1d864c;"/>
        <path d="M-24.29,141.29c.28,2.32.92,4.69,1.59,6.83.29.25.61.44.93.56.86,1.91,1.46,5.68,7.98,1.24,3.6,6.29,9.44,5.64,11.82,4.91-1.35,1.15,1.81,4.49,1.81,4.49.79,1.18,1.57,2.25,2.37,3.21,8.31,1.24,16.33,1.49,19.02-.11-1.84.52-4.56-1.21-4.28-2.38-1.22,1.43-6.15.13-4.07-1.64-3.97.72-2.08-3.78-1.63-4.63-.58.59-1.76-.13-1.6-.65-1.09,1.17-5.7-1.37-4.53-4.04-1.63,2.09-2.74-.2-3.26,0-.51.2-1.24-1.11-1.3-1.9-1.24,1.05-6.59-.97-6.46-3.12-1.24,1.37-6.46.78-6.93,0-.8.65-3.51-.53-2.18-1.57-2.38,0-2.05-2.94,1.23-4.51-3.76-.1-2.35-4.91-1.32-7.48-.45.53-.88,1.21-1.5,1.81-2.17-.49-3.25,3.31-4.06,6.6-2.35-.75-3.23-.84-2.97,2.31-.25-.02-.47,0-.66.07Z" style="fill: #116040; opacity: .6;"/>
        <path d="M-24.14,138.99s17.53-8.35,30.98,7.45c5.43-.99,14.07,9.36,12.47,13.81,3.33-.85,6.05,1,5.74,3.22,1.67-4.07,7.63-1.76,8.08,1.1,2.96-2.58,11.36,2.24,10.98,7.79-4.44,6.91-66.28,6.53-68.25,3.57s0-36.95,0-36.95Z" style="fill: #1a754f;"/>
        <path d="M9.17,158.02c-1.07-.22-1.99-1.08-1.82-2.25.1-.82-.44-1.81-2.99-2.51-.73-.2-1.25-.83-1.36-1.57-.29-2.05-.82-5.22-2.75-4.7,0,0,.53.08,1.14.08,1.04,0,1.9.81,1.93,1.86.06,2.37.33,5.19,3.16,4.29.74-.24,1.53.06,2.05.65.68.77,1.76,1.15,2.6,1.09.78-.05,1.54.4,1.81,1.13.21.55.57.92,1.47,1.12-1.83-.48-2.79-.33-3.18.12-.53.62-1.3.98-2.07.7Z" style="fill: #1b7d48;"/>
        <path d="M-20.15,173.23l.69,33.99c9.66-.03,24.15-.49,34.63.13,1.05.39,3.71,1.55,9.44-.96,5.46,2.31,10.84-.21,13.92-.77,1.33.14,4.06,1.26,10.28.58,6.08,2.06,13.85-.1,14.97-1.08.48,0,4.34.98,7.97.98,2.46.27,7.88.03,9.37-1.37-.2-1.52-.82-3.58-2.66-3.26,2.08-2.53-4.72-3.73-6.35-2.17,1.69-4.69-9.45-8.62-12.26-4.75-.62-1.8-2.59-.56-3.09.51.56-2.92-2.87-5.35-5.29-4.55,1.8-2.42-1.63-10.35-8.88-7.7-1.07.28-2.59.11-2.03-1.13,2.31-3.15-1.06-4.61-2.64-4.1-.68-1.01-5.96-3.21-8.04,1.07.99-2.65-1.63-2.04-2.03-.95.33-2.74-4.84-5.63-6.63-2.09-1.63-3.32-6.41-2.87-7.25-.95-.39-2.64-2.81-1.69-3.88-1.18.33-3.43-13.83-9.11-17.77-1.85-2.58-3.99-8.38-.63-8.49,2.08-1.23-1.19-2.83-1.41-3.99-.48Z" style="fill: #1b7d48;"/>
        <path d="M14.96,130.35s-.6-4.87,4.23-4.11c-.11-2.25,3.39-5.07,5-4.58-.72-.64.47-1.06,3.4-1.41-4.62.18-6.55-.1-7.71-2.13-.5,1.01-1.74,3-3.63,1.04,4.33,8.26-2.1,5.81-1.3,11.19Z" style="fill: #2c6949;"/>
        <path d="M35.82,182.49c1.03-.36,2.26-.1,2.72.99.34.76,1.31,1.32,3.85.61.73-.2,1.5.07,1.97.65,1.3,1.61,3.39,4.05,4.78,2.62,0,0-.49.21-1.02.52-.89.54-2.05.28-2.61-.6-1.27-2.01-2.95-4.28-4.92-2.05-.51.58-1.35.74-2.09.5-.98-.31-2.1-.08-2.79.4-.64.45-1.53.45-2.14-.04-.46-.37-.96-.5-1.84-.2,1.82-.53,2.56-1.15,2.67-1.74.14-.8.61-1.51,1.41-1.67Z" style="fill: #2c6949;"/>
        <path d="M28.36,135.4s.94-2.11-1.64-2.23c-1.05-2.75-2.87-2.32-2.58-1.16-1-1.65,2.81-2.18,3.22.34,2.17.82,2.46,2.81,1,3.05Z" style="fill: #2c6949;"/>
        <path d="M31.7,131.42s.06.64,1.41.35c-.53.82-1.17,1-1.41-.35Z" style="fill: #2c6949;"/>
        <path d="M90.61,184.6s-1.04,3.01,1.04,4,6.03,1.98,7.49,1.55c.85,1.88,0,5.13,4.57,5.27-2.68.61-5.25-2.4-6.68-4.47-2.74.99-4.05,2-4.05,2,0,0,.93-2.33-1.89-3.46-2.83-1.13-5.09-1.22-5.09-1.22,0,0-.24-2.54-2.4-2.07,3.16-.14,4.05,1.18,7.02-1.6Z" style="fill: #16683d;"/>
        <path d="M55.94,106.2s2.17.74,2.97,2.35c-1.86-.37-3.12-.93-5.03,0,.13-1.18,2.18-.19,2.05-2.35Z" style="fill: #1b7d48;"/>
        <path d="M55.14,112.39s4.77,1.36,4.33,2.85c2.42.12,3.78,1.49,3.41,2.72-.37,1.05-4.15.5-4.71-.99-1.92.81-4.03-1.42-2.11-1.98-1.42.06-4.03-3.47-.93-2.6Z" style="fill: #1b7d48;"/>
        <path d="M65.95,115.59s1.05.99,0,1.67-.5-.06-1.3-.84.84-1.71,1.3-.84Z" style="fill: #2c6949;"/>
        <path d="M40.77,101.3s1.55,3.16,3.41,1.42c1.86-1.73-1.26-2.85-2.83-2.6s-3.68-2.72-4.98-.37c-1.3,2.35,2.97,3.22,4.4,1.55Z" style="fill: #1b7d48;"/>
        <path d="M12.98,110.51s2.35.19,2.48.87-1.11.31-2.48.31c-1.36,1.42-3.41-.27-3.84-.54s.56-1.32,1.61-.39,1.43-1.46,2.23-.25Z" style="fill: #1b7d48;"/>
        <path d="M59.65,135.77s2.35.19,2.48.87-1.11.31-2.48.31c-1.36,1.42-3.41-.27-3.84-.54s.56-1.32,1.61-.39,1.43-1.46,2.23-.25Z" style="fill: #1b7d48;"/>
        <path d="M123.61,195.06c2.42-1.18,5.81.25,5.79,2.48s-3.56,1.8-4.61,1.3c-2.11,1.36-3.84-.77-5.39-1.9-2.23,3.2-4.52,1.36-5.14.02-.68,2.07-4.21-.91-3.72-2.76.5-1.86,3.84-3.53,5.94-1.55,2.79-.81,5.64-1.92,7.12,2.42Z" style="fill: #1b7d48;"/>
        <path d="M66.58,166.24s-2.03-2.86-3.23-2.26c-.68.15-1.99-.38-2.07.11-.86-1.05-1.05-3.57-5.19-4.59s2.93-1.73,5.71,3.16c-.04-.75,1.09-.38,1.2.11.68-.83,5.83,1.09,3.57,3.46Z" style="fill: #1a754f;"/>
        <path d="M107.06,164.79s-2.03-2.86-3.23-2.26c-.68.15-1.99-.38-2.07.11-.86-1.05-1.05-3.57-5.19-4.59s2.93-1.73,5.71,3.16c-.04-.75,1.09-.38,1.2.11.68-.83,5.83,1.09,3.57,3.46Z" style="fill: #1a754f;"/>
        <path d="M24.82,151.06s-2.03-2.86-3.23-2.26c-.68.15-1.99-.38-2.07.11-.86-1.05-1.05-3.57-5.19-4.59s2.93-1.73,5.71,3.16c-.04-.75,1.09-.38,1.2.11.68-.83,5.83,1.09,3.57,3.46Z" style="fill: #1a754f;"/>
        <path d="M149.95,184.88s-.9-1.17-1.69-.9-.23-2.29,2.18-.2,1.5,1.86.79,1.52-1.02-.75-1.28-.41Z" style="fill: #1a754f;"/>
        <path d="M134.35,179.13s-2.63-3.48-4.44-1.78c-.56-1.08-2.33-2.85-4.36-2.36.23-.86,2.26-1.56,3.91-.08.86-.41,1.69.27,1.2.76.98.04,5.19,2.67,3.68,3.46Z" style="fill: #1a754f;"/>
        <path d="M127.35,179.73s1.84.56,1.58.86,1.23-1.35-1.58-.86Z" style="fill: #1b7d48;"/>
        <path d="M50.68,161.8s1.43,2.07,2.37,2.11,2.41,2.97,2.93,2.33-.71-3.5-1.99-3.38-2.97-2.59-3.31-1.05Z" style="fill: #1a754f;"/>
        <path d="M154.13,195.33s.33,1.09,1.91,1.05,2.52,1.28,3.16.49-.08-1.8-1.24-1.73c-.68-1.84-3.87-1.13-3.83.19Z" style="fill: #1a754f;"/>
        <path d="M76.27,158.58s-1.08-1.29-1.91-.92-1.81-.41-1.62-.79,1.67-1.28,1.76-.49c1.03-.3,3.13,1.54,1.97,2.2" style="fill: #1b7d48;"/>
        <path d="M17.92,190.09s-4.86,2.7-2.89,6.76c-1.31-3.2-2.99-4.08-4.53-2.47-.71-2.63-3.05-3.43-5.13-2.31,2.29-3.37-.74-5.34-1.81-5.66.66-1.7,2.21-5.8,1.7-7.31,4.32,3.91,3.75,6.13,5.73,6.46s6.93,4.52,6.93,4.52Z" style="fill: #16683d;"/>
      </g>
      <path d="M170.89,199.57c-.42-2.26-3.85-2.35-4.35-1.95.42-.36-.59-1.4-1.85-1.99.84-1.25-2.76-5.6-3.01-5.94-.25-.33-1.76-3.26-3.1-1.76,0,0-1.92-6.28-3.51-5.77.48-3.58-6.58-5.25-7.93-3.99,1.08-2.22-3.38-6.98-5.64-4.3-.25-2.43-5.35-3.02-7.03-1.34,1.76-1.34-3.18-8.63-7.11-4.61.26-3.14-6.03-3.37-7.71-.5.25-.42.34-.84.29-1.25,0,0,0,0,0,0,0,0,0,0,0,0-.07-.7-.53-1.35-1.19-1.9,0,0,0,0,0,0,0,0,0,0,0,0-1.59-1.32-4.31-2.01-5.38-1.2,1.41-1.52-4.44-7.91-8.87-6.03.72-1.86.49-4.12-.27-6.15-.68-.24-1.43-.73-2.22-1.57-2.09-3.38-4.21-.14-4.47,1.12-.4-4.43-4.23-1.98-4.83-.99.4-5.56-3.24-9.59-4.89-7.21.02-.13.05-.27.07-.4-.41.26-.81.56-.97.97.42-1.01-2.85-3.27-4.44-2.1.3-.51.11-1.28-.37-2.12.7-1.24,1.07-2.49.18-3.38.03-2,.9-2.72-1.82-4.2-.02-2.14.3-2.09-.8-3.64-.08-2.93-3.12-3.8-3.12-3.8.29-2.25-1.74-3.42-2.61-2.61-.05-1.2-1.21-2.46-2.56-3.3-.35-.8-.8-1.38-1.29-1.48.85-.38-1.72-4.9-5.09-4.14-.07-.17-.15-.34-.24-.51,1.16-3.25-6.76-11.46-9.02-10.2.84-1.8-3.56-7.6-6.43-7.82-2.63-3.63-7.1-6.21-10.55-5.86-.07-.17-.16-.34-.28-.52,2.5-3.85-6.07-13.47-8.69-12.03,1.31-2.78-6.21-8.02-13.22-3.72-4.42-7.8-12.09-3.73-16.7,1.26-1.18-.04-2.32.05-3.27.27-2.18-5.99-10.07-6.71-10.56-3.38.59-2.63-4.94-5.01-6.33-.78-6.67-3.1-11.17,5.86-8.48,12.21-1.06.5-1.91,1.29-2.32,2.46-4.86-2.58-4.21,1.46-4.21,1.46l.91,44.78c3.27,1.7,9.44,4.4,13.24,3.04.07.15.19.29.33.44l.09,4.68c-2.13.58-3.41,1.18-3.41,1.18,0,0-.05.85-.12,2.3,0,0-.02,0-.03,0-1.26.42-1.08,2.55-.19,4.43-.46,10.07-1.07,28.09.34,30.21.28.42,1.74.78,4.07,1.08l.61,30.2c9.66-.03,24.15-.49,34.63.13.9.33,2.96,1.22,7.08-.07,1.08.41,3.37,1.28,7.73.05,1.72-.05,3.36-.39,4.81-.76,3.7,1.13,7.31.59,10.34-.15,1.07,0,2.28-.06,3.67-.21,4.75,1.61,10.52.64,13.36-.32.08,0,.15-.01.23-.02,4.6,1.56,10.01,1.09,13.71.25,2.1-.17,4.18-.59,5.02-1.37,0-.01,0-.03,0-.04,1.62.3,5.26,1.05,8.74,1.05,2.94.32,9.43.03,11.22-1.64.1-.09.18-.18.25-.28,15.01-.14,50.33-.03,50.66-.06.02-.11,0-.2.01-.31,5.09.04,9.47.05,10.02-.13.83.08,9.54.08,13.56-.51-.17-1.25-2.26-4.43-4.69-3.26Z" style="fill: url(#linear-gradient-6); opacity: .7;"/>
    </g>
  </g>
  <g id="MainBG-old">
    <path d="M402.9,260.35v140.94H-.41v-140.78c2.28-.26,4.36.9,6.6.07,2.35.61,4.55-.54,6.86.36,2.34-.54,4.68-.21,6.85.74,1.55-.32,3.05-.33,4.59.02.76.03,1.55-.63,2.31-.6.76.03,1.51.91,2.27.94,2.95-1.48,6.04.64,9.18-.37,1.5.69,2.97.87,4.57.35.76.02,1.52.59,2.28.62.76.02,1.55-.92,2.32-.9,1.55.64,2.97.75,4.58.25,4.6.75,9.07.81,13.72.88,3.85-1.2,7.61.02,11.46.23,1.59-.43,3.05-.29,4.58.26.76.02,1.54-.72,2.31-.7,2.9.99,6.08,1.15,9.14,1.04,1.64.29,3.06.03,4.59-.48.76.01,1.52.73,2.28.74.76.02,1.54-.99,2.3-.98,7.54,1.38,15.4-.48,22.87,1.16,3.85-1.82,7.77,1.35,11.44-.7.76.01,1.52.88,2.28.89s1.54-.84,2.3-.82c4.54.71,9.12,1.14,13.7.21,4.34,1.6,9.15-.02,13.72.04,1.52.18,3.05.58,4.57.77,1.5-.49,2.97-.8,4.57-.55,6.87.94,13.65-.55,20.57.62,6.03-.67,12.21-.29,18.26-1.01,1.93.85,2.49,1.03,4.57.3,1.56.41,3.02.37,4.57-.06,1.58-.16,3.08.12,4.58.53.76-.01,1.52-.94,2.28-.95,2.35.99,2.19,1.03,4.57-.04,1.52.1,3.05.08,4.57-.07,1.59.67,2.9.86,4.58.24,1.58.36,3.04.2,4.57-.32,2.84,1.25,6.34,1.38,9.13,0,7.64,1.1,15.23-.14,22.83.4,3.9.16,7.58-1.31,11.4-.22,10.64-1.1,21.28-.41,31.96-.53,1.52-.36,3.03-.45,4.57-.16,2.18-1.18,4.64-1,6.86-.01,1.56-.02,3.08-.48,4.55-.92,2.24.62,4.59.33,6.87.55,3.66-1.96,7.61.58,11.41-.47,3-.86,6.03.13,9.13-.1.76-.02,1.51-.75,2.26-.77.77-.02,1.55.55,2.3.53,2.97-1.05,6.1-.4,9.12-.22,2.34-.29,4.57-1.19,6.83-.28.78-.02,1.53-.78,2.26-.81.79-.02,1.57.48,2.3.46,2.72-.93,5.54-.35,8.23-.29Z" style="fill: url(#linear-gradient-7);"/>
    <g>
      <g>
        <g>
          <path d="M52.62,264.38s1.13-6.14.83-7.55c-1.35,1.29-2.53,6.17-2.4,7.4-.1-3.81-2.57-7-3.23-7.67-.19.88,1.65,7.14,2.01,7.56-.78-1.39-3.13-3.31-3.13-3.31,0,0,1.87,2.97,2.22,3.23s1.81,1.55,3.7.34Z" style="fill: #286636;"/>
          <path d="M106.55,268.14s3.57-10.86,5.29-12.87c1.04,3.26-1.35,12.14-2.64,14.01,3.51-6.03,10.28-8.99,11.93-9.49-.47,1.59-8.91,10.02-9.86,10.38,2.48-1.55,7.93-2.58,7.93-2.58,0,0-5.62,3.14-6.41,3.24s-4.28.9-6.24-2.7Z" style="fill: #286636;"/>
          <path d="M21.98,261.57s3.57-10.86,5.29-12.87c1.04,3.26-1.35,12.14-2.64,14.01,3.51-6.03,10.28-8.99,11.93-9.49-.47,1.59-8.91,10.02-9.86,10.38,2.48-1.55,7.93-2.58,7.93-2.58,0,0-5.62,3.14-6.41,3.24s-4.28.9-6.24-2.7Z" style="fill: #286636;"/>
          <path d="M339.51,263s-3.75-5.01-4.11-6.42c1.79.56,5.02,4.42,5.45,5.59-1.6-3.47-.8-7.43-.51-8.33.56.71,1.69,7.15,1.55,7.68.08-1.6,1.34-4.37,1.34-4.37,0,0-.36,3.5-.56,3.89s-.94,2.2-3.17,1.95Z" style="fill: #286636;"/>
          <path d="M301.43,266.66s-1.83-5.3-1.75-6.6c1.37.96,3.07,5.14,3.13,6.26-.42-3.4,1.34-6.57,1.84-7.26.29.76-.5,6.57-.77,6.99.51-1.34,2.33-3.37,2.33-3.37,0,0-1.26,2.9-1.54,3.18s-1.4,1.63-3.23.81Z" style="fill: #286636;"/>
          <path d="M3.48,265.26s.61-11.14,1.72-13.47c1.81,2.81,1.8,11.78,1.06,13.88,1.78-6.57,7.41-11.08,8.84-11.97-.04,1.61-5.86,11.71-6.67,12.28,1.95-2.09,6.82-4.45,6.82-4.45,0,0-4.5,4.38-5.22,4.68s-3.8,1.93-6.57-.96Z" style="fill: #286636;"/>
        </g>
        <g>
          <path d="M300.88,265.03s.76-6.81.21-8.32c-1.62,1.54-2.59,6.98-2.28,8.31-.58-4.15-4.19-7.39-5.13-8.06-.14.98,2.99,7.63,3.52,8.05-1.19-1.44-4.48-3.32-4.48-3.32,0,0,2.8,3.07,3.29,3.31s2.56,1.52,4.88.02Z" style="fill: #286636;"/>
          <path d="M388.81,263.78s1.18-10.54.32-12.88c-2.51,2.38-4.01,10.8-3.53,12.87-.9-6.42-6.48-11.44-7.94-12.48-.22,1.52,4.63,11.81,5.44,12.47-1.84-2.24-6.94-5.13-6.94-5.13,0,0,4.33,4.75,5.09,5.13s3.96,2.35,7.56.03Z" style="fill: #286636;"/>
        </g>
      </g>
      <path d="M407.98,268.37v59.16c-.5.32-1.01.62-1.53.91-4.93,2.72-10.53,4-16.12,4.68-23.24,2.84-46.57-4.29-69.98-3.95-18.09.26-35.92,4.97-54,4.86-5.96-.04-12.03-.63-17.5-3-5.47-2.37-10.29-6.74-12.08-12.43-.72-2.3-.92-4.82-.2-7.12,1.36-4.37,5.64-7.11,9.79-9.06,18.27-8.54,39.13-8.82,59.28-9.63,3.63-.15,7.32-.32,10.77-1.47,3.96-1.32,7.39-3.83,10.81-6.23,5.93-4.15,12.1-8.07,18.9-10.56,15.53-5.67,32.36-3.4,48.51-4.48,3.02-.2,8.89-1.9,13.35-1.68Z" style="fill: #53b929; opacity: .3;"/>
      <path d="M163.45,281.41c-14.51,12.07-35.09,17.66-55.31,18.5-8.49.35-17.07-.06-25.43,1.26-6,.94-11.75,2.75-17.64,4.07-10.72,2.41-21.85,3.18-32.9,3.95,5.76,1.72,11.53,3.44,17.28,5.17,2.38.71,4.9,1.49,6.53,3.14,1.64,1.64,1.98,4.45.04,5.82-1.25.88-3,.95-4.62.97-11.32.13-22.63.27-33.95.41-6,.07-11.99.15-17.99.18v-50.59h145.25c1.08.83,2.16,1.66,3.3,2.44,4.38,3.01,9.88,5.41,15.43,4.68Z" style="fill: #53b929; opacity: .3;"/>
      <path d="M85.69,332.53c8.38-1.34,16.76-3.18,25.24-2.96,8.85.23,17.47,2.7,26.22,4.1,18.75,3,38.1,1.05,56.68,4.99,15.29,3.24,30.14,10.44,45.71,9.21,6.27-.49,13.95-1.79,17.64,3.3,1.68,2.33,1.91,5.37,2.08,8.24.29,4.99.25,10.78-3.62,13.95-1.58,1.29-3.58,1.93-5.56,2.41-8.84,2.14-18.07,1.66-27.17,1.69-12.17.04-24.39,1.02-36.49-.32-16.89-1.87-32.99-8.19-49.77-10.89-19.47-3.14-39.39-1.36-58.97,1.03-6.71.82-13.52,1.7-20.19.65-19.32-3.05-33.74-20.23-50.98-28.29,4.55-1.72,9.22-4.35,13.97-5.47,6.06-1.43,12.75.23,18.86.6,15.47.94,31.05.19,46.36-2.25Z" style="fill: #53b929; opacity: .2;"/>
      <g style="opacity: .2;">
        <path d="M359.45,318.17c-18.47-3.06-38.69-4.61-55.96.72-5.02,1.55-9.76,3.67-15.2,4.37-4.57.59-9.28.12-13.89-.29-20.12-1.79-41.32-2.41-59.98,2.92-1.24.36-2.54.78-3.25,1.54,14.76,3.07,30.52,2.9,45.93,3.77,18.61,1.05,37.47,3.63,55.79,1.19,6.96-.93,13.72-2.57,20.79-2.95,4.9-.26,9.82.08,14.74-.03,7.11-.16,14.17-1.29,20.61-3.3.97-.3,1.95-.64,2.64-1.17,1.94-1.5.79-4-1.58-5.19-2.37-1.2-5.49-1.45-8.44-1.65" style="fill: #92d37d;"/>
        <path d="M305.64,349.11c-42.63-1.59-85.41-3.17-128-1.06-9.53.47-19.05,1.13-28.49,2.13,3.69,2.84,9.15,4.45,14.68,5.16s11.23.58,16.86.47c11.24-.22,22.52-.38,33.69.5,5.6.44,11.14,1.15,16.73,1.61,17.61,1.45,35.45.45,53.1-.81,8.55-.61,17.2-1.3,25.2-3.39,1.21-.32,2.57-.81,2.7-1.67.21-1.37-2.83-2.14-2.86-3.51" style="fill: #92d37d;"/>
        <path d="M353.83,348.26c-9.04-.98-18.32-1.01-27.37-.09-.6.06-1.34.24-1.35.64,0,.31.47.52.89.67,9.62,3.3,21.26,3.86,31.49,1.52.69-.16,1.44-.37,1.71-.82.35-.58-.35-1.25-1.23-1.47s-1.86-.1-2.78,0" style="fill: #92d37d;"/>
        <path d="M169.51,324.96c-39.23-4.56-79.75.46-119.2-3.17-9.62-.89-19.2-2.29-28.91-2.26-7.32.02-14.63.87-21.54,2.49-.79.19-1.7.48-1.81,1.03-.17.85,1.53,1.21,2.79,1.35,4.45.52,8.28,2.32,12.28,3.73,7.58,2.66,16.06,3.95,24.49,4.94,17.81,2.08,35.94,2.92,54.01,2.5,14.26-.34,28.45-1.46,42.61-2.62,12.59-1.03,25.5-2.16,36.69-6.14" style="fill: #92d37d;"/>
        <path d="M125.22,313.51c-18.48-2.8-37.3-4.61-56.22-5.39,4.96,5.55,15.62,7.55,25.3,7.68s19.46-1.13,28.99,0" style="fill: #92d37d;"/>
        <path d="M103.16,353.18c-24.7-.16-49.31,1.67-73.86,3.49-3.57.26-7.14.53-10.71.79-1.8.13-4.12.65-4.02,1.86.04.5.54.92,1.05,1.28,3.12,2.18,7.56,3.25,11.93,4.02,8.57,1.51,17.43,2.13,26.25,2.64,13.2.76,26.44,1.27,39.69,1.55,15.88.33,31.85.3,47.55-1.34.78-.08,1.6-.18,2.19-.54.86-.52.9-1.4.84-2.17-.18-2.42-.73-4.82-1.63-7.16-.29-.75-.63-1.51-1.32-2.13-.81-.72-2.03-1.2-3.28-1.54-3.14-.85-6.6-.97-9.99-1.01-11.87-.16-23.72.44-35.55,1.03" style="fill: #92d37d;"/>
        <path d="M290.48,368.35c-31.79-3.31-64.36-3.26-96.12.16,5.36,3.12,14.52,1.93,19.47,5.34-3.24,2.04-7.7,3.03-12.13,3.36s-8.9.04-13.35-.15c-6.7-.29-13.42-.36-20.13-.23,4.15,3.02,10.71,3.86,16.81,4.29,12.13.85,24.35.7,36.54.54,14.7-.18,29.39-.37,44.09-.55,1.16-.01,2.59-.15,2.98-.88.53-.99-1.38-1.74-2.91-2-5.13-.89-10.35-1.54-15.62-1.95,4.94-1.1,10.16-1.62,15.36-1.54,9.68.15,19.65,2.34,28.83.28.66-.15,1.39-.37,1.62-.81.17-.33.03-.68-.13-1.01-.94-1.93-2.25-3.78-3.88-5.49" style="fill: #92d37d;"/>
        <path d="M384.12,303.19c-11.77-1.28-23.73-1.83-35.66-1.63-1.87.03-4.33.45-4.36,1.7,11.27,1.71,22.77,2.76,34.32,3.1,1.88.05,3.79.09,5.6-.27,1.8-.35,3.5-1.16,4.16-2.33" style="fill: #92d37d;"/>
        <path d="M320.15,303.58c-3.92-.26-7.84-.52-11.76-.78-1.47-.1-2.96-.19-4.41-.01s-2.88.67-3.64,1.51c-.34.38-.54.85-.31,1.27.25.45.92.72,1.57.93,6.26,2.05,13.62,1.66,20.57,1.22" style="fill: #92d37d;"/>
        <path d="M40.13,305.35c-.03.17-.23.29-.41.4-5.4,3.14-13.14,3.6-20.3,3.62-6.66.02-13.32-.22-19.94-.72v-6.54c10.2-.03,20.39.2,30.51,1.01,3.25.26,6.57.6,9.44,1.65.35.12.74.32.7.58Z" style="fill: #92d37d;"/>
        <path d="M23.54,273.61c18.47-1.43,38.69-2.16,55.96.34,5.02.73,9.76,1.72,15.2,2.05,4.57.28,9.28.06,13.89-.13,20.12-.84,41.32-1.13,59.98,1.37,1.24.17,2.54.36,3.25.72-14.76,1.44-30.52,1.36-45.93,1.76-18.61.49-37.47,1.7-55.79.56-6.96-.43-13.72-1.2-20.79-1.38-4.9-.12-9.82.04-14.74-.01-7.11-.07-14.17-.6-20.61-1.54-.97-.14-1.95-.3-2.64-.55-1.94-.7-.79-1.87,1.58-2.43s5.49-.68,8.44-.77" style="fill: #92d37d;"/>
        <path d="M77.35,288.1c42.63-.74,85.41-1.49,128-.5,9.53.22,19.05.53,28.49,1-3.69,1.33-9.15,2.09-14.68,2.42-5.54.33-11.23.27-16.86.22-11.24-.1-22.52-.18-33.69.24-5.6.21-11.14.54-16.73.75-17.61.68-35.45.21-53.1-.38-8.55-.29-17.2-.61-25.2-1.59-1.21-.15-2.57-.38-2.7-.78-.21-.64,2.83-1,2.86-1.65" style="fill: #92d37d;"/>
        <path d="M29.16,287.7c9.04-.46,18.32-.48,27.37-.04.6.03,1.34.11,1.35.3,0,.15-.47.25-.89.31-9.62,1.54-21.26,1.81-31.49.71-.69-.07-1.44-.17-1.71-.38-.35-.27.35-.59,1.23-.69s1.86-.05,2.78,0" style="fill: #92d37d;"/>
        <path d="M213.48,276.79c39.23-2.14,79.75.22,119.2-1.49,9.62-.41,19.2-1.07,28.91-1.06,7.32.01,14.63.41,21.54,1.17.79.09,1.7.22,1.81.48.17.4-1.53.56-2.79.63-4.45.24-8.28,1.09-12.28,1.74-7.58,1.24-16.06,1.85-24.49,2.31-17.81.98-35.94,1.37-54.01,1.17-14.26-.16-28.45-.68-42.61-1.23-12.59-.48-25.5-1.01-36.69-2.88" style="fill: #92d37d;"/>
        <path d="M257.77,271.42c18.48-1.31,37.3-2.16,56.22-2.53-4.96,2.6-15.62,3.54-25.3,3.6-9.68.06-19.46-.53-28.99,0" style="fill: #92d37d;"/>
        <path d="M279.83,290c24.7-.07,49.31.78,73.86,1.63,3.57.12,7.14.25,10.71.37,1.8.06,4.12.31,4.02.87-.04.23-.54.43-1.05.6-3.12,1.02-7.56,1.52-11.93,1.88-8.57.71-17.42,1-26.25,1.24-13.2.35-26.44.6-39.69.72-15.88.15-31.85.14-47.55-.63-.78-.04-1.6-.08-2.19-.25-.86-.24-.9-.66-.84-1.02.18-1.13.73-2.26,1.63-3.36.29-.35.63-.71,1.32-1,.81-.34,2.03-.56,3.28-.72,3.14-.4,6.6-.45,9.99-.47,11.87-.07,23.72.2,35.55.48" style="fill: #92d37d;"/>
        <path d="M92.51,297.11c31.79-1.55,64.36-1.52,96.12.07-5.36,1.46-14.52.9-19.47,2.5,3.24.96,7.7,1.42,12.13,1.57s8.9.02,13.35-.07c6.7-.13,13.42-.17,20.13-.11-4.15,1.41-10.71,1.81-16.81,2.01-12.13.4-24.35.33-36.54.25-14.7-.09-29.39-.17-44.09-.26-1.16,0-2.59-.07-2.98-.41-.53-.46,1.38-.81,2.91-.94,5.13-.42,10.35-.72,15.62-.91-4.94-.51-10.16-.76-15.36-.72-9.68.07-19.65,1.1-28.83.13-.66-.07-1.39-.17-1.62-.38-.17-.15-.03-.32.13-.47.94-.9,2.25-1.77,3.88-2.57" style="fill: #92d37d;"/>
        <path d="M-1.13,266.59c11.77-.6,23.73-.86,35.66-.76,1.87.01,4.33.21,4.36.8-11.27.8-22.77,1.29-34.32,1.45-1.88.03-3.79.04-5.6-.13s-3.5-.54-4.16-1.09l4.06-.26Z" style="fill: #92d37d;"/>
        <path d="M62.84,266.77c3.92-.12,7.84-.24,11.76-.36,1.47-.05,2.96-.09,4.41,0s2.88.31,3.64.71c.34.18.54.4.31.59-.25.21-.92.34-1.57.44-6.26.96-13.62.78-20.56.57" style="fill: #92d37d;"/>
        <path d="M401.47,265.24c-17.7-.17-35.48-.33-53.07.33-3.25.12-6.57.28-9.44.77-.35.06-.74.15-.69.27.03.08.22.13.41.18,5.4,1.47,13.13,1.69,20.3,1.7,10.66.01,21.33-.28,31.82-.88,2.2-.13,4.45-.27,6.36-.64s3.46-.99,3.46-1.69" style="fill: #92d37d;"/>
      </g>
      <ellipse cx="101.97" cy="270.07" rx="3.39" ry=".72" style="fill: #92d37d; opacity: .5;"/>
      <ellipse cx="52.29" cy="280.7" rx="3.96" ry=".88" style="fill: #92d37d; opacity: .5;"/>
      <ellipse cx="72.46" cy="295.96" rx="4.13" ry=".93" style="fill: #92d37d; opacity: .5;"/>
      <ellipse cx="105.36" cy="306.39" rx="4.13" ry=".93" style="fill: #92d37d; opacity: .5;"/>
      <ellipse cx="60.2" cy="318.31" rx="5.8" ry="1.42" style="fill: #92d37d; opacity: .5;"/>
      <ellipse cx="181.16" cy="367.05" rx="5.8" ry="1.42" style="fill: #92d37d; opacity: .5;"/>
      <ellipse cx="245.51" cy="371.1" rx="8.39" ry="1.61" style="fill: #92d37d; opacity: .5;"/>
      <ellipse cx="88.99" cy="333.56" rx="2.03" ry=".47" style="fill: #92d37d; opacity: .5;"/>
      <ellipse cx="5.99" cy="279.78" rx="5.78" ry="2.39" style="fill: #92d37d; opacity: .5;"/>
      <ellipse cx="319.01" cy="277.39" rx="5.76" ry=".63" style="fill: #92d37d; opacity: .5;"/>
      <ellipse cx="337" cy="285.67" rx="7.9" ry="1.45" style="fill: #92d37d; opacity: .5;"/>
      <ellipse cx="380.1" cy="282.62" rx="4.73" ry=".64" style="fill: #92d37d; opacity: .5;"/>
      <ellipse cx="335.27" cy="322.76" rx="5.73" ry="1.63" style="fill: #92d37d; opacity: .5;"/>
    </g>
    <path d="M401.89,242.58c-3.51.9-6.77,2.75-9.34,5.3-.63.62-1.26,1.32-2.12,1.55-.79.21-1.62,0-2.43.03-2.44.09-4.25,2.26-6.5,3.2-1.61.66-3.41.68-5.08,1.13-4.08,1.11-7.31,4.79-11.53,5.03,2.11,1.23,4.8.57,7.07-.34s4.63-2.05,7.05-1.66c1.66.27,3.33,1.25,4.93.71,1.41-.48,2.18-1.98,3.37-2.88,1.65-1.24,3.88-1.2,5.93-1.32s4.38-.66,5.36-2.47c.36-.67.5-1.45.99-2.04.56-.68,1.48-.94,2.35-1.07s1.77-.14,2.59-.47,1.55-1.08,1.52-1.96c-.04-1.23-1.47-1.93-2.7-2.04-1.03-.09-2.09.03-3.04.44" style="fill: #92d37d; opacity: .1;"/>
    <path d="M381.33,248.55c0-.21-.19-.38-.4-.43s-.42,0-.62.04c-1.89.45-3.64,1.46-4.97,2.87,1.51-.19,3.02-.37,4.53-.56.18-.02.37-.05.51-.16s.2-.35.07-.48c.83-.38,1.67-.76,2.5-1.14" style="fill: #92d37d; opacity: .1;"/>
    <path d="M353.7,257.82c-.46.11-.92.23-1.31.5s-.67.74-.59,1.2c1.19-.32,2.38-.65,3.56-.97.58-.16,3.08-.47,3.35-.98.55-1.07-1.16-.69-1.53-.6-1.16.28-2.32.56-3.48.85Z" style="fill: #92d37d; opacity: .3;"/>
    <path d="M348.2,259.23c-.95.39-1.78,1.05-2.37,1.88.45-.14.93-.14,1.4-.18s.96-.16,1.29-.5.42-.94.07-1.26" style="fill: #92d37d; opacity: .3;"/>
    <g>
      <g>
        <path d="M118.06,313.34s-.68.87-1.17,1.59-2.21,1.11-2.69.5-.04-3.73,3.86-2.09Z" style="fill: #91c9c2;"/>
        <path d="M117.96,313.46s-3.64-1.14-3.93-1.95.03-1.74.8-1.97,3.6,1.17,3.37,3.52c.11.47.09.51-.24.4Z" style="fill: #91c9c2;"/>
        <path d="M118.32,312.87s-.04-2.38,2.03-3.53c1.07-.68,2.71,1.22.87,2.94-.77.74-3.44,1.62-2.91.58Z" style="fill: #91c9c2;"/>
        <path d="M117.96,313.46s3.44,2.83,4.85.84c1.03-1.47-1.66-3.17-4.85-.84Z" style="fill: #91c9c2;"/>
      </g>
      <g>
        <path d="M279.75,330.72s-.35,1.38-.55,2.48-2.01,2.45-2.9,1.98-1.97-4.4,3.45-4.46Z" style="fill: #91c9c2;"/>
        <path d="M279.71,330.92s-4.86.51-5.61-.3-.86-2.08-.08-2.75,4.83-.46,5.77,2.45c.37.5.37.55-.08.6Z" style="fill: #91c9c2;"/>
        <path d="M279.81,330.03s-1.27-2.8.57-5.23c.9-1.36,3.8.06,2.55,3.05-.52,1.27-3.2,3.68-3.11,2.18Z" style="fill: #91c9c2;"/>
        <path d="M279.71,330.92s5.5,1.59,6.13-1.49c.45-2.28-3.59-2.9-6.13,1.49Z" style="fill: #91c9c2;"/>
      </g>
      <g>
        <path d="M146.4,331.32s-.55.65-.95,1.19-1.74.78-2.09.3.09-2.87,3.04-1.48Z" style="fill: #91c9c2;"/>
        <path d="M146.33,331.41s-2.77-1-2.96-1.63.08-1.34.68-1.49,2.74,1.02,2.48,2.82c.07.36.05.39-.2.3Z" style="fill: #91c9c2;"/>
        <path d="M146.62,330.97s.05-1.83,1.68-2.65c.84-.49,2.04,1.03.57,2.3-.61.55-2.7,1.13-2.26.35Z" style="fill: #91c9c2;"/>
        <path d="M146.33,331.41s2.56,2.29,3.71.81c.84-1.1-1.18-2.49-3.71-.81Z" style="fill: #91c9c2;"/>
      </g>
      <g>
        <path d="M118.15,329.48s-.55.65-.95,1.19-1.74.78-2.09.3.09-2.87,3.04-1.48Z" style="fill: #91c9c2;"/>
        <path d="M118.07,329.57s-2.77-1-2.96-1.63.08-1.34.68-1.49,2.74,1.02,2.48,2.82c.07.36.05.39-.2.3Z" style="fill: #91c9c2;"/>
        <path d="M118.36,329.13s.05-1.83,1.68-2.65c.84-.49,2.04,1.03.57,2.3-.61.55-2.7,1.13-2.26.35Z" style="fill: #91c9c2;"/>
        <path d="M118.07,329.57s2.56,2.29,3.71.81c.84-1.1-1.18-2.49-3.71-.81Z" style="fill: #91c9c2;"/>
      </g>
      <g>
        <path d="M296.37,292.03s-.69.49-1.21.92-1.87.33-2.1-.22.79-2.76,3.31-.69Z" style="fill: #91c9c2;"/>
        <path d="M296.27,292.1s-2.44-1.64-2.47-2.3.41-1.28,1.02-1.28,2.41,1.66,1.71,3.34c-.02.37-.04.39-.27.24Z" style="fill: #91c9c2;"/>
        <path d="M296.66,291.75s.5-1.76,2.28-2.16c.94-.27,1.73,1.5,0,2.37-.73.38-2.89.44-2.28-.21Z" style="fill: #91c9c2;"/>
        <path d="M296.27,292.1s1.92,2.85,3.4,1.69c1.09-.86-.53-2.7-3.4-1.69Z" style="fill: #91c9c2;"/>
      </g>
      <g>
        <path d="M289.81,303.03s-.69.49-1.21.92-1.87.33-2.1-.22.79-2.76,3.31-.69Z" style="fill: #91c9c2;"/>
        <path d="M289.72,303.1s-2.44-1.64-2.47-2.3.41-1.28,1.02-1.28,2.41,1.66,1.71,3.34c-.02.37-.04.39-.27.24Z" style="fill: #91c9c2;"/>
        <path d="M290.11,302.74s.5-1.76,2.28-2.16c.94-.27,1.73,1.5,0,2.37-.73.38-2.89.44-2.28-.21Z" style="fill: #91c9c2;"/>
        <path d="M289.72,303.1s1.92,2.85,3.4,1.69c1.09-.86-.53-2.7-3.4-1.69Z" style="fill: #91c9c2;"/>
      </g>
      <g>
        <path d="M308.22,312.99s-.69.49-1.21.92-1.87.33-2.1-.22.79-2.76,3.31-.69Z" style="fill: #91c9c2;"/>
        <path d="M308.13,313.06s-2.44-1.64-2.47-2.3.41-1.28,1.02-1.28,2.41,1.66,1.71,3.34c-.02.37-.04.39-.27.24Z" style="fill: #91c9c2;"/>
        <path d="M308.52,312.7s.5-1.76,2.28-2.16c.94-.27,1.73,1.5,0,2.37-.73.38-2.89.44-2.28-.21Z" style="fill: #91c9c2;"/>
        <path d="M308.13,313.06s1.92,2.85,3.4,1.69c1.09-.86-.53-2.7-3.4-1.69Z" style="fill: #91c9c2;"/>
      </g>
    </g>
    <g>
      <g>
        <path d="M286.15,294.34s.68-.87,1.17-1.59c.49-.72,2.21-1.11,2.69-.5s.04,3.73-3.86,2.09Z" style="fill: #91c9c2;"/>
        <path d="M286.24,294.22s3.64,1.14,3.93,1.95-.03,1.74-.8,1.97-3.6-1.17-3.37-3.52c-.11-.47-.09-.51.24-.4Z" style="fill: #91c9c2;"/>
        <path d="M285.89,294.81s.04,2.38-2.03,3.53c-1.07.68-2.71-1.22-.87-2.94.77-.74,3.44-1.62,2.91-.58Z" style="fill: #91c9c2;"/>
        <path d="M286.24,294.22s-3.44-2.83-4.85-.84c-1.03,1.47,1.66,3.17,4.85.84Z" style="fill: #91c9c2;"/>
      </g>
      <g>
        <path d="M129.37,301.66s.29-1.09.45-1.97,1.62-1.94,2.33-1.57,1.55,3.49-2.78,3.54Z" style="fill: #91c9c2;"/>
        <path d="M129.41,301.5s3.89-.4,4.48.24.67,1.65.05,2.18-3.87.37-4.6-1.94c-.29-.4-.29-.44.07-.47Z" style="fill: #91c9c2;"/>
        <path d="M129.32,302.2s1,2.22-.48,4.14c-.73,1.07-3.04-.05-2.02-2.42.42-1.01,2.58-2.92,2.5-1.73Z" style="fill: #91c9c2;"/>
        <path d="M129.41,301.5s-4.39-1.27-4.91,1.18c-.37,1.8,2.85,2.3,4.91-1.18Z" style="fill: #91c9c2;"/>
      </g>
      <g>
        <path d="M308.74,312.52s.21-.82.34-1.48,1.22-1.46,1.75-1.18,1.17,2.62-2.09,2.66Z" style="fill: #91c9c2;"/>
        <path d="M308.77,312.41s2.93-.3,3.37.18.51,1.24.04,1.64-2.91.27-3.46-1.46c-.22-.3-.22-.33.05-.36Z" style="fill: #91c9c2;"/>
        <path d="M308.7,312.93s.75,1.67-.36,3.12c-.55.81-2.29-.04-1.52-1.82.32-.76,1.94-2.19,1.88-1.3Z" style="fill: #91c9c2;"/>
        <path d="M308.77,312.41s-3.3-.95-3.69.89c-.28,1.36,2.14,1.73,3.69-.89Z" style="fill: #91c9c2;"/>
      </g>
      <g>
        <path d="M267.36,298.84s.55-.65.95-1.19,1.74-.78,2.09-.3-.09,2.87-3.04,1.48Z" style="fill: #91c9c2;"/>
        <path d="M267.43,298.75s2.77,1,2.96,1.63-.08,1.34-.68,1.49-2.74-1.02-2.48-2.82c-.07-.36-.05-.39.2-.3Z" style="fill: #91c9c2;"/>
        <path d="M267.14,299.19s-.05,1.83-1.68,2.65c-.84.49-2.04-1.03-.57-2.3.61-.55,2.7-1.13,2.26-.35Z" style="fill: #91c9c2;"/>
        <path d="M267.43,298.75s-2.56-2.29-3.71-.81c-.84,1.1,1.18,2.49,3.71.81Z" style="fill: #91c9c2;"/>
      </g>
      <g>
        <path d="M284.77,277.5s.36-.42.62-.78,1.14-.51,1.37-.19-.06,1.88-1.99.97Z" style="fill: #91c9c2;"/>
        <path d="M284.82,277.44s1.81.65,1.94,1.07-.05.88-.45.98-1.79-.67-1.63-1.85c-.04-.24-.04-.26.13-.2Z" style="fill: #91c9c2;"/>
        <path d="M284.63,277.73s-.03,1.2-1.1,1.74c-.55.32-1.34-.68-.38-1.51.4-.36,1.77-.74,1.48-.23Z" style="fill: #91c9c2;"/>
        <path d="M284.82,277.44s-1.68-1.5-2.43-.53c-.55.72.77,1.63,2.43.53Z" style="fill: #91c9c2;"/>
      </g>
      <g>
        <path d="M107.84,315.64s.69-.49,1.21-.92,1.87-.33,2.1.22-.79,2.76-3.31.69Z" style="fill: #91c9c2;"/>
        <path d="M107.94,315.58s2.44,1.64,2.47,2.3-.41,1.28-1.02,1.28-2.41-1.66-1.71-3.34c.02-.37.04-.39.27-.24Z" style="fill: #91c9c2;"/>
        <path d="M107.55,315.93s-.5,1.76-2.28,2.16c-.94.27-1.73-1.5,0-2.37.73-.38,2.89-.44,2.28.21Z" style="fill: #91c9c2;"/>
        <path d="M107.94,315.58s-1.92-2.85-3.4-1.69c-1.09.86.53,2.7,3.4,1.69Z" style="fill: #91c9c2;"/>
      </g>
      <g>
        <path d="M86.48,281.07s.69-.49,1.21-.92,1.87-.33,2.1.22-.79,2.76-3.31.69Z" style="fill: #91c9c2;"/>
        <path d="M86.58,281s2.44,1.64,2.47,2.3-.41,1.28-1.02,1.28-2.41-1.66-1.71-3.34c.02-.37.04-.39.27-.24Z" style="fill: #91c9c2;"/>
        <path d="M86.19,281.36s-.5,1.76-2.28,2.16c-.94.27-1.73-1.5,0-2.37.73-.38,2.89-.44,2.28.21Z" style="fill: #91c9c2;"/>
        <path d="M86.58,281s-1.92-2.85-3.4-1.69c-1.09.86.53,2.7,3.4,1.69Z" style="fill: #91c9c2;"/>
      </g>
    </g>
    <g>
      <path d="M75,288.27c-.57-.25-1.21.15-1.68.56-1.65,1.43-3.02,3.23-3.7,5.3-.47,1.46-.63,3.16-.2,4.65.53,1.85,1.52-.2,1.99-1.06,1.64-2.96,2.85-6.16,3.58-9.46Z" style="fill: #1e6936;"/>
      <path d="M69.71,285.95c-.9.16-1.67.77-2.2,1.51s-.85,1.62-1.12,2.49c-.22.69-.77,2.35-.16,2.98.51.53,1.3.1,1.69-.35,1.35-1.57,1.74-4.65,1.8-6.63Z" style="fill: #1e6936;"/>
      <path d="M61.13,292.36c-.85-.55-1.91-.82-2.89-.57.22-.06,2.33,3.37,2.59,3.73.47.67,1.56,2.98,2.5,2.77,2.57-.58-1.27-5.34-2.2-5.94Z" style="fill: #1e6936;"/>
      <path d="M57.16,283.38c-.3-.16-.75-.27-.92.02-.1.18-.03.41.06.59.52,1.08,2.6,4.72,4.38,3.56,1.38-.91-2.72-3.74-3.52-4.17Z" style="fill: #1e6936;"/>
      <path d="M38.45,296.44c1.52-4.19,4.01-8.03,7.21-11.14-.9-.59-2.14-.46-3.07.08s-1.62,1.42-2.19,2.33c-.95,1.5-1.69,3.17-1.92,4.93s.11,3.63,1.14,5.08c.05-.18.1-.36.15-.55" style="fill: #1e6936;"/>
      <path d="M40.76,278.49c.11-.14.23-.29.28-.47.11-.41-.21-.84-.61-.99s-.84-.07-1.25.06c-2.22.71-3.74,2.96-3.95,5.29-.13,1.4.18,2.81.76,4.09.12.27.71,1.69,1.05,1.65.46-.06.42-1.26.45-1.57.35-2.92,1.47-5.73,3.26-8.06Z" style="fill: #1e6936;"/>
      <path d="M34.8,290.09c0-.95-.65-1.76-1.25-2.49-1.52-1.82-3.15-3.72-5.39-4.49-1.31-.45-2.71-.47-4.09-.49-.24,0-.49,0-.7.1s-.37.36-.29.58c.04.12.14.21.24.29,2.88,2.46,6.82,3.37,9.8,5.7" style="fill: #1e6936;"/>
      <path d="M34.19,294.26c-1.65-1.59-4.03-2.1-6.28-2.56-.58-.12-1.15-.23-1.74-.29-.3-.03-.7.04-.74.34-.01.12.04.24.11.34.33.48.91.71,1.45.9,1.29.44,2.62.75,3.96.92,1.19.15,2.43.21,3.52.73.02-.59.1-1.18.24-1.75" style="fill: #1e6936;"/>
      <path d="M46.74,262.93c.19-.24.39-.56.24-.82-.1-.18-.33-.27-.53-.24s-.39.13-.57.23c-.99.6-1.87,1.4-2.58,2.32-.39.51-1.78,3.73-.28,3.24.55-.18,1.47-1.87,1.86-2.36.62-.79,1.24-1.58,1.86-2.37Z" style="fill: #1e6936;"/>
      <path d="M23.06,273.55c-.55,0-.17-1.16-.19-1.7,0-.12,0-.25,0-.37.01-.84.14-1.68.38-2.49.54-1.89,1.6-3.62,2.99-5,.56-.56,1.19-1.07,1.92-1.38s1.58-.38,2.31-.06c-.51,1.1-1.57,1.82-2.44,2.68,0,0-2.4,2.64-3.77,5.88s-.66,2.45-1.19,2.45Z" style="fill: #1e6936;"/>
      <path d="M27.96,269.29c1.36-.67,2.8-1.26,4.32-1.37s3.13.31,4.18,1.4c-2.18.42-4.23,1.34-6.26,2.25-1.04.47-4.79,2.9-5.66,1.87-1.34-1.57,2.43-3.66,3.43-4.15Z" style="fill: #1e6936;"/>
      <path d="M21.18,274.63c.48-.05.94-.31,1.22-.7.39-.54.44-1.27.3-1.93-.41-1.91-2.17-3.22-3.96-4.01-1.25-.55-2.62-.95-3.97-.71s-2.62,1.24-2.82,2.59c1.47-1.07,3.53-1,5.19-.27s3.91,3.83,4.24,4.43" style="fill: #1e6936;"/>
    </g>
    <g>
      <path d="M369.62,275.02c-.48-.21-1.02.13-1.42.47-1.39,1.21-2.55,2.72-3.12,4.47-.4,1.23-.53,2.67-.17,3.93.45,1.56,1.28-.17,1.68-.89,1.38-2.49,2.4-5.2,3.02-7.98Z" style="fill: #1e6936;"/>
      <path d="M365.15,273.07c-.76.13-1.41.65-1.86,1.27s-.72,1.36-.95,2.1c-.18.59-.65,1.98-.14,2.52.43.45,1.1.09,1.43-.3,1.14-1.32,1.47-3.93,1.52-5.59Z" style="fill: #1e6936;"/>
      <path d="M357.92,278.48c-.71-.46-1.61-.69-2.44-.48.19-.05,1.97,2.85,2.18,3.15.4.56,1.31,2.52,2.11,2.34,2.16-.49-1.08-4.5-1.85-5.01Z" style="fill: #1e6936;"/>
      <path d="M354.56,270.9c-.25-.14-.64-.23-.78.02-.09.15-.02.34.05.5.44.91,2.19,3.99,3.69,3,1.17-.77-2.29-3.16-2.97-3.52Z" style="fill: #1e6936;"/>
      <path d="M335.94,291.24c1.52-4.19,4.01-8.03,7.21-11.14-.9-.59-2.14-.46-3.07.08s-1.62,1.42-2.19,2.33c-.95,1.5-1.69,3.17-1.92,4.93s.11,3.63,1.14,5.08c.05-.18.1-.36.15-.55" style="fill: #1e6936;"/>
      <path d="M338.25,273.29c.11-.14.23-.29.28-.47.11-.41-.21-.84-.61-.99s-.84-.07-1.25.06c-2.22.71-3.74,2.96-3.95,5.29-.13,1.4.18,2.81.76,4.09.12.27.71,1.69,1.05,1.65.46-.06.42-1.26.45-1.57.35-2.92,1.47-5.73,3.26-8.06Z" style="fill: #1e6936;"/>
      <path d="M332.29,284.89c0-.95-.65-1.76-1.25-2.49-1.52-1.82-3.15-3.72-5.39-4.49-1.31-.45-2.71-.47-4.09-.49-.24,0-.49,0-.7.1s-.37.36-.29.58c.04.12.14.21.24.29,2.88,2.46,6.82,3.37,9.8,5.7" style="fill: #1e6936;"/>
      <path d="M331.68,289.06c-1.65-1.59-4.03-2.1-6.28-2.56-.58-.12-1.15-.23-1.74-.29-.3-.03-.7.04-.74.34-.01.12.04.24.11.34.33.48.91.71,1.45.9,1.29.44,2.62.75,3.96.92,1.19.15,2.43.21,3.52.73.02-.59.1-1.18.24-1.75" style="fill: #1e6936;"/>
      <path d="M344.23,257.73c.19-.24.39-.56.24-.82-.1-.18-.33-.27-.53-.24s-.39.13-.57.23c-.99.6-1.87,1.4-2.58,2.32-.39.51-1.78,3.73-.28,3.24.55-.18,1.47-1.87,1.86-2.36.62-.79,1.24-1.58,1.86-2.37Z" style="fill: #1e6936;"/>
    </g>
    <g>
      <path d="M323.31,318.15c.15-.19.31-.44.19-.65-.08-.15-.26-.21-.42-.19s-.31.1-.45.19c-.79.48-1.49,1.11-2.04,1.84-.31.4-1.41,2.95-.22,2.57.44-.14,1.17-1.48,1.47-1.87.49-.63.99-1.25,1.48-1.88Z" style="fill: #1e6936;"/>
      <path d="M348.69,303.35c-.43,0-.14-.92-.15-1.35,0-.1,0-.2,0-.3,0-.67.11-1.33.3-1.98.43-1.5,1.27-2.87,2.37-3.97.45-.44.94-.85,1.52-1.09s1.26-.3,1.83-.05c-.4.88-1.25,1.45-1.93,2.12,0,0-1.9,2.1-2.99,4.66-1.09,2.57-.53,1.94-.94,1.94Z" style="fill: #1e6936;"/>
      <path d="M352.57,299.96c1.08-.53,2.22-1,3.42-1.09s2.48.25,3.32,1.11c-1.73.33-3.36,1.06-4.96,1.78-.82.37-3.79,2.3-4.49,1.48-1.07-1.25,1.92-2.9,2.72-3.29Z" style="fill: #1e6936;"/>
      <path d="M347.2,304.2c.38-.04.74-.25.97-.56.31-.43.35-1.01.24-1.53-.33-1.51-1.72-2.55-3.14-3.18-.99-.44-2.08-.75-3.15-.56s-2.08.98-2.24,2.05c1.16-.85,2.8-.8,4.12-.22s3.1,3.03,3.36,3.52" style="fill: #1e6936;"/>
    </g>
    <g style="opacity: .4;">
      <g>
        <path d="M118.06,315.34s-.68.87-1.17,1.59-2.21,1.11-2.69.5-.04-3.73,3.86-2.09Z" style="fill: #24523c;"/>
        <path d="M117.96,315.46s-3.64-1.14-3.93-1.95.03-1.74.8-1.97,3.6,1.17,3.37,3.52c.11.47.09.51-.24.4Z" style="fill: #24523c;"/>
        <path d="M118.32,314.87s-.04-2.38,2.03-3.53c1.07-.68,2.71,1.22.87,2.94-.77.74-3.44,1.62-2.91.58Z" style="fill: #24523c;"/>
        <path d="M117.96,315.46s3.44,2.83,4.85.84c1.03-1.47-1.66-3.17-4.85-.84Z" style="fill: #24523c;"/>
      </g>
      <g>
        <path d="M279.77,332.64s-.29,1.09-.45,1.97-1.62,1.94-2.33,1.57-1.55-3.49,2.78-3.54Z" style="fill: #24523c;"/>
        <path d="M279.72,333.44s-4.86.51-5.61-.3-.86-2.08-.08-2.75,4.83-.46,5.77,2.45c.37.5.37.55-.08.6Z" style="fill: #24523c;"/>
        <path d="M279.83,332.56s-1.27-2.8.57-5.23c.9-1.36,3.8.06,2.55,3.05-.52,1.27-3.2,3.68-3.11,2.18Z" style="fill: #24523c;"/>
        <path d="M279.72,333.44s5.5,1.59,6.13-1.49c.45-2.28-3.59-2.9-6.13,1.49Z" style="fill: #24523c;"/>
      </g>
      <g>
        <path d="M146.4,333.32s-.55.65-.95,1.19-1.74.78-2.09.3.09-2.87,3.04-1.48Z" style="fill: #24523c;"/>
        <path d="M146.33,333.41s-2.77-1-2.96-1.63.08-1.34.68-1.49,2.74,1.02,2.48,2.82c.07.36.05.39-.2.3Z" style="fill: #24523c;"/>
        <path d="M146.62,332.97s.05-1.83,1.68-2.65c.84-.49,2.04,1.03.57,2.3-.61.55-2.7,1.13-2.26.35Z" style="fill: #24523c;"/>
        <path d="M146.33,333.41s2.56,2.29,3.71.81c.84-1.1-1.18-2.49-3.71-.81Z" style="fill: #24523c;"/>
      </g>
      <g>
        <path d="M118.15,331.48s-.55.65-.95,1.19-1.74.78-2.09.3.09-2.87,3.04-1.48Z" style="fill: #24523c;"/>
        <path d="M118.07,331.57s-2.77-1-2.96-1.63.08-1.34.68-1.49,2.74,1.02,2.48,2.82c.07.36.05.39-.2.3Z" style="fill: #24523c;"/>
        <path d="M118.36,331.13s.05-1.83,1.68-2.65c.84-.49,2.04,1.03.57,2.3-.61.55-2.7,1.13-2.26.35Z" style="fill: #24523c;"/>
        <path d="M118.07,331.57s2.56,2.29,3.71.81c.84-1.1-1.18-2.49-3.71-.81Z" style="fill: #24523c;"/>
      </g>
      <g>
        <path d="M296.37,294.03s-.69.49-1.21.92-1.87.33-2.1-.22.79-2.76,3.31-.69Z" style="fill: #24523c;"/>
        <path d="M296.27,294.1s-2.44-1.64-2.47-2.3.41-1.28,1.02-1.28,2.41,1.66,1.71,3.34c-.02.37-.04.39-.27.24Z" style="fill: #24523c;"/>
        <path d="M296.66,293.75s.5-1.76,2.28-2.16c.94-.27,1.73,1.5,0,2.37-.73.38-2.89.44-2.28-.21Z" style="fill: #24523c;"/>
        <path d="M296.27,294.1s1.92,2.85,3.4,1.69c1.09-.86-.53-2.7-3.4-1.69Z" style="fill: #24523c;"/>
      </g>
      <g>
        <path d="M289.81,305.03s-.69.49-1.21.92-1.87.33-2.1-.22.79-2.76,3.31-.69Z" style="fill: #24523c;"/>
        <path d="M289.72,305.1s-2.44-1.64-2.47-2.3.41-1.28,1.02-1.28,2.41,1.66,1.71,3.34c-.02.37-.04.39-.27.24Z" style="fill: #24523c;"/>
        <path d="M290.11,304.74s.5-1.76,2.28-2.16c.94-.27,1.73,1.5,0,2.37-.73.38-2.89.44-2.28-.21Z" style="fill: #24523c;"/>
        <path d="M289.72,305.1s1.92,2.85,3.4,1.69c1.09-.86-.53-2.7-3.4-1.69Z" style="fill: #24523c;"/>
      </g>
      <g>
        <path d="M185.95,345.36s-1.36.97-2.38,1.8-3.69.66-4.13-.44,1.55-5.43,6.51-1.37Z" style="fill: #24523c;"/>
        <path d="M185.76,345.49s-4.8-3.23-4.86-4.53c-.06-1.29.8-2.51,2.01-2.52s4.73,3.26,3.37,6.58c-.05.72-.09.78-.52.47Z" style="fill: #24523c;"/>
        <path d="M186.53,344.79s.98-3.47,4.49-4.24c1.84-.53,3.4,2.95,0,4.66-1.43.75-5.69.86-4.48-.42Z" style="fill: #24523c;"/>
        <path d="M185.76,345.49s3.77,5.6,6.69,3.33c2.13-1.69-1.04-5.32-6.69-3.33Z" style="fill: #24523c;"/>
      </g>
    </g>
    <g style="opacity: .4;">
      <g>
        <path d="M286.15,296.34s.68-.87,1.17-1.59c.49-.72,2.21-1.11,2.69-.5s.04,3.73-3.86,2.09Z" style="fill: #24523c;"/>
        <path d="M286.24,296.22s3.64,1.14,3.93,1.95-.03,1.74-.8,1.97-3.6-1.17-3.37-3.52c-.11-.47-.09-.51.24-.4Z" style="fill: #24523c;"/>
        <path d="M285.89,296.81s.04,2.38-2.03,3.53c-1.07.68-2.71-1.22-.87-2.94.77-.74,3.44-1.62,2.91-.58Z" style="fill: #24523c;"/>
        <path d="M286.24,296.22s-3.44-2.83-4.85-.84c-1.03,1.47,1.66,3.17,4.85.84Z" style="fill: #24523c;"/>
      </g>
      <g>
        <path d="M129.37,303.66s.29-1.09.45-1.97,1.62-1.94,2.33-1.57,1.55,3.49-2.78,3.54Z" style="fill: #24523c;"/>
        <path d="M129.41,303.5s3.89-.4,4.48.24.67,1.65.05,2.18-3.87.37-4.6-1.94c-.29-.4-.29-.44.07-.47Z" style="fill: #24523c;"/>
        <path d="M129.32,304.2s1,2.22-.48,4.14c-.73,1.07-3.04-.05-2.02-2.42.42-1.01,2.58-2.92,2.5-1.73Z" style="fill: #24523c;"/>
        <path d="M129.41,303.5s-4.39-1.27-4.91,1.18c-.37,1.8,2.85,2.3,4.91-1.18Z" style="fill: #24523c;"/>
      </g>
      <g>
        <path d="M208.21,343.58s.42-1.62.67-2.91c.25-1.3,2.4-2.87,3.45-2.32s2.3,5.16-4.12,5.23Z" style="fill: #24523c;"/>
        <path d="M208.26,343.36s5.75-.6,6.63.35,1,2.44.07,3.22-5.72.54-6.81-2.88c-.43-.59-.43-.65.1-.7Z" style="fill: #24523c;"/>
        <path d="M208.13,344.39s1.48,3.29-.72,6.13c-1.07,1.59-4.5-.08-2.98-3.57.62-1.49,3.81-4.31,3.7-2.56Z" style="fill: #24523c;"/>
        <path d="M208.26,343.36s-6.49-1.87-7.26,1.74c-.55,2.67,4.22,3.41,7.26-1.74Z" style="fill: #24523c;"/>
      </g>
      <g>
        <path d="M267.36,300.84s.55-.65.95-1.19,1.74-.78,2.09-.3-.09,2.87-3.04,1.48Z" style="fill: #24523c;"/>
        <path d="M267.43,300.75s2.77,1,2.96,1.63-.08,1.34-.68,1.49-2.74-1.02-2.48-2.82c-.07-.36-.05-.39.2-.3Z" style="fill: #24523c;"/>
        <path d="M267.14,301.19s-.05,1.83-1.68,2.65c-.84.49-2.04-1.03-.57-2.3.61-.55,2.7-1.13,2.26-.35Z" style="fill: #24523c;"/>
        <path d="M267.43,300.75s-2.56-2.29-3.71-.81c-.84,1.1,1.18,2.49,3.71.81Z" style="fill: #24523c;"/>
      </g>
      <g>
        <path d="M284.77,278.81s.36-.42.62-.78,1.14-.51,1.37-.19-.06,1.88-1.99.97Z" style="fill: #24523c;"/>
        <path d="M284.82,278.75s1.81.65,1.94,1.07-.05.88-.45.98-1.79-.67-1.63-1.85c-.04-.24-.04-.26.13-.2Z" style="fill: #24523c;"/>
        <path d="M284.63,279.04s-.03,1.2-1.1,1.74c-.55.32-1.34-.68-.38-1.51.4-.36,1.77-.74,1.48-.23Z" style="fill: #24523c;"/>
        <path d="M284.82,278.75s-1.68-1.5-2.43-.53c-.55.72.77,1.63,2.43.53Z" style="fill: #24523c;"/>
      </g>
      <g>
        <path d="M107.84,317.64s.69-.49,1.21-.92,1.87-.33,2.1.22-.79,2.76-3.31.69Z" style="fill: #24523c;"/>
        <path d="M107.94,317.58s2.44,1.64,2.47,2.3-.41,1.28-1.02,1.28-2.41-1.66-1.71-3.34c.02-.37.04-.39.27-.24Z" style="fill: #24523c;"/>
        <path d="M107.55,317.93s-.5,1.76-2.28,2.16c-.94.27-1.73-1.5,0-2.37.73-.38,2.89-.44,2.28.21Z" style="fill: #24523c;"/>
        <path d="M107.94,317.58s-1.92-2.85-3.4-1.69c-1.09.86.53,2.7,3.4,1.69Z" style="fill: #24523c;"/>
      </g>
      <g>
        <path d="M86.48,283.07s.69-.49,1.21-.92,1.87-.33,2.1.22-.79,2.76-3.31.69Z" style="fill: #24523c;"/>
        <path d="M86.58,283s2.44,1.64,2.47,2.3-.41,1.28-1.02,1.28-2.41-1.66-1.71-3.34c.02-.37.04-.39.27-.24Z" style="fill: #24523c;"/>
        <path d="M86.19,283.36s-.5,1.76-2.28,2.16c-.94.27-1.73-1.5,0-2.37.73-.38,2.89-.44,2.28.21Z" style="fill: #24523c;"/>
        <path d="M86.58,283s-1.92-2.85-3.4-1.69c-1.09.86.53,2.7,3.4,1.69Z" style="fill: #24523c;"/>
      </g>
      <g>
        <path d="M100.26,291.79s.69-.49,1.21-.92,1.87-.33,2.1.22-.79,2.76-3.31.69Z" style="fill: #24523c;"/>
        <path d="M100.36,291.72s2.44,1.64,2.47,2.3-.41,1.28-1.02,1.28-2.41-1.66-1.71-3.34c.02-.37.04-.39.27-.24Z" style="fill: #24523c;"/>
        <path d="M99.97,292.08s-.5,1.76-2.28,2.16c-.94.27-1.73-1.5,0-2.37.73-.38,2.89-.44,2.28.21Z" style="fill: #24523c;"/>
        <path d="M100.36,291.72s-1.92-2.85-3.4-1.69c-1.09.86.53,2.7,3.4,1.69Z" style="fill: #24523c;"/>
      </g>
    </g>
    <g>
      <g>
        <path d="M118.06,313.34s-.68.87-1.17,1.59-2.21,1.11-2.69.5-.04-3.73,3.86-2.09Z" style="fill: #9bc9d1;"/>
        <path d="M117.96,313.46s-3.64-1.14-3.93-1.95.03-1.74.8-1.97,3.6,1.17,3.37,3.52c.11.47.09.51-.24.4Z" style="fill: #9bc9d1;"/>
        <path d="M118.32,312.87s-.04-2.38,2.03-3.53c1.07-.68,2.71,1.22.87,2.94-.77.74-3.44,1.62-2.91.58Z" style="fill: #9bc9d1;"/>
        <path d="M117.96,313.46s3.44,2.83,4.85.84c1.03-1.47-1.66-3.17-4.85-.84Z" style="fill: #9bc9d1;"/>
      </g>
      <g>
        <path d="M279.75,330.72s-.35,1.38-.55,2.48-2.01,2.45-2.9,1.98-1.97-4.4,3.45-4.46Z" style="fill: #9bc9d1;"/>
        <path d="M279.71,330.92s-4.86.51-5.61-.3-.86-2.08-.08-2.75,4.83-.46,5.77,2.45c.37.5.37.55-.08.6Z" style="fill: #9bc9d1;"/>
        <path d="M279.81,330.03s-1.27-2.8.57-5.23c.9-1.36,3.8.06,2.55,3.05-.52,1.27-3.2,3.68-3.11,2.18Z" style="fill: #9bc9d1;"/>
        <path d="M279.71,330.92s5.5,1.59,6.13-1.49c.45-2.28-3.59-2.9-6.13,1.49Z" style="fill: #9bc9d1;"/>
      </g>
      <g>
        <path d="M146.4,331.32s-.55.65-.95,1.19-1.74.78-2.09.3.09-2.87,3.04-1.48Z" style="fill: #a7ced1;"/>
        <path d="M146.33,331.41s-2.77-1-2.96-1.63.08-1.34.68-1.49,2.74,1.02,2.48,2.82c.07.36.05.39-.2.3Z" style="fill: #a7ced1;"/>
        <path d="M146.62,330.97s.05-1.83,1.68-2.65c.84-.49,2.04,1.03.57,2.3-.61.55-2.7,1.13-2.26.35Z" style="fill: #a7ced1;"/>
        <path d="M146.33,331.41s2.56,2.29,3.71.81c.84-1.1-1.18-2.49-3.71-.81Z" style="fill: #a7ced1;"/>
      </g>
      <g>
        <path d="M118.15,329.48s-.55.65-.95,1.19-1.74.78-2.09.3.09-2.87,3.04-1.48Z" style="fill: #9bc9d1;"/>
        <path d="M118.07,329.57s-2.77-1-2.96-1.63.08-1.34.68-1.49,2.74,1.02,2.48,2.82c.07.36.05.39-.2.3Z" style="fill: #9bc9d1;"/>
        <path d="M118.36,329.13s.05-1.83,1.68-2.65c.84-.49,2.04,1.03.57,2.3-.61.55-2.7,1.13-2.26.35Z" style="fill: #9bc9d1;"/>
        <path d="M118.07,329.57s2.56,2.29,3.71.81c.84-1.1-1.18-2.49-3.71-.81Z" style="fill: #9bc9d1;"/>
      </g>
      <g>
        <path d="M296.37,292.03s-.69.49-1.21.92-1.87.33-2.1-.22.79-2.76,3.31-.69Z" style="fill: #9bc9d1;"/>
        <path d="M296.27,292.1s-2.44-1.64-2.47-2.3.41-1.28,1.02-1.28,2.41,1.66,1.71,3.34c-.02.37-.04.39-.27.24Z" style="fill: #9bc9d1;"/>
        <path d="M296.66,291.75s.5-1.76,2.28-2.16c.94-.27,1.73,1.5,0,2.37-.73.38-2.89.44-2.28-.21Z" style="fill: #9bc9d1;"/>
        <path d="M296.27,292.1s1.92,2.85,3.4,1.69c1.09-.86-.53-2.7-3.4-1.69Z" style="fill: #9bc9d1;"/>
      </g>
      <g>
        <path d="M289.81,303.03s-.69.49-1.21.92-1.87.33-2.1-.22.79-2.76,3.31-.69Z" style="fill: #9bc9d1;"/>
        <path d="M289.72,303.1s-2.44-1.64-2.47-2.3.41-1.28,1.02-1.28,2.41,1.66,1.71,3.34c-.02.37-.04.39-.27.24Z" style="fill: #9bc9d1;"/>
        <path d="M290.11,302.74s.5-1.76,2.28-2.16c.94-.27,1.73,1.5,0,2.37-.73.38-2.89.44-2.28-.21Z" style="fill: #9bc9d1;"/>
        <path d="M289.72,303.1s1.92,2.85,3.4,1.69c1.09-.86-.53-2.7-3.4-1.69Z" style="fill: #9bc9d1;"/>
      </g>
      <g>
        <path d="M186.29,343.51s-1.36.97-2.38,1.8-3.69.66-4.13-.44,1.55-5.43,6.51-1.37Z" style="fill: #9bc9d1;"/>
        <path d="M186.1,343.65s-4.8-3.23-4.86-4.53.8-2.51,2.01-2.52,4.73,3.26,3.37,6.58c-.05.72-.09.78-.52.47Z" style="fill: #9bc9d1;"/>
        <path d="M186.87,342.94s.98-3.47,4.49-4.24c1.84-.53,3.4,2.95,0,4.66-1.43.75-5.69.86-4.48-.42Z" style="fill: #9bc9d1;"/>
        <path d="M186.1,343.65s3.77,5.6,6.69,3.33c2.13-1.69-1.04-5.32-6.69-3.33Z" style="fill: #9bc9d1;"/>
      </g>
    </g>
    <g>
      <g>
        <path d="M286.15,294.34s.68-.87,1.17-1.59c.49-.72,2.21-1.11,2.69-.5s.04,3.73-3.86,2.09Z" style="fill: #85c9c0;"/>
        <path d="M286.24,294.22s3.64,1.14,3.93,1.95-.03,1.74-.8,1.97-3.6-1.17-3.37-3.52c-.11-.47-.09-.51.24-.4Z" style="fill: #85c9c0;"/>
        <path d="M285.89,294.81s.04,2.38-2.03,3.53c-1.07.68-2.71-1.22-.87-2.94.77-.74,3.44-1.62,2.91-.58Z" style="fill: #85c9c0;"/>
        <path d="M286.24,294.22s-3.44-2.83-4.85-.84c-1.03,1.47,1.66,3.17,4.85.84Z" style="fill: #85c9c0;"/>
      </g>
      <g>
        <path d="M129.37,301.66s.29-1.09.45-1.97,1.62-1.94,2.33-1.57,1.55,3.49-2.78,3.54Z" style="fill: #85c9c0;"/>
        <path d="M129.41,301.5s3.89-.4,4.48.24.67,1.65.05,2.18-3.87.37-4.6-1.94c-.29-.4-.29-.44.07-.47Z" style="fill: #85c9c0;"/>
        <path d="M129.32,302.2s1,2.22-.48,4.14c-.73,1.07-3.04-.05-2.02-2.42.42-1.01,2.58-2.92,2.5-1.73Z" style="fill: #85c9c0;"/>
        <path d="M129.41,301.5s-4.39-1.27-4.91,1.18c-.37,1.8,2.85,2.3,4.91-1.18Z" style="fill: #85c9c0;"/>
      </g>
      <g>
        <path d="M207.26,342.11s.42-1.62.67-2.91c.25-1.3,2.4-2.87,3.45-2.32s2.3,5.16-4.12,5.23Z" style="fill: #85c9c0;"/>
        <path d="M207.32,341.88s5.75-.6,6.63.35c.88.95,1,2.44.07,3.22s-5.72.54-6.81-2.88c-.43-.59-.43-.65.1-.7Z" style="fill: #85c9c0;"/>
        <path d="M207.18,342.91s1.48,3.29-.72,6.13c-1.07,1.59-4.5-.08-2.98-3.57.62-1.49,3.81-4.31,3.7-2.56Z" style="fill: #85c9c0;"/>
        <path d="M207.32,341.88s-6.49-1.87-7.26,1.74c-.55,2.67,4.22,3.41,7.26-1.74Z" style="fill: #85c9c0;"/>
      </g>
      <g>
        <path d="M267.36,298.84s.55-.65.95-1.19,1.74-.78,2.09-.3-.09,2.87-3.04,1.48Z" style="fill: #a7ced1;"/>
        <path d="M267.43,298.75s2.77,1,2.96,1.63-.08,1.34-.68,1.49-2.74-1.02-2.48-2.82c-.07-.36-.05-.39.2-.3Z" style="fill: #a7ced1;"/>
        <path d="M267.14,299.19s-.05,1.83-1.68,2.65c-.84.49-2.04-1.03-.57-2.3.61-.55,2.7-1.13,2.26-.35Z" style="fill: #a7ced1;"/>
        <path d="M267.43,298.75s-2.56-2.29-3.71-.81c-.84,1.1,1.18,2.49,3.71.81Z" style="fill: #a7ced1;"/>
      </g>
      <g>
        <path d="M284.77,277.5s.36-.42.62-.78,1.14-.51,1.37-.19-.06,1.88-1.99.97Z" style="fill: #85c9c0;"/>
        <path d="M284.82,277.44s1.81.65,1.94,1.07-.05.88-.45.98-1.79-.67-1.63-1.85c-.04-.24-.04-.26.13-.2Z" style="fill: #85c9c0;"/>
        <path d="M284.63,277.73s-.03,1.2-1.1,1.74c-.55.32-1.34-.68-.38-1.51.4-.36,1.77-.74,1.48-.23Z" style="fill: #85c9c0;"/>
        <path d="M284.82,277.44s-1.68-1.5-2.43-.53c-.55.72.77,1.63,2.43.53Z" style="fill: #85c9c0;"/>
      </g>
      <g>
        <path d="M107.84,315.64s.69-.49,1.21-.92,1.87-.33,2.1.22-.79,2.76-3.31.69Z" style="fill: #85c9c0;"/>
        <path d="M107.94,315.58s2.44,1.64,2.47,2.3-.41,1.28-1.02,1.28-2.41-1.66-1.71-3.34c.02-.37.04-.39.27-.24Z" style="fill: #85c9c0;"/>
        <path d="M107.55,315.93s-.5,1.76-2.28,2.16c-.94.27-1.73-1.5,0-2.37.73-.38,2.89-.44,2.28.21Z" style="fill: #85c9c0;"/>
        <path d="M107.94,315.58s-1.92-2.85-3.4-1.69c-1.09.86.53,2.7,3.4,1.69Z" style="fill: #85c9c0;"/>
      </g>
      <g>
        <path d="M86.48,281.07s.69-.49,1.21-.92,1.87-.33,2.1.22-.79,2.76-3.31.69Z" style="fill: #a7ced1;"/>
        <path d="M86.58,281s2.44,1.64,2.47,2.3-.41,1.28-1.02,1.28-2.41-1.66-1.71-3.34c.02-.37.04-.39.27-.24Z" style="fill: #a7ced1;"/>
        <path d="M86.19,281.36s-.5,1.76-2.28,2.16c-.94.27-1.73-1.5,0-2.37.73-.38,2.89-.44,2.28.21Z" style="fill: #a7ced1;"/>
        <path d="M86.58,281s-1.92-2.85-3.4-1.69c-1.09.86.53,2.7,3.4,1.69Z" style="fill: #a7ced1;"/>
      </g>
      <g>
        <path d="M100.76,290.55s.69-.49,1.21-.92,1.87-.33,2.1.22-.79,2.76-3.31.69Z" style="fill: #85c9c0;"/>
        <path d="M100.86,290.48s2.44,1.64,2.47,2.3-.41,1.28-1.02,1.28-2.41-1.66-1.71-3.34c.02-.37.04-.39.27-.24Z" style="fill: #85c9c0;"/>
        <path d="M100.46,290.84s-.5,1.76-2.28,2.16c-.94.27-1.73-1.5,0-2.37.73-.38,2.89-.44,2.28.21Z" style="fill: #85c9c0;"/>
        <path d="M100.86,290.48s-1.92-2.85-3.4-1.69c-1.09.86.53,2.7,3.4,1.69Z" style="fill: #85c9c0;"/>
      </g>
      <g style="opacity: .4;">
        <path d="M121.9,284.66s.51-.36.88-.67,1.37-.24,1.53.16-.58,2.01-2.41.51Z" style="fill: #24523c;"/>
        <path d="M121.97,284.61s1.78,1.2,1.8,1.68-.3.93-.75.93-1.75-1.21-1.25-2.44c.02-.27.03-.29.19-.17Z" style="fill: #24523c;"/>
        <path d="M121.69,284.87s-.36,1.29-1.66,1.57c-.68.2-1.26-1.09,0-1.73.53-.28,2.11-.32,1.66.15Z" style="fill: #24523c;"/>
        <path d="M121.97,284.61s-1.4-2.08-2.48-1.23c-.79.63.39,1.97,2.48,1.23Z" style="fill: #24523c;"/>
      </g>
      <g>
        <path d="M122.27,283.76s.51-.36.88-.67,1.37-.24,1.53.16-.58,2.01-2.41.51Z" style="fill: #85c9c0;"/>
        <path d="M122.34,283.71s1.78,1.2,1.8,1.68-.3.93-.75.93-1.75-1.21-1.25-2.44c.02-.27.03-.29.19-.17Z" style="fill: #85c9c0;"/>
        <path d="M122.05,283.97s-.36,1.29-1.66,1.57c-.68.2-1.26-1.09,0-1.73.53-.28,2.11-.32,1.66.15Z" style="fill: #85c9c0;"/>
        <path d="M122.34,283.71s-1.4-2.08-2.48-1.23c-.79.63.39,1.97,2.48,1.23Z" style="fill: #85c9c0;"/>
      </g>
    </g>
  </g>
  <g id="Rock">
    <g>
      <g style="opacity: .4;">
        <path d="M145.34,309.33c11.79-1.49,88.39-1.14,106.9.01,0,0,11.23,1.09,14.48,3.99.16.13.29.27.4.42.86,1.07.77,2.52.03,4.03h0c-1.51,3.04-5.66,6.36-10.17,7.51-.08.02-.16.04-.24.06-6.92,1.7-18.55,2.89-28.26,3.05-10.24.16-38.55-.3-49.88-.04-7.57.17-26.89-1.52-35.7-5.22-1.3-.54-2.36-1.12-3.13-1.72-5.77-3.87-6.22-10.6,5.57-12.09Z" style="fill: #1e4743;"/>
      </g>
      <path d="M268.11,274.67c-2.35,16.72-23.99,40.09-35,42.26-32.12,6.34-40.63,4.78-63.46,1.44,0,0-32.25-16.79-36.1-42.79,0,0,4.05-20.97,9.58-24.9,1.23-.88,3.77-2.51,6.98-4.34,6.9-3.92,16.93-8.78,23.91-9.23,10.78-.7,40.6,1.26,52.54.16,7.98-.73,31.2,9.71,34.2,17.21.1.26.25.57.43.92,1.54,3.01,5.54,8.99,6.27,11.28.89,2.41,1.06,5.12.65,7.99Z" style="fill: url(#radial-gradient); stroke: #4a525a; stroke-miterlimit: 10; stroke-width: 1.9px;"/>
      <path d="M153.21,252.67l4.77,3.13,7.09.15,7.23,2.56-12.11,1.45-3.38,13.35-1.63-15.3-6.02-.12,1.71-10.52s.63,3.96,2.35,5.3Z" style="fill: #fff; opacity: .3;"/>
      <g>
        <path d="M268.11,274.67c-2.35,16.71-24.03,39.11-35.03,41.28-32.12,6.34-40.6,5.76-63.43,2.42,0,0-32.25-16.8-36.1-42.79,21.22,30.81,27.98,32.03,27.98,32.03l8.21,6.13,3.7-.11c23.5,7.94,53.35-.11,53.35-.11l.23-2.2s5.33.46,6.48,1.04c20.14-7.75,33.8-37.61,33.8-37.61,0,0,.34-.05.81-.07Z" style="fill: #666f62; opacity: .3;"/>
        <path d="M246.28,298.94c-.21-.89-1.37-1.12-1.9-.38-.68.94-1.41,1.97-1.63,2.38,0,0,0,.02-.01.03-.51.99.81,1.94,1.66,1.22l1.71-1.43c.31-.26.44-.67.35-1.06l-.18-.75Z" style="fill: #4a525a; opacity: .6;"/>
      </g>
    </g>
    <path d="M159.98,295.04l-4.05-10.84.7-10.22-.11-3.37-1.35-12.61-6.02-.12,1.71-10.52-.47-.52c-3.21,1.83-5.53,3.31-6.76,4.19-5.2,3.7-8.59,22.89-9.04,25.1l24.09,18.67,1.29.23Z" style="fill: #fff; opacity: .1;"/>
    <polygon points="206.18 303.02 223.79 299.37 206.18 303.03 206.18 303.02" style="fill: #fff; opacity: .1;"/>
    <path d="M257.76,274.67l-1.76,8.51-7.17,10.99-25.04,5.2-12.34-4.33-9.77-31.6c.71-.02,1.34-.07,1.87-.14,6.94-.95,37.91-7.68,37.91-7.68l12.45,5.14.32-.52,3.53,14.43Z" style="fill: #fff; opacity: .1;"/>
    <path d="M248.62,281.19c.11-.8-.72-1.4-1.46-1.09-1.79.73-5.18,2.16-6.02,2.91-.72.63-3.01,3.07-4.65,4.83-.65.7-.12,1.84.83,1.79l6.64-.32c.33-.02.63-.18.82-.45.9-1.3,3.52-5.26,3.84-7.66Z" style="fill: #4a525a; opacity: .3;"/>
    <path d="M229.69,292.55c2.24.32,5.13.53,7.27-.29-.17-1.25-1.58-1.89-2.72-1.82-.77.05-1.64.38-2.33.69-.4.18-1.92,1.47-2.21,1.43Z" style="fill: #4a525a; opacity: .4;"/>
    <path d="M223.79,299.37l-17.61,3.65h0s-.8.17-.8.17l-45.4-8.15-4.05-10.84.7-10.21,3.55-14.03,12.11-1.45s20.76,5.26,29.39,4.93l9.77,31.6,12.34,4.33Z" style="fill: #fff; opacity: .2;"/>
    <path d="M256.01,283.18l-7.17,10.99,19.18-26.04c-.14-.67-.32-1.32-.55-1.95-.73-2.29-4.73-8.27-6.27-11.28l-6.96,5.34,3.53,14.44-1.76,8.5Z" style="fill: #4a525a; opacity: .3;"/>
    <path d="M268.11,274.67c-2.28,16.21-22.69,38.68-33.97,42-.35.11-.7.19-1.03.26-11.99,2.37-20.69,3.63-28.08,4.12-12.39.81-21.08-.59-35.38-2.68,0,0-.44-.23-1.19-.66l-8.48-22.67,45.4,8.15.8-.16,42.65-8.86,19.18-26.04c.39,1.89.4,4.42.1,6.54Z" style="fill: #4a525a; opacity: .4;"/>
    <path d="M158.69,294.81l-25.1-19.44c-.03.14-.04.22-.04.22,3.41,23.03,29.09,38.83,34.91,42.13l-8.48-22.68-1.29-.23Z" style="fill: #4a525a; opacity: .6;"/>
    <polygon points="211.17 295.29 205.38 303.19 223.79 299.37 211.17 295.29" style="fill: #fff; opacity: .2;"/>
    <path d="M143.27,274.64c1.33,1.23,2.03,2.96,2.97,4.51.9,1.49,2.05,2.83,3.35,3.98.28.25.59.5.96.6s.82,0,1.02-.32c.12-.18.14-.41.14-.62.08-2.26-.98-4.56-.37-6.74-.58-.36-1.24-.58-1.92-.65-.27-.03-.57-.04-.75-.23-.16-.17-.19-.41-.23-.64-.14-.91-.54-1.77-1.14-2.47-.12-.15-.27-.29-.45-.34-.23-.06-.47.03-.67.15-1.14.72-1.23,2.33-1.18,3.68.36-.15.71-.29,1.07-.44" style="fill: #4a525a; opacity: .2;"/>
    <path d="M151.13,285.89c.62,1.05,1.53,1.93,2.59,2.53-.08-.63-.37-1.24-.82-1.69-.27-.27-.62-.49-1-.48s-.76.35-.7.73" style="fill: none;"/>
    <path d="M242.53,255.54c-.11-.04-.22-.09-.33-.08-.36.24-.27.85.07,1.12s.8.31,1.24.31c.64,0,1.32-.02,1.93-.22-.59-.63-2.08-.78-2.9-1.13Z" style="fill: none;"/>
    <path d="M264.27,258.68c-.1-.18-.39-.14-.51.03s-.1.39-.06.59c.11.62.37,1.21.63,1.79.12.27.35.6.64.51.1-.03.17-.11.23-.19.22-.33.17-.78-.02-1.12s-.49-.61-.78-.87" style="fill: none;"/>
  </g>
</svg>