<?xml version="1.0" encoding="UTF-8"?>
<svg id="Foreground-left" xmlns="http://www.w3.org/2000/svg" viewBox="0 0 400 400">
  <g>
    <path d="M39.53,371.55s10.26-25.47,25.67-44.06c7.17-8.65,15.86-17.42,25.94-24.53,2.77-2.06-.48-1.48-5.06,2.6s-38.25,34.62-52.44,65.2" style="fill: #222f33;"/>
    <path d="M73.7,317.35s14.32-10.17,25.28-6.61c-3.08,5.77-25.61,11.57-25.28,6.61Z" style="fill: #222f33;"/>
    <path d="M65.68,326.5s4.93-5.22,17.59-5.63c12.66-.41,13.27,3.84,12.54,4.16s-3.44-.1-8.62,1.65c-5.18,1.75-23.39,5.58-21.51-.18Z" style="fill: #222f33;"/>
    <path d="M42.93,358.18s4.93-5.22,17.59-5.63c12.66-.41,13.27,3.84,12.54,4.16s-3.44-.1-8.62,1.65c-5.18,1.75-23.39,5.58-21.51-.18Z" style="fill: #222f33;"/>
    <path d="M58.72,335.76s9.69.65,17.43.04,13.81,1.43,14.67.06c.86-1.37-12.69-9.27-28.75-3.56-2.96,1.19-3.35,3.46-3.35,3.46Z" style="fill: #222f33;"/>
    <path d="M46.62,352.66s9.71,0,17.39-1.12c7.68-1.13,13.88.51,14.65-.91s-13.28-8.4-28.92-1.63c-2.88,1.38-3.11,3.67-3.11,3.67Z" style="fill: #222f33;"/>
    <path d="M52.1,344.62s6.62-6.09,18.6-7.45c11.97-1.36,11.01,3.3,11.01,3.3,0,0-2.01-.23-10.4,2.91s-18.83,3.88-19.21,1.25Z" style="fill: #222f33;"/>
    <path d="M73.53,316.96s5.76-12.62.18-16.99c-4.4,4.38-4.47,19.49-.18,16.99Z" style="fill: #222f33;"/>
    <path d="M66.43,325.56s3.5-5.15,1.03-12.31c-2.47-7.16-6.35-5.52-6.48-4.96s.86,1.85.47,5.52c-.39,3.67.31,15.48,4.97,11.75Z" style="fill: #222f33;"/>
    <path d="M42.85,358.04s3.5-5.15,1.03-12.31-6.35-5.52-6.48-4.96.86,1.85.47,5.52c-.39,3.67.31,15.48,4.97,11.75Z" style="fill: #222f33;"/>
    <path d="M57.85,334.68s-2.74-5.03-3.93-9.57c-1.19-4.54-4.35-6.93-3.34-8.05,1.01-1.11,11.01,2.67,9.56,14.17-.38,2.19-2.3,3.45-2.3,3.45Z" style="fill: #222f33;"/>
    <path d="M45.98,350.85s-2.17-5.34-2.9-10.09c-.72-4.75-3.55-7.4-2.47-8.49,1.08-1.09,10.38,3.4,7.91,15.16-.57,2.23-2.54,3.42-2.54,3.42Z" style="fill: #222f33;"/>
    <path d="M52.1,343.38s3.89-6.48,2.41-13.71c-1.47-7.23-5.37-4.52-5.37-4.52,0,0,.65,1-.24,7.08-.89,6.08.78,12.17,3.2,11.15Z" style="fill: #222f33;"/>
  </g>
  <g>
    <path d="M97.25,382.64s14.94-17.44,33.41-25.87c2.33-1.18-15.02-4.34-31.97,17.51" style="fill: #222f33;"/>
    <path d="M99.35,377s12.05-20.43,13.28-29.8c.06-1.81-17.7,20.35-16.74,31.95,0,0,1.68.35,3.46-2.15Z" style="fill: #222f33;"/>
    <path d="M97.58,374.13s5.37-21.66-6.51-33.04c-2.95-1.9,2.05,3.44,1.32,12.37-.73,8.93,1.79,32.34,5.18,20.67Z" style="fill: #222f33;"/>
  </g>
  <path d="M116.7,376.41c.05-.24,5.21-13.21,10.08-15.45-1.23,2.27-8.26,13.99-8.55,16.36,1.11.2,5.16-9.99,5.68-9.93.7.76-.29,9.49-1.52,10.25,2.28-2.87,11.42-11.01,12.71-17.69,1.52,1.87-1.46,13.24-11.01,19.68s-8.49,1.76-7.38-3.22Z" style="fill: #222f33;"/>
  <path d="M128.24,382.64s2.23-7.11,4.04-8.86c.35,1.11.4,5.84-1.41,8.86,2.82-7.93,8.97-13.08,13.71-15.07-.76,2.17-9.62,10.31-9.11,16.99" style="fill: #222f33;"/>
  <path d="M146.14,392.34s-4.87-8.75-4.79-15.38c1.84.26,4.11,6.86,4.37,8.73-2.6-8.8-1.26-14.39-.79-15.27,1.64,4.28,5.18,16.18,3.79,20.36-1.03-17.19,1.27-27.88,1.9-28.5,2.78,4.84,3.55,17.29,1.14,28.59,4.21-15.92,11.18-24.65,13.15-27.29,1.54,7.44-4.52,23.1-10.26,28.65,5.4-6.53,14.89-12.97,18.31-13.93-2.58,4.23-10.69,12.73-15.06,15.03-4.37,2.3-9.28,4.2-11.26,1.05" style="fill: #222f33;"/>
  <path d="M176.74,389.77s-4.52-11.66,1.17-23.84c1.93,5.27-.47,23.84-.47,23.84,2.69-7.26,9.43-28.32,12.36-30.27.64,7.13-2.81,23.3-7.85,30.04,3.28-6.39,8.55-17.46,8.55-17.46,0,0-2.25,14.52-4.75,18.45,2.87-3.34,11.6-20.56,10.9-31.52,3.34,2.87,4.57,22.91-8.49,31.52" style="fill: #222f33;"/>
  <g>
    <g>
      <path d="M99.3,384.19c1.03-5.76,2.57-11.43,4.61-16.92-3.75,3.98-6.84,8.57-9.13,13.53.22-7.37,2.2-14.68,5.72-21.15-3.11,4.97-6.88,9.53-11.17,13.53.82-3.22,1.64-6.45,2.47-9.67-2.42,2.21-4.84,4.43-7.26,6.64.34-6.22,2.64-12.31,6.5-17.2-6.43,3.53-10.93,10.37-11.62,17.68.64-3.85.68-7.8.14-11.66-.59,2.97-1.9,5.79-3.79,8.15-.11-2.42-.22-4.85-.34-7.27-1.02,1.25-2.04,2.5-3.06,3.75,2.31-5.85,6.59-10.9,11.98-14.14-6.46,1.47-12.18,5.88-15.24,11.75,1.48-4.89,3.62-9.58,6.33-13.91-6.28,1.49-11.76,6.03-14.39,11.92.83-4.46,2.75-8.71,5.54-12.29-4.2,1.22-7.99,3.79-10.69,7.23l2.82-8.51c-1.89,3.64-3.78,7.29-5.68,10.93l.91-7.7c-1.82,1.69-3.32,3.73-4.38,5.98.5-2.24,1-4.48,1.49-6.73-2.67.9-5.34,1.8-8,2.7,1.08-1.78,2.16-3.56,3.24-5.34-3.43,1.19-6.42,3.62-8.3,6.73.75-2.23.93-4.65.53-6.97-1.71.86-3.41,1.72-5.12,2.58,1.17-2.97,1.25-6.34.24-9.37.67-3.82,1.34-7.64,2.01-11.46-2.89,4.97-5.79,9.94-8.68,14.92l5.62-18.69c-3.93,4.55-6.8,10.02-8.31,15.84.39-6.81,2.6-13.51,6.33-19.22-5.31,4.42-8.48,11.3-8.39,18.21.32-4.49.64-8.97.97-13.46-2.94,3.1-5.88,6.2-8.83,9.3,2.1-3.81,3.64-7.92,4.57-12.16-3.97,2.66-7.42,6.09-10.09,10.05.9-2.61,1.79-5.22,2.69-7.83-1.37,1.26-2.73,2.51-4.1,3.77.58-1.23,1.17-2.45,1.75-3.68-4.06,2.01-8.18,4.07-11.47,7.19-3.29,3.11-5.68,7.5-5.33,12.02.44,5.52,4.7,9.89,8.9,13.51,27.51,23.75,62.28,37.16,96.69,48.88,2.21.75,4.6,1.51,6.85.87,6.53-1.85,5.69-10.92,4.09-15.88-2.06-6.35-2.2-11.52-1.94-18.24-1.42,1.94-2.66,4.05-3.97,6.08-.96,1.48-3.39,4-3.7,5.72Z" style="fill: #222f33;"/>
      <path d="M26.29,364.33c-1.99.4-4-.45-5.86-1.26-9.33-4.09-18.68-8.34-27.81-12.96l9.55-31.68c2.95-2.65,6.69-4.43,10.62-4.99-4.91,2.41-8.98,6.46-11.4,11.35.97-1,1.94-2,2.92-3.01-.07,2.12-.16,4.22-.24,6.32,1.81-1.91,3.15-4.25,3.88-6.77.16,2.93-.08,5.89-.7,8.77,1.46-5.73,5.64-10.72,11.06-13.13-3.7,3.94-6.14,9.04-6.89,14.41,2.25-1.74,4.51-3.48,6.76-5.23-.94,2.73-1.9,5.46-2.84,8.19,4.01-3.15,7.6-6.81,10.67-10.89-3.53,5.36-5.78,11.53-6.52,17.89,2.34-4.12,5.37-7.86,8.9-11.03-2.15,4.58-3.9,9.35-5.22,14.25.44-1.47,2.68-3.43,3.61-4.63,1.29-1.65,2.51-3.39,3.89-4.96-.72,5.8-.99,10.28.32,15.93,1.03,4.41,1.08,12.32-4.71,13.44Z" style="fill: #222f33;"/>
      <path d="M207.44,389.54c-2.58-4.21-4.61-8.7-6.15-13.34-.5,4.57-.32,9.19.7,13.64-3.99-4.9-6.33-10.79-7.16-16.88.35,4.88-.02,9.83-1.25,14.67-1.07-2.58-2.1-5.16-3.12-7.76-.69,2.68-1.43,5.36-2.22,8.04-2.89-4.44-3.99-9.76-3.49-14.94-2.99,5.41-3.43,12.24-.36,17.67-1.4-2.98-3.27-5.77-5.48-8.28.91,2.37,1.22,4.94.81,7.45-1.25-1.67-2.47-3.35-3.66-5.05-.25,1.33-.5,2.66-.76,3.99-.79-5.19.4-10.61,2.95-15.26-4.11,3.84-6.76,9.35-6.7,14.88-.94-4.17-1.22-8.46-.94-12.71-4.16,3.61-6.83,8.99-6.63,14.38-1.15-3.64-1.23-7.53-.41-11.24-2.85,2.47-4.99,5.72-5.95,9.27-.3-2.48-.59-4.96-.85-7.44-.21,3.42-.43,6.84-.65,10.26-.73-2.06-1.43-4.12-2.11-6.19-.91,1.89-1.45,3.94-1.54,6.02-.4-1.89-.78-3.77-1.16-5.66-1.93,1.53-3.92,3.04-5.95,4.51.34-1.71.67-3.41,1-5.12-2.52,1.94-4.37,4.65-5.02,7.62-.07-1.97-.7-3.93-1.76-5.66-1.23,1.13-2.47,2.24-3.74,3.34.14-2.66-.79-5.37-2.49-7.57-.46-3.22-.88-6.45-1.25-9.67-1.2,4.65-2.43,9.29-3.71,13.92.02-5.44.12-10.88.29-16.31-2.25,4.49-3.53,9.48-3.43,14.52-1.35-5.64-.83-11.5,1.08-16.86-3.47,4.62-4.9,10.77-3.17,16.42-.79-3.73-1.49-7.46-2.11-11.19-1.9,3.04-3.87,6.05-5.9,9.04,1.12-3.45,1.67-7.07,1.71-10.71-2.93,2.78-5.41,6.05-7.13,9.65.35-2.28.7-4.56,1.07-6.83-1,1.2-2.02,2.4-3.05,3.59.32-1.08.65-2.17.98-3.25-3.29,2.12-6.75,4.17-9.38,7-2.62,2.83-4.32,6.64-3.21,10.48,1.35,4.7,6.52,8.19,11.6,10.78,33.62,17.41,76.43,14.99,111.83.74,2.3-.9,4.73-1.95,6.1-3.75,3.9-5.24-2.84-9.84-7.06-11.85-5.49-2.56-8.64-5.71-12.28-10.09.08,2.01.39,4.03.59,6.04.15,1.47-.24,4.41.53,5.67Z" style="fill: #222f33;"/>
    </g>
    <polygon points="-4.57 345.47 -4.57 401.29 213.19 401.29 208.5 397.72 125.73 388.34 -4.57 345.47" style="fill: #222f33;"/>
  </g>
  <g>
    <g>
      <path d="M42.15,244.42s-9.3,20.07-22.79,121.37c-6.95.26-3.86-.67-3.86-.67,0,0,14.4-98.15,22.51-120.27" style="fill: #222f33;"/>
      <path d="M57.25,195.39l3.8-12.7s.45-6.91-6.73,13.56" style="fill: #222f33;"/>
      <path d="M56.72,195.29s-6.48-2.84-11.19,8.08c-4.71,10.92-13.52,41.18-6.42,42.54s12.02-14.29,15.24-26.45c3.22-12.16,8.53-21.63,2.37-24.17Z" style="fill: #222f33;"/>
      <path d="M16.65,355.34s33.35-39.05,45.5-78.22c-7.99,2.4-41.09,54.4-47.87,76.46,0,0,7.13-55.54-12.63-76.93-.84,15.74,7.74,75.58,10.17,80.49,2.56,1.14,2.96.46,4.82-1.8Z" style="fill: #222f33;"/>
    </g>
    <path d="M13.31,237.29s5.59,21.4.89,123.49c6.79,1.48,3.92.02,3.92.02,0,0,3.25-99.15-.82-122.36" style="fill: #222f33;"/>
    <path d="M7.14,186.36l-1.48-13.17s.78-6.88,4.22,14.54" style="fill: #222f33;"/>
    <path d="M7.69,186.36s6.88-1.64,9.58,9.94c2.7,11.58,6,42.92-1.23,43-7.23.08-9.3-16.2-10.3-28.74-1.01-12.54-4.56-22.8,1.96-24.2Z" style="fill: #222f33;"/>
  </g>
  <path d="M75.41,364.98s.92-7.67,3.38-12.09c-3.42-5.5-1.4-10.71.91-10.89,2.3,2.43,1.27,9.91.39,10.74,5.68-4.03,9.31-1.05,9.96.29-2.65,1.66-8.75,2.68-10.59,1.75-2.12,1.52-2.91,8.35-2.51,11.05" style="fill: #222f33;"/>
</svg>