<?xml version="1.0" encoding="UTF-8"?>
<svg id="Foreground-left" xmlns="http://www.w3.org/2000/svg" viewBox="0 0 400 400">
  <g>
    <path d="M29.3,381.05s8.99-22.31,22.49-38.6c6.28-7.58,13.9-15.26,22.73-21.49,2.43-1.8-.42-1.29-4.43,2.28-4.01,3.58-33.51,30.33-45.94,57.13" style="fill: #222f33;"/>
    <path d="M59.24,333.56s12.55-8.91,22.14-5.79c-2.7,5.06-22.44,10.13-22.14,5.79Z" style="fill: #222f33;"/>
    <path d="M52.21,341.58s4.32-4.58,15.41-4.94c11.09-.36,11.63,3.36,10.99,3.65s-3.01-.09-7.56,1.45c-4.54,1.53-20.5,4.89-18.85-.16Z" style="fill: #222f33;"/>
    <path d="M32.28,369.33s4.32-4.58,15.41-4.94c11.09-.36,11.63,3.36,10.99,3.65s-3.01-.09-7.56,1.45c-4.54,1.53-20.5,4.89-18.85-.16Z" style="fill: #222f33;"/>
    <path d="M46.11,349.69s8.49.57,15.27.03c6.78-.54,12.1,1.25,12.86.06.76-1.2-11.12-8.12-25.19-3.11-2.6,1.04-2.93,3.03-2.93,3.03Z" style="fill: #222f33;"/>
    <path d="M35.51,364.5s8.5,0,15.24-.98c6.73-.99,12.16.44,12.83-.8s-11.64-7.36-25.34-1.43c-2.52,1.21-2.72,3.22-2.72,3.22Z" style="fill: #222f33;"/>
    <path d="M40.31,357.46s5.8-5.33,16.29-6.53c10.49-1.19,9.65,2.89,9.65,2.89,0,0-1.76-.2-9.11,2.55s-16.49,3.4-16.83,1.09Z" style="fill: #222f33;"/>
    <path d="M59.08,333.23s5.05-11.06.16-14.89c-3.85,3.84-3.92,17.07-.16,14.89Z" style="fill: #222f33;"/>
    <path d="M52.87,340.76s3.07-4.51.91-10.78-5.56-4.83-5.67-4.35.75,1.62.41,4.83c-.34,3.21.27,13.56,4.36,10.3Z" style="fill: #222f33;"/>
    <path d="M32.21,369.22s3.07-4.51.91-10.78-5.56-4.83-5.67-4.35.75,1.62.41,4.83c-.34,3.21.27,13.56,4.36,10.3Z" style="fill: #222f33;"/>
    <path d="M45.35,348.75s-2.4-4.41-3.44-8.39c-1.04-3.98-3.81-6.08-2.92-7.05.89-.97,9.64,2.34,8.38,12.41-.34,1.91-2.01,3.03-2.01,3.03Z" style="fill: #222f33;"/>
    <path d="M34.95,362.92s-1.9-4.68-2.54-8.84c-.63-4.16-3.11-6.48-2.16-7.43.95-.95,9.09,2.98,6.93,13.28-.5,1.95-2.23,3-2.23,3Z" style="fill: #222f33;"/>
    <path d="M40.31,356.37s3.41-5.68,2.11-12.01c-1.29-6.33-4.71-3.96-4.71-3.96,0,0,.57.87-.21,6.2-.78,5.32.69,10.66,2.8,9.77Z" style="fill: #222f33;"/>
  </g>
  <g>
    <path d="M94.67,389.24s17.81-14.92,37.63-20.25c2.52-.79-14.26-6.83-34.81,12.15" style="fill: #222f33;"/>
    <path d="M97.7,383.96s15.42-18.38,18.21-27.53c.36-1.8-21.04,17.36-22.02,29.09,0,0,1.62.63,3.81-1.57Z" style="fill: #222f33;"/>
    <path d="M96.41,380.8s8.96-20.72-.99-34.05c-2.62-2.39,1.47,3.77-.74,12.56-2.21,8.79-3.59,32.57,1.73,21.48Z" style="fill: #222f33;"/>
  </g>
  <path d="M116.7,384.91c.05-.24,5.21-13.21,10.08-15.45-1.23,2.27-8.26,13.99-8.55,16.36,1.11.2,5.16-9.99,5.68-9.93.7.76-.29,9.49-1.52,10.25,2.28-2.87,11.42-11.01,12.71-17.69,1.52,1.87-1.46,13.24-11.01,19.68s-8.49,1.76-7.38-3.22Z" style="fill: #222f33;"/>
  <path d="M128.24,391.14s2.23-7.11,4.04-8.86c.35,1.11.4,5.84-1.41,8.86,2.82-7.93,8.97-13.08,13.71-15.07-.76,2.17-9.62,10.31-9.11,16.99" style="fill: #222f33;"/>
  <path d="M142.72,404.2s-4.87-8.75-4.79-15.38c1.84.26,4.11,6.86,4.37,8.73-2.6-8.8-1.26-14.39-.79-15.27,1.64,4.28,5.18,16.18,3.79,20.36-1.03-17.19,1.27-27.88,1.9-28.5,2.78,4.84,3.55,17.29,1.14,28.59,4.21-15.92,11.18-24.65,13.15-27.29,1.54,7.44-4.52,23.1-10.26,28.65,5.4-6.53,14.89-12.97,18.31-13.93-2.58,4.23-10.69,12.73-15.06,15.03-4.37,2.3-9.28,4.2-11.26,1.05" style="fill: #222f33;"/>
  <path d="M26.29,372.83c-1.99.4-4-.45-5.86-1.26-9.33-4.09-18.68-8.34-27.81-12.96l9.55-31.68c2.95-2.65,6.69-4.43,10.62-4.99-4.91,2.41-8.98,6.46-11.4,11.35.97-1,1.94-2,2.92-3.01-.07,2.12-.16,4.22-.24,6.32,1.81-1.91,3.15-4.25,3.88-6.77.16,2.93-.08,5.89-.7,8.77,1.46-5.73,5.64-10.72,11.06-13.13-3.7,3.94-6.14,9.04-6.89,14.41,2.25-1.74,4.51-3.48,6.76-5.23-.94,2.73-1.9,5.46-2.84,8.19,4.01-3.15,7.6-6.81,10.67-10.89-3.53,5.36-5.78,11.53-6.52,17.89,2.34-4.12,5.37-7.86,8.9-11.03-2.15,4.58-3.9,9.35-5.22,14.25.44-1.47,2.68-3.43,3.61-4.63,1.29-1.65,2.51-3.39,3.89-4.96-.72,5.8-.99,10.28.32,15.93,1.03,4.41,1.08,12.32-4.71,13.44Z" style="fill: #222f33;"/>
  <g>
    <g>
      <path d="M42.15,252.92s-9.3,20.07-22.79,121.37c-6.95.26-3.86-.67-3.86-.67,0,0,14.4-98.15,22.51-120.27" style="fill: #222f33;"/>
      <path d="M57.25,203.89l3.8-12.7s.45-6.91-6.73,13.56" style="fill: #222f33;"/>
      <path d="M56.72,203.79s-6.48-2.84-11.19,8.08c-4.71,10.92-13.52,41.18-6.42,42.54s12.02-14.29,15.24-26.45c3.22-12.16,8.53-21.63,2.37-24.17Z" style="fill: #222f33;"/>
      <path d="M16.65,363.84s33.35-39.05,45.5-78.22c-7.99,2.4-41.09,54.4-47.87,76.46,0,0,7.13-55.54-12.63-76.93-.84,15.74,7.74,75.58,10.17,80.49,2.56,1.14,2.96.46,4.82-1.8Z" style="fill: #222f33;"/>
    </g>
    <path d="M13.31,245.79s5.59,21.4.89,123.49c6.79,1.48,3.92.02,3.92.02,0,0,3.25-99.15-.82-122.36" style="fill: #222f33;"/>
    <path d="M7.14,194.86l-1.48-13.17s.78-6.88,4.22,14.54" style="fill: #222f33;"/>
    <path d="M7.69,194.86s6.88-1.64,9.58,9.94c2.7,11.58,6,42.92-1.23,43-7.23.08-9.3-16.2-10.3-28.74-1.01-12.54-4.56-22.8,1.96-24.2Z" style="fill: #222f33;"/>
  </g>
  <path d="M74.15,375.81s1.14-9.48,4.17-14.92c-4.22-6.8-1.73-13.22,1.12-13.45,2.84,3,1.57,12.23.49,13.26,7.01-4.98,11.49-1.29,12.29.35-3.27,2.04-10.79,3.31-13.07,2.16-2.62,1.88-3.59,10.31-3.1,13.64" style="fill: #222f33;"/>
  <path d="M199.39,399.66c2.77-.14,5.54-.29,8.31-.43v9.7c-67.48,2.62-134.92,5.3-201.93-2.02-3.74-.4-7.72-.95-10.57-3.41-6.18-5.37-3.14-15.25-.77-23.09,3.2-10.56,4.23-21.76,3.01-32.73.12.5.25,1,.37,1.5,16.59,16.37,42.65,22.41,64.76,14.98-1.53,2.74-3.07,5.48-4.61,8.22-.37.66-.75,1.44-.5,2.15.39,1.12,1.9,1.22,3.08,1.11,10.98-.94,21.96-1.89,32.93-2.83.9,4.44,1.8,8.87,2.7,13.31,3.23-2.99,8.38-2.52,12.48-.91,4.1,1.61,7.9,4.16,12.24,4.85,4.51.72,9.07-.64,13.64-.84,14.04-.61,27.12,9.72,41.06,7.97,3.93-.5,7.95-1.95,11.75-.81,2.34.7,4.33,2.34,6.7,2.99,1.73.47,3.56.38,5.35.29Z" style="fill: #222f33;"/>
  <path d="M71.67,351.12c.77,3.49-1.18,7-3.06,9.83-1.71,2.69-4.52,4.37-6.89,6.32-1.91,1.73-4.42,3.4-7.12,3.26,0,0-.03-.31-.03-.31.19.05.39.09.58.15-.19.06-.38.11-.57.16l-.03-.31c2.33-1.08,3.78-2.88,5.33-4.76,1.61-1.91,3.78-3.29,5.45-5.06,2.43-2.85,5.13-5.65,6.33-9.28h0Z" style="fill: #222f33;"/>
  <path d="M71.25,359.3c.31-.68.09-1.48.89-1.95,1.03-.61,1.67.74,1.92,1.51,1.76,6.26-1.3,14.59-6.14,18.8-1.68,1.35-4.09,2.13-6.18,1.38-.66-.23-1.37-.69-1.53-1.38.46.49,1.09.57,1.68.56,3.09-.11,5.04-2.7,6.42-5.21,2.24-4.23,4.24-8.99,4.32-13.84.02-.32-.12-.76-.08-1,.03-.01,0-.07-.09-.06-.55.05-.75.91-1.22,1.19h0Z" style="fill: #222f33;"/>
  <path d="M84.1,366.14c-3.61,6.15-9.04,11.2-15.46,14.31,3.62-6.17,9.04-11.17,15.46-14.31h0Z" style="fill: #222f33;"/>
  <path d="M87.23,366.68c.72,5.7-2.15,11.79-7.02,14.83,1.44-5.42,3.75-10.28,7.02-14.83h0Z" style="fill: #222f33;"/>
  <path d="M89.81,366.68c3.88,4,3.25,11.57-1.26,14.85.57-5.15.97-9.68,1.26-14.85h0Z" style="fill: #222f33;"/>
  <path d="M113.81,376.46c-2.8,4.36-6.77,7.65-11.11,10.36-1.33.98-3.16,1.18-3.9,2.78-.61-1.85,1.39-3.39,2.43-4.63,3.61-3.62,7.71-6.76,12.58-8.52h0Z" style="fill: #222f33;"/>
  <path d="M115.49,376.51c-.87,6.16-3.69,11.76-7.87,16.4,0,0-.41-.48-.41-.48.33,0,.67.01,1.02.04-.41.35-.92.68-1.37.98,1.09-6.42,4.01-12.37,8.62-16.94h0Z" style="fill: #222f33;"/>
  <path d="M117.4,377.45c1.7,5.54.48,11.73-2.83,16.46,0,0-.67-.41-.67-.41,1.13-.62,1.14-.58.57.56,0,0-.71,1.45-.71,1.45.08-6.3,1.15-12.3,3.63-18.06h0Z" style="fill: #222f33;"/>
  <path d="M127.93,384.31c-.78,4.27-4.77,7.51-9.05,7.85,0,0-.44-.91-.44-.91.37-.02.74-.03,1.13,0-.21.33-.44.62-.68.9l-.44-.91c2.91-2.99,5.73-5.19,9.47-6.93h0Z" style="fill: #222f33;"/>
  <path d="M130.34,384.01c.97,3.46-.54,7.18-3.17,9.46-.43.35-1.14.97-1.8.63,0,0-.29-.16-.29-.16.3-.42.35-.71.59-.07,0,0-.21-.27-.21-.27.77-3.52,2.19-6.99,4.89-9.59h0Z" style="fill: #222f33;"/>
  <path d="M55.65,374.52c3.64-4.14,8.27-6.48,12.83-9.47-1.3,5.67-7.34,9.07-12.83,9.47h0Z" style="fill: #222f33;"/>
  <path d="M63.21,377.92c-1.17-4.46,1.66-9.64,6.07-11.03-1.27,4.2-3.21,7.7-6.07,11.03h0Z" style="fill: #222f33;"/>
  <path d="M58.52,376.5c-.05-2.54,1.78-4.37,4.33-4.27.45,2.59-1.75,4.74-4.33,4.27h0Z" style="fill: #222f33;"/>
  <path d="M60.5,361.16c-1.27,5.12-6.62,8.68-11.78,8.58-.66,0-2.1-.18-1.99-1.15.5.51,1.15-.02,1.67-.29,4.25-2.17,8-4.63,12.1-7.15h0Z" style="fill: #222f33;"/>
  <path d="M32.33,349.1c-.34,5.1-1.06,9.69-2.34,14.64-2.95-4.5-1.85-11.28,2.34-14.64h0Z" style="fill: #222f33;"/>
  <path d="M83.19,369.72c.89,3.4-1.29,6.95-4.28,8.49-1.01.5-2.14.82-3.33.7.65-1,1.28-1.78,1.88-2.55,1.81-2.19,3.67-4.59,5.74-6.63h0Z" style="fill: #222f33;"/>
  <path d="M174.65,392.31c-1.07,4.79-6.14,8.26-10.97,7.85-.34-.06-.97-.51-.63-.85.07.32.44.11.6.02,3.52-2.65,7.02-4.98,10.99-7.02h0Z" style="fill: #222f33;"/>
  <path d="M178.49,392.63c-.86,3.46-2.9,6.19-5.65,8.43,0,0-.53-1.28-.53-1.28.32.28.83.48,1.53.49-.29.65-1.02,1.1-1.85,1.15l-.89.05c.81-3.96,3.4-7.66,7.4-8.84h0Z" style="fill: #222f33;"/>
  <path d="M180.04,393.01c1.58,1.51,2.44,3.7,2.76,5.63.08.57.44,1.01,1.19.92.02.88-1.19,1.34-1.98,1.13-2.92-.91-3.42-5.46-1.96-7.69h0Z" style="fill: #222f33;"/>
  <path d="M158.02,396.13c5.04-9.17,18.81-14.79,27.6-7.56-10.12-2.77-19.47,1.82-27.6,7.56h0Z" style="fill: #222f33;"/>
  <path d="M193.46,386.82c1.9-.61,2.76,2.9,3.22,4.23.75,2.69.73,5.95-.74,8.51-1.38,2.53-4.58,4.62-7.4,3.66,3.18-1.29,4.84-3.94,5.49-7.06.45-2.17.32-5.02.27-7.33-.03-.75.04-1.71-.84-2h0Z" style="fill: #222f33;"/>
  <path d="M188.99,393.89c-.03,3.94-4.6,7.04-8.27,5.58,2.45-2.61,4.94-4.27,8.27-5.58h0Z" style="fill: #222f33;"/>
  <path d="M202.13,399.89c1.62-3.23-.16-5.76-2.19-8.21-1.96-2.38-4.62-5.38-6.34-7.98,4.68,1.55,10.36,6.06,11.07,11.26.18,1.92-.67,4.25-2.55,4.93h0Z" style="fill: #222f33;"/>
  <path d="M73.32,371.86c1.51,1.71.43,4.38-1.53,5.11-.64.23-1.37.31-2.13-.04.23-.79.43-1.31.62-1.78.68-1.56,1.58-2.25,3.04-3.3h0Z" style="fill: #222f33;"/>
  <path d="M67.42,372.77c2.43,2.27-.86,6.16-3.69,4.9.54-2.48,1.86-3.32,3.69-4.9h0Z" style="fill: #222f33;"/>
  <path d="M63.05,373.57c1.87,1.42.41,4.04-1.78,3.18-.7-2.05-.32-2.7,1.78-3.18h0Z" style="fill: #222f33;"/>
  <path d="M110.03,381.84c1.68,2.04.02,5.17-2.42,5.6-.82.16-1.98-.07-2.32-.94,1.28-.66,1.32-1.45,2.19-2.27.56-.65,1.88-1.78,2.55-2.39h0Z" style="fill: #222f33;"/>
  <path d="M116.54,385.87c-2.81,2.65-6.1,4.28-9.79,5.29,0,0-.03-.99-.03-.99.13.26.4.55.85.72-.35.32-.92.47-1.48.3l-.55-.17c2.09-3.79,6.71-6.19,11.01-5.14h0Z" style="fill: #222f33;"/>
  <path d="M112.04,385.24c2.68.12,4.65,2.63,4.39,5.21,0,.31-.1.18-.3.35-.04.02-.08.14-.05.17.04.05.06-.02.09-.04.03-.02.02-.06-.01-.03-.08-.15.25-.09.27.05.07.24-.28.41-.47.33-.21-.04-.42-.24-.55-.29-2.15-1.15-3.41-3.23-3.36-5.74h0Z" style="fill: #222f33;"/>
  <path d="M127.82,388.56c-1.71,3.06-4.65,4.97-8.15,5.25.94-3.49,4.58-5.83,8.15-5.25h0Z" style="fill: #222f33;"/>
  <path d="M136.01,387.51c3.02-1.4,6.32,2.41,4.86,5.29,0,0-.9,1.78-.9,1.78v-1.46c.01-.24.02-.49.06-.77.28.05.51.12.74.2l-.88.33c-1.77-1.84-2.7-3.3-3.89-5.37h0Z" style="fill: #222f33;"/>
  <path d="M165.62,377.7c7.31.84,13.09,7.28,14.68,14.26.92,3.8.6,8.77-2.89,11.21-.2.2-.87.41-.79-.07.02-.09.18-.2.23-.09-.08-.06-.12.06-.11.11.06.16.28-.14.35-.28,2.67-4.21.95-9.52-.95-13.72-2.31-4.78-5.87-8.63-10.52-11.43h0Z" style="fill: #222f33;"/>
  <path d="M181.15,389.66c-3.99.65-7.23,1.62-10.13,4.43-2.74,2.5-5.87,4.75-9.11,6.58-.16.14-.32.32-.2.58-.28-.11-.29-.54-.2-.81,1.94-3.31,4.72-6,7.53-8.61,3.1-3.05,8.19-4.05,12.11-2.17h0Z" style="fill: #222f33;"/>
  <path d="M165.26,385.24c-1.31,4.82-4.44,8.93-8.2,12.09-.46.43-.93.82-.93,1.6-1.25-1.18.02-3.22.59-4.39,2.09-3.73,4.79-7.1,8.54-9.3h0Z" style="fill: #222f33;"/>
  <path d="M149.57,394.53c2.04-7.7,1.03-15.42-1.28-22.9-.31-1.05-.68-2.06-1.62-2.81.6.06,1.19.36,1.68.76,6.01,6.45,7.35,18.14,1.22,24.95h0Z" style="fill: #222f33;"/>
  <path d="M191.43,387.49c3.03,3.87,2.69,9.87-.34,13.65-.58.64-1.38,1.14-2.24,1.2,0,0-.04-.06-.04-.06-.45-.68-.42-.7.35-.47,0,0-.31-.02-.31-.02.75-1,.82-2.08,1.05-3.28.73-3.73.97-7.2,1.54-11.02h0Z" style="fill: #222f33;"/>
  <path d="M198.6,392.22c3.12,1.87.69,7.9-2.02,9.26-1.05.64-2.4.91-3.55.48,1.65-1.47,2.39-2.78,3.39-4.54,0,0,1.32-2.47,1.32-2.47.46-.92.93-1.6.86-2.73h0Z" style="fill: #222f33;"/>
  <path d="M198.02,388.3c1.9-.61,2.76,2.9,3.22,4.23.75,2.69.73,5.95-.74,8.51-1.38,2.53-4.58,4.62-7.4,3.66,3.18-1.29,4.84-3.94,5.49-7.06.45-2.17.32-5.02.27-7.33-.02-.75.04-1.71-.84-2h0Z" style="fill: #222f33;"/>
  <path d="M203.16,393.69c3.12,1.87.69,7.9-2.02,9.26-1.05.64-2.4.91-3.55.48,1.65-1.47,2.39-2.78,3.39-4.54,0,0,1.32-2.47,1.32-2.47.46-.92.93-1.6.86-2.73h0Z" style="fill: #222f33;"/>
  <path d="M204.49,385.74c3.7.22,4.55,6.61,3.94,9.46-.35,2.25-2.51,8.25-5.35,7.71-.53-.12-1.02-.6-.97-1.08.29.36.7.35,1,.25.91-.47.87-1.72,1.27-2.76,1.08-3.78,1.86-7.65,1.2-11.55-.15-.75-.38-1.48-1.1-2.04h0Z" style="fill: #222f33;"/>
  <path d="M191.48,398.65c-.55.33-1.3,0-1.76-.38-2.3-2.09-2.58-5.41-2.79-8.3-.62-6.42,5.64-9.74,11.1-10.19.6-.04,1.34.08,1.71.57-1.15-.3-1.96.58-2.92,1.08-3.45,1.91-7.19,4.27-7.05,8.54,0,0-.11,3.23-.11,3.23-.02,1.55.05,3.13.69,4.53.23.43.54.88,1.13.91h0Z" style="fill: #222f33;"/>
  <path d="M185.41,378.62c6.26,4.37,2.07,19.01-5.48,19.84,2.83-2.77,4.09-5.87,4.98-9.31.81-3.55,1.87-6.91.49-10.53h0Z" style="fill: #222f33;"/>
</svg>