<?xml version="1.0" encoding="UTF-8"?>
<svg xmlns="http://www.w3.org/2000/svg" xmlns:xlink="http://www.w3.org/1999/xlink" viewBox="0 0 400 400">
  <defs>
    <radialGradient id="radial-gradient" cx="216.86" cy="438.89" fx="216.86" fy="438.89" r="275.88" gradientTransform="translate(-54.99 61.81) rotate(-15.22)" gradientUnits="userSpaceOnUse">
      <stop offset="0" stop-color="#b3b9b0"/>
      <stop offset=".25" stop-color="#b3b9b0"/>
      <stop offset=".49" stop-color="#aeb4ac"/>
      <stop offset=".74" stop-color="#a2a8a0"/>
      <stop offset="1" stop-color="#8f948d"/>
    </radialGradient>
  </defs>
  <g style="isolation: isolate;">
    <g id="Foreground-left">
      <g>
        <path d="M28,381.05s6.72-16.7,16.83-28.89c4.7-5.67,10.4-11.42,17.01-16.09,1.82-1.35-.32-.97-3.32,1.71s-25.08,22.7-34.39,42.76" style="fill: #222f33;"/>
        <path d="M50.41,345.51s9.39-6.67,16.57-4.34c-2.02,3.78-16.8,7.58-16.57,4.34Z" style="fill: #222f33;"/>
        <path d="M45.15,351.51s3.24-3.43,11.54-3.7c8.3-.27,8.7,2.52,8.23,2.73s-2.26-.06-5.65,1.08c-3.4,1.15-15.34,3.66-14.11-.12Z" style="fill: #222f33;"/>
        <path d="M30.23,372.28s3.24-3.43,11.54-3.7c8.3-.27,8.7,2.52,8.23,2.73s-2.26-.06-5.65,1.08-15.34,3.66-14.11-.12Z" style="fill: #222f33;"/>
        <path d="M40.58,357.58s6.35.43,11.43.02,9.06.94,9.62.04-8.32-6.08-18.85-2.33c-1.94.78-2.2,2.27-2.2,2.27Z" style="fill: #222f33;"/>
        <path d="M32.65,368.67s6.37,0,11.4-.74,9.1.33,9.6-.6-8.71-5.51-18.97-1.07c-1.89.91-2.04,2.41-2.04,2.41Z" style="fill: #222f33;"/>
        <path d="M36.24,363.39s4.34-3.99,12.2-4.89c7.85-.89,7.22,2.16,7.22,2.16,0,0-1.32-.15-6.82,1.91s-12.35,2.55-12.6.82Z" style="fill: #222f33;"/>
        <path d="M50.29,345.26s3.78-8.28.12-11.14c-2.88,2.87-2.93,12.78-.12,11.14Z" style="fill: #222f33;"/>
        <path d="M45.64,350.89s2.3-3.38.68-8.07c-1.62-4.69-4.16-3.62-4.25-3.25s.56,1.21.31,3.62c-.25,2.41.2,10.15,3.26,7.71Z" style="fill: #222f33;"/>
        <path d="M30.18,372.2s2.3-3.38.68-8.07-4.16-3.62-4.25-3.25.56,1.21.31,3.62.2,10.15,3.26,7.71Z" style="fill: #222f33;"/>
        <path d="M40.01,356.88s-1.8-3.3-2.58-6.28c-.78-2.98-2.85-4.55-2.19-5.28s7.22,1.75,6.27,9.29c-.25,1.43-1.51,2.26-1.51,2.26Z" style="fill: #222f33;"/>
        <path d="M32.23,367.48s-1.42-3.5-1.9-6.62c-.48-3.12-2.33-4.85-1.62-5.56s6.8,2.23,5.18,9.94c-.38,1.46-1.67,2.24-1.67,2.24Z" style="fill: #222f33;"/>
        <path d="M36.24,362.58s2.55-4.25,1.58-8.99c-.97-4.74-3.52-2.97-3.52-2.97,0,0,.43.65-.16,4.64-.58,3.99.51,7.98,2.1,7.31Z" style="fill: #222f33;"/>
      </g>
      <g>
        <path d="M95.67,389.85s11.16-13.02,24.94-19.31c1.74-.88-11.21-3.24-23.87,13.07" style="fill: #222f33;"/>
        <path d="M97.24,385.64s8.99-15.25,9.91-22.25c.04-1.35-13.21,15.19-12.5,23.85,0,0,1.26.26,2.58-1.6Z" style="fill: #222f33;"/>
        <path d="M95.92,383.5s4.01-16.17-4.86-24.66c-2.2-1.42,1.53,2.57.99,9.23-.54,6.67,1.34,24.14,3.87,15.43Z" style="fill: #222f33;"/>
      </g>
      <path d="M116.7,384.91c.05-.24,5.21-13.21,10.08-15.45-1.23,2.27-8.26,13.99-8.55,16.36,1.11.2,5.16-9.99,5.68-9.93.7.76-.29,9.49-1.52,10.25,2.28-2.87,11.42-11.01,12.71-17.69,1.52,1.87-1.46,13.24-11.01,19.68s-8.49,1.76-7.38-3.22Z" style="fill: #222f33;"/>
      <path d="M128.24,391.14s2.23-7.11,4.04-8.86c.35,1.11.4,5.84-1.41,8.86,2.82-7.93,8.97-13.08,13.71-15.07-.76,2.17-9.62,10.31-9.11,16.99" style="fill: #222f33;"/>
      <path d="M142.72,404.2s-4.87-8.75-4.79-15.38c1.84.26,4.11,6.86,4.37,8.73-2.6-8.8-1.26-14.39-.79-15.27,1.64,4.28,5.18,16.18,3.79,20.36-1.03-17.19,1.27-27.88,1.9-28.5,2.78,4.84,3.55,17.29,1.14,28.59,4.21-15.92,11.18-24.65,13.15-27.29,1.54,7.44-4.52,23.1-10.26,28.65,5.4-6.53,14.89-12.97,18.31-13.93-2.58,4.23-10.69,12.73-15.06,15.03-4.37,2.3-9.28,4.2-11.26,1.05" style="fill: #222f33;"/>
      <g>
        <g>
          <path d="M99.3,392.69c1.03-5.76,2.57-11.43,4.61-16.92-3.75,3.98-6.84,8.57-9.13,13.53.22-7.37,2.2-14.68,5.72-21.15-3.11,4.97-6.88,9.53-11.17,13.53.82-3.22,1.64-6.45,2.47-9.67-2.42,2.21-4.84,4.43-7.26,6.64.34-6.22,2.64-12.31,6.5-17.2-6.43,3.53-10.93,10.37-11.62,17.68.64-3.85.68-7.8.14-11.66-.59,2.97-1.9,5.79-3.79,8.15-.11-2.42-.22-4.85-.34-7.27-1.02,1.25-2.04,2.5-3.06,3.75,2.31-5.85,6.59-10.9,11.98-14.14-6.46,1.47-12.18,5.88-15.24,11.75,1.48-4.89,3.62-9.58,6.33-13.91-6.28,1.49-11.76,6.03-14.39,11.92.83-4.46,2.75-8.71,5.54-12.29-4.2,1.22-7.99,3.79-10.69,7.23l2.82-8.51c-1.89,3.64-3.78,7.29-5.68,10.93l.91-7.7c-1.82,1.69-3.32,3.73-4.38,5.98.5-2.24,1-4.48,1.49-6.73-2.67.9-5.34,1.8-8,2.7,1.08-1.78,2.16-3.56,3.24-5.34-3.43,1.19-6.42,3.62-8.3,6.73.75-2.23.93-4.65.53-6.97-1.71.86-3.41,1.72-5.12,2.58,1.17-2.97,1.25-6.34.24-9.37.67-3.82,1.34-7.64,2.01-11.46-2.89,4.97-5.79,9.94-8.68,14.92l5.62-18.69c-3.93,4.55-6.8,10.02-8.31,15.84.39-6.81,2.6-13.51,6.33-19.22-5.31,4.42-8.48,11.3-8.39,18.21.32-4.49.64-8.97.97-13.46-2.94,3.1-5.88,6.2-8.83,9.3,2.1-3.81,3.64-7.92,4.57-12.16-3.97,2.66-7.42,6.09-10.09,10.05.9-2.61,1.79-5.22,2.69-7.83-1.37,1.26-2.73,2.51-4.1,3.77.58-1.23,1.17-2.45,1.75-3.68-4.06,2.01-8.18,4.07-11.47,7.19-3.29,3.11-5.68,7.5-5.33,12.02.44,5.52,4.7,9.89,8.9,13.51,27.51,23.75,62.28,37.16,96.69,48.88,2.21.75,4.6,1.51,6.85.87,6.53-1.85,5.69-10.92,4.09-15.88-2.06-6.35-2.2-11.52-1.94-18.24-1.42,1.94-2.66,4.05-3.97,6.08-.96,1.48-3.39,4-3.7,5.72Z" style="fill: #222f33;"/>
          <path d="M26.29,372.83c-1.99.4-4-.45-5.86-1.26-9.33-4.09-18.68-8.34-27.81-12.96l9.55-31.68c2.95-2.65,6.69-4.43,10.62-4.99-4.91,2.41-8.98,6.46-11.4,11.35.97-1,1.94-2,2.92-3.01-.07,2.12-.16,4.22-.24,6.32,1.81-1.91,3.15-4.25,3.88-6.77.16,2.93-.08,5.89-.7,8.77,1.46-5.73,5.64-10.72,11.06-13.13-3.7,3.94-6.14,9.04-6.89,14.41,2.25-1.74,4.51-3.48,6.76-5.23-.94,2.73-1.9,5.46-2.84,8.19,4.01-3.15,7.6-6.81,10.67-10.89-3.53,5.36-5.78,11.53-6.52,17.89,2.34-4.12,5.37-7.86,8.9-11.03-2.15,4.58-3.9,9.35-5.22,14.25.44-1.47,2.68-3.43,3.61-4.63,1.29-1.65,2.51-3.39,3.89-4.96-.72,5.8-.99,10.28.32,15.93,1.03,4.41,1.08,12.32-4.71,13.44Z" style="fill: #222f33;"/>
          <path d="M206.33,386.32c.08,2.01.39,4.03.59,6.04.15,1.47-.24,4.41.53,5.67-2.58-4.21-4.61-8.7-6.15-13.34-.5,4.57-.32,9.19.7,13.64-3.99-4.9-6.33-10.79-7.16-16.88.35,4.88-.02,9.83-1.25,14.67-1.07-2.58-2.1-5.16-3.12-7.76-.69,2.68-1.43,5.36-2.22,8.04-2.89-4.44-3.99-9.76-3.49-14.94-2.99,5.41-3.43,12.24-.36,17.67-1.4-2.98-3.27-5.77-5.48-8.28.91,2.37,1.22,4.94.81,7.45-1.25-1.67-2.47-3.35-3.66-5.05-.25,1.33-.5,2.66-.76,3.99-.79-5.19.4-10.61,2.95-15.26-4.11,3.84-6.76,9.35-6.7,14.88-.94-4.17-1.22-8.46-.94-12.71-4.16,3.61-6.83,8.99-6.63,14.38-1.15-3.64-1.23-7.53-.41-11.24-2.85,2.47-4.99,5.72-5.95,9.27-.3-2.48-.59-4.96-.85-7.44-.21,3.42-.43,6.84-.65,10.26-.73-2.06-1.43-4.12-2.11-6.19-.91,1.89-1.45,3.94-1.54,6.02-.4-1.89-.78-3.77-1.16-5.66-1.93,1.53-3.92,3.04-5.95,4.51.34-1.71.67-3.41,1-5.12-2.52,1.94-4.37,4.65-5.02,7.62-.07-1.97-.7-3.93-1.76-5.66-1.23,1.13-2.47,2.24-3.74,3.34.14-2.66-.79-5.37-2.49-7.57-.46-3.22-.88-6.45-1.25-9.67-1.2,4.65-2.43,9.29-3.71,13.92.02-5.44.12-10.88.29-16.31-2.25,4.49-3.53,9.48-3.43,14.52-1.35-5.64-.83-11.5,1.08-16.86-3.47,4.62-4.9,10.77-3.17,16.42-.79-3.73-1.49-7.46-2.11-11.19-1.9,3.04-3.87,6.05-5.9,9.04,1.12-3.45,1.67-7.07,1.71-10.71-2.93,2.78-5.41,6.05-7.13,9.65.35-2.28.7-4.56,1.07-6.83-1,1.2-2.02,2.4-3.05,3.59.32-1.08.65-2.17.98-3.25-3.29,2.12-6.75,4.17-9.38,7-2.62,2.83-4.32,6.64-3.21,10.48,1.35,4.7,6.52,8.19,11.6,10.78,33.62,17.41,76.43,14.99,111.83.74,2.3-.9,4.73-1.95,6.1-3.75,3.9-5.24-2.84-9.84-7.06-11.85" style="fill: #222f33;"/>
        </g>
        <polygon points="-4.57 353.97 -4.57 409.79 213.19 409.79 208.5 406.22 125.73 396.84 -4.57 353.97" style="fill: #222f33;"/>
      </g>
      <g>
        <g>
          <path d="M42.15,252.92s-9.3,20.07-22.79,121.37c-6.95.26-3.86-.67-3.86-.67,0,0,14.4-98.15,22.51-120.27" style="fill: #222f33;"/>
          <path d="M57.25,203.89l3.8-12.7s.45-6.91-6.73,13.56" style="fill: #222f33;"/>
          <path d="M56.72,203.79s-6.48-2.84-11.19,8.08c-4.71,10.92-13.52,41.18-6.42,42.54s12.02-14.29,15.24-26.45c3.22-12.16,8.53-21.63,2.37-24.17Z" style="fill: #222f33;"/>
          <path d="M16.65,363.84s33.35-39.05,45.5-78.22c-7.99,2.4-41.09,54.4-47.87,76.46,0,0,7.13-55.54-12.63-76.93-.84,15.74,7.74,75.58,10.17,80.49,2.56,1.14,2.96.46,4.82-1.8Z" style="fill: #222f33;"/>
        </g>
        <path d="M13.31,245.79s5.59,21.4.89,123.49c6.79,1.48,3.92.02,3.92.02,0,0,3.25-99.15-.82-122.36" style="fill: #222f33;"/>
        <path d="M7.14,194.86l-1.48-13.17s.78-6.88,4.22,14.54" style="fill: #222f33;"/>
        <path d="M7.69,194.86s6.88-1.64,9.58,9.94c2.7,11.58,6,42.92-1.23,43-7.23.08-9.3-16.2-10.3-28.74-1.01-12.54-4.56-22.8,1.96-24.2Z" style="fill: #222f33;"/>
      </g>
      <path d="M75.41,373.48s.92-7.67,3.38-12.09c-3.42-5.5-1.4-10.71.91-10.89,2.3,2.43,1.27,9.91.39,10.74,5.68-4.03,9.31-1.05,9.96.29-2.65,1.66-8.75,2.68-10.59,1.75-2.12,1.52-2.91,8.35-2.51,11.05" style="fill: #222f33;"/>
    </g>
    <g id="Foreground-right">
      <g>
        <path d="M275.26,402.13s2.75-10.2,8.75-17.35c.73-.95-7.09,1.17-9.81,13.59" style="fill: #222f33;"/>
        <path d="M275.02,399.37s.96-10.87-.38-15c-.33-.76-3.32,11.95-.64,16.58,0,0,.77-.19,1.01-1.58Z" style="fill: #222f33;"/>
        <path d="M273.72,398.53s-2.05-10.06-9.23-12.43c-1.6-.21,1.53,1.02,2.99,4.88,1.46,3.85,7.13,13.08,6.23,7.56Z" style="fill: #222f33;"/>
      </g>
      <g>
        <path d="M333.82,367.95s-3.83-12.23-11.01-13.94c-7.18-1.7,6.11,3.9,10.4,17.77.89-2.37.6-3.83.6-3.83Z" style="fill: #222f33;"/>
        <g>
          <path d="M372.81,389.45s-10.16-17.28-10.24-19.95-4.68,2.74,6.26,16.91c1.52,1.79,4.12,5.54,3.98,3.03Z" style="fill: #222f33;"/>
          <path d="M360.51,377.18c-.33-.21-6.6-5.66-11.88-6.69s-5.8-3.17-6.08-4.07,2.71-1.2,4.74-.71c-4.3-5.81-16.04-12.05-18.7-14.15-1.56-.82,6.62,1.06,8.94,2.38-6.64-4.62-11.19-8.71-12.19-8.58-4.42-.91,1.91-3.61,15.05,8.05-2.74-4.06-2.41-3.82-2.28-3.91s7.84,3.27,14.41,14.54c-.69-3.11-1.87-5.11-1.42-5.57s11.87,15.56,12.97,18,2.67,4.65-3.57.69Z" style="fill: #222f33;"/>
        </g>
      </g>
      <g>
        <path d="M389.7,352.87s-4.33-43.03,4.12-64.86c2.47-4.14,17.64,31.87-2.32,62.45" style="fill: #222f33;"/>
        <path d="M389.67,349.4s21.65-25.67,27.69-27.66c2.44,2.93-9.05,23.59-15.69,30.25,5.54-4.07,9.04-6.73,9.04-6.73,0,0-4.09,11.66-6.71,10.98s-17.49.77-14.33-6.84Z" style="fill: #222f33;"/>
        <path d="M388.03,353.14s-1.68-46.56-49.38-65.7c-4.2-.98,27.97,43.96,44.68,64.54" style="fill: #222f33;"/>
        <path d="M386.59,356.04s-12.62-20.55-50.13-16.73c5.22,6.15,48.01,27.22,50.13,16.73Z" style="fill: #222f33;"/>
        <g>
          <path d="M361.47,244.16s10.88,21.07,29.98,128.93c7.45-.05,4.1-.9,4.1-.9,0,0-19.93-104.45-29.64-127.77" style="fill: #222f33;"/>
          <path d="M343.04,192.34l-4.65-13.43s-.8-7.38,7.83,14.21" style="fill: #222f33;"/>
          <path d="M343.61,192.22s6.81-3.34,12.35,8.14c5.55,11.48,16.37,43.48,8.83,45.26-7.54,1.78-13.53-14.75-17.54-27.63-4-12.87-10.13-22.77-3.65-25.77Z" style="fill: #222f33;"/>
        </g>
      </g>
      <path d="M312.74,387.94s-9.6-2.72-14.21-7.44c1.48-1.11,7.73,1.92,9.22,3.06-8.03-4.36-11.02-9.23-11.31-10.18,4.17,1.85,15.05,7.72,17.01,11.65-12.83-11.36-18.74-20.5-18.73-21.38,5.37,1.44,14.68,9.65,20.94,19.29-8.24-14.16-9.48-25.2-9.95-28.45,6.32,4.15,13.08,19.43,12.94,27.38-.79-8.39,1.35-19.61,3.1-22.7,1.16,4.79,1.43,16.48-.03,21.18-1.46,4.69-3.58,9.5-7.19,8.67" style="fill: #222f33;"/>
      <g>
        <path d="M263.83,379.54s9.48-9.05,18.81-4.38c0,0,1.44.6,2.08,1.52s3.23-11.43-8.9-11.5c-12.14-.07-10.41,11.49-11.99,14.36Z" style="fill: #222f33;"/>
        <path d="M263.61,394.19s1.72-17.59-5.67-27.86c-1.22-1.36,3.8-1.87,5.85,10.34,2.05,12.21,1.98,17.52,1.98,17.52h-2.15Z" style="fill: #222f33;"/>
        <path d="M263.25,379.11s-17.45-9.98-20.11,9.48c-.43,3.66,5.39-6.39,9.26-7.18s10.84-2.3,10.84-2.3Z" style="fill: #222f33;"/>
        <path d="M262.3,370.84s1.62-9.57,8.75-13.19c5.4-1.63-13.28-9.35-8.75,13.19Z" style="fill: #222f33;"/>
        <path d="M261.11,370.84s-12.28-7.63-18.65,3.02c-.66,1.68,5.25-.41,7.9-1.73,2.65-1.32,9.78-1.7,10.75-1.28Z" style="fill: #222f33;"/>
        <path d="M259.74,366.11s-.66-7.64,1.02-9.99c1.48-2.5-5.1-1.02-6.93,3.06-1.83,4.08-2.55.25-4.79,5.04-2.24,4.79,9.89,2.34,10.04,2.8" style="fill: #222f33;"/>
      </g>
      <g>
        <g>
          <path d="M290.59,401.75c-.38-5.9-1.34-11.81-2.71-17.66,3.62,4.74,6.65,9.85,8.84,15.16.69-7.34-.77-14.9-3.67-21.96,2.69,5.5,6.44,10.68,11.19,15.22-.67-3.31-1.29-6.63-1.87-9.95,2.52,2.54,5.14,5.03,7.85,7.47.04-6.23-2.19-12.5-5.85-17.85,6.57,4.34,11.37,11.4,11.9,18.75-.58-3.89-.43-7.83.34-11.65.54,3,1.92,5.9,4.08,8.33.19-2.42.37-4.83.55-7.25,1.13,1.28,2.28,2.56,3.45,3.82-2.65-5.88-7.27-11.05-12.8-14.75,6.78,2.04,12.93,6.54,16.53,12.39-1.76-4.88-4.14-9.58-6.94-14,6.6,1.72,12.64,6.05,16,11.77-1.21-4.4-3.55-8.55-6.62-12.07,4.48,1.15,8.69,3.47,11.96,6.67-1.28-2.74-2.53-5.5-3.72-8.27,2.26,3.51,4.63,6.98,7.11,10.41-.6-2.52-1.19-5.04-1.77-7.56,2.11,1.51,3.97,3.37,5.41,5.47-.82-2.16-1.63-4.33-2.42-6.5,2.94.6,5.91,1.13,8.92,1.59-1.44-1.58-2.85-3.18-4.24-4.8,3.75.72,7.31,2.58,9.92,5.28-1.22-2.05-1.84-4.39-1.86-6.74,1.94.54,3.89,1.04,5.86,1.51-1.86-2.65-2.61-5.94-2.24-9.1-1.48-3.6-2.93-7.2-4.33-10.82,3.73,4.35,7.67,8.59,11.84,12.7-3.45-5.57-6.71-11.22-9.81-16.94,4.59,3.7,8.73,8.29,11.77,13.52-2.19-6.47-6.08-12.36-10.74-17.19,5.75,3.27,10.67,9.02,12.51,15.68-1.55-4.23-3.07-8.46-4.59-12.69,3.53,2.28,7.2,4.45,10.99,6.5-3.21-2.98-5.86-6.48-7.94-10.3,4.33,1.52,8.58,3.73,12.46,6.57-1.74-2.15-3.45-4.33-5.13-6.52,1.65.77,3.31,1.53,5.01,2.25-.96-.95-1.92-1.92-2.87-2.88,4.34.63,8.82,1.09,13.1,2.66,4.26,1.58,8.42,4.47,10.03,8.7,1.97,5.17-.46,11.09-3.52,16.2-19.79,33.95-64.48,56.59-113.56,60.27-3.15.27-6.58.43-9.55-.8-8.62-3.67-5.3-12.32-2.23-16.67,3.96-5.63,5.07-10.69,6.1-17.33,1.3,2.25,2.4,4.62,3.64,6.91.89,1.68,3.49,4.68,3.62,6.44Z" style="fill: #222f33;"/>
          <path d="M380.19,358.74c1.14.67,2.51.51,3.79.34,6.41-.86,12.86-1.82,19.24-3.08v-23.25c-1.31-2.38-3.25-4.34-5.53-5.51,2.53,2.62,4.27,6.17,4.84,9.95-.41-.87-.81-1.74-1.22-2.62-.34,1.44-.68,2.87-1.01,4.3-.75-1.65-1.14-3.5-1.12-5.34-.63,1.94-1.03,3.98-1.18,6.04.16-4.15-1.46-8.36-4.31-11.08,1.52,3.4,2.07,7.33,1.54,11.09-1.05-1.63-2.1-3.26-3.15-4.89.07,2.03.15,4.06.23,6.09-1.86-2.93-3.36-6.12-4.48-9.49,1.16,4.32,1.4,8.93.69,13.36-.67-3.25-1.82-6.38-3.38-9.23.47,3.52.66,7.08.56,10.65,0-1.08-1-2.85-1.34-3.85-.48-1.37-.9-2.79-1.45-4.13-.62,4.05-1.28,7.12-3.11,10.65-1.43,2.76-2.91,8.07.4,10Z" style="fill: #222f33;"/>
          <path d="M212.87,400.14c2.03-4.68,3.52-9.58,4.56-14.57.94,4.71,1.26,9.55.79,14.3,3.32-5.54,4.95-11.93,5.17-18.36.12,5.12,1,10.25,2.75,15.16.74-2.8,1.47-5.6,2.18-8.41.95,2.73,1.96,5.44,3.03,8.15,2.29-4.92,2.78-10.58,1.8-15.92,3.41,5.33,4.57,12.41,2.25,18.38,1.01-3.25,2.5-6.34,4.35-9.18-.62,2.56-.63,5.27.07,7.85,1.01-1.86,1.99-3.74,2.95-5.62.39,1.36.79,2.72,1.19,4.08.14-5.48-1.59-11.01-4.5-15.6,4.33,3.6,7.47,9.08,8.07,14.84.42-4.43.2-8.92-.51-13.33,4.36,3.36,7.53,8.72,8,14.34.66-3.89.28-7.95-.92-11.73,3,2.3,5.44,5.49,6.79,9.09-.02-2.6-.04-5.21-.07-7.81.6,3.54,1.21,7.07,1.87,10.6.44-2.2.86-4.41,1.26-6.62,1.1,1.88,1.88,3.96,2.23,6.11.14-1.99.27-3.99.4-5.98,2.04,1.42,4.14,2.81,6.28,4.16-.55-1.74-1.09-3.48-1.62-5.22,2.66,1.79,4.77,4.45,5.81,7.46-.2-2.04.14-4.12.94-6.01,1.32,1.06,2.67,2.11,4.03,3.15-.5-2.74.03-5.62,1.37-8.03.02-3.37.01-6.74-.03-10.1,1.71,4.72,3.49,9.42,5.34,14.1-.77-5.61-1.58-11.22-2.41-16.82,2.68,4.48,4.56,9.53,5.16,14.73.51-5.91-.77-11.92-3.23-17.33,3.83,4.53,6.04,10.76,5.17,16.71.23-3.9.4-7.8.49-11.69,2.21,3,4.49,5.96,6.86,8.88-1.56-3.46-2.58-7.15-3.11-10.89,3.15,2.66,5.97,5.85,8.14,9.42-.66-2.31-1.33-4.62-2-6.93,1.12,1.17,2.26,2.33,3.42,3.47-.47-1.09-.94-2.17-1.4-3.26,3.43,1.95,7.05,3.82,10,6.52,2.95,2.71,5.21,6.46,4.76,10.44-.54,4.87-4.98,8.81-9.49,11.86-29.78,20.47-71.86,22.48-108.3,11.56-2.36-.68-4.88-1.51-6.44-3.24-4.49-5.05,1.57-10.64,5.47-13.2,5.07-3.28,7.81-6.92,10.91-11.87.12,2.11.04,4.25.06,6.37.01,1.55.72,4.58.12,5.98Z" style="fill: #222f33;"/>
        </g>
        <polygon points="403.66 353.97 403.66 409.79 207.31 409.79 211.54 406.22 286.17 396.84 403.66 353.97" style="fill: #222f33;"/>
      </g>
      <path d="M210.84,405.11s5.1-11.58,5.32-19.84c9.41-4.9,10.9-13.92,7.8-16.1-5.27,1.5-10.05,12.9-9.51,14.81-4.65-10.41-12.25-9.24-14.28-7.9,2.36,4.55,10.09,11.08,13.47,11.29,1.72,3.91-2.86,14.19-5.68,17.66" style="fill: #222f33;"/>
    </g>
    <g id="Haniwa_copy" data-name="Haniwa copy">
      <rect x="-7.64" y="-19.97" width="422.8" height="422.8" style="fill: #6ac2c3;"/>
      <g>
        <g id="_Radial_Repeat_" data-name="&amp;lt;Radial Repeat&amp;gt;">
          <polygon points="199.41 147.98 98.89 453.78 136.16 463.6 199.41 147.98" style="fill: #47feab;"/>
        </g>
        <g id="_Radial_Repeat_-2" data-name="&amp;lt;Radial Repeat&amp;gt;">
          <polygon points="205.08 150.3 28.84 419.67 62.29 438.8 205.08 150.3" style="fill: #47feab;"/>
        </g>
        <g id="_Radial_Repeat_-3" data-name="&amp;lt;Radial Repeat&amp;gt;">
          <polygon points="209.95 154.01 -30 368.58 -2.64 395.72 209.95 154.01" style="fill: #47feab;"/>
        </g>
        <g id="_Radial_Repeat_-4" data-name="&amp;lt;Radial Repeat&amp;gt;">
          <polygon points="213.7 158.85 -73.61 304.01 -54.2 337.31 213.7 158.85" style="fill: #47feab;"/>
        </g>
        <g id="_Radial_Repeat_-5" data-name="&amp;lt;Radial Repeat&amp;gt;">
          <polygon points="216.07 164.5 -99.03 230.35 -88.9 267.54 216.07 164.5" style="fill: #47feab;"/>
        </g>
        <g id="_Radial_Repeat_-6" data-name="&amp;lt;Radial Repeat&amp;gt;">
          <polygon points="216.89 170.57 -104.51 152.63 -104.35 191.17 216.89 170.57" style="fill: #47feab;"/>
        </g>
        <g id="_Radial_Repeat_-7" data-name="&amp;lt;Radial Repeat&amp;gt;">
          <polygon points="216.12 176.65 -89.69 76.13 -99.51 113.4 216.12 176.65" style="fill: #47feab;"/>
        </g>
        <g id="_Radial_Repeat_-8" data-name="&amp;lt;Radial Repeat&amp;gt;">
          <polygon points="213.8 182.31 -55.57 6.07 -74.7 39.53 213.8 182.31" style="fill: #47feab;"/>
        </g>
        <g id="_Radial_Repeat_-9" data-name="&amp;lt;Radial Repeat&amp;gt;">
          <polygon points="210.09 187.19 -4.49 -52.76 -31.63 -25.4 210.09 187.19" style="fill: #47feab;"/>
        </g>
        <g id="_Radial_Repeat_-10" data-name="&amp;lt;Radial Repeat&amp;gt;">
          <polygon points="205.24 190.94 60.09 -96.37 26.79 -76.97 205.24 190.94" style="fill: #47feab;"/>
        </g>
        <g id="_Radial_Repeat_-11" data-name="&amp;lt;Radial Repeat&amp;gt;">
          <polygon points="199.6 193.31 133.74 -121.79 96.56 -111.66 199.6 193.31" style="fill: #47feab;"/>
        </g>
        <g id="_Radial_Repeat_-12" data-name="&amp;lt;Radial Repeat&amp;gt;">
          <polygon points="193.53 194.13 211.47 -127.27 172.93 -127.11 193.53 194.13" style="fill: #47feab;"/>
        </g>
        <g id="_Radial_Repeat_-13" data-name="&amp;lt;Radial Repeat&amp;gt;">
          <polygon points="187.45 193.36 287.97 -112.45 250.7 -122.27 187.45 193.36" style="fill: #47feab;"/>
        </g>
        <g id="_Radial_Repeat_-14" data-name="&amp;lt;Radial Repeat&amp;gt;">
          <polygon points="181.78 191.04 358.02 -78.33 324.57 -97.46 181.78 191.04" style="fill: #47feab;"/>
        </g>
        <g id="_Radial_Repeat_-15" data-name="&amp;lt;Radial Repeat&amp;gt;">
          <polygon points="176.91 187.33 416.86 -27.25 389.5 -54.39 176.91 187.33" style="fill: #47feab;"/>
        </g>
        <g id="_Radial_Repeat_-16" data-name="&amp;lt;Radial Repeat&amp;gt;">
          <polygon points="173.16 182.48 460.47 37.32 441.06 4.03 173.16 182.48" style="fill: #47feab;"/>
        </g>
        <g id="_Radial_Repeat_-17" data-name="&amp;lt;Radial Repeat&amp;gt;">
          <polygon points="170.79 176.83 485.88 110.98 475.76 73.8 170.79 176.83" style="fill: #47feab;"/>
        </g>
        <g id="_Radial_Repeat_-18" data-name="&amp;lt;Radial Repeat&amp;gt;">
          <polygon points="169.97 170.76 491.37 188.71 491.21 150.17 169.97 170.76" style="fill: #47feab;"/>
        </g>
        <g id="_Radial_Repeat_-19" data-name="&amp;lt;Radial Repeat&amp;gt;">
          <polygon points="170.74 164.69 476.54 265.21 486.37 227.94 170.74 164.69" style="fill: #47feab;"/>
        </g>
        <g id="_Radial_Repeat_-20" data-name="&amp;lt;Radial Repeat&amp;gt;">
          <polygon points="173.06 159.02 442.43 335.26 461.56 301.81 173.06 159.02" style="fill: #47feab;"/>
        </g>
        <g id="_Radial_Repeat_-21" data-name="&amp;lt;Radial Repeat&amp;gt;">
          <polygon points="176.77 154.14 391.34 394.1 418.48 366.73 176.77 154.14" style="fill: #47feab;"/>
        </g>
        <g id="_Radial_Repeat_-22" data-name="&amp;lt;Radial Repeat&amp;gt;">
          <polygon points="181.61 150.4 326.77 437.71 360.07 418.3 181.61 150.4" style="fill: #47feab;"/>
        </g>
        <g id="_Radial_Repeat_-23" data-name="&amp;lt;Radial Repeat&amp;gt;">
          <polygon points="187.26 148.03 253.11 463.12 290.3 452.99 187.26 148.03" style="fill: #47feab;"/>
        </g>
        <g id="_Radial_Repeat_-24" data-name="&amp;lt;Radial Repeat&amp;gt;">
          <polygon points="193.33 147.2 175.39 468.6 213.93 468.45 193.33 147.2" style="fill: #47feab;"/>
        </g>
      </g>
      <g>
        <path d="M171.93,212.81c-12.05,66.02-111.24,77.87-115.77,10" style="fill: none; stroke: #615846; stroke-linecap: round; stroke-miterlimit: 10; stroke-width: 39.4px;"/>
        <path d="M171.93,212.81c-12.05,66.02-111.24,77.87-115.77,10" style="fill: none; stroke: #d1a680; stroke-linecap: round; stroke-miterlimit: 10; stroke-width: 30.95px;"/>
      </g>
      <g>
        <path d="M242.42,199.09c46.63,48.27,135.75,3.14,101.89-55.85" style="fill: none; stroke: #615846; stroke-linecap: round; stroke-miterlimit: 10; stroke-width: 39.4px;"/>
        <path d="M242.42,199.09c46.63,48.27,135.75,3.14,101.89-55.85" style="fill: none; stroke: #d1a680; stroke-linecap: round; stroke-miterlimit: 10; stroke-width: 30.95px;"/>
      </g>
      <g>
        <path d="M475.21,357.49c6.84,54.11-40.81,145.36-73.29,161.47-94.78,47.02-122.64,49.4-196.67,58.36,0,0-114.82-25.01-148.9-102.8,0,0-5.16-68.86,8.73-85.8,9.78-11.97,53.47-57.77,84.82-68.51,33.04-11.33,127.69-30.53,163.98-44.09,24.25-9.06,105.53,3.79,121.25,24.63,5.21,6.9,26.58,25.08,31.25,32.37,4.83,6.74,7.65,15.05,8.82,24.37Z" style="fill: url(#radial-gradient); stroke: #596268; stroke-miterlimit: 10; stroke-width: 6.13px;"/>
        <path d="M475.21,357.49c6.84,54.11-41.74,142.35-74.22,158.46-94.78,47.02-121.71,52.41-195.73,61.37,0,0-114.82-25.01-148.9-102.8,92.32,78.08,114.42,76.14,114.42,76.14l30.81,12.15,11.45-3.5c80.03,4.81,166.29-45.63,166.29-45.63l-1.16-7.06s17.01-3.08,21.09-2.26c56.21-41.25,73.47-145.97,73.47-145.97,0,0,1.02-.46,2.47-.9Z" style="fill: #807d75; opacity: .3;"/>
        <path d="M395.9,294.61s27.25,10.68,4.59,22.55l2.53,9.76-26.78,7.79s-145.99,61.65-210.35,59.59c-23.43,1.68-17.87-1.67-17.87-1.67l-26.31-11.79-25.55-11.5s32.42-36.17,65.23-45.65c34.73-10.05,122.32-68.82,234.52-29.07Z" style="fill: #fff; opacity: .1;"/>
        <path d="M109.86,390.09s15.19,4.97,23.01,15.5c7.81,10.53,21.59,16.69,21.59,16.69l17.98,1.96-39.5,3.89-8.43,30.78-6.55-39.05-25.3-14.13-3.43-29.63s14.14,11.24,20.63,13.98Z" style="fill: #fff; opacity: .1;"/>
        <path d="M431.49,314.6l-14.61,20.46-24.28,10.64,32.03.73s2.59-26.11,6.86-31.83Z" style="fill: #fff; opacity: .1;"/>
      </g>
      <g>
        <ellipse id="shadow" cx="236.41" cy="322.59" rx="105.14" ry="37.2" transform="translate(-76.41 73.39) rotate(-15.22)" style="fill: #202f33; opacity: .8;"/>
        <g id="leaf">
          <path d="M198.52,30.6s-4.52-40.47,57.66-50.56c0,0,9.94,62.77-54.91,54.88" style="fill: #6dbf22; stroke: #287034; stroke-linecap: round; stroke-linejoin: round; stroke-width: 4.3px;"/>
          <path d="M200.55,31.55s-12.9,13.23-3.98,22.99" style="fill: none; stroke: #287034; stroke-miterlimit: 10; stroke-width: 5.59px;"/>
          <path d="M251.96-14.08s-45.94,6.24-49.46,41.09c24.05,2.51,44.59-8.18,49.46-41.09Z" style="fill: #e5f7d4; opacity: .2;"/>
          <path d="M205.43,21.03s9.47-24.35,37.7-28.72c-1.87,10.34-21.67,28.69-37.7,28.72Z" style="fill: #e5f7d4; opacity: .2;"/>
          <path d="M245.69-6.9c-10.1,4.61-19.08,11.68-26.81,19.59-1.51,1.47-3.57,3.87-4.99,5.46-.75.93-2.75,3.41-3.48,4.32-.79,1.02-2.47,3.42-3.25,4.48-.27.36-.8,1.14-1.04,1.52-.71,1.1-2.35,3.66-3.07,4.78-2.1,3.04-6.6.18-4.71-3.02.03-.05.07-.1.1-.15l2.29-3.1c.4-.55,1.34-1.8,1.72-2.32,1.17-1.39,3.12-3.83,4.3-5.18.81-.88,3.06-3.33,3.9-4.25,2.62-2.62,5.59-5.48,8.42-7.85,5.87-4.92,12.21-9.26,19.02-12.74,2.29-1.14,4.57-2.21,7.03-3.08.43-.15.9.07,1.05.5.15.43-.07.9-.49,1.05h0Z" style="fill: #287034;"/>
        </g>
        <g id="Body">
          <path id="Body-shape" d="M315.46,282.65c4.96,21.24-27.77,48.39-72.76,60.63-44.98,12.24-86.77,5.38-93.34-15.43-1.29-4.09-.8-9.3.53-14.63,3.2-12.84,11.31-26.36,11.31-26.36,14.83-39.56-49.24-84.21-52.12-151.63-3.04-71.23,54.41-81.42,54.41-81.42,0,0,54.65-20.32,88.38,42.56,7.84,14.62,11.81,29.93,13.81,45.1,6.15,46.58-6.16,91.84,18.7,111.87,0,0,13.06,8.2,22.29,17.05,4.39,4.2,7.91,8.56,8.78,12.27Z" style="fill: #d1a680; stroke: #615846; stroke-miterlimit: 10; stroke-width: 5.72px;"/>
          <path id="Body-bottom-shadow" d="M313.13,279.84c5.07,21.8-26.75,49.16-70.7,61.12-43.95,11.96-84.99,4.43-91.66-16.94-1.31-4.2-.89-9.52.35-14.96,1.54,1.56.19,4.14.19,4.14,0,0,1.83,46.14,89.41,22.3,88.67-24.13,65.96-65.14,65.96-65.14,0,0-2.52-1.99-2.28-3.19,4.34,4.36,7.84,8.86,8.72,12.67Z" style="fill: #615846; opacity: .3; stroke: #615846; stroke-miterlimit: 10; stroke-width: 1.33px;"/>
          <path id="Body-tophighlight" d="M250.1,105.64c-32.78-57.21-83.3-40.29-83.3-40.29,0,0-52.15,11.02-51.18,76.89.12,8.51,1.25,16.73,3.08,24.67-3.6-11.37-5.96-23.29-6.15-35.85-.97-65.87,51.55-75.53,51.55-75.53,0,0,50.16-18.28,82.93,38.93,6.25,10.91,10.3,22.38,13,33.99-2.48-7.77-5.7-15.42-9.93-22.81Z" style="fill: #e8c9ae; mix-blend-mode: luminosity; opacity: .4;"/>
          <path id="Body-bottomhighlight" d="M283.31,256.16c2.34,9.61-21.75,25.24-54.56,34.16-32.8,8.93-61.84,8.03-64.7-1.43,0,0,1.44-1.85,1.59-6.94,12.18,10.42,37.54,5.95,58.29.9,43.13-12.06,53.44-25,55.89-31.15,2.28,3.29,3.48,4.45,3.48,4.45Z" style="fill: #e8c9ae; opacity: .4;"/>
          <path d="M280.02,249.91c3.9,5.67-7.96,15.28-24.08,22.94-8.01,3.85-17.64,7.39-28.21,10.26-11.13,3.03-21.88,4.89-31.33,5.65-17.87,1.41-30.93-1.22-32.89-7.75,0,0,4.78-9.49-3.85-31.46-.09-.21-.17-.41-.23-.63,2.62,6.08,16.25,8.31,34.21,6.44,7.57-.78,15.87-2.31,24.45-4.56,8.06-2.12,15.54-4.68,22.07-7.48,17.06-7.28,28.31-16.54,26.88-23.1,0,0,3.08,15.3,12.97,29.69Z" style="fill: #c49672; stroke: #615846; stroke-linecap: round; stroke-linejoin: round; stroke-width: 2.67px;"/>
          <path id="body-zigzag" d="M166.09,257.21s5.86,22.05,5.34,28.16c4.35-10.34,5.89-26.46,5.89-26.46l9.62,27.43,10.08-28.21,11.95,26.43,8.6-30.68,17.36,24.24,1.81-30.26,18.42,24.09-4.5-30.3,19.9,19.42-7.52-27.64s9.44,15.88,16.6,19.51" style="fill: none; opacity: .3; stroke: #423128; stroke-linecap: round; stroke-linejoin: round; stroke-width: 2.81px;"/>
        </g>
        <g id="mouth">
          <path d="M194.19,186.9c-.9-3.31,1.08-6.73,4.43-7.64,3.35-.91,6.79,1.03,7.69,4.34.9,3.31-1.44,5.4-4.79,6.31-3.35.91-6.43.29-7.33-3.02Z" style="fill: #423128; stroke: #615846; stroke-miterlimit: 10; stroke-width: 1.45px;"/>
        </g>
        <g id="nose">
          <path id="shading" d="M203.25,165.24c-4.53,5.11-10.04,6.62-16.54,4.5-4.47-20.35-9.94-40.43-16.39-60.24,4.53-5.11,10.04-6.62,16.54-4.5,4.47,20.35,9.94,40.43,16.39,60.24Z" style="fill: #615846; opacity: .3; stroke: #615846; stroke-miterlimit: 10; stroke-width: 1.41px;"/>
          <path id="_3deffect" data-name="3deffect" d="M201.8,159.9c-4.53,5.11-10.04,6.62-16.54,4.5-4.47-20.35-9.94-40.43-16.39-60.24,4.53-5.11,10.04-6.62,16.54-4.5,4.47,20.35,9.94,40.43,16.39,60.24Z" style="fill: #615846; stroke: #615846; stroke-linecap: round; stroke-linejoin: round; stroke-width: 2.83px;"/>
          <path id="Toplayer" d="M201.8,159.9c-4.53,5.11-10.04,6.62-16.54,4.5-4.47-20.35-9.94-40.43-16.39-60.24,4.53-5.11,10.04-6.62,16.54-4.5,4.47,20.35,9.94,40.43,16.39,60.24Z" style="fill: #c49672; stroke: #615846; stroke-linecap: round; stroke-linejoin: round; stroke-width: 2.83px;"/>
        </g>
        <path id="eye-right" d="M172.78,157.06c1.18,10.84-5.64,18.92-15.03,19.95s-17.79-5.4-18.97-16.24c-1.18-10.84,5.47-20.46,14.86-21.49,9.39-1.02,17.96,6.94,19.14,17.78Z" style="fill: #423128; stroke: #615846; stroke-miterlimit: 10; stroke-width: 2.21px;"/>
        <path id="eye-left" d="M241.25,132.72c4.48,9.95.49,19.74-8.13,23.61-8.61,3.87-18.59.36-23.06-9.58-4.48-9.95-1.12-21.15,7.49-25.03,8.61-3.87,19.22,1.05,23.7,11Z" style="fill: #423128; stroke: #615846; stroke-miterlimit: 10; stroke-width: 2.21px;"/>
      </g>
    </g>
  </g>
</svg>