<?xml version="1.0" encoding="UTF-8"?>
<svg id="Foreground-left" xmlns="http://www.w3.org/2000/svg" viewBox="0 0 400 400">
  <g>
    <path d="M28,381.05s6.72-16.7,16.83-28.89c4.7-5.67,10.4-11.42,17.01-16.09,1.82-1.35-.32-.97-3.32,1.71s-25.08,22.7-34.39,42.76" style="fill: #222f33;"/>
    <path d="M50.41,345.51s9.39-6.67,16.57-4.34c-2.02,3.78-16.8,7.58-16.57,4.34Z" style="fill: #222f33;"/>
    <path d="M45.15,351.51s3.24-3.43,11.54-3.7c8.3-.27,8.7,2.52,8.23,2.73s-2.26-.06-5.65,1.08c-3.4,1.15-15.34,3.66-14.11-.12Z" style="fill: #222f33;"/>
    <path d="M30.23,372.28s3.24-3.43,11.54-3.7c8.3-.27,8.7,2.52,8.23,2.73s-2.26-.06-5.65,1.08-15.34,3.66-14.11-.12Z" style="fill: #222f33;"/>
    <path d="M40.58,357.58s6.35.43,11.43.02,9.06.94,9.62.04-8.32-6.08-18.85-2.33c-1.94.78-2.2,2.27-2.2,2.27Z" style="fill: #222f33;"/>
    <path d="M32.65,368.67s6.37,0,11.4-.74,9.1.33,9.6-.6-8.71-5.51-18.97-1.07c-1.89.91-2.04,2.41-2.04,2.41Z" style="fill: #222f33;"/>
    <path d="M36.24,363.39s4.34-3.99,12.2-4.89c7.85-.89,7.22,2.16,7.22,2.16,0,0-1.32-.15-6.82,1.91s-12.35,2.55-12.6.82Z" style="fill: #222f33;"/>
    <path d="M50.29,345.26s3.78-8.28.12-11.14c-2.88,2.87-2.93,12.78-.12,11.14Z" style="fill: #222f33;"/>
    <path d="M45.64,350.89s2.3-3.38.68-8.07c-1.62-4.69-4.16-3.62-4.25-3.25s.56,1.21.31,3.62c-.25,2.41.2,10.15,3.26,7.71Z" style="fill: #222f33;"/>
    <path d="M30.18,372.2s2.3-3.38.68-8.07-4.16-3.62-4.25-3.25.56,1.21.31,3.62.2,10.15,3.26,7.71Z" style="fill: #222f33;"/>
    <path d="M40.01,356.88s-1.8-3.3-2.58-6.28c-.78-2.98-2.85-4.55-2.19-5.28s7.22,1.75,6.27,9.29c-.25,1.43-1.51,2.26-1.51,2.26Z" style="fill: #222f33;"/>
    <path d="M32.23,367.48s-1.42-3.5-1.9-6.62c-.48-3.12-2.33-4.85-1.62-5.56s6.8,2.23,5.18,9.94c-.38,1.46-1.67,2.24-1.67,2.24Z" style="fill: #222f33;"/>
    <path d="M36.24,362.58s2.55-4.25,1.58-8.99c-.97-4.74-3.52-2.97-3.52-2.97,0,0,.43.65-.16,4.64-.58,3.99.51,7.98,2.1,7.31Z" style="fill: #222f33;"/>
  </g>
  <g>
    <path d="M95.67,389.85s11.16-13.02,24.94-19.31c1.74-.88-11.21-3.24-23.87,13.07" style="fill: #222f33;"/>
    <path d="M97.24,385.64s8.99-15.25,9.91-22.25c.04-1.35-13.21,15.19-12.5,23.85,0,0,1.26.26,2.58-1.6Z" style="fill: #222f33;"/>
    <path d="M95.92,383.5s4.01-16.17-4.86-24.66c-2.2-1.42,1.53,2.57.99,9.23-.54,6.67,1.34,24.14,3.87,15.43Z" style="fill: #222f33;"/>
  </g>
  <path d="M116.7,384.91c.05-.24,5.21-13.21,10.08-15.45-1.23,2.27-8.26,13.99-8.55,16.36,1.11.2,5.16-9.99,5.68-9.93.7.76-.29,9.49-1.52,10.25,2.28-2.87,11.42-11.01,12.71-17.69,1.52,1.87-1.46,13.24-11.01,19.68s-8.49,1.76-7.38-3.22Z" style="fill: #222f33;"/>
  <path d="M128.24,391.14s2.23-7.11,4.04-8.86c.35,1.11.4,5.84-1.41,8.86,2.82-7.93,8.97-13.08,13.71-15.07-.76,2.17-9.62,10.31-9.11,16.99" style="fill: #222f33;"/>
  <path d="M142.72,404.2s-4.87-8.75-4.79-15.38c1.84.26,4.11,6.86,4.37,8.73-2.6-8.8-1.26-14.39-.79-15.27,1.64,4.28,5.18,16.18,3.79,20.36-1.03-17.19,1.27-27.88,1.9-28.5,2.78,4.84,3.55,17.29,1.14,28.59,4.21-15.92,11.18-24.65,13.15-27.29,1.54,7.44-4.52,23.1-10.26,28.65,5.4-6.53,14.89-12.97,18.31-13.93-2.58,4.23-10.69,12.73-15.06,15.03-4.37,2.3-9.28,4.2-11.26,1.05" style="fill: #222f33;"/>
  <g>
    <g>
      <path d="M99.3,392.69c1.03-5.76,2.57-11.43,4.61-16.92-3.75,3.98-6.84,8.57-9.13,13.53.22-7.37,2.2-14.68,5.72-21.15-3.11,4.97-6.88,9.53-11.17,13.53.82-3.22,1.64-6.45,2.47-9.67-2.42,2.21-4.84,4.43-7.26,6.64.34-6.22,2.64-12.31,6.5-17.2-6.43,3.53-10.93,10.37-11.62,17.68.64-3.85.68-7.8.14-11.66-.59,2.97-1.9,5.79-3.79,8.15-.11-2.42-.22-4.85-.34-7.27-1.02,1.25-2.04,2.5-3.06,3.75,2.31-5.85,6.59-10.9,11.98-14.14-6.46,1.47-12.18,5.88-15.24,11.75,1.48-4.89,3.62-9.58,6.33-13.91-6.28,1.49-11.76,6.03-14.39,11.92.83-4.46,2.75-8.71,5.54-12.29-4.2,1.22-7.99,3.79-10.69,7.23l2.82-8.51c-1.89,3.64-3.78,7.29-5.68,10.93l.91-7.7c-1.82,1.69-3.32,3.73-4.38,5.98.5-2.24,1-4.48,1.49-6.73-2.67.9-5.34,1.8-8,2.7,1.08-1.78,2.16-3.56,3.24-5.34-3.43,1.19-6.42,3.62-8.3,6.73.75-2.23.93-4.65.53-6.97-1.71.86-3.41,1.72-5.12,2.58,1.17-2.97,1.25-6.34.24-9.37.67-3.82,1.34-7.64,2.01-11.46-2.89,4.97-5.79,9.94-8.68,14.92l5.62-18.69c-3.93,4.55-6.8,10.02-8.31,15.84.39-6.81,2.6-13.51,6.33-19.22-5.31,4.42-8.48,11.3-8.39,18.21.32-4.49.64-8.97.97-13.46-2.94,3.1-5.88,6.2-8.83,9.3,2.1-3.81,3.64-7.92,4.57-12.16-3.97,2.66-7.42,6.09-10.09,10.05.9-2.61,1.79-5.22,2.69-7.83-1.37,1.26-2.73,2.51-4.1,3.77.58-1.23,1.17-2.45,1.75-3.68-4.06,2.01-8.18,4.07-11.47,7.19-3.29,3.11-5.68,7.5-5.33,12.02.44,5.52,4.7,9.89,8.9,13.51,27.51,23.75,62.28,37.16,96.69,48.88,2.21.75,4.6,1.51,6.85.87,6.53-1.85,5.69-10.92,4.09-15.88-2.06-6.35-2.2-11.52-1.94-18.24-1.42,1.94-2.66,4.05-3.97,6.08-.96,1.48-3.39,4-3.7,5.72Z" style="fill: #222f33;"/>
      <path d="M26.29,372.83c-1.99.4-4-.45-5.86-1.26-9.33-4.09-18.68-8.34-27.81-12.96l9.55-31.68c2.95-2.65,6.69-4.43,10.62-4.99-4.91,2.41-8.98,6.46-11.4,11.35.97-1,1.94-2,2.92-3.01-.07,2.12-.16,4.22-.24,6.32,1.81-1.91,3.15-4.25,3.88-6.77.16,2.93-.08,5.89-.7,8.77,1.46-5.73,5.64-10.72,11.06-13.13-3.7,3.94-6.14,9.04-6.89,14.41,2.25-1.74,4.51-3.48,6.76-5.23-.94,2.73-1.9,5.46-2.84,8.19,4.01-3.15,7.6-6.81,10.67-10.89-3.53,5.36-5.78,11.53-6.52,17.89,2.34-4.12,5.37-7.86,8.9-11.03-2.15,4.58-3.9,9.35-5.22,14.25.44-1.47,2.68-3.43,3.61-4.63,1.29-1.65,2.51-3.39,3.89-4.96-.72,5.8-.99,10.28.32,15.93,1.03,4.41,1.08,12.32-4.71,13.44Z" style="fill: #222f33;"/>
      <path d="M206.33,386.32c.08,2.01.39,4.03.59,6.04.15,1.47-.24,4.41.53,5.67-2.58-4.21-4.61-8.7-6.15-13.34-.5,4.57-.32,9.19.7,13.64-3.99-4.9-6.33-10.79-7.16-16.88.35,4.88-.02,9.83-1.25,14.67-1.07-2.58-2.1-5.16-3.12-7.76-.69,2.68-1.43,5.36-2.22,8.04-2.89-4.44-3.99-9.76-3.49-14.94-2.99,5.41-3.43,12.24-.36,17.67-1.4-2.98-3.27-5.77-5.48-8.28.91,2.37,1.22,4.94.81,7.45-1.25-1.67-2.47-3.35-3.66-5.05-.25,1.33-.5,2.66-.76,3.99-.79-5.19.4-10.61,2.95-15.26-4.11,3.84-6.76,9.35-6.7,14.88-.94-4.17-1.22-8.46-.94-12.71-4.16,3.61-6.83,8.99-6.63,14.38-1.15-3.64-1.23-7.53-.41-11.24-2.85,2.47-4.99,5.72-5.95,9.27-.3-2.48-.59-4.96-.85-7.44-.21,3.42-.43,6.84-.65,10.26-.73-2.06-1.43-4.12-2.11-6.19-.91,1.89-1.45,3.94-1.54,6.02-.4-1.89-.78-3.77-1.16-5.66-1.93,1.53-3.92,3.04-5.95,4.51.34-1.71.67-3.41,1-5.12-2.52,1.94-4.37,4.65-5.02,7.62-.07-1.97-.7-3.93-1.76-5.66-1.23,1.13-2.47,2.24-3.74,3.34.14-2.66-.79-5.37-2.49-7.57-.46-3.22-.88-6.45-1.25-9.67-1.2,4.65-2.43,9.29-3.71,13.92.02-5.44.12-10.88.29-16.31-2.25,4.49-3.53,9.48-3.43,14.52-1.35-5.64-.83-11.5,1.08-16.86-3.47,4.62-4.9,10.77-3.17,16.42-.79-3.73-1.49-7.46-2.11-11.19-1.9,3.04-3.87,6.05-5.9,9.04,1.12-3.45,1.67-7.07,1.71-10.71-2.93,2.78-5.41,6.05-7.13,9.65.35-2.28.7-4.56,1.07-6.83-1,1.2-2.02,2.4-3.05,3.59.32-1.08.65-2.17.98-3.25-3.29,2.12-6.75,4.17-9.38,7-2.62,2.83-4.32,6.64-3.21,10.48,1.35,4.7,6.52,8.19,11.6,10.78,33.62,17.41,76.43,14.99,111.83.74,2.3-.9,4.73-1.95,6.1-3.75,3.9-5.24-2.84-9.84-7.06-11.85" style="fill: #222f33;"/>
    </g>
    <polygon points="-4.57 353.97 -4.57 409.79 213.19 409.79 208.5 406.22 125.73 396.84 -4.57 353.97" style="fill: #222f33;"/>
  </g>
  <g>
    <g>
      <path d="M42.15,252.92s-9.3,20.07-22.79,121.37c-6.95.26-3.86-.67-3.86-.67,0,0,14.4-98.15,22.51-120.27" style="fill: #222f33;"/>
      <path d="M57.25,203.89l3.8-12.7s.45-6.91-6.73,13.56" style="fill: #222f33;"/>
      <path d="M56.72,203.79s-6.48-2.84-11.19,8.08c-4.71,10.92-13.52,41.18-6.42,42.54s12.02-14.29,15.24-26.45c3.22-12.16,8.53-21.63,2.37-24.17Z" style="fill: #222f33;"/>
      <path d="M16.65,363.84s33.35-39.05,45.5-78.22c-7.99,2.4-41.09,54.4-47.87,76.46,0,0,7.13-55.54-12.63-76.93-.84,15.74,7.74,75.58,10.17,80.49,2.56,1.14,2.96.46,4.82-1.8Z" style="fill: #222f33;"/>
    </g>
    <path d="M13.31,245.79s5.59,21.4.89,123.49c6.79,1.48,3.92.02,3.92.02,0,0,3.25-99.15-.82-122.36" style="fill: #222f33;"/>
    <path d="M7.14,194.86l-1.48-13.17s.78-6.88,4.22,14.54" style="fill: #222f33;"/>
    <path d="M7.69,194.86s6.88-1.64,9.58,9.94c2.7,11.58,6,42.92-1.23,43-7.23.08-9.3-16.2-10.3-28.74-1.01-12.54-4.56-22.8,1.96-24.2Z" style="fill: #222f33;"/>
  </g>
  <path d="M75.41,373.48s.92-7.67,3.38-12.09c-3.42-5.5-1.4-10.71.91-10.89,2.3,2.43,1.27,9.91.39,10.74,5.68-4.03,9.31-1.05,9.96.29-2.65,1.66-8.75,2.68-10.59,1.75-2.12,1.52-2.91,8.35-2.51,11.05" style="fill: #222f33;"/>
</svg>