<?xml version="1.0" encoding="UTF-8"?>
<svg id="Layer_2" data-name="Layer 2" xmlns="http://www.w3.org/2000/svg" viewBox="0 0 29.47 38.2">
  <g id="background">
    <g>
      <path d="M24.98,30.19c.51,2.39.37,4.51-.35,4.51H4.84c-.72,0-.86-2.12-.35-4.51l1.57-7.4c.01-.06,0-.13-.04-.18-1.58-2.13-2.53-4.86-2.53-7.83,0-6.85,5.03-11.28,11.24-11.28s11.24,4.44,11.24,11.28c0,2.95-.94,5.67-2.5,7.79-.05.07-.07.17-.05.26l1.56,7.35Z" style="fill: #fff; stroke: #fff; stroke-miterlimit: 10; stroke-width: 7px;"/>
      <path d="M24.98,30.19c.51,2.39.37,4.51-.35,4.51H4.84c-.72,0-.86-2.12-.35-4.51l1.57-7.4c.01-.06,0-.13-.04-.18-1.58-2.13-2.53-4.86-2.53-7.83,0-6.85,5.03-11.28,11.24-11.28s11.24,4.44,11.24,11.28c0,2.95-.94,5.67-2.5,7.79-.05.07-.07.17-.05.26l1.56,7.35Z" style="fill: #c2f77e; stroke: #529a4a; stroke-miterlimit: 10; stroke-width: 2.08px;"/>
      <path d="M25.01,30.19c.51,2.39.38,4.51-.34,4.51h-4.83l-2.55-7.7,1.7-10.26c4.19-1.08,6.05,4.13,6.82-.17.03-.01.05-.01.08-.02-.3,2.26-1.14,4.33-2.38,6.03-.06.07-.07.17-.06.26l1.56,7.35Z" style="fill: #64cf6a; opacity: .8;"/>
      <path d="M19.84,34.7H4.88c-.13,0-.23-.08-.32-.2l5.55-9.82c1.43.68,3.03,1.05,4.72,1.05.97,0,3.27-8.76,4.16-8.99l-1.7,10.26,2.55,7.7Z" style="fill: #91fa96; opacity: .8;"/>
      <path d="M15.54,15.06c.21-2.95-2.43-7.9-4.32-11.04-4.46,1.35-7.69,5.28-7.69,10.76,0,2.81.85,5.39,2.28,7.47,3.03-1.42,6.54-3.24,8.42-4.87l1.31-2.32Z" style="fill: #edfe8a; opacity: .8;"/>
      <path d="M24.98,30.19c.51,2.39.37,4.51-.35,4.51H4.84c-.72,0-.86-2.12-.35-4.51l1.57-7.4c.01-.06,0-.13-.04-.18-1.58-2.13-2.53-4.86-2.53-7.83,0-6.85,5.03-11.28,11.24-11.28s11.24,4.44,11.24,11.28c0,2.95-.94,5.67-2.5,7.79-.05.07-.07.17-.05.26l1.56,7.35Z" style="fill: none; stroke: #529a4a; stroke-miterlimit: 10; stroke-width: 2.08px;"/>
    </g>
  </g>
</svg>