<svg width="26" height="25" viewBox="0 0 26 25" fill="none">
<path d="M25.0722 5.30363C24.4506 4.3177 23.705 3.38224 22.8284 2.52275C21.9518 1.66327 20.9977 0.932185 19.9922 0.322736L12.5925 7.57819L4.86366 0.000115678C3.88422 0.567234 2.9617 1.25829 2.12244 2.08119C1.28318 2.90408 0.578375 3.80861 -2.18301e-05 4.76896L7.72877 12.347L0.329015 19.6025C0.950584 20.5884 1.69621 21.5239 2.57278 22.3834C3.44936 23.2429 4.40343 23.9739 5.40897 24.5834L12.8087 17.3279L20.5375 24.906C21.517 24.3389 22.4395 23.6478 23.2787 22.8249C24.118 22.002 24.8228 21.0975 25.4012 20.1372L17.6724 12.5591L25.0722 5.30363Z" fill="var(--green-100)"/>
</svg>
