<svg width="53" height="53" viewBox="0 0 53 53" fill="none" xmlns="http://www.w3.org/2000/svg">
<path d="M47.9976 24.9562C47.9976 24.9172 47.9976 24.8804 47.9976 24.8413C47.9999 13.0903 38.1556 3.56543 26.0106 3.56543C13.8656 3.56543 4.02124 13.0903 4.02124 24.8413C4.02124 24.8804 4.02124 24.9172 4.02124 24.9562C4.02124 24.9953 4.02124 25.0321 4.02124 25.0712C4.02124 25.1103 4.02124 25.1471 4.02124 25.1862C4.02124 25.2253 4.02124 25.2621 4.02124 25.3012C4.02124 25.3403 4.02124 25.3771 4.02124 25.4162C4.02124 25.4553 4.02124 25.4921 4.02124 25.5311C4.02124 25.5702 4.02124 25.607 4.02124 25.6461C4.02124 25.6852 4.02124 25.722 4.02124 25.7611C4.02124 25.8002 4.02124 25.837 4.02124 25.8761C4.02124 25.9152 4.02124 25.952 4.02124 25.9911C4.02124 26.0302 4.02124 26.0669 4.02124 26.106C4.02124 26.1451 4.02124 26.1819 4.02124 26.221C4.02124 26.2601 4.02124 26.2969 4.02124 26.336C4.02124 26.3751 4.02124 26.4119 4.02124 26.451C4.02124 26.4901 4.02124 26.5269 4.02124 26.566C4.02124 26.6051 4.02124 26.6418 4.02124 26.6809C4.02124 26.72 4.02124 26.7568 4.02124 26.7959C4.02124 26.835 4.02124 26.8718 4.02124 26.9109C4.02124 26.95 4.02124 26.9868 4.02124 27.0259C4.02124 27.065 4.02124 27.1018 4.02124 27.1409C4.02124 27.18 4.02124 27.2167 4.02124 27.2558C4.02124 27.2949 4.02124 27.3317 4.02124 27.3708C4.02124 27.4099 4.02124 27.4467 4.02124 27.4858C4.02124 27.5249 4.02124 27.5617 4.02124 27.6008C4.02124 39.3517 13.8656 48.8766 26.0106 48.8766C38.1556 48.8766 48 39.3517 48 27.6008C48 27.5617 48 27.5249 48 27.4858C48 27.4467 48 27.4099 48 27.3708C48 27.3317 48 27.2949 48 27.2558C48 27.2167 48 27.18 48 27.1409C48 27.1018 48 27.065 48 27.0259C48 26.9868 48 26.95 48 26.9109C48 26.8718 48 26.835 48 26.7959C48 26.7568 48 26.72 48 26.6809C48 26.6418 48 26.6051 48 26.566C48 26.5269 48 26.4901 48 26.451C48 26.4119 48 26.3751 48 26.336C48 26.2969 48 26.2601 48 26.221C48 26.1819 48 26.1451 48 26.106C48 26.0669 48 26.0302 48 25.9911C48 25.952 48 25.9152 48 25.8761C48 25.837 48 25.8002 48 25.7611C48 25.722 48 25.6852 48 25.6461C48 25.607 48 25.5702 48 25.5311C48 25.4921 48 25.4553 48 25.4162C48 25.3771 48 25.3403 48 25.3012C48 25.2621 48 25.2253 48 25.1862C48 25.1471 48 25.1103 48 25.0712C48 25.0321 48 24.9953 48 24.9562H47.9976Z" fill="#426646"/>
<path d="M25.9893 4.5C37.873 4.5 47.4783 13.8168 47.4785 25.2754C47.4785 36.7341 37.8732 46.0518 25.9893 46.0518C14.1054 46.0517 4.5 36.7341 4.5 25.2754C4.50025 13.8169 14.1055 4.50005 25.9893 4.5Z" fill="#6DBF22" stroke="#426646"/>
<path d="M25.9336 5C34.6222 5 42.0742 10.1219 45.2412 17.415C41.6814 11.1503 34.7965 6.9043 26.8857 6.9043C15.3245 6.90433 5.95233 15.9721 5.95215 27.1582C5.95215 29.9373 6.53036 32.586 7.57715 34.9971C5.93488 32.1065 5.00006 28.7864 5 25.2549C5 14.0687 14.3723 5.00011 25.9336 5Z" fill="#A4DF7A"/>
<path d="M29.161 17.2778C28.4689 17.0978 27.7458 17 27 17C26.2542 17 25.5311 17.0978 24.839 17.2778V24.2189H18.2632C18.0926 24.9495 18 25.7128 18 26.5C18 27.2872 18.0926 28.0505 18.2632 28.7811H24.839V35.7222C25.5311 35.9022 26.2542 36 27 36C27.7458 36 28.4689 35.9022 29.161 35.7222V28.7811H35.7368C35.9074 28.0505 36 27.2872 36 26.5C36 25.7128 35.9074 24.9495 35.7368 24.2189H29.161V17.2778Z" fill="#438C55" fill-opacity="0.32"/>
<path d="M29.6611 23.7188H36.1338L36.2236 24.1055C36.4027 24.8722 36.5 25.6735 36.5 26.5C36.5 27.3265 36.4027 28.1278 36.2236 28.8945L36.1338 29.2812H29.6611V36.1084L29.2871 36.2061C28.5553 36.3965 27.7898 36.5 27 36.5C26.2102 36.5 25.4447 36.3965 24.7129 36.2061L24.3389 36.1084V29.2812H17.8662L17.7764 28.8945C17.5973 28.1278 17.5 27.3265 17.5 26.5C17.5 25.6735 17.5973 24.8722 17.7764 24.1055L17.8662 23.7188H24.3389V16.8916L24.7129 16.7939C25.4447 16.6035 26.2102 16.5 27 16.5C27.7898 16.5 28.5553 16.6035 29.2871 16.7939L29.6611 16.8916V23.7188Z" stroke="#438C55" stroke-opacity="0.32"/>
<path d="M28.6611 22.7188H35.1338L35.2236 23.1055C35.4027 23.8722 35.5 24.6735 35.5 25.5C35.5 26.3265 35.4027 27.1278 35.2236 27.8945L35.1338 28.2812H28.6611V35.1084L28.2871 35.2061C27.5553 35.3965 26.7898 35.5 26 35.5C25.2102 35.5 24.4447 35.3965 23.7129 35.2061L23.3389 35.1084V28.2812H16.8662L16.7764 27.8945C16.5973 27.1278 16.5 26.3265 16.5 25.5C16.5 24.6735 16.5973 23.8722 16.7764 23.1055L16.8662 22.7188H23.3389V15.8916L23.7129 15.7939C24.4447 15.6035 25.2102 15.5 26 15.5C26.7898 15.5 27.5553 15.6035 28.2871 15.7939L28.6611 15.8916V22.7188Z" fill="#FCFFF5" stroke="#DDF5BA"/>
</svg>
