<svg width="53" height="54" viewBox="0 0 53 54" fill="none" xmlns="http://www.w3.org/2000/svg">
<circle cx="26.5" cy="26.5" r="26" fill="url(#paint0_linear_2034_1517)" fill-opacity="0.8" stroke="#9FA29B"/>
<path d="M47.9976 25.9562C47.9976 25.9172 47.9976 25.8804 47.9976 25.8413C47.9999 14.0903 38.1556 4.56543 26.0106 4.56543C13.8656 4.56543 4.02124 14.0903 4.02124 25.8413C4.02124 25.8804 4.02124 25.9172 4.02124 25.9562C4.02124 25.9953 4.02124 26.0321 4.02124 26.0712C4.02124 26.1103 4.02124 26.1471 4.02124 26.1862C4.02124 26.2253 4.02124 26.2621 4.02124 26.3012C4.02124 26.3403 4.02124 26.3771 4.02124 26.4162C4.02124 26.4553 4.02124 26.4921 4.02124 26.5311C4.02124 26.5702 4.02124 26.607 4.02124 26.6461C4.02124 26.6852 4.02124 26.722 4.02124 26.7611C4.02124 26.8002 4.02124 26.837 4.02124 26.8761C4.02124 26.9152 4.02124 26.952 4.02124 26.9911C4.02124 27.0302 4.02124 27.0669 4.02124 27.106C4.02124 27.1451 4.02124 27.1819 4.02124 27.221C4.02124 27.2601 4.02124 27.2969 4.02124 27.336C4.02124 27.3751 4.02124 27.4119 4.02124 27.451C4.02124 27.4901 4.02124 27.5269 4.02124 27.566C4.02124 27.6051 4.02124 27.6418 4.02124 27.6809C4.02124 27.72 4.02124 27.7568 4.02124 27.7959C4.02124 27.835 4.02124 27.8718 4.02124 27.9109C4.02124 27.95 4.02124 27.9868 4.02124 28.0259C4.02124 28.065 4.02124 28.1018 4.02124 28.1409C4.02124 28.18 4.02124 28.2167 4.02124 28.2558C4.02124 28.2949 4.02124 28.3317 4.02124 28.3708C4.02124 28.4099 4.02124 28.4467 4.02124 28.4858C4.02124 28.5249 4.02124 28.5617 4.02124 28.6008C4.02124 40.3517 13.8656 49.8766 26.0106 49.8766C38.1556 49.8766 48 40.3517 48 28.6008C48 28.5617 48 28.5249 48 28.4858C48 28.4467 48 28.4099 48 28.3708C48 28.3317 48 28.2949 48 28.2558C48 28.2167 48 28.18 48 28.1409C48 28.1018 48 28.065 48 28.0259C48 27.9868 48 27.95 48 27.9109C48 27.8718 48 27.835 48 27.7959C48 27.7568 48 27.72 48 27.6809C48 27.6418 48 27.6051 48 27.566C48 27.5269 48 27.4901 48 27.451C48 27.4119 48 27.3751 48 27.336C48 27.2969 48 27.2601 48 27.221C48 27.1819 48 27.1451 48 27.106C48 27.0669 48 27.0302 48 26.9911C48 26.952 48 26.9152 48 26.8761C48 26.837 48 26.8002 48 26.7611C48 26.722 48 26.6852 48 26.6461C48 26.607 48 26.5702 48 26.5311C48 26.4921 48 26.4553 48 26.4162C48 26.3771 48 26.3403 48 26.3012C48 26.2621 48 26.2253 48 26.1862C48 26.1471 48 26.1103 48 26.0712C48 26.0321 48 25.9953 48 25.9562H47.9976Z" fill="#426646"/>
<path d="M25.9893 7.5C37.873 7.5 47.4783 16.8168 47.4785 28.2754C47.4785 39.7341 37.8732 49.0518 25.9893 49.0518C14.1054 49.0517 4.5 39.7341 4.5 28.2754C4.50025 16.8169 14.1055 7.50005 25.9893 7.5Z" fill="url(#paint1_linear_2034_1517)" stroke="#426646"/>
<path d="M25 35H20V20H25V35ZM34 35H29V20H34V35Z" fill="#438C55" fill-opacity="0.32"/>
<mask id="path-5-inside-1_2034_1517" fill="white">
<path d="M24 36H19V21H24V36ZM33 36H28V21H33V36Z"/>
</mask>
<path d="M24 36H19V21H24V36ZM33 36H28V21H33V36Z" fill="#F3F5F7"/>
<path d="M24 36V37H25V36H24ZM19 36H18V37H19V36ZM19 21V20H18V21H19ZM24 21H25V20H24V21ZM33 36V37H34V36H33ZM28 36H27V37H28V36ZM28 21V20H27V21H28ZM33 21H34V20H33V21ZM24 36V35H19V36V37H24V36ZM19 36H20V21H19H18V36H19ZM19 21V22H24V21V20H19V21ZM24 21H23V36H24H25V21H24ZM33 36V35H28V36V37H33V36ZM28 36H29V21H28H27V36H28ZM28 21V22H33V21V20H28V21ZM33 21H32V36H33H34V21H33Z" fill="#DDF5BA" mask="url(#path-5-inside-1_2034_1517)"/>
<path opacity="0.58" d="M25.9336 6C34.6222 6 42.0742 11.1219 45.2412 18.415C41.6814 12.1503 34.7965 7.9043 26.8857 7.9043C15.3245 7.90433 5.95233 16.9721 5.95215 28.1582C5.95215 30.9373 6.53036 33.586 7.57715 35.9971C5.93488 33.1065 5.00006 29.7864 5 26.2549C5 15.0687 14.3723 6.00011 25.9336 6Z" fill="#426646"/>
<defs>
<linearGradient id="paint0_linear_2034_1517" x1="26.5" y1="0" x2="26.5" y2="53" gradientUnits="userSpaceOnUse">
<stop stop-color="#5C665C"/>
<stop offset="1" stop-color="#A7A7A7"/>
</linearGradient>
<linearGradient id="paint1_linear_2034_1517" x1="25.9894" y1="5" x2="25.9894" y2="30.5" gradientUnits="userSpaceOnUse">
<stop stop-color="#426646"/>
<stop offset="1" stop-color="#6DBF22"/>
</linearGradient>
</defs>
</svg>
